<svg xmlns="http://www.w3.org/2000/svg" width="355.416107623106" height="196.81208071732942" style=""><rect id="backgroundrect" width="100%" height="100%" x="0" y="0" fill="none" stroke="none" class="" style=""/>
    <defs>
        <style>
            .cls-1{fill:#f6f5f7;opacity:0}.cls-2,.cls-3,.cls-4,.cls-5{fill:#584dfc}.cls-2{opacity:.2}.cls-4{opacity:.7}.cls-5{opacity:.4}.cls-6{fill:#767d9f}.cls-7{fill:#ae6e79}.cls-8{fill:#4c4981}.cls-9{fill:#504f60}.cls-10{fill:#9c9ca1}.cls-11{opacity:.05}.cls-12,.cls-14{opacity:.1}.cls-13{fill:#fff}.cls-14{stroke:#4c4981;stroke-miterlimit:10}.cls-15{fill:#444053}
        </style>
    </defs>
    
<g class="currentLayer" style=""><title>Layer 1</title><g id="Group_406" data-name="Group 406" class="">
        <path id="Path_865" d="M393.93126560370456,110.05282077115777 a68.405,68.405 0 0 1 -2.576,18.651 a67.705,67.705 0 0 1 -7.246,16.65 c0,18.839 -12.717,35.121 -31.176,42.867 a62.908,62.908 0 0 1 -24.34,4.813 H45.420265603704536 A78.577,78.577 0 0 1 4.759265603704534,181.99582077115775 a69.851,69.851 0 0 1 -9.337,-6.727 C-17.364734396295468,164.27982077115774 -25.290734396295463,149.09582077115772 -25.290734396295463,132.32482077115776 a68.072,68.072 0 0 1 28.74,-98.9 a65.617,65.617 0 0 1 9.592,-3.4290000000000003 q1.741,-0.47400000000000025 3.52,-0.8500000000000005 a65.95,65.95 0 0 1 9.592,-1.316 q1.749,-0.10900000000000007 3.516,-0.12400000000000007 h0.6470000000000007 c1.3,0 2.591,0.045000000000000054 3.873,0.12000000000000002 l0.42100000000000026,-0.7140000000000005 q0.775,-1.294 1.5870000000000002,-2.561 q1.466,-2.309 3.076,-4.55 q1.685,-2.365 3.516,-4.655 l0.3120000000000003,-0.3760000000000003 q1.038,-1.294 2.121,-2.557 q3.384,-3.944 7.144,-7.652 c27.115,-26.577 69.595,-43.687 117.35,-43.687 c37.159,0 71.125,10.359 97.142,27.476 a65.5,65.5 0 0 1 32.316,-8.494 c36.753,0 66.556,30.221 66.556,67.5 a69.54,69.54 0 0 1 -0.3760000000000003,7.062 a67.684,67.684 0 0 1 28.577,55.435 z" class="cls-1" data-name="Path 865"/>
        <path id="Path_866" d="M52.36827134100923,4.747818451821786 v7.652 h-7.14 q3.358,-3.941 7.14,-7.652 z" class="cls-2" data-name="Path 866"/>
        <path id="Rectangle_444" d="M55.892268838567816,2.806817017495632 h9.592 v9.592 H55.892268838567816 z" class="cls-2" data-name="Rectangle 444"/>
        <path id="Rectangle_445" d="M69.00026291815766,2.806817017495632 h9.592 v9.592 H69.00026291815766 z" class="cls-2" data-name="Rectangle 445"/>
        <path id="Rectangle_446" d="M82.11226242987641,2.806817017495632 h9.592 v9.592 H82.11226242987641 z" class="cls-2" data-name="Rectangle 446"/>
        <path id="Rectangle_447" d="M95.22127121893891,2.806817017495632 h9.592 v9.592 H95.22127121893891 z" class="cls-2" data-name="Rectangle 447"/>
        <path id="Rectangle_448" d="M108.33327073065766,2.806817017495632 h9.592 v9.592 H108.33327073065766 z" class="cls-2" data-name="Rectangle 448"/>
        <path id="Rectangle_449" d="M121.44527024237641,2.806817017495632 h9.592 v9.592 H121.44527024237641 z" class="cls-3" data-name="Rectangle 449"/>
        <path id="Rectangle_450" d="M134.55327195136078,2.806817017495632 h9.592 v9.592 H134.55327195136078 z" class="cls-2" data-name="Rectangle 450"/>
        <path id="Rectangle_451" d="M147.66527146307953,2.806817017495632 h9.592 v9.592 H147.66527146307953 z" class="cls-2" data-name="Rectangle 451"/>
        <path id="Rectangle_452" d="M160.7732731720639,2.806817017495632 h9.592 v9.592 H160.7732731720639 z" class="cls-2" data-name="Rectangle 452"/>
        <path id="Rectangle_453" d="M173.88527268378266,2.806817017495632 h9.592 v9.592 H173.88527268378266 z" class="cls-3" data-name="Rectangle 453"/>
        <path id="Rectangle_454" d="M186.9972721955014,2.806817017495632 h9.592 v9.592 H186.9972721955014 z" class="cls-2" data-name="Rectangle 454"/>
        <path id="Rectangle_455" d="M200.10525864569672,2.806817017495632 h9.592 v9.592 H200.10525864569672 z" class="cls-2" data-name="Rectangle 455"/>
        <path id="Rectangle_456" d="M213.21725815741547,2.806817017495632 h9.592 v9.592 H213.21725815741547 z" class="cls-2" data-name="Rectangle 456"/>
        <path id="Rectangle_457" d="M226.32927292792328,2.806817017495632 h9.592 v9.592 H226.32927292792328 z" class="cls-2" data-name="Rectangle 457"/>
        <path id="Rectangle_458" d="M239.43727463690766,2.806817017495632 h9.592 v9.592 H239.43727463690766 z" class="cls-2" data-name="Rectangle 458"/>
        <path id="Rectangle_459" d="M252.5492741486264,2.806817017495632 h9.592 v9.592 H252.5492741486264 z" class="cls-2" data-name="Rectangle 459"/>
        <path id="Rectangle_460" d="M265.6582524201108,2.806817017495632 h9.592 v9.592 H265.6582524201108 z" class="cls-3" data-name="Rectangle 460"/>
        <path id="Rectangle_461" d="M278.76927536932953,2.806817017495632 h9.592 v9.592 H278.76927536932953 z" class="cls-3" data-name="Rectangle 461"/>
        <path id="Rectangle_462" d="M291.8812748810483,2.806817017495632 h9.592 v9.592 H291.8812748810483 z" class="cls-2" data-name="Rectangle 462"/>
        <path id="Rectangle_463" d="M304.99025315253266,2.806817017495632 h9.592 v9.592 H304.99025315253266 z" class="cls-2" data-name="Rectangle 463"/>
        <path id="Rectangle_464" d="M318.1022526642514,2.806817017495632 h9.592 v9.592 H318.1022526642514 z" class="cls-3" data-name="Rectangle 464"/>
        <path id="Rectangle_465" d="M331.2102543732358,2.806817017495632 h9.592 v9.592 H331.2102543732358 z" class="cls-3" data-name="Rectangle 465"/>
        <path id="Path_867" d="M39.26926316229827,19.9988127145171 v4.55 h-3.08 q1.466,-2.324 3.08,-4.55 z" class="cls-3" data-name="Path 867"/>
        <path id="Rectangle_466" d="M42.780269326849066,14.956818543374538 h9.592 v9.592 H42.780269326849066 z" class="cls-2" data-name="Rectangle 466"/>
        <path id="Rectangle_467" d="M55.892268838567816,14.956818543374538 h9.592 v9.592 H55.892268838567816 z" class="cls-3" data-name="Rectangle 467"/>
        <path id="Rectangle_468" d="M69.00026291815766,14.956818543374538 h9.592 v9.592 H69.00026291815766 z" class="cls-2" data-name="Rectangle 468"/>
        <path id="Rectangle_469" d="M82.11226242987641,14.956818543374538 h9.592 v9.592 H82.11226242987641 z" class="cls-4" data-name="Rectangle 469"/>
        <path id="Rectangle_470" d="M95.22127121893891,14.956818543374538 h9.592 v9.592 H95.22127121893891 z" class="cls-2" data-name="Rectangle 470"/>
        <path id="Rectangle_471" d="M108.33327073065766,14.956818543374538 h9.592 v9.592 H108.33327073065766 z" class="cls-5" data-name="Rectangle 471"/>
        <path id="Rectangle_472" d="M121.44527024237641,14.956818543374538 h9.592 v9.592 H121.44527024237641 z" class="cls-3" data-name="Rectangle 472"/>
        <path id="Rectangle_473" d="M134.55327195136078,14.956818543374538 h9.592 v9.592 H134.55327195136078 z" class="cls-5" data-name="Rectangle 473"/>
        <path id="Rectangle_474" d="M147.66527146307953,14.956818543374538 h9.592 v9.592 H147.66527146307953 z" class="cls-2" data-name="Rectangle 474"/>
        <path id="Rectangle_475" d="M160.7732731720639,14.956818543374538 h9.592 v9.592 H160.7732731720639 z" class="cls-5" data-name="Rectangle 475"/>
        <path id="Rectangle_476" d="M173.88527268378266,14.956818543374538 h9.592 v9.592 H173.88527268378266 z" class="cls-3" data-name="Rectangle 476"/>
        <path id="Rectangle_477" d="M186.9972721955014,14.956818543374538 h9.592 v9.592 H186.9972721955014 z" class="cls-5" data-name="Rectangle 477"/>
        <path id="Rectangle_478" d="M200.10525864569672,14.956818543374538 h9.592 v9.592 H200.10525864569672 z" class="cls-5" data-name="Rectangle 478"/>
        <path id="Rectangle_479" d="M213.21725815741547,14.956818543374538 h9.592 v9.592 H213.21725815741547 z" class="cls-2" data-name="Rectangle 479"/>
        <path id="Rectangle_480" d="M226.32927292792328,14.956818543374538 h9.592 v9.592 H226.32927292792328 z" class="cls-5" data-name="Rectangle 480"/>
        <path id="Rectangle_481" d="M239.43727463690766,14.956818543374538 h9.592 v9.592 H239.43727463690766 z" class="cls-5" data-name="Rectangle 481"/>
        <path id="Rectangle_482" d="M252.5492741486264,14.956818543374538 h9.592 v9.592 H252.5492741486264 z" class="cls-2" data-name="Rectangle 482"/>
        <path id="Rectangle_483" d="M265.6582524201108,14.956818543374538 h9.592 v9.592 H265.6582524201108 z" class="cls-2" data-name="Rectangle 483"/>
        <path id="Rectangle_484" d="M278.76927536932953,14.956818543374538 h9.592 v9.592 H278.76927536932953 z" class="cls-5" data-name="Rectangle 484"/>
        <path id="Rectangle_485" d="M291.8812748810483,14.956818543374538 h9.592 v9.592 H291.8812748810483 z" class="cls-2" data-name="Rectangle 485"/>
        <path id="Rectangle_486" d="M304.99025315253266,14.956818543374538 h9.592 v9.592 H304.99025315253266 z" class="cls-3" data-name="Rectangle 486"/>
        <path id="Rectangle_487" d="M318.1022526642514,14.956818543374538 h9.592 v9.592 H318.1022526642514 z" class="cls-3" data-name="Rectangle 487"/>
        <path id="Rectangle_488" d="M331.2102543732358,14.956818543374538 h9.592 v9.592 H331.2102543732358 z" class="cls-3" data-name="Rectangle 488"/>
        <path id="Path_868" d="M13.040265542669374,29.997824555337445 v6.7 h-9.592 v-3.27 a65.621,65.621 0 0 1 9.592,-3.4290000000000003 z" class="cls-2" data-name="Path 868"/>
        <path id="Path_869" d="M26.152262307806097,27.831815033853047 v8.870000000000001 h-9.592 v-7.554 z" class="cls-2" data-name="Path 869"/>
        <path id="Rectangle_489" d="M29.668262185735784,27.10981460660696 h9.592 v9.592 H29.668262185735784 z" class="cls-3" data-name="Rectangle 489"/>
        <path id="Rectangle_490" d="M42.780269326849066,27.10981460660696 h9.592 v9.592 H42.780269326849066 z" class="cls-4" data-name="Rectangle 490"/>
        <path id="Rectangle_491" d="M55.892268838567816,27.10981460660696 h9.592 v9.592 H55.892268838567816 z" class="cls-3" data-name="Rectangle 491"/>
        <path id="Rectangle_492" d="M69.00026291815766,27.10981460660696 h9.592 v9.592 H69.00026291815766 z" class="cls-4" data-name="Rectangle 492"/>
        <path id="Rectangle_493" d="M82.11226242987641,27.10981460660696 h9.592 v9.592 H82.11226242987641 z" class="cls-4" data-name="Rectangle 493"/>
        <path id="Rectangle_494" d="M95.22127121893891,27.10981460660696 h9.592 v9.592 H95.22127121893891 z" class="cls-2" data-name="Rectangle 494"/>
        <path id="Rectangle_495" d="M108.33327073065766,27.10981460660696 h9.592 v9.592 H108.33327073065766 z" class="cls-5" data-name="Rectangle 495"/>
        <path id="Rectangle_496" d="M121.44527024237641,27.10981460660696 h9.592 v9.592 H121.44527024237641 z" class="cls-5" data-name="Rectangle 496"/>
        <path id="Rectangle_497" d="M134.55327195136078,27.10981460660696 h9.592 v9.592 H134.55327195136078 z" class="cls-3" data-name="Rectangle 497"/>
        <path id="Rectangle_498" d="M147.66527146307953,27.10981460660696 h9.592 v9.592 H147.66527146307953 z" class="cls-2" data-name="Rectangle 498"/>
        <path id="Rectangle_499" d="M160.7732731720639,27.10981460660696 h9.592 v9.592 H160.7732731720639 z" class="cls-5" data-name="Rectangle 499"/>
        <path id="Rectangle_500" d="M173.88527268378266,27.10981460660696 h9.592 v9.592 H173.88527268378266 z" class="cls-3" data-name="Rectangle 500"/>
        <path id="Rectangle_501" d="M186.9972721955014,27.10981460660696 h9.592 v9.592 H186.9972721955014 z" class="cls-2" data-name="Rectangle 501"/>
        <path id="Rectangle_502" d="M200.10525864569672,27.10981460660696 h9.592 v9.592 H200.10525864569672 z" class="cls-5" data-name="Rectangle 502"/>
        <path id="Rectangle_503" d="M213.21725815741547,27.10981460660696 h9.592 v9.592 H213.21725815741547 z" class="cls-2" data-name="Rectangle 503"/>
        <path id="Rectangle_504" d="M226.32927292792328,27.10981460660696 h9.592 v9.592 H226.32927292792328 z" class="cls-3" data-name="Rectangle 504"/>
        <path id="Rectangle_505" d="M239.43727463690766,27.10981460660696 h9.592 v9.592 H239.43727463690766 z" class="cls-2" data-name="Rectangle 505"/>
        <path id="Rectangle_506" d="M252.5492741486264,27.10981460660696 h9.592 v9.592 H252.5492741486264 z" class="cls-4" data-name="Rectangle 506"/>
        <path id="Rectangle_507" d="M265.6582524201108,27.10981460660696 h9.592 v9.592 H265.6582524201108 z" class="cls-4" data-name="Rectangle 507"/>
        <path id="Rectangle_508" d="M278.76927536932953,27.10981460660696 h9.592 v9.592 H278.76927536932953 z" class="cls-5" data-name="Rectangle 508"/>
        <path id="Rectangle_509" d="M291.8812748810483,27.10981460660696 h9.592 v9.592 H291.8812748810483 z" class="cls-2" data-name="Rectangle 509"/>
        <path id="Rectangle_510" d="M304.99025315253266,27.10981460660696 h9.592 v9.592 H304.99025315253266 z" class="cls-3" data-name="Rectangle 510"/>
        <path id="Rectangle_511" d="M318.1022526642514,27.10981460660696 h9.592 v9.592 H318.1022526642514 z" class="cls-3" data-name="Rectangle 511"/>
        <path id="Rectangle_512" d="M331.2102543732358,27.10981460660696 h9.592 v9.592 H331.2102543732358 z" class="cls-3" data-name="Rectangle 512"/>
        <path id="Rectangle_513" d="M3.448264779729925,39.25881668180227 h9.592 v9.592 H3.448264779729925 z" class="cls-2" data-name="Rectangle 513"/>
        <path id="Rectangle_514" d="M16.560264291448675,39.25881668180227 h9.592 v9.592 H16.560264291448675 z" class="cls-2" data-name="Rectangle 514"/>
        <path id="Rectangle_515" d="M29.668262185735784,39.25881668180227 h9.592 v9.592 H29.668262185735784 z" class="cls-2" data-name="Rectangle 515"/>
        <path id="Rectangle_516" d="M42.780269326849066,39.25881668180227 h9.592 v9.592 H42.780269326849066 z" class="cls-2" data-name="Rectangle 516"/>
        <path id="Rectangle_517" d="M55.892268838567816,39.25881668180227 h9.592 v9.592 H55.892268838567816 z" class="cls-3" data-name="Rectangle 517"/>
        <path id="Rectangle_518" d="M69.00026291815766,39.25881668180227 h9.592 v9.592 H69.00026291815766 z" class="cls-4" data-name="Rectangle 518"/>
        <path id="Rectangle_519" d="M82.11226242987641,39.25881668180227 h9.592 v9.592 H82.11226242987641 z" class="cls-4" data-name="Rectangle 519"/>
        <path id="Rectangle_520" d="M95.22127121893891,39.25881668180227 h9.592 v9.592 H95.22127121893891 z" class="cls-2" data-name="Rectangle 520"/>
        <path id="Rectangle_521" d="M108.33327073065766,39.25881668180227 h9.592 v9.592 H108.33327073065766 z" class="cls-2" data-name="Rectangle 521"/>
        <path id="Rectangle_522" d="M121.44527024237641,39.25881668180227 h9.592 v9.592 H121.44527024237641 z" class="cls-5" data-name="Rectangle 522"/>
        <path id="Rectangle_523" d="M134.55327195136078,39.25881668180227 h9.592 v9.592 H134.55327195136078 z" class="cls-5" data-name="Rectangle 523"/>
        <path id="Rectangle_524" d="M147.66527146307953,39.25881668180227 h9.592 v9.592 H147.66527146307953 z" class="cls-3" data-name="Rectangle 524"/>
        <path id="Rectangle_525" d="M160.7732731720639,39.25881668180227 h9.592 v9.592 H160.7732731720639 z" class="cls-2" data-name="Rectangle 525"/>
        <path id="Rectangle_526" d="M173.88527268378266,39.25881668180227 h9.592 v9.592 H173.88527268378266 z" class="cls-5" data-name="Rectangle 526"/>
        <path id="Rectangle_527" d="M186.9972721955014,39.25881668180227 h9.592 v9.592 H186.9972721955014 z" class="cls-5" data-name="Rectangle 527"/>
        <path id="Rectangle_528" d="M200.10525864569672,39.25881668180227 h9.592 v9.592 H200.10525864569672 z" class="cls-5" data-name="Rectangle 528"/>
        <path id="Rectangle_529" d="M213.21725815741547,39.25881668180227 h9.592 v9.592 H213.21725815741547 z" class="cls-5" data-name="Rectangle 529"/>
        <path id="Rectangle_530" d="M226.32927292792328,39.25881668180227 h9.592 v9.592 H226.32927292792328 z" class="cls-2" data-name="Rectangle 530"/>
        <path id="Rectangle_531" d="M239.43727463690766,39.25881668180227 h9.592 v9.592 H239.43727463690766 z" class="cls-2" data-name="Rectangle 531"/>
        <path id="Rectangle_532" d="M252.5492741486264,39.25881668180227 h9.592 v9.592 H252.5492741486264 z" class="cls-2" data-name="Rectangle 532"/>
        <path id="Rectangle_533" d="M265.6582524201108,39.25881668180227 h9.592 v9.592 H265.6582524201108 z" class="cls-2" data-name="Rectangle 533"/>
        <path id="Rectangle_534" d="M278.76927536932953,39.25881668180227 h9.592 v9.592 H278.76927536932953 z" class="cls-4" data-name="Rectangle 534"/>
        <path id="Rectangle_535" d="M291.8812748810483,39.25881668180227 h9.592 v9.592 H291.8812748810483 z" class="cls-4" data-name="Rectangle 535"/>
        <path id="Rectangle_536" d="M304.99025315253266,39.25881668180227 h9.592 v9.592 H304.99025315253266 z" class="cls-5" data-name="Rectangle 536"/>
        <path id="Rectangle_537" d="M318.1022526642514,39.25881668180227 h9.592 v9.592 H318.1022526642514 z" class="cls-2" data-name="Rectangle 537"/>
        <path id="Rectangle_538" d="M331.2102543732358,39.25881668180227 h9.592 v9.592 H331.2102543732358 z" class="cls-3" data-name="Rectangle 538"/>
        <path id="Rectangle_539" d="M3.448264779729925,51.41181655973196 h9.592 v9.592 H3.448264779729925 z" class="cls-2" data-name="Rectangle 539"/>
        <path id="Rectangle_540" d="M16.560264291448675,51.41181655973196 h9.592 v9.592 H16.560264291448675 z" class="cls-2" data-name="Rectangle 540"/>
        <path id="Rectangle_541" d="M29.668262185735784,51.41181655973196 h9.592 v9.592 H29.668262185735784 z" class="cls-5" data-name="Rectangle 541"/>
        <path id="Rectangle_542" d="M42.780269326849066,51.41181655973196 h9.592 v9.592 H42.780269326849066 z" class="cls-2" data-name="Rectangle 542"/>
        <path id="Rectangle_543" d="M55.892268838567816,51.41181655973196 h9.592 v9.592 H55.892268838567816 z" class="cls-2" data-name="Rectangle 543"/>
        <path id="Rectangle_544" d="M69.00026291815766,51.41181655973196 h9.592 v9.592 H69.00026291815766 z" class="cls-4" data-name="Rectangle 544"/>
        <path id="Rectangle_545" d="M82.11226242987641,51.41181655973196 h9.592 v9.592 H82.11226242987641 z" class="cls-4" data-name="Rectangle 545"/>
        <path id="Rectangle_546" d="M95.22127121893891,51.41181655973196 h9.592 v9.592 H95.22127121893891 z" class="cls-2" data-name="Rectangle 546"/>
        <path id="Rectangle_547" d="M108.33327073065766,51.41181655973196 h9.592 v9.592 H108.33327073065766 z" class="cls-2" data-name="Rectangle 547"/>
        <path id="Rectangle_548" d="M121.44527024237641,51.41181655973196 h9.592 v9.592 H121.44527024237641 z" class="cls-5" data-name="Rectangle 548"/>
        <path id="Rectangle_549" d="M134.55327195136078,51.41181655973196 h9.592 v9.592 H134.55327195136078 z" class="cls-3" data-name="Rectangle 549"/>
        <path id="Rectangle_550" d="M147.66527146307953,51.41181655973196 h9.592 v9.592 H147.66527146307953 z" class="cls-2" data-name="Rectangle 550"/>
        <path id="Rectangle_551" d="M160.7732731720639,51.41181655973196 h9.592 v9.592 H160.7732731720639 z" class="cls-3" data-name="Rectangle 551"/>
        <path id="Rectangle_552" d="M173.88527268378266,51.41181655973196 h9.592 v9.592 H173.88527268378266 z" class="cls-3" data-name="Rectangle 552"/>
        <path id="Rectangle_553" d="M186.9972721955014,51.41181655973196 h9.592 v9.592 H186.9972721955014 z" class="cls-3" data-name="Rectangle 553"/>
        <path id="Rectangle_554" d="M200.10525864569672,51.41181655973196 h9.592 v9.592 H200.10525864569672 z" class="cls-2" data-name="Rectangle 554"/>
        <path id="Rectangle_555" d="M213.21725815741547,51.41181655973196 h9.592 v9.592 H213.21725815741547 z" class="cls-3" data-name="Rectangle 555"/>
        <path id="Rectangle_556" d="M226.32927292792328,51.41181655973196 h9.592 v9.592 H226.32927292792328 z" class="cls-2" data-name="Rectangle 556"/>
        <path id="Rectangle_557" d="M239.43727463690766,51.41181655973196 h9.592 v9.592 H239.43727463690766 z" class="cls-2" data-name="Rectangle 557"/>
        <path id="Rectangle_558" d="M252.5492741486264,51.41181655973196 h9.592 v9.592 H252.5492741486264 z" class="cls-2" data-name="Rectangle 558"/>
        <path id="Rectangle_559" d="M265.6582524201108,51.41181655973196 h9.592 v9.592 H265.6582524201108 z" class="cls-2" data-name="Rectangle 559"/>
        <path id="Rectangle_560" d="M278.76927536932953,51.41181655973196 h9.592 v9.592 H278.76927536932953 z" class="cls-2" data-name="Rectangle 560"/>
        <path id="Rectangle_561" d="M291.8812748810483,51.41181655973196 h9.592 v9.592 H291.8812748810483 z" class="cls-4" data-name="Rectangle 561"/>
        <path id="Rectangle_562" d="M304.99025315253266,51.41181655973196 h9.592 v9.592 H304.99025315253266 z" class="cls-2" data-name="Rectangle 562"/>
        <path id="Rectangle_563" d="M318.1022526642514,51.41181655973196 h9.592 v9.592 H318.1022526642514 z" class="cls-2" data-name="Rectangle 563"/>
        <path id="Rectangle_564" d="M331.2102543732358,51.41181655973196 h9.592 v9.592 H331.2102543732358 z" class="cls-3" data-name="Rectangle 564"/>
        <path id="Rectangle_565" d="M3.448264779729925,63.56081863492727 h9.592 v9.592 H3.448264779729925 z" class="cls-2" data-name="Rectangle 565"/>
        <path id="Rectangle_566" d="M16.560264291448675,63.56081863492727 h9.592 v9.592 H16.560264291448675 z" class="cls-2" data-name="Rectangle 566"/>
        <path id="Rectangle_567" d="M29.668262185735784,63.56081863492727 h9.592 v9.592 H29.668262185735784 z" class="cls-2" data-name="Rectangle 567"/>
        <path id="Rectangle_568" d="M42.780269326849066,63.56081863492727 h9.592 v9.592 H42.780269326849066 z" class="cls-5" data-name="Rectangle 568"/>
        <path id="Rectangle_569" d="M55.892268838567816,63.56081863492727 h9.592 v9.592 H55.892268838567816 z" class="cls-2" data-name="Rectangle 569"/>
        <path id="Rectangle_570" d="M69.00026291815766,63.56081863492727 h9.592 v9.592 H69.00026291815766 z" class="cls-2" data-name="Rectangle 570"/>
        <path id="Rectangle_571" d="M82.11226242987641,63.56081863492727 h9.592 v9.592 H82.11226242987641 z" class="cls-4" data-name="Rectangle 571"/>
        <path id="Rectangle_572" d="M95.22127121893891,63.56081863492727 h9.592 v9.592 H95.22127121893891 z" class="cls-2" data-name="Rectangle 572"/>
        <path id="Rectangle_573" d="M108.33327073065766,63.56081863492727 h9.592 v9.592 H108.33327073065766 z" class="cls-2" data-name="Rectangle 573"/>
        <path id="Rectangle_574" d="M121.44527024237641,63.56081863492727 h9.592 v9.592 H121.44527024237641 z" class="cls-2" data-name="Rectangle 574"/>
        <path id="Rectangle_575" d="M134.55327195136078,63.56081863492727 h9.592 v9.592 H134.55327195136078 z" class="cls-3" data-name="Rectangle 575"/>
        <path id="Rectangle_576" d="M147.66527146307953,63.56081863492727 h9.592 v9.592 H147.66527146307953 z" class="cls-2" data-name="Rectangle 576"/>
        <path id="Rectangle_577" d="M160.7732731720639,63.56081863492727 h9.592 v9.592 H160.7732731720639 z" class="cls-3" data-name="Rectangle 577"/>
        <path id="Rectangle_578" d="M173.88527268378266,63.56081863492727 h9.592 v9.592 H173.88527268378266 z" class="cls-3" data-name="Rectangle 578"/>
        <path id="Rectangle_579" d="M186.9972721955014,63.56081863492727 h9.592 v9.592 H186.9972721955014 z" class="cls-2" data-name="Rectangle 579"/>
        <path id="Rectangle_580" d="M200.10525864569672,63.56081863492727 h9.592 v9.592 H200.10525864569672 z" class="cls-2" data-name="Rectangle 580"/>
        <path id="Rectangle_581" d="M213.21725815741547,63.56081863492727 h9.592 v9.592 H213.21725815741547 z" class="cls-2" data-name="Rectangle 581"/>
        <path id="Rectangle_582" d="M226.32927292792328,63.56081863492727 h9.592 v9.592 H226.32927292792328 z" class="cls-2" data-name="Rectangle 582"/>
        <path id="Rectangle_583" d="M239.43727463690766,63.56081863492727 h9.592 v9.592 H239.43727463690766 z" class="cls-2" data-name="Rectangle 583"/>
        <path id="Rectangle_584" d="M252.5492741486264,63.56081863492727 h9.592 v9.592 H252.5492741486264 z" class="cls-2" data-name="Rectangle 584"/>
        <path id="Rectangle_585" d="M265.6582524201108,63.56081863492727 h9.592 v9.592 H265.6582524201108 z" class="cls-2" data-name="Rectangle 585"/>
        <path id="Rectangle_586" d="M278.76927536932953,63.56081863492727 h9.592 v9.592 H278.76927536932953 z" class="cls-2" data-name="Rectangle 586"/>
        <path id="Rectangle_587" d="M291.8812748810483,63.56081863492727 h9.592 v9.592 H291.8812748810483 z" class="cls-2" data-name="Rectangle 587"/>
        <path id="Rectangle_588" d="M304.99025315253266,63.56081863492727 h9.592 v9.592 H304.99025315253266 z" class="cls-2" data-name="Rectangle 588"/>
        <path id="Rectangle_589" d="M318.1022526642514,63.56081863492727 h9.592 v9.592 H318.1022526642514 z" class="cls-5" data-name="Rectangle 589"/>
        <path id="Rectangle_590" d="M331.2102543732358,63.56081863492727 h9.592 v9.592 H331.2102543732358 z" class="cls-3" data-name="Rectangle 590"/>
        <path id="Rectangle_591" d="M3.448264779729925,75.71481796354055 h9.592 v9.592 H3.448264779729925 z" class="cls-4" data-name="Rectangle 591"/>
        <path id="Rectangle_592" d="M16.560264291448675,75.71481796354055 h9.592 v9.592 H16.560264291448675 z" class="cls-4" data-name="Rectangle 592"/>
        <path id="Rectangle_593" d="M29.668262185735784,75.71481796354055 h9.592 v9.592 H29.668262185735784 z" class="cls-4" data-name="Rectangle 593"/>
        <path id="Rectangle_594" d="M42.780269326849066,75.71481796354055 h9.592 v9.592 H42.780269326849066 z" class="cls-4" data-name="Rectangle 594"/>
        <path id="Rectangle_595" d="M55.892268838567816,75.71481796354055 h9.592 v9.592 H55.892268838567816 z" class="cls-4" data-name="Rectangle 595"/>
        <path id="Rectangle_596" d="M69.00026291815766,75.71481796354055 h9.592 v9.592 H69.00026291815766 z" class="cls-2" data-name="Rectangle 596"/>
        <path id="Rectangle_597" d="M82.11226242987641,75.71481796354055 h9.592 v9.592 H82.11226242987641 z" class="cls-2" data-name="Rectangle 597"/>
        <path id="Rectangle_598" d="M95.22127121893891,75.71481796354055 h9.592 v9.592 H95.22127121893891 z" class="cls-2" data-name="Rectangle 598"/>
        <path id="Rectangle_599" d="M108.33327073065766,75.71481796354055 h9.592 v9.592 H108.33327073065766 z" class="cls-2" data-name="Rectangle 599"/>
        <path id="Rectangle_600" d="M121.44527024237641,75.71481796354055 h9.592 v9.592 H121.44527024237641 z" class="cls-2" data-name="Rectangle 600"/>
        <path id="Rectangle_601" d="M134.55327195136078,75.71481796354055 h9.592 v9.592 H134.55327195136078 z" class="cls-2" data-name="Rectangle 601"/>
        <path id="Rectangle_602" d="M147.66527146307953,75.71481796354055 h9.592 v9.592 H147.66527146307953 z" class="cls-3" data-name="Rectangle 602"/>
        <path id="Rectangle_603" d="M160.7732731720639,75.71481796354055 h9.592 v9.592 H160.7732731720639 z" class="cls-2" data-name="Rectangle 603"/>
        <path id="Rectangle_604" d="M173.88527268378266,75.71481796354055 h9.592 v9.592 H173.88527268378266 z" class="cls-2" data-name="Rectangle 604"/>
        <path id="Rectangle_605" d="M186.9972721955014,75.71481796354055 h9.592 v9.592 H186.9972721955014 z" class="cls-2" data-name="Rectangle 605"/>
        <path id="Rectangle_606" d="M200.10525864569672,75.71481796354055 h9.592 v9.592 H200.10525864569672 z" class="cls-3" data-name="Rectangle 606"/>
        <path id="Rectangle_607" d="M213.21725815741547,75.71481796354055 h9.592 v9.592 H213.21725815741547 z" class="cls-2" data-name="Rectangle 607"/>
        <path id="Rectangle_608" d="M226.32927292792328,75.71481796354055 h9.592 v9.592 H226.32927292792328 z" class="cls-2" data-name="Rectangle 608"/>
        <path id="Rectangle_609" d="M239.43727463690766,75.71481796354055 h9.592 v9.592 H239.43727463690766 z" class="cls-2" data-name="Rectangle 609"/>
        <path id="Rectangle_610" d="M252.5492741486264,75.71481796354055 h9.592 v9.592 H252.5492741486264 z" class="cls-2" data-name="Rectangle 610"/>
        <path id="Rectangle_611" d="M265.6582524201108,75.71481796354055 h9.592 v9.592 H265.6582524201108 z" class="cls-2" data-name="Rectangle 611"/>
        <path id="Rectangle_612" d="M278.76927536932953,75.71481796354055 h9.592 v9.592 H278.76927536932953 z" class="cls-2" data-name="Rectangle 612"/>
        <path id="Rectangle_613" d="M291.8812748810483,75.71481796354055 h9.592 v9.592 H291.8812748810483 z" class="cls-2" data-name="Rectangle 613"/>
        <path id="Rectangle_614" d="M304.99025315253266,75.71481796354055 h9.592 v9.592 H304.99025315253266 z" class="cls-2" data-name="Rectangle 614"/>
        <path id="Rectangle_615" d="M318.1022526642514,75.71481796354055 h9.592 v9.592 H318.1022526642514 z" class="cls-2" data-name="Rectangle 615"/>
        <path id="Rectangle_616" d="M331.2102543732358,75.71481796354055 h9.592 v9.592 H331.2102543732358 z" class="cls-3" data-name="Rectangle 616"/>
        <circle id="Ellipse_148" cx="239.9562644958496" cy="97.89282608032227" r="13.112000465393066" class="cls-6" data-name="Ellipse 148"/>
        <path id="Path_870" d="M239.27527927557958,81.2118205270171 q1.963,8.566 3.332,17.26 a10.054,10.054 0 0 1 -0.10500000000000002,5.167 a17.865,17.865 0 0 1 -2.422,3.606 a4.583,4.583 0 0 0 -0.9590000000000005,4.072 c0.508,1.361 1.9889999999999999,2.106 3.4,2.489 c4.046,1.091 8.359,0.30000000000000027 12.386,-0.8840000000000007 a20.038,20.038 0 0 0 5.193,-2.151 a19.434,19.434 0 0 0 4.392,-4.136 c5.87,-7.118 9.713000000000001,-15.661 13.33,-24.152 a14.71,14.71 0 0 1 -12.45,-5.016 c-1.481,-1.741 -2.568,-4.166 -1.734,-6.295 c-2.448,1.342 -5.354,1.433 -7.99,2.35 a28.391000000000002,28.391000000000002 0 0 0 -4.7,2.313 q-2.7,1.561 -5.37,3.181 c-2.031,1.226 -3.9370000000000003,2.316 -6.303,2.196 z" class="cls-7" data-name="Path 870"/>
        <path id="Path_871" d="M266.69926145331397,91.05581906217338 c-2.3,4.471 -5.287,8.769 -9.555,11.431000000000001 s-10.013,3.384 -14.289,0.7520000000000006 c-2.106,-1.286 -3.7,-3.241 -5.539,-4.888 s-4.136,-3.057 -6.607,-2.843 c-2.722,0.23700000000000004 -4.854,2.361 -6.678,4.4 a52.239,52.239 0 0 0 -7.4,9.972 c-3.7600000000000002,7.032 -4.651,15.252 -4.486,23.223 s1.32,15.9 1.346,23.874 c0.03800000000000001,9.807 -1.624,19.534 -3.305,29.194 c15.455,-1.9 30.928,2.2560000000000002 46.416,3.832 c9.912,1.019 19.9,1 29.864,0.97 c1.7520000000000002,0 3.617,-0.045000000000000054 5.076,-1.015 a6.843,6.843 0 0 0 2.1,-2.5 a23.894,23.894 0 0 0 2.313,-8.295 a167.959,167.959 0 0 0 1.03,-21.84 c0.06800000000000009,-17.673000000000002 0.132,-35.41 -2.113,-52.944 a49.9,49.9 0 0 0 -2.914,-12.683 a19.9,19.9 0 0 0 -8.13,-9.908 c-2.425,-1.391 -8.047,-3.813 -10.9,-2.41 c-3.21,1.5630000000000002 -4.692,8.685 -6.229,11.678 z" class="cls-6" data-name="Path 871"/>
        <path id="Path_872" d="M267.84227390448575,140.961831025064 c-0.5830000000000005,-10.9 -2.955,-22.543 2.094,-32.222 c1.241,-2.376 -3.211,-5.343 -1.835,-7.6450000000000005 a34.628,34.628 0 0 0 3.783,-9 a6.79,6.79 0 0 0 0.24500000000000013,-3.3280000000000003 c-0.5,-1.9889999999999999 -2.467,-3.174 -4.136,-4.384 c-1.843,-1.339 -2.79,-5.4190000000000005 -3.384,-7.626 s4.727,0.451 6.866,-0.3350000000000004 c2.9699999999999998,-1.087 6.746,-0.4 9.709,0.7000000000000005 a16.206,16.206 0 0 0 5.215,0.7070000000000005 a68.715,68.715 0 0 0 10.262,-0.24400000000000013 a25.519,25.519 0 0 1 4.591,-0.3950000000000004 c3.915,0.22200000000000017 7.318,2.9 9.634,6.065 s3.791,6.855 5.689,10.284 c1.5830000000000002,2.858 3.471,5.558 4.821,8.532 a52.544,52.544 0 0 1 2.7,8.273 l1.929,7.216 a9.618,9.618 0 0 1 0.47400000000000025,3.2 a9.085,9.085 0 0 1 -1.1280000000000001,3.2560000000000002 a61.722,61.722 0 0 1 -7.021,10.713000000000001 c-4.057,4.975 -8.983,9.461 -11.393,15.417 a38.923,38.923 0 0 0 -1.94,7.246 a266.244,266.244 0 0 0 -4.1,29.762 a65.509,65.509 0 0 0 -13.732,-4.591 a66.773,66.773 0 0 0 -7.145,-1.1280000000000001 c-2.1,-0.21800000000000014 -4.813,0.2 -6.814,-0.3760000000000003 c-3.347,-0.9510000000000005 -3.715,-6.611 -4.223,-9.574 a87.427,87.427 0 0 1 -1,-14.289 c-0.040000000000000036,-5.42 0.129,-10.831 -0.16100000000000017,-16.234 z" class="cls-8" data-name="Path 872"/>
        <path id="Path_873" d="M194.34825095526708,120.56981637662648 c1.5830000000000002,9.025 3.3280000000000003,18.076 6.768,26.555 c-0.0860000000000001,0.08300000000000009 -0.17300000000000001,0.15800000000000014 -0.259,0.233 c-0.30000000000000027,0.26 -0.6200000000000006,0.5 -0.9510000000000005,0.7520000000000006 a12.668,12.668 0 0 0 -2.2560000000000002,1.707 a3.01,3.01 0 0 0 -0.5640000000000005,0.921 a2.061,2.061 0 0 0 0,1.681 c-1.794,0.793 -3.8770000000000002,0.549 -5.888,0.47400000000000025 a7.726,7.726 0 0 0 -4.806,0.9510000000000005 c-1.933,1.331 -2.516,3.888 -2.8280000000000003,6.212 q-0.17300000000000001,1.271 -0.30000000000000027,2.5460000000000003 q-0.12000000000000002,1.184 -0.2,2.376 a70.9,70.9 0 0 0 -0.07100000000000002,7.9 q0.030000000000000034,0.7220000000000005 0.07900000000000007,1.444 c-6.144,-0.14700000000000013 -11.743,-3.35 -17.041,-6.464 a9.4,9.4 0 0 1 -3.245,-2.632 a5.941,5.941 0 0 1 -0.8690000000000005,-3.869 a4.3,4.3 0 0 1 0.06000000000000005,-0.5720000000000005 a15.644,15.644 0 0 1 0.8610000000000005,-3.2640000000000002 a40.31,40.31 0 0 1 7.216,-12.277 c1.346,-1.572 2.862,-3.11 3.489,-5.084 c0.275,-0.8610000000000005 0.3760000000000003,-1.775 0.6540000000000007,-2.632 c1.248,-3.715 5.753,-5.471 7.295,-9.077 a27.565,27.565 0 0 1 1.015,-2.632 a6.63,6.63 0 0 1 1.6,-1.786 c0.274,-0.2290000000000002 0.56,-0.451 0.8420000000000005,-0.6730000000000008 q3.963,-3.106 7.6370000000000005,-6.562 q0.6850000000000008,-0.6430000000000007 1.354,-1.3 a22.361,22.361 0 0 0 0.4,5.076 z" class="cls-8" data-name="Path 873"/>
        <path id="Path_874" d="M232.24126780097015,93.87982907193901 c-0.541,0.5720000000000005 -1.1280000000000001,1.109 -1.7000000000000002,1.6430000000000002 l-0.15400000000000014,0.139 l-0.6090000000000005,0.5640000000000005 a14.662,14.662 0 0 0 -2.839,3.305 l-0.06400000000000007,0.10500000000000002 c-1.9180000000000001,3.433 -1.207,7.66 -0.6730000000000008,11.559 a98.375,98.375 0 0 1 0.8910000000000007,14.665000000000001 c-0.1,6.768 -0.9,13.492 -0.91,20.253 q0,2.3 0.1,4.6 c0.10900000000000007,2.493 0.30000000000000027,4.982 0.523,7.472 c0.24500000000000013,2.73 0.538,5.456 0.812,8.182 c0.21800000000000014,2.109 0.42500000000000027,4.215 0.6000000000000005,6.321 c0.0870000000000001,1.091 0.16900000000000023,2.177 0.23700000000000004,3.268 c0.07900000000000007,1.279 0.14300000000000004,2.561 0.18000000000000013,3.839 c0.026000000000000034,0.812 0.041000000000000036,1.621 0.041000000000000036,2.433 v1.3800000000000001 q0,1.32 -0.07100000000000002,2.632 q-0.07500000000000002,1.6880000000000006 -0.2290000000000002,3.384 a5.487,5.487 0 0 1 -1.188,3.4370000000000003 c-0.053000000000000054,0.053000000000000054 -0.10900000000000007,0.1 -0.1660000000000002,0.15000000000000013 l-1.218,-0.15000000000000013 a125.106,125.106 0 0 0 -25.307,-0.451 c0.18400000000000014,-1.271 0.35300000000000026,-2.5380000000000003 0.519,-3.813 c0.07500000000000002,-0.6000000000000005 0.15000000000000013,-1.207 0.22200000000000017,-1.812 q0.12400000000000007,-1.038 0.23700000000000004,-2.076 q0.13,-1.1280000000000001 0.24100000000000013,-2.2560000000000002 q0.29300000000000026,-2.907 0.515,-5.817 q0.32700000000000035,-4.245 0.5,-8.506 q0.08300000000000009,-2.034 0.128,-4.072 q0.06400000000000007,-2.527 0.06000000000000005,-5.058 q0,-2.459 -0.041000000000000036,-4.926 c0,-0.541 -0.023000000000000034,-1.083 -0.06800000000000009,-1.621 a10.277,10.277 0 0 0 -0.2,-1.44 a18.75,18.75 0 0 0 -1.1280000000000001,-3.189 c-0.08300000000000009,-0.2 -0.16200000000000017,-0.3760000000000003 -0.24100000000000013,-0.5830000000000005 c-0.045000000000000054,-0.1 -0.0860000000000001,-0.20700000000000013 -0.128,-0.3080000000000003 a28.125,28.125 0 0 0 5.189,-7.054 c2.4,-4.095 4.862,-8.37 5.264,-13.1 s-1.948,-10.044 -6.468,-11.487 a31.4,31.4 0 0 0 -3.8,-0.7000000000000005 a16.685,16.685 0 0 1 -5.073,-1.545 q-1.1280000000000001,1.158 -2.2560000000000002,2.275 a8.33,8.33 0 0 1 0.8160000000000005,-3.275 l0.534,0.026000000000000034 a1.018,1.018 0 0 1 -0.06000000000000005,-0.3760000000000003 a1.976,1.976 0 0 1 0.8720000000000006,-1.361 c1.771,-1.5 4.557,-1.839 5.674,-3.873 a28.264,28.264 0 0 0 0.921,-2.741 c1.079,-2.531 4.178,-3.463 6.043,-5.486 s2.331,-4.888 3.839,-7.144 a10.762,10.762 0 0 1 4.5120000000000005,-3.7600000000000002 c0.15000000000000013,-0.07100000000000002 0.30000000000000027,-0.14300000000000004 0.459,-0.20700000000000013 a26.038,26.038 0 0 1 10.062,-1.6320000000000001 c1.256,0 4.5120000000000005,0.03800000000000001 6.107,0.6730000000000008 a2,2 0 0 1 0.7000000000000005,0.42500000000000027 c1.6920000000000006,1.844 -0.9510000000000005,5.751 -2.207,7.089 z" class="cls-8" data-name="Path 874"/>
        <path id="Path_875" d="M194.90925803534515,111.97780734342336 a22.892,22.892 0 0 1 17.575,1.831 a16.623,16.623 0 0 1 6.625,6.3100000000000005 c2.237,4.061 2.14,8.957 1.982,13.593 a16.585,16.585 0 0 1 -1.2,6.806 c-1.184,2.41 -3.418,4.065 -5.7,5.4190000000000005 a15.885,15.885 0 0 1 -4.633,2 c-2.527,0.549 -5.151,0.08300000000000009 -7.7,-0.3760000000000003 c-2.7670000000000003,-0.511 -5.738,-1.1280000000000001 -7.66,-3.189 a13.083,13.083 0 0 1 -2.354,-4.268 q-1.312,-3.29 -2.632,-6.573 c-1.5230000000000001,-3.8 -2.038,-6.964 -0.026000000000000034,-10.668 c0.914,-1.6880000000000006 2.031,-3.268 2.933,-4.9670000000000005 c0.451,-0.8600000000000005 2.072,-5.695 2.79,-5.918 z" class="cls-8" data-name="Path 875"/>
        <path id="Path_876" d="M352.94426792304046,176.981811493814 v11.243 a62.908,62.908 0 0 1 -24.34,4.813 h-101.41 c-0.053000000000000054,0.053000000000000054 -0.10900000000000007,0.1 -0.1650000000000002,0.15000000000000013 l-1.218,-0.15000000000000013 H45.420267923040484 A78.577,78.577 0 0 1 4.757267923040473,181.99881149381395 v-17.167 l86.756,-10.013 h0.06800000000000009 l50.523,4.279 l13.074,1.1280000000000001 l6.791,0.5750000000000005 l14.056,1.192 l7.231,0.6130000000000005 l10.529,0.9 l1.482,0.12400000000000007 l7.588,0.6430000000000007 l10.3,0.8460000000000005 l14.477,1.226 l24.133,2.049 l16.977,1.44 L296.6162679230405,172.198811493814 l5.3,0.44700000000000034 l0.5720000000000005,0.04900000000000004 l0.5,0.041000000000000036 l7,0.5940000000000005 l7.686,0.6540000000000007 l0.8910000000000007,0.07500000000000002 z" class="cls-9" data-name="Path 876"/>
        <path id="Path_877" d="M251.0412587677671,176.567803681314 L142.31725876776704,158.01080368131397 l-4.215,21.317 l49.838,5.968 l15.346,1.921 l42.213,-8.314 z" class="cls-10" data-name="Path 877"/>
        <path id="Path_878" d="M194.7622697540952,186.14881832975152 l54.47,-10.239 a1.8800000000000003,1.8800000000000003 0 0 1 2.234,1.854 a1.8800000000000003,1.8800000000000003 0 0 1 -1.538,1.854 l-53.2,9.961 z" class="cls-10" data-name="Path 878"/>
        <path id="Path_879" d="M218.39125608222014,153.95080539029834 a14.044,14.044 0 0 0 4.941,-1.177 c1.8800000000000003,-0.936 3.343,-2.549 5.084,-3.738 a15.141,15.141 0 0 1 13.338000000000001,-1.474 a21.485,21.485 0 0 1 10.615,8.615 c1.7000000000000002,2.576 2.982,5.862 1.779,8.7 a11.472,11.472 0 0 1 -1.549,2.422 l-3.136,4.1 a10.906,10.906 0 0 1 -2.128,2.29 a9.043,9.043 0 0 1 -4.069,1.4140000000000001 c-3.817,0.557 -7.7,0.24100000000000013 -11.548,0.5 c-6.607,0.4400000000000003 -13.059,2.568 -19.681,2.5 a59.327,59.327 0 0 1 -11.281,-1.576 l-16.459,-3.384 c-2.865,-0.5870000000000005 -6.1,-1.444 -7.453,-4.042 a9.371,9.371 0 0 1 -0.79,-3.839 c-0.2,-3.625 0,-7.6560000000000015 2.512,-10.269 c2.362,-2.452 6.1,-3.226 8.916,-5.039 c3.452,-2.222 4.591,-1.5 8.231,0.1650000000000002 a45.123,45.123 0 0 0 22.678,3.835 z" class="cls-7" data-name="Path 879"/>
        <path id="Path_880" d="M218.39125608222014,153.95080539029834 a14.044,14.044 0 0 0 4.941,-1.177 c1.8800000000000003,-0.936 3.343,-2.549 5.084,-3.738 a15.141,15.141 0 0 1 13.338000000000001,-1.474 a21.485,21.485 0 0 1 10.615,8.615 c1.7000000000000002,2.576 2.982,5.862 1.779,8.7 a11.472,11.472 0 0 1 -1.549,2.422 l-3.136,4.1 a10.906,10.906 0 0 1 -2.128,2.29 a9.043,9.043 0 0 1 -4.069,1.4140000000000001 c-3.817,0.557 -7.7,0.24100000000000013 -11.548,0.5 c-6.607,0.4400000000000003 -13.059,2.568 -19.681,2.5 a59.327,59.327 0 0 1 -11.281,-1.576 l-16.459,-3.384 c-2.865,-0.5870000000000005 -6.1,-1.444 -7.453,-4.042 a9.371,9.371 0 0 1 -0.79,-3.839 c-0.2,-3.625 0,-7.6560000000000015 2.512,-10.269 c2.362,-2.452 6.1,-3.226 8.916,-5.039 c3.452,-2.222 4.591,-1.5 8.231,0.1650000000000002 a45.123,45.123 0 0 0 22.678,3.835 z" class="cls-11" data-name="Path 880"/>
        <path id="Path_881" d="M284.48527659003264,148.7948139352202 a97.538,97.538 0 0 1 -14.1,4.644 c-8.107,1.786 -16.59,1.5 -24.633,3.5460000000000003 c-4.249,1.083 -8.472,2.8280000000000003 -12.837,2.474 a38.464,38.464 0 0 1 -5.734,-1.2 c-10.668,-2.632 -22.795,-1.779 -31.458,4.99 a39.152,39.152 0 0 0 -7.588,8.273 a5.5280000000000005,5.5280000000000005 0 0 0 2.222,8.227 a32.574,32.574 0 0 0 10.672,2.847 c4.937,0.4360000000000003 9.9,-0.263 14.808,-0.9630000000000005 c7.287,-1.034 14.578,-2.072 21.847,-3.234 c2.6100000000000003,-0.41700000000000026 5.219,-0.8500000000000005 7.844,-1.181 c18.888,-2.388 38.118,0.515 57.054,-1.478 a17.432,17.432 0 0 0 5.6,-1.282 c4.407,-2.068 6.588,-7.521 5.678,-12.311 s-4.422,-8.773 -8.649000000000001,-11.217 c-3.542,-2.057 -7.363,-2.888 -11.307,-3.7600000000000002 c-3.6590000000000007,-0.8570000000000005 -5.8900000000000015,0.272 -9.419,1.625 z" class="cls-7" data-name="Path 881"/>
        <path id="Path_882" d="M324.99425827948573,120.15680221647028 c2.083,2.73 2.527,6.393 2.3,9.811 s-1.038,6.8 -1.158,10.232 c-0.1650000000000002,4.708 0.97,9.4 0.778,14.093 a40.544,40.544 0 0 1 -1.835,9.653 c-1.087,3.7190000000000003 -2.6590000000000007,7.716 -6.091,9.5 c-4.558,2.373 -14.116,1.038 -18.91,2.9 c0.4360000000000003,-2.7190000000000003 4.618,-6.6560000000000015 5.054,-9.374 a17.511,17.511 0 0 0 0.28200000000000025,-5.7 a12.6,12.6 0 0 0 -3.5,-6.3100000000000005 a18.453,18.453 0 0 0 -9.953,-5.6400000000000015 c-3.817,-0.6920000000000008 -13.161,-0.12400000000000007 -16.214,2.286 c-0.3760000000000003,-2.489 6.618,-4.888 9.077,-5.426 c1.226,-0.274 2.632,-0.12000000000000002 3.614,-0.9 c1.8800000000000003,-1.474 0.515,-4.411 0.6050000000000005,-6.768 c0.07100000000000002,-1.8800000000000003 1.169,-3.6 1.391,-5.482 c0.3760000000000003,-3.008 -1.5870000000000002,-6.073 -0.8160000000000005,-9.025 a23.4,23.4 0 0 1 1.361,-3.087 c1.339,-3.177 0.7520000000000006,-6.8 0.03800000000000001,-10.179 c-0.44400000000000034,-2.121 -0.8760000000000006,-4.5120000000000005 0.30000000000000027,-6.321 c1.094,-1.6880000000000006 4.2,4.324 6.189,4.046 c6.569,-0.921 12.514,-5.791 17.82,-1.8 c2.7,2.031 3.057,4.136 4.136,7.035 c1.057,2.7560000000000002 3.776,4.1690000000000005 5.532,6.456 z" class="cls-12" data-name="Path 882"/>
        <path id="Path_883" d="M326.122249002142,120.15682687467336 c2.083,2.73 2.527,6.392 2.3,9.81 s-1.038,6.8 -1.158,10.232 c-0.1650000000000002,4.708 0.97,9.4 0.778,14.093 a40.544,40.544 0 0 1 -1.835,9.653 c-1.087,3.7190000000000003 -2.6590000000000007,7.716 -6.091,9.5 c-4.558,2.373 -14.116,1.038 -18.91,2.9 c0.4360000000000003,-2.7190000000000003 4.618,-6.6560000000000015 5.054,-9.374 a17.513,17.513 0 0 0 0.28200000000000025,-5.7 a12.6,12.6 0 0 0 -3.5,-6.3100000000000005 a18.452,18.452 0 0 0 -9.953,-5.6400000000000015 c-3.817,-0.6920000000000008 -13.161,-0.12400000000000007 -16.214,2.286 c-0.3760000000000003,-2.489 6.618,-4.888 9.077,-5.426 c1.226,-0.275 2.632,-0.12000000000000002 3.614,-0.9 c1.8800000000000003,-1.474 0.515,-4.411 0.6050000000000005,-6.768 c0.07200000000000002,-1.8800000000000003 1.169,-3.6 1.391,-5.482 c0.3760000000000003,-3.008 -1.5870000000000002,-6.073 -0.8160000000000005,-9.025 a23.406,23.406 0 0 1 1.361,-3.087 c1.339,-3.177 0.7520000000000006,-6.8 0.03700000000000001,-10.179 c-0.44400000000000034,-2.121 -0.8760000000000006,-4.5120000000000005 0.30000000000000027,-6.321 c1.094,-1.6880000000000006 3.234,-2.3280000000000003 5.223,-2.6100000000000003 a25.728,25.728 0 0 1 18.8,4.851 c2.7,2.031 3.057,4.136 4.136,7.036 c1.044,2.761 3.763,4.175 5.519,6.461 z" class="cls-8" data-name="Path 883"/>
        <path id="Path_884" d="M77.31825815741547,102.33781906217337 l20.444,75.558 a4.719,4.719 0 0 0 4.1,3.463 l92.021,8.84 a4.715,4.715 0 0 0 5.031,-5.821 l-22.385,-91.14 a4.715,4.715 0 0 0 -4.937,-3.572 l-90.092,6.738 a4.715,4.715 0 0 0 -4.182,5.934 z" class="cls-10" data-name="Path 884"/>
        <ellipse id="Ellipse_149" cx="259.731258392334" cy="106.83780288696289" class="cls-13" data-name="Ellipse 149" rx="10.114999771118164" ry="10.246999740600586"/>
        <path id="Path_885" d="M268.03826804511084,88.14581027311084 s2.132,6.34 -4.159,9.006 l-0.8,1.4060000000000001 l3.941,3.888 s4.8580000000000005,-8.863 4.332,-12.01 c-0.005000000000000005,-0.001000000000000001 -0.7580000000000007,-3.197 -3.314,-2.29 z" class="cls-13" data-name="Path 885"/>
        <circle id="Ellipse_150" cx="260.8932762145996" cy="107.33081436157227" r="9.753999710083008" class="cls-3" data-name="Ellipse 150"/>
        <path id="Path_886" d="M271.3952631622983,91.87581100553274 l-1.549,-2.557 l-2.2560000000000002,-0.32000000000000034 c0.48100000000000026,-8.419 -1.7000000000000002,-10.927 -1.7000000000000002,-10.927 l-0.508,-0.04900000000000004 l-2.211,-0.21400000000000013 l-4.159,-4.317 v-1.226 c5.843,0.7000000000000005 9.073,3.471 10.818,6.723 c3.081,5.708 1.565,12.887 1.565,12.887 z" class="cls-3" data-name="Path 886"/>
        <path id="Path_887" d="M265.3982573029233,76.4738144235015 v1.549 l-2.211,-0.21400000000000013 l-4.159,-4.317 s6.434,1.44 6.37,2.982 z" class="cls-14" data-name="Path 887"/>
        <path id="Path_888" d="M271.395291970892,91.87581124967335 l-1.549,-2.557 V79.00481124967337 c3.065,5.6930000000000005 1.549,12.871 1.549,12.871 z" class="cls-14" data-name="Path 888"/>
        <ellipse id="Ellipse_151" cx="-30.81473445892334" cy="-29.067182540893555" class="cls-13" data-name="Ellipse 151" rx="5.426000118255615" ry="9.897000312805176" transform="rotate(-30 349.56527709960983,-464.618194580078) "/>
        <path id="Path_889" d="M239.38526096503267,101.94180661100148 c2.734,4.734 6.088,7.9 3.493,9.4 s-10.153,0.7520000000000006 -12.886,-3.9859999999999998 s-0.252,-11.281 2.343,-12.785 s4.313,2.623 7.05,7.371 z" class="cls-3" data-name="Path 889"/>
        <path id="Path_890" d="M263.72525754706396,67.83681222623585 c0,15.127 -10.352,29.706 -25.479,29.706 a27.393,27.393 0 0 1 0,-54.787 c15.127,0.015000000000000015 25.479,9.95 25.479,25.081 z" class="cls-12" data-name="Path 890"/>
        <circle id="Ellipse_152" cx="238.24526596069336" cy="69.41181564331055" r="27.39299964904785" class="cls-7" data-name="Ellipse 152"/>
        <path id="Path_891" d="M235.83927390448582,57.27381002897022 c3.26,1.2 5.189,4.569 8.115,6.445 c4.136,2.632 9.521,1.952 14.244,0.6510000000000007 c2.632,-0.7180000000000005 5.385,-1.594 7.976,-0.8 a2.2560000000000002,2.2560000000000002 0 0 0 1.215,0.17300000000000001 c0.5640000000000005,-0.16200000000000017 0.8420000000000005,-0.786 1.027,-1.342 c3.2,-9.551 1.7640000000000002,-20.369 -3.072,-29.206 a18.878,18.878 0 0 0 -4.806,-6.065 a20.047,20.047 0 0 0 -5.46,-2.7560000000000002 a54.529,54.529 0 0 0 -10.86,-2.681 a6.745,6.745 0 0 0 -1.982,-0.06400000000000007 a8.3,8.3 0 0 0 -2.527,1.072 a25.863,25.863 0 0 1 -11.228,3.05 c-5.264,0.2 -11.281,-1.042 -15.338000000000001,2.335 c-4.888,4.05 -3.67,11.95 -6.84,17.447 c-2.1,3.636 -6.144,6.276 -6.8100000000000005,10.416 a9.613,9.613 0 0 0 0.23700000000000004,3.787 a15.408,15.408 0 0 0 14.289,11.42 a5.422,5.422 0 0 0 2.918,-0.6000000000000005 a6.6,6.6 0 0 0 1.538,-1.463 c4.305,-5.096 9.231,-14.808 17.364,-11.819 z" class="cls-15" data-name="Path 891"/>
        <path id="Path_892" d="M268.4142558380795,59.631814179360845 c-0.18400000000000014,0.557 -0.462,1.181 -1.027,1.342 a2.2560000000000002,2.2560000000000002 0 0 1 -1.214,-0.17300000000000001 c-2.591,-0.8 -5.358,0.07900000000000007 -7.9719999999999995,0.8 c-4.727,1.3 -10.123,2 -14.244,-0.6510000000000007 c-2.9290000000000003,-1.8800000000000003 -4.855,-5.264 -8.118,-6.445 c-8.134,-3.008 -13.059,6.723 -17.376,11.822 a6.6,6.6 0 0 1 -1.538,1.463 a5.422,5.422 0 0 1 -2.918,0.6000000000000005 a15.448,15.448 0 0 1 -14.289,-11.42 a14.46,14.46 0 0 1 -0.21800000000000014,-1.1280000000000001 a0.18300000000000013,0.18300000000000013 0 0 1 -0.019000000000000017,0.1 a9.614,9.614 0 0 0 0.23700000000000004,3.787 a15.412,15.412 0 0 0 14.289,11.42 a5.423,5.423 0 0 0 2.918,-0.6000000000000005 a6.6,6.6 0 0 0 1.538,-1.463 c4.317,-5.1 9.243,-14.815 17.376,-11.822 c3.2640000000000002,1.2 5.189,4.569 8.118,6.445 c4.136,2.632 9.517,1.952 14.244,0.6510000000000007 c2.632,-0.7180000000000005 5.381,-1.594 7.9719999999999995,-0.8 a2.257,2.257 0 0 0 1.215,0.17300000000000001 c0.5640000000000005,-0.16200000000000017 0.8420000000000005,-0.786 1.026,-1.342 a33.955,33.955 0 0 0 1.685,-12.131 a33.389,33.389 0 0 1 -1.685,9.372 z" class="cls-12" data-name="Path 892"/>
    </g></g></svg>