<svg xmlns="http://www.w3.org/2000/svg" xmlns:xlink="http://www.w3.org/1999/xlink" width="453.147" height="275.688" viewBox="0 0 453.147 275.688">
    <defs>
        <style>
            .cls-1,.cls-3{fill:#584dfc}.cls-1,.cls-10,.cls-4,.cls-8{opacity:.1}.cls-2{fill:none;stroke:#535461;stroke-miterlimit:10;stroke-width:2px}.cls-4{fill:#6c63ff}.cls-5{fill:#e6e6f0}.cls-6{fill:#fdc2cc}.cls-7{fill:#565171}.cls-9{fill:#b45181}.cls-11{fill:#f569bc}.cls-12{fill:#f7df1e}.cls-13{fill:url(#linear-gradient)}.cls-14{fill:#4f4d59}.cls-15{fill:#c48c96}.cls-16{fill:#714b4f}.cls-17{fill:#ba7855}.cls-18{fill:#503f43}.cls-19{fill:#e44d26}.cls-20{fill:#f16529}.cls-21{fill:#ebebeb}.cls-22,.cls-28{fill:#fff}.cls-23{fill:url(#linear-gradient-2)}.cls-24,.cls-31{opacity:.05}.cls-25{fill:#264de4}.cls-26{fill:#2965f1}.cls-27{fill:#47465a}.cls-28{opacity:.3}.cls-29{fill:#e1a0a7}.cls-30{fill:#8f5a6a}
        </style>
        <linearGradient id="linear-gradient" x1=".5" x2=".5" y1="1" gradientUnits="objectBoundingBox">
            <stop offset="0" stop-color="gray" stop-opacity=".251"/>
            <stop offset=".54" stop-color="gray" stop-opacity=".122"/>
            <stop offset="1" stop-color="gray" stop-opacity=".102"/>
        </linearGradient>
        <linearGradient id="linear-gradient-2" x1=".5" x2=".5" y1="1.001" xlink:href="#linear-gradient"/>
    </defs>
    <g id="Group_363" data-name="Group 363" transform="translate(-4.79 -43.157)">
        <ellipse id="Ellipse_175" cx="94.108" cy="18.291" class="cls-1" data-name="Ellipse 175" rx="94.108" ry="18.291" transform="translate(267.934 236.173)"/>
        <path id="Path_1016" d="M824.172 300.035s-10.107 5.343-20.272-15.855" class="cls-2" data-name="Path 1016" transform="translate(-484.491 -201.632)"/>
        <path id="Path_1017" d="M749 328.2s21.43-.77 22.65-10.276" class="cls-2" data-name="Path 1017" transform="translate(-454.035 -220.349)"/>
        <path id="Path_1028" d="M1046.711 648.836a5.2 5.2 0 0 0 1.705-2.574 2.284 2.284 0 0 0-1.193-2.623c-1.1-.418-2.266.339-3.152 1.109s-1.906 1.643-3.068 1.478a4.666 4.666 0 0 0 1.443-4.368 1.822 1.822 0 0 0-.4-.89c-.61-.65-1.71-.37-2.44.142-2.315 1.63-2.961 4.773-2.974 7.6a14.569 14.569 0 0 1-.044-3.117 3.219 3.219 0 0 0-1.176-2.769 3.561 3.561 0 0 0-1.781-.423 3.708 3.708 0 0 0-2.912.828 2.864 2.864 0 0 0 .116 3.562 11.582 11.582 0 0 0 3.014 2.413 6.676 6.676 0 0 1 2.155 2.053 2.04 2.04 0 0 1 .16.365h6.523a18.179 18.179 0 0 0 4.024-2.786z" class="cls-3" data-name="Path 1028" transform="translate(-610 -399.35)"/>
        <path id="Path_1029" d="M201.8 360.312c14.168 18.015 8.665 44.334-.338 65.408-3.014 7.057-6.425 14.524-5.152 22.089 1.554 9.252 9.8 16.029 18.487 19.591a55.029 55.029 0 0 0 49.249-4.056c12.552-7.81 21.541-20.508 34.307-27.962 21.372-12.467 48.559-7.761 71.757.828 16.412 6.078 34.356 13.985 50.665 7.632 11.474-4.452 19.409-15.348 23.732-26.88 2.088-5.57 3.6-11.577 7.569-16.029a28.222 28.222 0 0 1 8.629-6.055c28.941-14.342 65.452-6.679 93.539-22.565 18.972-10.739 31.119-31 36.511-52.13s4.751-43.283 3.384-65.038c-.971-15.464-2.712-31.969-12.592-43.906-10.45-12.623-28.389-17.32-44.6-14.92s-30.914 10.993-43.826 21.065c-16.158 12.587-31.141 28.265-50.981 33.367-13.509 3.473-27.721 1.572-41.658.917-23.3-1.1-46.6 1.336-69.762 4.007-22.178 2.565-44.525 5.388-65.643 12.6-14.952 5.107-26.938 14.373-41.057 20.847-9.2 4.221-19.239 5.388-27.948 10.762-10.735 6.621-20.571 18.139-17.81 31.613 2.593 12.826 16.018 19.255 23.538 28.815z" class="cls-1" data-name="Path 1029" transform="translate(-137.159 -152.555)"/>
        <ellipse id="Ellipse_176" cx="190.421" cy="18.291" class="cls-1" data-name="Ellipse 176" rx="190.421" ry="18.291" transform="translate(54.827 171.166)"/>
        <path id="Path_1188" d="M94.108 0c40.956 0 75.8 5.085 89.02 12.343 3.194 1.751 5.088 3.807 5.088 5.948 0 10.1-42.134 18.291-94.108 18.291S0 28.393 0 18.291 42.134 0 94.108 0z" class="cls-4" data-name="Path 1188" transform="translate(4.79 276.691)"/>
        <path id="Path_1030" d="M522.852 511.48l-1.492 2.168s1.625 2.168 1.781 2.44 4.742-.134 4.742-.134l.405-1.625-.677-1.9z" class="cls-5" data-name="Path 1030" transform="translate(-327.752 -327.726)"/>
        <path id="Path_1031" d="M323.373 423.67l-2.983.539 1.9 3.664 2.035 1.082 1.9 1.354.543-1.487-1.358-2.85z" class="cls-6" data-name="Path 1031" transform="translate(-178.422 -241.136)"/>
        <path id="Path_1032" d="M510.638 429.466s15.86 3.794 18.839 8.015c0 0 2.712 2.306 0 6.505s-6.505 13.691-6.505 13.691-2.712 9.217-3.794 9.893-7.32 1.22-7.863-1.336c0 0 3.522-5.557 3.522-8.135s5.828-14.773 5.828-14.773-13.282-1.492-17.485-.543 1.901-14.809 7.458-13.317z" class="cls-7" data-name="Path 1032" transform="translate(-316.892 -282.174)"/>
        <path id="Path_1033" d="M510.638 429.466s15.86 3.794 18.839 8.015c0 0 2.712 2.306 0 6.505s-6.505 13.691-6.505 13.691-2.712 9.217-3.794 9.893-7.32 1.22-7.863-1.336c0 0 3.522-5.557 3.522-8.135s5.828-14.773 5.828-14.773-13.282-1.492-17.485-.543 1.901-14.809 7.458-13.317z" class="cls-8" data-name="Path 1033" transform="translate(-316.892 -282.174)"/>
        <path id="Path_1034" d="M456.261 433.278a31.327 31.327 0 0 1-.236 2.627 155.414 155.414 0 0 1-3.7 17.165 60.342 60.342 0 0 0-3.66 10.031c-.815 3.932-6.372 4.9-6.372 4.9s-15.183 1.781-18.3 1.086-8.015 2.035-10.437 1.625-3.932-6.1-3.932-6.1a29.388 29.388 0 0 0 12.2-2.574c6.234-2.845 15.183-1.492 15.183-1.492a5.1 5.1 0 0 0 3.117-2.573c.948-2.035.948-14.368.677-15.183-1.781-5.343-1.634-8.771-1.122-10.771a5.375 5.375 0 0 1 1.122-2.378z" class="cls-7" data-name="Path 1034" transform="translate(-265.77 -282.326)"/>
        <path id="Path_1035" d="M493.729 433.25a31.327 31.327 0 0 1-.236 2.627c-1.362.107-5.183.209-8.015-1.541-2.672-1.639-6.559-2.2-8.308-2.369a5.375 5.375 0 0 1 1.122-2.378z" class="cls-8" data-name="Path 1035" transform="translate(-303.238 -282.298)"/>
        <path id="Path_1036" d="M494.45 425.984c-.632 1.781-1.6 3.869-1.6 3.869s-5.014.677-8.54-1.492-9.217-2.44-9.217-2.44c.922-.565 1.545-2.284 1.932-3.789a24 24 0 0 0 .508-2.582s16.67 3.388 17.365 3.932c.255.218-.021 1.291-.448 2.502z" class="cls-5" data-name="Path 1036" transform="translate(-302.084 -276.728)"/>
        <path id="Path_1037" d="M557.6 288.16l-20.219 12.2-2.008 1.211v-5.962l1.393-.668L553.8 286.8s.815-14.773 2.983-12.467.817 13.827.817 13.827z" class="cls-6" data-name="Path 1037" transform="translate(-335.524 -196.035)"/>
        <path id="Path_1038" d="M537.378 326.349l-2.008 1.211v-5.96l1.393-.668a43.884 43.884 0 0 0 .615 5.417z" class="cls-8" data-name="Path 1038" transform="translate(-335.524 -222.019)"/>
        <path id="Path_1039" d="M504.93 327.532l14.5-8.4s.271 8.135 1.9 9.35c0 0-5.962 1.781-8.268 5.557z" class="cls-9" data-name="Path 1039" transform="translate(-318.638 -221.02)"/>
        <path id="Path_1040" d="M504.93 327.532l14.5-8.4s.271 8.135 1.9 9.35c0 0-5.962 1.781-8.268 5.557z" class="cls-8" data-name="Path 1040" transform="translate(-318.638 -221.02)"/>
        <path id="Path_1041" d="M565.263 336.483a90.464 90.464 0 0 1-11.465 4.11 9 9 0 0 1-3.175.365c-3.117-.543.815-4.453.815-4.453l1.639-.254 8.8-1.371s.948-13.553 2.574-12.467.812 14.07.812 14.07z" class="cls-6" data-name="Path 1041" transform="translate(-343.319 -222.807)"/>
        <path id="Path_1042" d="M500.961 318.908s-5.828 4.337-3.66 9.76-11.252-3.255-11.252-3.255 4.337-6.505 5.285-11.385 9.627 4.88 9.627 4.88z" class="cls-6" data-name="Path 1042" transform="translate(-308.164 -217.432)"/>
        <path id="Path_1043" d="M496.863 425.984a30.721 30.721 0 0 0-7.836-1.825 41.8 41.8 0 0 1-9.586-2.026 24.027 24.027 0 0 0 .508-2.582s16.67 3.388 17.365 3.932c.252.217-.024 1.29-.451 2.501z" class="cls-8" data-name="Path 1043" transform="translate(-304.497 -276.728)"/>
        <path id="Path_1044" d="M553.788 357.911a9 9 0 0 1-3.175.365c-3.117-.543.815-4.452.815-4.452l1.639-.254a4.779 4.779 0 0 1 .721 4.341z" class="cls-8" data-name="Path 1044" transform="translate(-343.314 -240.126)"/>
        <path id="Path_1045" d="M485.46 332.165s-5.285-.134-7.182 2.035-1.492 8.015-1.492 8.015-.4 11.706 2.574 18.255a.891.891 0 0 1 .031.672c-.031.08-.031.031-.031.031s-1.9 8.54-3.794 10.031 4.065 3.255 11.131 4.065 9.893 2.845 9.893 2.845a7.068 7.068 0 0 0 1.336-4.337c.116-3-1.883-24.8-1.883-24.8s7.453 1.9 11.928-.405c0 0 2.035 1.086 3.932-1.9s-1.336-6.234-1.336-6.234-2.983 2.983-11.252-.948-11.286-7.458-13.855-7.325z" class="cls-9" data-name="Path 1045" transform="translate(-302.15 -228.25)"/>
        <path id="Path_1046" d="M405.185 509.35h-1.625v2.306l1.625 3.66s2.168.405 2.306.405 1.9-.405 1.9-.405l.543-.948s-5.969-2.311-4.749-5.018z" class="cls-5" data-name="Path 1046" transform="translate(-262.403 -326.545)"/>
        <path id="Path_1047" d="M518.63 513.937l-2.44 5.423 10.3 4.9 8.135.272s.677-1.9-2.035-2.845l-2.168-.405s-2.845-5.151-3.117-7.569c0 0-2.711.543-3.117 2.574a4.016 4.016 0 0 1-5.558-2.35z" class="cls-9" data-name="Path 1047" transform="translate(-324.884 -328.963)"/>
        <path id="Path_1048" d="M398.9 508.13l-.828.677-3.642 2.983 8.4 11.131s4.742 2.035 6.915 0c0 0 1.336-1.336-1.625-2.44a1.862 1.862 0 0 1-2.306-1.9c0-2.3.543-4.742 1.336-5.285 0 0-2.035-.677-2.574-.134a8.607 8.607 0 0 0-1.086 1.492s-4.861-1.916-4.59-6.524z" class="cls-9" data-name="Path 1048" transform="translate(-257.338 -325.868)"/>
        <path id="Path_1049" d="M496.643 314.638a16.451 16.451 0 0 1-.543 2.03 7.048 7.048 0 0 0 9.025 3.878 11.2 11.2 0 0 1 1.144-1.029s-8.677-9.759-9.626-4.879z" class="cls-8" data-name="Path 1049" transform="translate(-313.739 -217.77)"/>
        <path id="Path_1050" d="M495.64 357s4.2 5.557 10.3 5.695" class="cls-8" data-name="Path 1050" transform="translate(-313.484 -242.029)"/>
        <g id="Group_359" class="cls-10" data-name="Group 359" transform="translate(172.916 103.934)">
            <path id="Path_1051" d="M551.25 369.1a1.534 1.534 0 0 1-.249-.093q-.2.1-.4.191a2.535 2.535 0 0 0 .65-.1z" data-name="Path 1051" transform="translate(-516.889 -352.625)"/>
            <path id="Path_1052" d="M550.862 351.323a6.745 6.745 0 0 0-.472-.543 5.048 5.048 0 0 1-3.09 1.06 7.48 7.48 0 0 0 3.562-.516z" data-name="Path 1052" transform="translate(-515.059 -342.512)"/>
            <path id="Path_1053" d="M524.71 369.92l.027.289a26.924 26.924 0 0 0 5.423.445 28.217 28.217 0 0 1-5.45-.734z" data-name="Path 1053" transform="translate(-502.527 -353.13)"/>
            <path id="Path_1054" d="M487.721 375.306c-7.048-.815-13.01-2.574-11.131-4.065s3.794-10.031 3.794-10.031 0 .049.031-.031a.891.891 0 0 0-.031-.672c-2.97-6.567-2.574-18.255-2.574-18.255s-.405-5.828 1.492-8.015c1.411-1.616 4.7-1.95 6.291-2.017a2.86 2.86 0 0 0-.445 0s-5.285-.134-7.182 2.035-1.492 8.015-1.492 8.015-.4 11.706 2.573 18.255a.89.89 0 0 1 .031.672c-.031.08-.031.031-.031.031s-1.883 8.513-3.8 10 4.065 3.255 11.131 4.065 9.893 2.845 9.893 2.845a3.468 3.468 0 0 0 .374-.548 27.819 27.819 0 0 0-8.924-2.284z" data-name="Path 1054" transform="translate(-474.888 -332.211)"/>
        </g>
        <circle id="Ellipse_178" cx="7.048" cy="7.048" r="7.048" class="cls-6" data-name="Ellipse 178" transform="translate(182.089 88.871)"/>
        <path id="Path_1055" d="M491.445 296.635c-.583 1.46-2.324 2.013-3.851 2.391-2.182.534-4.533 1.06-6.621.232a1.447 1.447 0 0 0-.89-.174 1.184 1.184 0 0 0-.588.512c-2.3 3.277-1.928 7.645-2.525 11.608a6.447 6.447 0 0 1-1.336 3.428c-1.621 1.781-4.68 1.714-6.171 3.607-.984 1.247-.993 2.979-.984 4.568q0 2.542-.045 5.089a7.515 7.515 0 0 1-.583 3.255c-.855 1.674-2.761 2.471-4.519 3.117a7.748 7.748 0 0 1-3.4.712 2.658 2.658 0 0 1-2.5-2.066c-.209-1.594 1.434-2.707 2.565-3.856a10.364 10.364 0 0 0 2.618-7.066 7.57 7.57 0 0 0-.445-3.059c-.414-1.011-1.153-1.861-1.6-2.858-1.371-3.072.321-6.625 2.346-9.315s4.515-5.312 4.947-8.647a11.994 11.994 0 0 1 .307-2.142c.312-.971 1.051-3.651 1.866-4.266a9.693 9.693 0 0 1 4.452-1.852c1.251-.183 2.529-.116 3.771-.356 1.452-.281 2.8-.971 4.252-1.229 3.139-.557 6.545 3.09 7.921 5.966.376.883 1.368 1.507 1.013 2.401z" class="cls-8" data-name="Path 1055" transform="translate(-292.276 -203.869)"/>
        <path id="Path_1056" d="M491.445 296.025c-.583 1.46-2.324 2.013-3.851 2.391-2.182.534-4.533 1.06-6.621.231a1.448 1.448 0 0 0-.89-.174 1.184 1.184 0 0 0-.588.512c-2.3 3.277-1.928 7.645-2.525 11.608a6.447 6.447 0 0 1-1.336 3.428c-1.621 1.781-4.68 1.714-6.171 3.607-.984 1.247-.993 2.979-.984 4.568q0 2.542-.045 5.089a7.515 7.515 0 0 1-.583 3.255c-.855 1.674-2.761 2.471-4.519 3.117a7.749 7.749 0 0 1-3.4.712 2.658 2.658 0 0 1-2.5-2.066c-.209-1.594 1.434-2.707 2.565-3.856a10.365 10.365 0 0 0 2.618-7.066 7.57 7.57 0 0 0-.445-3.059c-.414-1.011-1.153-1.861-1.6-2.858-1.371-3.072.321-6.625 2.346-9.315s4.515-5.312 4.947-8.647a12 12 0 0 1 .307-2.142c.312-.971 1.051-3.651 1.866-4.265a9.693 9.693 0 0 1 4.452-1.852c1.251-.183 2.529-.116 3.771-.356 1.452-.28 2.8-.971 4.252-1.229 3.139-.557 6.545 3.09 7.921 5.966.376.883 1.368 1.507 1.013 2.401z" class="cls-11" data-name="Path 1056" transform="translate(-292.276 -203.531)"/>
        <path id="Path_1057" d="M585 276.09h117.177v117.168H585z" class="cls-12" data-name="Path 1057" transform="translate(-363.056 -197.144)"/>
        <path id="Path_1058" d="M654.21 440.226l8.967-5.428c1.732 3.068 3.3 5.664 7.079 5.664 3.62 0 5.9-1.416 5.9-6.919V396.1h11.011v37.593c0 11.4-6.679 16.595-16.439 16.595-8.807 0-13.919-4.564-16.514-10.067m38.933-1.18l8.963-5.192c2.36 3.856 5.427 6.679 10.855 6.679 4.564 0 7.471-2.28 7.471-5.428 0-3.776-2.988-5.112-8.015-7.315l-2.752-1.18c-7.943-3.38-13.215-7.627-13.215-16.595 0-8.259 6.292-14.551 16.123-14.551 7 0 12.022 2.44 15.651 8.807l-8.571 5.508c-1.888-3.384-3.932-4.72-7.079-4.72-3.224 0-5.272 2.044-5.272 4.72 0 3.3 2.044 4.64 6.763 6.679l2.752 1.18c9.35 4.007 14.631 8.1 14.631 17.3 0 9.911-7.787 15.339-18.255 15.339-10.241 0-16.831-4.9-20.036-11.247" data-name="Path 1058" transform="translate(-401.45 -263.364)"/>
        <path id="Path_1059" d="M874.185 506.664a8.39 8.39 0 0 1-7.4-4.577 16.429 16.429 0 0 0-1.946-2.765 9.351 9.351 0 0 1-1.367-4.965c.156-3.629-3.629-23.5-3.629-23.5s.472-7.569-3.313-12.3c-2.493-3.117-6.078-12.022-8.237-17.774a1.191 1.191 0 0 0 .508.267l-.089-.494h.089l-1.118-6.14a27.993 27.993 0 0 1-4.078-6.18l.254-.053 3.348-.7s5.441-7.734 5.788-11.536h1.073a130.9 130.9 0 0 1 15.076.788c0-.022-.036-.12-.08-.276a18.907 18.907 0 0 1-.49-2.329h.312l3.117-.2s10.726-11.986 6.781-14.195-8.046 9.938-8.046 9.938l-1.336.24-.361.067c.036-.053.071-.1.111-.151s-17.507-.784-20.21-5.049c0 0-7.73-6.153-8.046-10.241a4.626 4.626 0 0 0-2.778-3.936 6.064 6.064 0 0 0-3.068-.574l-3.62.249.254.445h-.1a12.17 12.17 0 0 1-.57-1.6h.076c-.027-.111-.049-.223-.071-.334a8.518 8.518 0 0 0 6.274-10.49 3.407 3.407 0 0 0 1.064-.031 3.119 3.119 0 0 0 2.311-2.979v-.316a4.577 4.577 0 0 0-1.759-3.517 25.666 25.666 0 0 1-2.226-1.7 16.681 16.681 0 0 1-1.812-2.805 8.327 8.327 0 0 0-4.274-3.326 3.932 3.932 0 0 0-3.909.445c-.516.485-.815 1.189-1.394 1.6-.833.6-1.964.419-2.983.539a5.69 5.69 0 0 0-4.288 3.21 7.4 7.4 0 0 0-.7 3.393 9.06 9.06 0 0 0 .285 2.382c.2.775.485 1.523.7 2.3.445 1.6.548 3.29 1.06 4.871a6.13 6.13 0 0 0 1.972 3l-.151.65c-.1 0-2.556.548-4.252 4.257-1.336 2.925-5.882 5.944-7.881 7.164a3.286 3.286 0 0 0-1.487 2.066 10.731 10.731 0 0 0-.254 2.622 18.159 18.159 0 0 0 1.888 7.868 63 63 0 0 0 5.993 10.882s.192 2.32.2 4.764a14.06 14.06 0 0 1-.521 4.542 16.522 16.522 0 0 0-.419 4.956c0 4.283.419 9.871.419 9.871s1.207.232 3.072.5l1.162 20.446a9.831 9.831 0 0 1-2.226 6.83 15.11 15.11 0 0 1-2.8 2.672c-3.313 2.364-10.41 27.289-10.41 27.289a8.733 8.733 0 0 1 .917.067l-2.182 6.087s8.718 6.679 14.021 4.853a5.139 5.139 0 0 1 1.781-.249c1.046 0 3.286-.828 2.039-1.919a80.854 80.854 0 0 1-6.8-7.071 3.611 3.611 0 0 1 .49.289v-.049l.076.049a5 5 0 0 1 .058-.646l-.076-.027c.16-1.639.668-5.788 1.674-6.269 1.26-.632 10.57-19.088 10.57-19.088l9.306-23.977s7.413 12.779 13.723 14.983v5.323s3.469 15.775 4.733 17.507 0 8.674 0 8.674a4.323 4.323 0 0 0 .85.748l-1.011 5.717s7.258-.316 19.56 3.468c-.002.022 4.727-2.026.783-4.55zm-29.021-82.5l-1.536.383-.3.076c-.031-.191-.054-.3-.054-.3a3.116 3.116 0 0 1-1.118.272 20.559 20.559 0 0 1-.935-5.321 35.848 35.848 0 0 1-.939-6.59 4.723 4.723 0 0 1 .623-2.716l.512.04.356.338.027.022.182.165.191.169.031.027.2.183.036.031.209.178.236.2.053.044.249.2.245.2.058.045.272.2.058.04.258.191.044.031.294.209.071.049.312.214h.027l.3.2.071.049.325.209.071.044.3.187.058.036.347.2.085.049.361.2h.027l.352.187.085.045.374.187.076.036.347.16.067.031.392.169.094.04.405.165c-2.509 2.773-3.8 9.229-3.8 9.229z" class="cls-13" data-name="Path 1059" transform="translate(-483.664 -245.525)"/>
        <path id="Path_1060" d="M807.405 668.16l-2.925 8.162s8.015 6.144 13.224 4.871a14.56 14.56 0 0 1 2.391-.387c1.078-.08 2.934-.868 1.781-1.866a98.537 98.537 0 0 1-8.625-9.239z" class="cls-14" data-name="Path 1060" transform="translate(-484.813 -414.644)"/>
        <path id="Path_1061" d="M918.615 664.131l-1.385 7.854s7.084-.307 19.1 3.388c0 0 4.622-2 .77-4.453a8.251 8.251 0 0 1-7.235-4.453c-2.783-4.76-4.453-4.159-4.453-4.159z" class="cls-14" data-name="Path 1061" transform="translate(-547.36 -411.385)"/>
        <path id="Path_1062" d="M820.9 520.191l1.336 23.9a9.884 9.884 0 0 1-2.355 6.99 14.48 14.48 0 0 1-2.542 2.373c-3.233 2.311-10.165 26.64-10.165 26.64s7.854.445 10.009 2c0 0 .445-6.158 1.692-6.777s10.316-18.634 10.316-18.634l9.088-23.407s7.235 12.467 13.4 14.631v5.236s3.388 15.4 4.622 17.093 0 8.46 0 8.46 3.562 4.453 11.7-.307a10.28 10.28 0 0 1-2.462-6.47c.156-3.544-3.562-22.944-3.562-22.944s.445-7.391-3.233-12.022-9.791-22.32-9.791-22.32l-4.239-9.119z" class="cls-15" data-name="Path 1062" transform="translate(-486.305 -324.42)"/>
        <g id="Group_360" class="cls-10" data-name="Group 360" transform="translate(320.977 181.104)">
            <path id="Path_1063" d="M808.8 580.1s6.928-24.328 10.165-26.639a14.689 14.689 0 0 0 2.672-2.529 9.8 9.8 0 0 0 2.226-6.83l-1.358-23.906 22.708-14-.307-.663-23.781 14.667 1.358 23.906a9.794 9.794 0 0 1-2.226 6.83 14.689 14.689 0 0 1-2.671 2.529c-3.228 2.306-10.165 26.635-10.165 26.635s7.854.445 10.009 2a4.711 4.711 0 0 1 .058-.628 43.2 43.2 0 0 0-8.688-1.372z" data-name="Path 1063" transform="translate(-807.42 -505.53)"/>
            <path id="Path_1064" d="M897.744 613.289s1.233-6.777 0-8.46-4.622-17.093-4.622-17.093v-5.245c-6.158-2.155-13.4-14.631-13.4-14.631l-.534 1.4c2.088 3.313 7.658 11.532 12.552 13.242v5.236s3.388 15.4 4.622 17.093 0 8.46 0 8.46a6.427 6.427 0 0 0 5.512 1.87 6.035 6.035 0 0 1-4.13-1.872z" data-name="Path 1064" transform="translate(-847.234 -540.107)"/>
        </g>
        <path id="Path_1065" d="M951.247 460.695l-3.023.2-1.594.105v-3.85l2.093-.378 1.3-.236s4.007-11.857 7.854-9.7-6.63 13.859-6.63 13.859z" class="cls-16" data-name="Path 1065" transform="translate(-563.67 -291.719)"/>
        <path id="Path_1066" d="M844.775 407s-2 7.7-2.618 12.467 14.319.926 14.319.926-5.7-6.928-2.462-10.624z" class="cls-16" data-name="Path 1066" transform="translate(-505.704 -269.766)"/>
        <path id="Path_1067" d="M860.205 446.347l.307 2.925-4.773-.307-4.773-4.159-4.773-13.4-3.072-4.777-2.311-2.929.926-3.562s.423.37 1.135.913c2.347 1.781 7.845 5.526 11.866 4.493a4.813 4.813 0 0 0 .548-.174l6.006 10.317z" class="cls-5" data-name="Path 1067" transform="translate(-504.966 -277.056)"/>
        <path id="Path_1068" d="M828.756 418.1s-2.462.445-4.159 4.159c-1.3 2.841-5.7 5.788-7.663 6.977a3.286 3.286 0 0 0-1.492 2.075c-.4 1.754-.548 5.027 1.607 9.733a61.616 61.616 0 0 0 5.851 10.624s.614 7.391-.307 9.546 0 14.012 0 14.012 16.167 3.081 21.559 0 4.622-14.938 4.622-14.938 5.08 10.78 6.928 11.087l-1.077-6.006s-6.007-6.469-6.314-14.782c0 0-1.848-7.547-.307-9.546 0 0 26.025 2.155 27.566.307 0 0-17.093-.77-19.711-4.929 0 0-7.547-6.006-7.854-10.009a4.426 4.426 0 0 0-2.311-3.629 6.029 6.029 0 0 0-3.451-.77l-3.478.24s6.007 10.624 5.7 12.022.307 12.627.307 12.627-6.95-14.938-10.009-16.63-6.625-8.656-6.625-8.656l.614-3.517" class="cls-8" data-name="Path 1068" transform="translate(-490.762 -275.924)"/>
        <path id="Path_1069" d="M860.205 446.347l.307 2.925-4.773-.307-4.773-4.159-4.773-13.4-3.072-4.777-2.311-2.929.926-3.562s.423.37 1.135.913l-.214 1.215s3.562 6.955 6.621 8.651 10.009 16.63 10.009 16.63-.614-11.243-.307-12.627c.209-.939-2.489-6.131-4.243-9.377a4.815 4.815 0 0 0 .547-.174l6.007 10.317z" class="cls-8" data-name="Path 1069" transform="translate(-504.966 -277.056)"/>
        <path id="Path_1070" d="M948.224 473.6l-1.594.107v-3.851l2.093-.378c-.731.968-.704 2.678-.499 4.122z" class="cls-8" data-name="Path 1070" transform="translate(-563.67 -304.427)"/>
        <path id="Path_1071" d="M828.756 417.08s-2.462.445-4.159 4.159c-1.3 2.841-5.7 5.788-7.663 6.977a3.286 3.286 0 0 0-1.492 2.075c-.4 1.754-.548 5.027 1.607 9.733a61.613 61.613 0 0 0 5.851 10.624s.614 7.391-.307 9.546 0 14.012 0 14.012 16.167 3.081 21.559 0 4.622-14.938 4.622-14.938 5.076 10.762 6.928 11.091l-1.077-6.007s-6.007-6.469-6.314-14.782c0 0-1.848-7.547-.307-9.546 0 0 6.006 6.469 12.783 6.314a127.514 127.514 0 0 1 14.782.77s-1.541-4.929 0-6.777c0 0-17.093-.77-19.711-4.929 0 0-7.547-6.006-7.854-10.009a4.426 4.426 0 0 0-2.311-3.629 6.03 6.03 0 0 0-3.451-.77l-3.478.24s6.007 10.624 5.7 12.022.307 12.627.307 12.627-6.95-14.947-10.009-16.639-6.625-8.638-6.625-8.638l.614-3.517" class="cls-15" data-name="Path 1071" transform="translate(-490.762 -275.358)"/>
        <path id="Path_1072" d="M832.647 453.39s3.7 12.467 5.851 14.012 15.245 9.395 19.1 7.547c0 0 .926 4.622-.445 5.7 0 0-14.359-.561-14.475-.614 0 0-9.395-1.233-10.935-5.851s-3.388-12.467-3.388-12.467z" class="cls-8" data-name="Path 1072" transform="translate(-498.054 -295.501)"/>
        <ellipse id="Ellipse_179" cx=".539" cy=".77" class="cls-17" data-name="Ellipse 179" rx=".539" ry=".77" transform="translate(353.778 170.441)"/>
        <ellipse id="Ellipse_180" cx=".539" cy=".77" class="cls-17" data-name="Ellipse 180" rx=".539" ry=".77" transform="translate(355.314 175.828)"/>
        <g id="Group_361" class="cls-10" data-name="Group 361" transform="translate(324.443 141.709)">
            <path id="Path_1073" d="M823.676 474.02s-.926-11.857 0-14.012.307-9.546.307-9.546a61.631 61.631 0 0 1-5.851-10.624c-2.159-4.706-2-7.979-1.607-9.733a3.286 3.286 0 0 1 1.492-2.075c1.964-1.2 6.358-4.136 7.663-6.977a8.039 8.039 0 0 1 3.019-3.664l.058-.338s-2.462.445-4.159 4.159c-1.3 2.841-5.7 5.788-7.663 6.977a3.286 3.286 0 0 0-1.492 2.075c-.4 1.754-.548 5.027 1.607 9.733a61.614 61.614 0 0 0 5.851 10.624s.614 7.391-.307 9.546 0 14.012 0 14.012 11.55 2.2 18.38 1.02c-6.897.822-17.298-1.177-17.298-1.177z" data-name="Path 1073" transform="translate(-815.205 -417.05)"/>
            <path id="Path_1074" d="M873.809 438.334a93.8 93.8 0 0 0 .174 9.947c.744 1.518 1.211 2.529 1.211 2.529s-.615-11.243-.307-12.627c.294-1.336-5.116-10.98-5.655-11.933l-1.122.076s6.011 10.623 5.699 12.008z" data-name="Path 1074" transform="translate(-844.554 -422.154)"/>
            <path id="Path_1075" d="M903.59 474.574c-6.777.156-12.783-6.314-12.783-6.314a2.467 2.467 0 0 0-.387.833c1.781 1.656 6.679 5.757 12.093 5.632a127.494 127.494 0 0 1 14.782.77s-.031-.1-.08-.276a122.585 122.585 0 0 0-13.625-.646z" data-name="Path 1075" transform="translate(-856.93 -445.459)"/>
            <path id="Path_1076" d="M893 511.49s.062.962.027 2.4c1.6 3.179 4.519 8.616 5.824 8.834l-.227-1.265c-2.24-2.809-5.624-9.969-5.624-9.969z" data-name="Path 1076" transform="translate(-858.361 -469.44)"/>
        </g>
        <path id="Path_1077" d="M895.405 491.453l-3.273.69-2.582.543 1.385-3.851.966-.24 1.5-.374s2.155-10.78 6.47-10.009-4.466 13.241-4.466 13.241z" class="cls-16" data-name="Path 1077" transform="translate(-532.005 -309.249)"/>
        <path id="Path_1078" d="M892.142 505.159l-2.583.543 1.385-3.851.966-.24a15.381 15.381 0 0 1 .232 3.548z" class="cls-8" data-name="Path 1078" transform="translate(-532.01 -322.251)"/>
        <path id="Path_1079" d="M832.647 452.7s3.7 12.467 5.851 14.012 15.245 9.395 19.1 7.547c0 0 .926 4.622-.445 5.7 0 0-14.359-.561-14.475-.614 0 0-9.395-1.233-10.935-5.851s-3.388-12.467-3.388-12.467z" class="cls-15" data-name="Path 1079" transform="translate(-498.054 -295.118)"/>
        <path id="Path_1080" d="M847.49 407.74s-.312 1.207-.73 2.961a8.313 8.313 0 0 0 9.177 4.23 4.786 4.786 0 0 1 .793-4.417z" class="cls-8" data-name="Path 1080" transform="translate(-508.267 -270.177)"/>
        <circle id="Ellipse_181" cx="8.317" cy="8.317" r="8.317" class="cls-16" data-name="Ellipse 181" transform="translate(337.375 128.013)"/>
        <path id="Path_1081" d="M855.824 382.177a4.452 4.452 0 0 0 1.852.116 3.05 3.05 0 0 0 2.253-2.908 4.453 4.453 0 0 0-1.714-3.433c-.7-.588-1.545-1-2.191-1.656a16.99 16.99 0 0 1-1.781-2.738 8.126 8.126 0 0 0-4.172-3.246 3.783 3.783 0 0 0-3.816.445c-.5.476-.8 1.158-1.358 1.563-.815.579-1.919.41-2.912.525a5.552 5.552 0 0 0-4.185 3.117 7.84 7.84 0 0 0-.41 5.343c.192.757.476 1.487.681 2.226.445 1.567.534 3.21 1.033 4.755a5.121 5.121 0 0 0 3.086 3.522 9.756 9.756 0 0 1 .993-5.027 1.443 1.443 0 0 1 .7-.784 1.7 1.7 0 0 1 .846 0 8.459 8.459 0 0 0 5.632-1.14c.592-.356 1.514-1.585 2.142-1.705.814-.137 2.475.838 3.321 1.025z" class="cls-8" data-name="Path 1081" transform="translate(-502.909 -248.136)"/>
        <path id="Path_1082" d="M855.824 381.487a4.452 4.452 0 0 0 1.852.116 3.05 3.05 0 0 0 2.253-2.907 4.453 4.453 0 0 0-1.714-3.433c-.7-.588-1.545-1-2.191-1.656a16.987 16.987 0 0 1-1.781-2.738 8.127 8.127 0 0 0-4.172-3.246 3.783 3.783 0 0 0-3.816.445c-.5.476-.8 1.158-1.358 1.563-.815.579-1.919.41-2.912.525a5.552 5.552 0 0 0-4.185 3.117 7.84 7.84 0 0 0-.41 5.343c.192.757.476 1.487.681 2.226.445 1.567.534 3.21 1.033 4.755a5.121 5.121 0 0 0 3.086 3.522 9.755 9.755 0 0 1 1-5.023 1.442 1.442 0 0 1 .7-.784 1.7 1.7 0 0 1 .846 0 8.46 8.46 0 0 0 5.632-1.14c.592-.356 1.514-1.585 2.142-1.705.807-.142 2.468.833 3.314 1.02z" class="cls-18" data-name="Path 1082" transform="translate(-502.909 -247.753)"/>
        <path id="Path_1083" d="M972.707 337.49l-6.786 76-30.5 8.46-30.415-8.46-6.777-76z" class="cls-19" data-name="Path 1083" transform="translate(-536.82 -231.206)"/>
        <path id="Path_1084" d="M981.86 423.233l24.645-6.83 5.788-64.953H981.86z" class="cls-20" data-name="Path 1084" transform="translate(-583.214 -238.95)"/>
        <path id="Path_1085" d="M939.547 381.714h13.188v-9.324H929.36l.223 2.5 2.293 25.691h20.864v-9.321H940.4zm2.12 23.532h-9.35l1.3 14.64L952.7 425.2h.044v-9.729h-.04l-10.383-2.805z" class="cls-21" data-name="Path 1085" transform="translate(-554.089 -250.566)"/>
        <path id="Path_1086" d="M913.8 291.09h4.737v4.68h4.332v-4.68h4.738v14.177h-4.737v-4.747h-4.332v4.746H913.8zm20.036 4.7h-4.172v-4.7h13.081v4.7h-4.172v9.475h-4.733v-9.475zm10.989-4.7h4.942l3.041 4.982 3.037-4.982h4.942v14.177h-4.72v-7.026l-3.259 5.04h-.08l-3.264-5.04v7.026h-4.64zm18.318 0h4.737v9.488h6.679v4.684h-11.4V291.09z" data-name="Path 1086" transform="translate(-545.458 -205.465)"/>
        <path id="Path_1087" d="M981.79 400.578h11.479l-1.082 12.093-10.4 2.805v9.72l19.115-5.3.138-1.576 2.191-24.547.227-2.5H981.79v9.327zm0-18.892v.022h22.521l.187-2.1.445-4.729.223-2.5H981.79v9.3z" class="cls-22" data-name="Path 1087" transform="translate(-583.175 -250.561)"/>
        <path id="Path_1088" d="M367.393 418.228c-.868-2.542-2.119-5.788-3.117-6.527a.934.934 0 0 0-.2-.12h-.125v-3.139l-2.342.374a22.375 22.375 0 0 1-.85-3.477 1.616 1.616 0 0 0 1.759.352c-.04-.062-.071-.129-.107-.2l.107-.045a4.35 4.35 0 0 1-.566-2.133 7.767 7.767 0 0 1 .325-2.013c.418-1.447 1.126-2.8 1.523-4.252a10.343 10.343 0 0 0 .356-2.876 10.481 10.481 0 0 0-1.1-4.742 2.769 2.769 0 0 0-.828-1.082 10.7 10.7 0 0 0-1.015-.494 5.48 5.48 0 0 1-1.474-1.469 13.242 13.242 0 0 0-6.4-4.27 3.744 3.744 0 0 0-2.044-.16c-1.572.445-2.146 2.373-3.419 3.393-1.127.89-2.672.993-4.079 1.3a6.936 6.936 0 0 0-3.8 1.99 4.123 4.123 0 0 0-1.02 2.752 2.765 2.765 0 0 0 1.126 2.458 3.531 3.531 0 0 0 2.983.423 10.147 10.147 0 0 0 7.681 12.756l.276.49a21.01 21.01 0 0 1 1.9 4.973c-2.155 1.224-4.51 2.369-5.931 2.476a10 10 0 0 1-.307 1.643 9.069 9.069 0 0 1-1.866 3.673c-1.932 2.173-10.628 18.6-10.628 18.6s-.276.654-.721 1.781c-5.4.663-14.212 1.621-16.675 1.126l-9.662-9.181s-3.117 2.382-2.85 5.276l-1.741-1.656s-9.181 7 5.316 11.577l22.058 2.56c-2.1 6.34-4.061 13.718-3.455 17.734h.183a8.343 8.343 0 0 0 1.26-.1l-.04.712-2.124 38.038s-.485 7 6.038 10.147c0 0 7.974 23.434 4.831 26.092 0 0 .374.2 1 .472l-6.559 5.788s-4.831 1.207-7.489.966a1.919 1.919 0 0 0-2.119 1.429.313.313 0 0 1-.027.151v.468a.281.281 0 0 0 .031.156v.058a1.513 1.513 0 0 0 .053.165v.053c.022.053.049.107.076.16v.036c.031.053.062.107.1.16l.031.044q.058.085.129.169l.036.044c.049.058.1.111.16.169h.027l.178.151.04.031.218.156.053.036.254.147h.04l.272.134h.04l.316.129.067.027.352.116h.058l.378.1h.031l.445.085h.085l.445.067h.085l.512.049c.993.076 2.333.1 3.883.1v.249a.28.28 0 0 0 .031.156v.058a1.517 1.517 0 0 0 .053.165v.053c.022.053.049.107.076.16v.036c.031.053.062.107.1.16l.031.045q.058.085.129.169l.036.045c.049.058.1.111.16.169h.022l.178.151.04.031.218.156.053.036.249.147h.04l.272.134h.04l.316.129.067.027.352.116h.058l.378.1h.031l.445.085h.085l.445.067h.085l.512.049c6.283.485 26.332-.966 26.332-.966v-.131c.2-.935 1.162-6.372-2.257-10.392q.154-.16.294-.334s-2.672-4.591-1.207-6.038-7.075-26.35-7.075-26.35-4.59-7.249-1.932-15.464-.24-17.151-.24-17.151 6.345-1.879 6.461-9.684v-.726a2.559 2.559 0 0 0 .4.027 1.858 1.858 0 0 0 .267 0s-1.207-4.35.24-7.489 4.591-.24 7.489-13.046c2.1-9.266 3.94-19.921 4.8-25.108a13.22 13.22 0 0 0-.511-6.417zm-55.131 27.16l-2.2-2.093c.73.3 1.541.6 2.444.891l8.3.975c-3.7.334-7.164.521-8.544.24z" class="cls-23" data-name="Path 1088" transform="translate(-204.793 -255.833)"/>
        <path id="Path_1089" d="M334.064 512.6s-17.089 2.373-20.651 1.661l-9.493-9.021s-9.021 6.884 5.223 11.394l26.582 3.086z" class="cls-6" data-name="Path 1089" transform="translate(-205.565 -324.265)"/>
        <path id="Path_1090" d="M334.064 512.6s-17.089 2.373-20.651 1.661l-9.493-9.021s-9.021 6.884 5.223 11.394l26.582 3.086z" class="cls-24" data-name="Path 1090" transform="translate(-205.565 -324.265)"/>
        <path id="Path_1091" d="M243.737 407.461l-36.929-10.241-8.228-92.3h90.426l-8.237 92.287z" class="cls-25" data-name="Path 1091" transform="translate(-148.691 -213.137)"/>
        <path id="Path_1092" d="M330.056 400.743l7.044-78.863h-36.96v87.14z" class="cls-26" data-name="Path 1092" transform="translate(-205.031 -222.546)"/>
        <path id="Path_1093" d="M238.432 370.183l1.015 11.318h25.335v-11.318zm-2.039-22.913l1.029 11.318h27.356V347.27H236.37zm28.385 52.313h-.049l-12.61-3.406-.806-9.03h-11.385l1.585 17.774 23.189 6.452h.053z" class="cls-21" data-name="Path 1093" transform="translate(-169.654 -236.631)"/>
        <path id="Path_1094" d="M246.38 248.56h13.709v5.735h-7.979v5.735h7.979v5.735H246.38zm16.474 0h13.709v4.987h-8v1h7.979v11.47h-13.71v-5.236h7.979v-1h-7.979V248.56zm16.474 0h13.709v4.987h-8.019v1H293v11.47h-13.716v-5.236h7.979v-1h-7.979V248.56z" data-name="Path 1094" transform="translate(-175.208 -181.872)"/>
        <path id="Path_1095" d="M326.332 370.183l2.044-22.913H300v11.318h15.953l-1.029 11.577H300v11.318h13.941l-1.336 14.693L300 399.592v11.777l23.207-6.434.169-1.915 2.671-29.805.276-3.041z" class="cls-22" data-name="Path 1095" transform="translate(-204.953 -236.631)"/>
        <path id="Path_1096" d="M366.841 738.19l-8.308 7.356s-4.746 1.189-7.356.948-3.8 4.034 2.373 4.51 25.869-.948 25.869-.948 1.9-7.6-3.8-11.866z" class="cls-27" data-name="Path 1096" transform="translate(-232.167 -453.493)"/>
        <path id="Path_1097" d="M366.841 738.19l-8.308 7.356s-4.746 1.189-7.356.948-3.8 4.034 2.373 4.51 25.869-.948 25.869-.948 1.9-7.6-3.8-11.866z" class="cls-24" data-name="Path 1097" transform="translate(-232.167 -453.493)"/>
        <path id="Path_1098" d="M379.71 757.47a13.082 13.082 0 0 1-.3 2.573s-19.7 1.425-25.869.948c-2.97-.227-4.23-1.336-4.453-2.4-.272 1.22.806 2.827 4.453 3.117 6.171.476 25.869-.948 25.869-.948a13.711 13.711 0 0 0 .3-3.29z" class="cls-28" data-name="Path 1098" transform="translate(-232.164 -464.189)"/>
        <path id="Path_1099" d="M410.84 427.679s5.223 7.356 3.322 12.342 9.969-5.223 9.969-5.223-3.8-6.674-1.9-13.8z" class="cls-6" data-name="Path 1099" transform="translate(-266.441 -277.533)"/>
        <path id="Path_1100" d="M385.492 744.59l-8.3 7.356s-4.746 1.189-7.356.948-3.8 4.034 2.373 4.51 25.869-.948 25.869-.948 1.9-7.6-3.8-11.866z" class="cls-27" data-name="Path 1100" transform="translate(-242.518 -457.044)"/>
        <path id="Path_1101" d="M382.829 633.239a6.3 6.3 0 0 1-4.809 2.2c-4.15.2-8.718-2.2-8.718-2.2 3.086-2.609-4.746-25.633-4.746-25.633-6.407-3.086-5.935-9.969-5.935-9.969l2.079-37.357.525-9.386 6.648-4.034 5.236 4.007 4.969 3.811a19.974 19.974 0 0 1 .623 3.7c.579 8.722-6.318 10.775-6.318 10.775s2.85 8.78.236 16.853 1.9 15.192 1.9 15.192 8.544 24.685 7.124 26.109 1.186 5.932 1.186 5.932z" class="cls-7" data-name="Path 1101" transform="translate(-237.468 -347.353)"/>
        <path id="Path_1102" d="M382.829 633.239a6.3 6.3 0 0 1-4.809 2.2c-4.15.2-8.718-2.2-8.718-2.2 3.086-2.609-4.746-25.633-4.746-25.633-6.407-3.086-5.935-9.969-5.935-9.969l2.079-37.357.525-9.386 6.648-4.034 5.236 4.007 4.969 3.811a19.974 19.974 0 0 1 .623 3.7c.579 8.722-6.318 10.775-6.318 10.775s2.85 8.78.236 16.853 1.9 15.192 1.9 15.192 8.544 24.685 7.124 26.109 1.186 5.932 1.186 5.932z" class="cls-24" data-name="Path 1102" transform="translate(-237.468 -347.353)"/>
        <path id="Path_1103" d="M396.736 639.618c-4.034 4.982-13.527 0-13.527 0a1.513 1.513 0 0 0 .414-.645c1.741-4.733-5.873-27.361-5.873-27.361-6.407-3.086-7.124-10.441-7.124-10.441l-1.679-38.033-.218-4.924 9.987-3.811 3.068-1.171 10.216 7.83a18.51 18.51 0 0 1 .641 4.978c-.129 7.663-6.349 9.515-6.349 9.515s2.85 8.78.236 16.853 1.91 15.17 1.91 15.17 8.544 24.685 7.124 26.11 1.174 5.93 1.174 5.93z" class="cls-7" data-name="Path 1103" transform="translate(-243.081 -350.887)"/>
        <path id="Path_1104" d="M389.627 562.512c-2.053-.294-6.207-2.765-8.34-4.105-.815-.512-1.336-.855-1.336-.855s-2.137-5.935-7.832-1.425a21.326 21.326 0 0 1-6.189 3.5 14.49 14.49 0 0 1-2.64.663l.525-9.386 6.648-4.034 5.236 4.007 3.068-1.171 10.218 7.828a18.509 18.509 0 0 1 .641 4.978z" class="cls-8" data-name="Path 1104" transform="translate(-240.063 -347.359)"/>
        <path id="Path_1105" d="M400.626 459.894c-.846 5.094-2.672 15.584-4.72 24.662-2.85 12.578-5.935 9.729-7.355 12.814s-.236 7.356-.236 7.356c-2.373.236-10.205-4.982-10.205-4.982s-2.137-5.935-7.832-1.425-10.205 4.27-10.205 4.27c-1.189-7.832 7.6-28.719 7.6-28.719s8.544-16.14 10.441-18.255a8.906 8.906 0 0 0 1.834-3.607 9.817 9.817 0 0 0 .3-1.612c3.086-.236 10.686-5.459 10.686-5.459l5.935-.948v3.086a.889.889 0 0 1 .2.12c.975.744 2.226 3.914 3.059 6.412a12.988 12.988 0 0 1 .498 6.287z" class="cls-29" data-name="Path 1105" transform="translate(-238.217 -290.286)"/>
        <path id="Path_1106" d="M345.862 511.73l-3.068-.356-23.514-2.729c-14.248-4.51-5.223-11.394-5.223-11.394l9.493 9.021c2.738.548 13.482-.73 18.3-1.336 1.443-.187 2.355-.312 2.355-.312z" class="cls-6" data-name="Path 1106" transform="translate(-211.188 -319.832)"/>
        <path id="Path_1107" d="M407.25 456.905s-6.171-4.982-15.446 11.154-11.394 13.527-11.394 13.527 1.9 7.124.948 8.544c0 0 6.407-.477 8.78 0s17.089-18.037 17.089-18.037 7.619-10.441.023-15.188z" class="cls-8" data-name="Path 1107" transform="translate(-249.56 -297.048)"/>
        <path id="Path_1108" d="M406.742 454.775s-6.171-4.982-15.428 11.154-11.394 13.527-11.394 13.527 7.356 8.068 9.729 8.544 17.089-18.037 17.089-18.037 7.6-10.441.004-15.188z" class="cls-8" data-name="Path 1108" transform="translate(-249.289 -295.867)"/>
        <path id="Path_1109" d="M380.918 520.573a28.526 28.526 0 0 0-.948-6.452c1.443-.187 2.355-.312 2.355-.312l1.661 7.124z" class="cls-8" data-name="Path 1109" transform="translate(-249.316 -329.019)"/>
        <path id="Path_1110" d="M407.25 455.835s-6.171-4.982-15.446 11.158-11.394 13.527-11.394 13.527 1.9 7.124.948 8.544c0 0 6.407-.476 8.78 0s17.089-18.037 17.089-18.037 7.619-10.445.023-15.192z" class="cls-29" data-name="Path 1110" transform="translate(-249.56 -296.455)"/>
        <path id="Path_1111" d="M422.782 422.09l-11.412 6.639a24.323 24.323 0 0 1 1.336 2.173 10.019 10.019 0 0 0 1.995.2c3.041 0 4.452-3.192 6.291-5.343-.134-1.71 1.264-1.759 1.79-3.669z" class="cls-8" data-name="Path 1111" transform="translate(-266.735 -278.137)"/>
        <circle id="Ellipse_182" cx="9.969" cy="9.969" r="9.969" class="cls-6" data-name="Ellipse 182" transform="translate(137.751 132.563)"/>
        <path id="Path_1112" d="M388.738 392.518a6.811 6.811 0 0 1 3.731-1.959c1.385-.3 2.9-.387 4.007-1.273 1.251-1 1.812-2.907 3.357-3.335a3.682 3.682 0 0 1 2.008.16 13.006 13.006 0 0 1 6.287 4.194 5.382 5.382 0 0 0 1.452 1.447 10.517 10.517 0 0 1 1 .485 2.72 2.72 0 0 1 .81 1.064 10.32 10.32 0 0 1 .721 7.244c-.387 1.429-1.082 2.756-1.5 4.181a5.513 5.513 0 0 0 .236 4.31 1.758 1.758 0 0 1-2.111-.779 8.353 8.353 0 0 1-.837-2.306 8.793 8.793 0 0 0-2.574-4.007c-.748-.659-2.084-1.1-2.6-.254-.2.329-.187.752-.361 1.1a1.471 1.471 0 0 1-1.972.445 3.023 3.023 0 0 1-1.233-1.83c-.975-3.308-2.645-5.388-6.18-3.976-1.336.525-2.872.891-4.141 0-1.627-1.197-1.302-3.562-.1-4.911z" class="cls-8" data-name="Path 1112" transform="translate(-253.618 -258.05)"/>
        <path id="Path_1113" d="M388.738 391.978a6.812 6.812 0 0 1 3.731-1.959c1.385-.3 2.9-.387 4.007-1.273 1.251-1 1.812-2.908 3.357-3.335a3.682 3.682 0 0 1 2.008.16 13.006 13.006 0 0 1 6.287 4.194 5.382 5.382 0 0 0 1.451 1.447 10.5 10.5 0 0 1 1 .485 2.721 2.721 0 0 1 .81 1.064 10.32 10.32 0 0 1 .721 7.244c-.387 1.429-1.082 2.756-1.5 4.181a5.513 5.513 0 0 0 .236 4.31 1.758 1.758 0 0 1-2.111-.779 8.353 8.353 0 0 1-.837-2.306 8.793 8.793 0 0 0-2.574-4.007c-.748-.659-2.084-1.1-2.6-.254-.2.329-.187.753-.361 1.1a1.471 1.471 0 0 1-1.972.445 3.023 3.023 0 0 1-1.233-1.83c-.975-3.308-2.645-5.388-6.18-3.976-1.336.525-2.872.891-4.141 0-1.626-1.189-1.301-3.557-.099-4.911z" class="cls-30" data-name="Path 1113" transform="translate(-253.618 -257.75)"/>
        <path id="Path_1114" d="M421.941 447.161h-4.822s-9.493 4.746-9.729 4.51a8.188 8.188 0 0 0-2.56.307 9.824 9.824 0 0 0 .3-1.612c3.086-.236 10.686-5.459 10.686-5.459l5.935-.948v3.086a.893.893 0 0 1 .19.116z" class="cls-24" data-name="Path 1114" transform="translate(-263.107 -290.27)"/>
        <path id="Path_1115" d="M398.36 763.86a13.09 13.09 0 0 1-.3 2.574s-19.7 1.425-25.869.948c-2.97-.227-4.23-1.336-4.453-2.4-.272 1.22.806 2.827 4.453 3.117 6.171.476 25.869-.948 25.869-.948a13.717 13.717 0 0 0 .3-3.291z" class="cls-28" data-name="Path 1115" transform="translate(-242.51 -467.734)"/>
        <g id="Group_362" class="cls-31" data-name="Group 362" transform="translate(121.909 156.767)">
            <path id="Path_1116" d="M368.224 563.38a20.314 20.314 0 0 1-7.894 4.007 3.329 3.329 0 0 0 .062.521s4.51.236 10.205-4.27a7.65 7.65 0 0 1 3.05-1.594c-1.242-.609-3.014-.569-5.423 1.336z" data-name="Path 1116" transform="translate(-360.33 -512.35)"/>
            <path id="Path_1117" d="M432.168 457.4c-.85-2.5-2.084-5.664-3.059-6.412a.89.89 0 0 0-.2-.12s-1.964.067-1.9.12c.975.744 1.928 3.678 2.778 6.171a12.987 12.987 0 0 1 .517 6.3c-.846 5.094-2.671 15.584-4.72 24.662-2.85 12.578-5.935 9.729-7.356 12.814-1.167 2.529-.583 5.851-.329 6.968a5.972 5.972 0 0 0 2.467.628s-1.189-4.27.236-7.356 4.51-.236 7.356-12.814c2.062-9.1 3.874-19.591 4.72-24.663a12.987 12.987 0 0 0-.51-6.298z" data-name="Path 1117" transform="translate(-392.064 -450.87)"/>
        </g>
        <path id="Path_1118" d="M491.711 554.836a5.2 5.2 0 0 0 1.705-2.574 2.284 2.284 0 0 0-1.193-2.623c-1.1-.419-2.266.338-3.152 1.109s-1.906 1.643-3.068 1.478a4.666 4.666 0 0 0 1.443-4.368 1.825 1.825 0 0 0-.4-.891c-.61-.65-1.71-.37-2.44.142-2.315 1.63-2.961 4.773-2.974 7.6a14.584 14.584 0 0 1-.045-3.117 3.218 3.218 0 0 0-1.175-2.769 3.563 3.563 0 0 0-1.781-.423 3.708 3.708 0 0 0-2.912.828 2.864 2.864 0 0 0 .116 3.562 11.592 11.592 0 0 0 3.014 2.413 6.679 6.679 0 0 1 2.151 2.06 2.047 2.047 0 0 1 .16.365h6.523a18.182 18.182 0 0 0 4.028-2.792z" class="cls-3" data-name="Path 1118" transform="translate(-302.115 -347.203)"/>
    </g>
</svg>
