
<svg width="445px" height="300px" viewBox="0 0 445 300" version="1.1" xmlns="http://www.w3.org/2000/svg" xmlns:xlink="http://www.w3.org/1999/xlink">
    <defs>
        <linearGradient x1="50%" y1="100%" x2="50%" y2="0%" id="linearGradient-1">
            <stop stop-color="#808080" stop-opacity="0.251" offset="0%"></stop>
            <stop stop-color="#808080" stop-opacity="0.122" offset="53.5%"></stop>
            <stop stop-color="#808080" stop-opacity="0.102" offset="100%"></stop>
        </linearGradient>
        <linearGradient x1="50%" y1="100%" x2="50%" y2="0%" id="linearGradient-2">
            <stop stop-color="#808080" stop-opacity="0.251" offset="0%"></stop>
            <stop stop-color="#808080" stop-opacity="0.122" offset="53.5%"></stop>
            <stop stop-color="#808080" stop-opacity="0.102" offset="100%"></stop>
        </linearGradient>
    </defs>
    <g id="Page-1" stroke="none" stroke-width="1" fill="none" fill-rule="evenodd">
        <g id="kids">
            <path d="M418.224625,175.249297 C402.874625,194.765297 408.837625,223.275297 418.591625,246.108297 C421.857625,253.753297 425.551625,261.841297 424.173625,270.039297 C422.488625,280.064297 413.541625,287.395297 404.147625,291.280297 C386.668995,298.334443 366.883657,296.704979 350.794625,286.886297 C337.194625,278.427297 327.457625,264.670297 313.627625,256.596297 C290.482625,243.084297 261.027625,248.186297 235.890625,257.496297 C218.109625,264.081297 198.670625,272.645297 181.002625,265.763297 C168.570625,260.921297 159.977625,249.134297 155.295625,236.641297 C153.034625,230.609297 151.395625,224.080297 147.077625,219.299297 C144.400526,216.546016 141.229827,214.320387 137.730625,212.738297 C106.400625,197.204297 105.780625,218.237742 75.349625,201.007742 C54.797625,189.369742 36.0601588,183.505101 35.0898437,148.4 C34.1195287,113.294899 40.1470625,96.6955 66.7890625,78.395 C93.124936,60.3047796 123.833547,62.0362975 151.794922,66.393 C179.756297,70.7497025 191.865599,113.526515 222.5,112.223059 C265.381604,110.3985 246.658203,73.8204296 278.574625,61.9102975 C310.491047,50.0001654 326.797625,67.7442975 349.685625,75.5602975 C365.885625,81.0912975 378.867625,91.1302975 394.161625,98.1442975 C404.130625,102.716297 415.001625,103.978297 424.440625,109.801297 C436.067625,116.974297 446.727625,129.451297 443.748625,144.051297 C440.914625,157.929297 426.371625,164.891297 418.224625,175.249297 Z" id="Path_1120" fill="#584DFC" fill-rule="nonzero" opacity="0.1"></path>
            <path d="M299.578,44.854 C299.578,44.854 274.904,37.546 273.278,58.332 C271.652,79.118 279.799,113.353 273.278,124.357 C266.757,135.361 243.488,151.257 255.734,152.685 C267.98,154.113 274.093,156.147 270.425,163.485 C266.757,170.823 247.601,177.75 251.677,183.048 C255.753,188.346 257.79,194.867 253.715,201.388 C249.64,207.909 235.375,211.988 237.82,216.468 C240.265,220.948 249.232,223.397 244.749,228.287 C240.266,233.177 227.269,244.303 232.341,244.24225" id="Path_1121" stroke="#535461" stroke-width="3"></path>
            <rect id="Rectangle_621" fill="#584DFC" fill-rule="nonzero" x="278.302" y="31.006" width="62.607" height="29.035" rx="12.97"></rect>
            <polygon id="Rectangle_622" fill="#000000" fill-rule="nonzero" opacity="0.1" points="283.292 55.585 335.918 55.585 335.918 56.129 283.292 56.129"></polygon>
            <polygon id="Rectangle_623" fill="#000000" fill-rule="nonzero" opacity="0.3" points="283.292 35.543 335.918 35.543 335.918 55.505 283.292 55.505"></polygon>
            <circle id="Ellipse_183" fill="#000000" fill-rule="nonzero" opacity="0.1" cx="295.542" cy="45.941" r="7.259"></circle>
            <circle id="Ellipse_184" fill="#000000" fill-rule="nonzero" opacity="0.1" cx="323.669" cy="45.941" r="7.259"></circle>
            <polygon id="Rectangle_624" fill="#584DFC" fill-rule="nonzero" points="304.161 60.04 315.049 60.04 315.049 66.393 304.161 66.393"></polygon>
            <polygon id="Rectangle_625" fill="#584DFC" fill-rule="nonzero" points="286.922 64.578 332.289 64.578 332.289 100.872 286.922 100.872"></polygon>
            <polygon id="Rectangle_626" fill="#584DFC" fill-rule="nonzero" points="286.014 108.13 333.196 108.13 333.196 112.667 286.014 112.667"></polygon>
            <polygon id="Path_1122" fill="#584DFC" fill-rule="nonzero" points="293.727 123.555 293.727 144.428 301.893 144.428 301.893 117.208 293.727 117.208"></polygon>
            <polygon id="Path_1123" fill="#584DFC" fill-rule="nonzero" points="318.227 117.204 318.227 144.428 326.393 144.428 326.393 117.208"></polygon>
            <path d="M280.743,72.745 L280.743,81.137 C278.501682,81.5285614 276.413298,82.5353616 274.711,84.045 C273.13225,85.5071138 271.904626,87.3073555 271.12,89.311 C270.119507,91.8830747 269.523115,94.5944994 269.352,97.349 C269.094449,100.950494 269.262273,104.569793 269.852,108.132 L260.78,108.132 C260.401675,103.797717 260.481113,99.435634 261.017,95.118 C261.444978,91.5490809 262.427473,88.0688484 263.929,84.803 C265.89018,80.4201163 269.29774,76.844156 273.581,74.674 C275.806369,73.5360803 278.246162,72.8788591 280.742,72.745 L280.743,72.745 Z" id="Path_1124" fill="#584DFC" fill-rule="nonzero"></path>
            <polygon id="Rectangle_627" fill="#000000" fill-rule="nonzero" opacity="0.3" points="293.727 117.204 301.893 117.204 301.893 123.555 293.727 123.555"></polygon>
            <polygon id="Rectangle_628" fill="#000000" fill-rule="nonzero" opacity="0.3" points="293.727 128.999 301.893 128.999 301.893 137.165 293.727 137.165"></polygon>
            <polygon id="Rectangle_629" fill="#000000" fill-rule="nonzero" opacity="0.3" points="293.727 141.702 301.893 141.702 301.893 144.424 293.727 144.424"></polygon>
            <polygon id="Rectangle_630" fill="#000000" fill-rule="nonzero" opacity="0.3" points="318.225 117.204 326.391 117.204 326.391 123.555 318.225 123.555"></polygon>
            <polygon id="Rectangle_631" fill="#000000" fill-rule="nonzero" opacity="0.3" points="318.225 128.999 326.391 128.999 326.391 137.165 318.225 137.165"></polygon>
            <polygon id="Rectangle_632" fill="#000000" fill-rule="nonzero" opacity="0.3" points="318.225 141.702 326.391 141.702 326.391 144.424 318.225 144.424"></polygon>
            <path d="M280.742,72.745 L280.742,81.137 C278.500682,81.5285614 276.412298,82.5353616 274.71,84.045 L273.581,74.674 C275.806379,73.5361083 278.246166,72.8788887 280.742,72.745 L280.742,72.745 Z" id="Path_1125" fill="#000000" fill-rule="nonzero" opacity="0.3"></path>
            <path d="M271.124,89.31 C270.1236,91.8821027 269.527211,94.5935128 269.356,97.348 L261.022,95.117 C261.45001,91.5480874 262.432504,88.0678598 263.934,84.802 L271.124,89.31 Z" id="Path_1126" fill="#000000" fill-rule="nonzero" opacity="0.3"></path>
            <path d="M338.468,72.745 L338.468,81.137 C340.709318,81.5285614 342.797702,82.5353616 344.5,84.045 C346.07875,85.5071138 347.306374,87.3073555 348.091,89.311 C349.091462,91.8830841 349.687853,94.5945039 349.859,97.349 C350.116458,100.950495 349.948634,104.569784 349.359,108.132 L358.432,108.132 C358.810325,103.797717 358.730887,99.435634 358.195,95.118 C357.76699,91.5490874 356.784496,88.0688598 355.283,84.803 C353.32182,80.4201163 349.91426,76.844156 345.631,74.674 C343.405022,73.5358102 340.964519,72.8785814 338.468,72.745 L338.468,72.745 Z" id="Path_1127" fill="#584DFC" fill-rule="nonzero"></path>
            <path d="M338.468,72.745 L338.468,81.137 C340.709318,81.5285614 342.797702,82.5353616 344.5,84.045 L345.629,74.674 C343.403631,73.5360803 340.963838,72.8788591 338.468,72.745 L338.468,72.745 Z" id="Path_1128" fill="#000000" fill-rule="nonzero" opacity="0.3"></path>
            <path d="M348.092,89.31 C349.092462,91.8820841 349.688853,94.5935039 349.86,97.348 L358.194,95.117 C357.76599,91.5480874 356.783496,88.0678598 355.282,84.802 L348.092,89.31 Z" id="Path_1129" fill="#000000" fill-rule="nonzero" opacity="0.3"></path>
            <polygon id="Rectangle_633" fill="#000000" fill-rule="nonzero" opacity="0.1" points="304.161 60.04 315.049 60.04 315.049 60.792 304.161 60.792"></polygon>
            <path d="M333.095,71.044 L333.095,86.244 C332.551934,85.6582288 332.250442,84.888779 332.251,84.09 L332.251,73.2 C332.249439,72.4004372 332.551035,71.6300083 333.095,71.044 L333.095,71.044 Z" id="Path_1130" fill="#000000" fill-rule="nonzero" opacity="0.1"></path>
            <path d="M287.082,72.047 L287.082,83.422 C287.027855,84.1413874 286.729341,84.8206307 286.236,85.347 L286.236,70.122 C286.729341,70.6483693 287.027855,71.3276126 287.082,72.047 L287.082,72.047 Z" id="Path_1131" fill="#000000" fill-rule="nonzero" opacity="0.1"></path>
            <polygon id="Rectangle_634" fill="#000000" fill-rule="nonzero" opacity="0.1" points="289.191 100.872 330.021 100.872 330.021 101.409 289.191 101.409"></polygon>
            <polygon id="Rectangle_635" fill="#000000" fill-rule="nonzero" opacity="0.1" points="288.282 112.668 308.243 112.668 308.243 113.085 288.282 113.085"></polygon>
            <polygon id="Rectangle_636" fill="#000000" fill-rule="nonzero" opacity="0.1" points="310.06 112.668 330.021 112.668 330.021 113.085 310.06 113.085"></polygon>
            <polygon id="Rectangle_637" fill="#584DFC" fill-rule="nonzero" points="290.509 4.136 293.633 4.136 293.633 31.006 290.509 31.006"></polygon>
            <polygon id="Rectangle_638" fill="#584DFC" fill-rule="nonzero" points="326.336 4.136 329.46 4.136 329.46 31.006 326.336 31.006"></polygon>
            <circle id="Ellipse_185" fill="#000000" fill-rule="nonzero" opacity="0.1" cx="291.967" cy="4.345" r="3.541"></circle>
            <circle id="Ellipse_186" fill="#584DFC" fill-rule="nonzero" cx="291.967" cy="4.136" r="3.541"></circle>
            <circle id="Ellipse_187" fill="#000000" fill-rule="nonzero" opacity="0.1" cx="328.002" cy="4.345" r="3.541"></circle>
            <circle id="Ellipse_188" fill="#584DFC" fill-rule="nonzero" cx="328.002" cy="4.136" r="3.541"></circle>
            <path d="M254.322,159.814 C252.929,161.209 252.611,163.124 252.116,164.901 C250.533875,170.212039 247.236335,174.849062 242.739,178.087 C239.339,180.604 234.789,183.387 235.594,187.146 C235.786,188.046 236.294,188.881 236.428,189.786 C237.006,193.703 231.019,195.766 228.701,199.194 C226.974,201.747 227.436,204.91 227.949,207.818 C228.577,211.378 229.337,215.175 232.257,217.796 C233.10606,218.420056 233.871337,219.150716 234.534,219.97 C235.766,221.881 234.695,224.385 235.815,226.344 C237.308,228.957 242.015,229.07 244.74,227.308 C247.465,225.546 248.73,222.65 249.94,219.935 C253.209,212.596 257.227,205.235 264.021,199.888 C270.535,194.764 280.01,190.788 281.128,183.33 C281.607,180.13 280.393,176.63 282.247,173.81 C283.123,172.479 284.588,171.492 285.58,170.22 C288.535,166.43 286.335,160.947 282.008,158.255 C275.476,154.189 260.005,154.124 254.322,159.814 L254.322,159.814 Z" id="Path_1132" fill="#DEE3F3" fill-rule="nonzero" opacity="0.5"></path>
            <polygon id="Rectangle_639" fill="#584DFC" fill-rule="nonzero" transform="translate(354.988645, 29.803363) rotate(-17.351000) translate(-354.988645, -29.803363) " points="339.908645 27.9693626 370.068645 27.9693626 370.068645 31.6373626 339.908645 31.6373626"></polygon>
            <path d="M381.653,159.822 C381.653,159.822 365.871,156.666 361.662,152.457 C357.453,148.248 338.514,140.883 336.41,146.144 C334.306,151.405 308.002,169.292 325.888,172.444 C343.774,175.596 367.974,176.653 373.235,174.544 C378.496,172.435 381.653,159.822 381.653,159.822 L381.653,159.822 Z" id="Path_1133" fill="#A8A8A8" fill-rule="nonzero"></path>
            <path d="M325.888,170.494 C343.775,173.651 367.974,174.703 373.235,172.594 C377.241,170.994 380.025,163.294 381.126,159.709 C381.459,159.78 381.652,159.819 381.652,159.819 C381.652,159.819 378.496,172.445 373.235,174.549 C367.974,176.653 343.774,175.601 325.888,172.449 C320.725,171.538 319.248,169.398 319.805,166.69 C320.246,168.456 322.045,169.815 325.888,170.494 L325.888,170.494 Z" id="Path_1134" fill="#000000" fill-rule="nonzero" opacity="0.2"></path>
            <path d="M416.701,22.227 C416.419602,21.5262918 415.97127,20.9049441 415.395,20.417 C411.161,16.557 404.31,17.727 399.052,15.369 C397.841,14.826 396.598,14.069 395.283,14.279 C393.446,14.567 391.739,16.658 390.137,15.731 L390.252,16.08 C390.214,16.061 390.175,16.042 390.137,16.02 L391.315,19.607 C391.693296,21.0124369 392.304425,22.3445488 393.123,23.548 C390.481303,25.85294 389.190609,29.3414841 389.695952,32.810769 C390.201296,36.2800539 392.433541,39.2554389 395.623,40.711 C395.679,40.831 395.734,40.952 395.787,41.073 L395.938,41.137 C396.287017,41.9396446 396.547554,42.7779232 396.715,43.637 C395.352,43.825 392.976,45.337 390.639,47.558 L385.966,47.398 C382.945294,47.2978606 380.022101,46.3043229 377.566,44.543 L363.591,34.496 C362.594635,34.5939311 361.65597,35.0089342 360.913,35.68 C359.178,33.872 357.705,31.98 357.83,30.88 C357.83,30.88 351.33,18.716 348.968,24.798 C346.606,30.88 353.399,37.251 353.399,37.251 L357.709,42.835 C357.539227,43.8138713 357.431678,44.8025205 357.387,45.795 C362.704,51.877 381.315,57.379 381.315,57.379 L384.215,57.519 L384.231,57.662 C384.052754,58.4233234 383.965477,59.2031084 383.971,59.985 C383.971,60.097 383.971,60.215 383.977,60.333 C383.977,60.41 383.97,60.488 383.971,60.565 C384.119,70.265 385.448,99.952 385.448,99.952 C385.707,99.837 385.974,99.731 386.248,99.632 L386.041,102.269 C386.041,102.269 373.634,104.007 364.476,107.482 C355.318,110.957 355.023,115.012 355.023,115.012 L355.023,150.788 C352.407,152.13 348.28,153.895 346.161,152.95 C343.861,151.925 342.599,152.786 342.37,153.685 C342.323421,153.861595 342.319992,154.046802 342.36,154.225 L342.36,154.236 C342.379482,154.315763 342.409054,154.392717 342.448,154.465 L342.457,154.482 C342.49914,154.557304 342.551653,154.626312 342.613,154.687 C343.499,155.556 362.701,163.087 367.132,161.927 C367.268289,161.891284 367.401941,161.846176 367.532,161.792 C367.575,161.774 367.612,161.751 367.654,161.732 C367.736,161.693 367.819,161.656 367.895,161.61 C367.941,161.583 367.982,161.55 368.025,161.521 C368.091,161.477 368.159,161.434 368.225,161.384 C368.268,161.35 368.307,161.31 368.348,161.274 C368.405,161.223 368.463,161.174 368.516,161.119 C368.569,161.064 368.589,161.034 368.626,160.992 C368.676,160.934 368.726,160.878 368.774,160.816 C368.808,160.772 368.837,160.724 368.874,160.677 C368.919,160.612 368.964,160.547 369.005,160.477 C369.033,160.43 369.059,160.377 369.085,160.33 C369.125,160.257 369.165,160.185 369.201,160.109 C369.224,160.06 369.245,160.009 369.267,159.959 C369.302,159.878 369.337,159.798 369.367,159.714 C369.386,159.665 369.402,159.614 369.42,159.564 C369.451,159.475 369.481,159.386 369.509,159.295 L369.549,159.15 C369.576,159.05 369.602,158.95 369.625,158.85 L369.654,158.715 C369.677541,158.607448 369.698879,158.499425 369.718,158.391 L369.738,158.269 C369.757099,158.151646 369.774102,158.033961 369.789,157.916 C369.789,157.882 369.797,157.848 369.801,157.816 C369.816,157.689 369.829,157.562 369.839,157.433 C369.839,157.406 369.839,157.379 369.845,157.352 C369.855667,157.214667 369.864333,157.077 369.871,156.939 L369.871,156.884 C369.877,156.736667 369.881,156.589333 369.883,156.442 L369.883,156.414 C369.876527,154.686251 369.685443,152.964141 369.313,151.277 L370.385,120.798 C376.186866,120.888278 381.989479,120.674652 387.769,120.158 L388.405,134.7 C388.405,134.7 388.405,144.257 391.654,148.6 C394.435,152.318 397.648,168.76 398.517,173.425 C397.323,175.701 395.039,178.516 391.063,178.425 C391.063,178.425 383.581,177.778 384.003,179.836 C384.014514,179.889814 384.030229,179.942642 384.05,179.994 L384.05,180.007 C384.073224,180.066037 384.100282,180.123493 384.131,180.179 L384.138,180.191 C384.168,180.244 384.203,180.299 384.238,180.355 L384.262,180.389 C384.306,180.45 384.353,180.512 384.408,180.576 L384.422,180.591 C384.472,180.649 384.527,180.709 384.586,180.77 L384.636,180.821 C384.703,180.888 384.773,180.957 384.851,181.027 C388.691,184.502 411.142,185.082 411.142,185.082 L411.142,185.004 L411.142,184.911 C411.111768,181.440913 410.61018,177.991024 409.651,174.656 L409.962,174.656 C409.962,174.656 406.713,145.406 404.054,141.93 C404.054,141.93 403.348,126.507 404.942,116.84 C405.042,116.805 405.142,116.77 405.236,116.734 C412.683,113.953 413.212,107.103 412.445,102.07 C413.854,102.523 414.689,102.833 414.689,102.833 L414.615,102.227 L414.689,102.254 C414.689,102.254 414.547,101.334 414.313,99.899 C413.78,95.953 412.748,89.056 411.649,85.799 C411.504755,85.1954687 411.336285,84.5979855 411.144,84.008 C410.509646,82.0514363 410.074111,80.0359168 409.844,77.992 C409.543056,75.3436103 409.390817,72.680432 409.388,70.015 C409.412422,66.4529795 409.685419,62.8970065 410.205,59.373 C410.691708,56.3884968 410.966728,53.3733078 411.028,50.35 C411.058807,49.4987549 410.999139,48.6466447 410.85,47.808 C410.456,46.008 408.715,44.83 406.904,44.083 C406.787,44.035 406.668,43.995 406.55,43.951 C406.594,43.267 406.65,42.492 406.727,41.674 C407.166392,41.9759356 407.710419,42.0843794 408.232,41.974 C408.986177,41.7155498 409.631924,41.2116984 410.066,40.543 C412.684,37.327 415.373,33.976 416.378,29.981 C416.779999,28.196758 416.966,26.3706516 416.932,24.542 L416.932,24.242 C416.971668,23.5620409 416.893518,22.8803413 416.701,22.227 L416.701,22.227 Z" id="Path_1135" fill="url(#linearGradient-1)" fill-rule="nonzero"></path>
            <path d="M392.864,37.901 C392.864,37.901 396.831,43.851 395.981,46.684 C395.131,49.517 405.331,47.817 405.331,47.817 C405.331,47.817 405.614,36.767 407.598,34.217 C409.582,31.667 392.864,37.901 392.864,37.901 Z" id="Path_1136" fill="#F7C4A7" fill-rule="nonzero"></path>
            <path d="M366.656,41.726 C366.656,41.726 358.439,34.926 358.723,32.376 C358.723,32.376 352.49,20.476 350.223,26.426 C347.956,32.376 354.473,38.609 354.473,38.609 L362.406,49.092 L366.656,41.726 Z" id="Path_1137" fill="#F7C4A7" fill-rule="nonzero"></path>
            <path d="M358.298,148.4 C358.298,148.4 350.648,153.217 347.531,151.8 C344.414,150.383 343.281,152.65 344.131,153.5 C344.981,154.35 363.397,161.717 367.647,160.583 C371.897,159.449 369.735,150.169 369.735,150.169 L358.298,148.4 Z" id="Path_1138" fill="#535461" fill-rule="nonzero"></path>
            <path d="M398.814,169.084 C398.814,169.084 396.972,176.876 390.597,176.734 C390.597,176.734 380.964,175.884 384.647,179.284 C388.33,182.684 409.863,183.251 409.863,183.251 C409.863,183.251 409.863,171.634 405.896,169.084 C403.78045,167.562635 400.92955,167.562635 398.814,169.084 L398.814,169.084 Z" id="Path_1139" fill="#535461" fill-rule="nonzero"></path>
            <path d="M387.198,114.115 L388.048,133.948 C388.048,133.948 388.048,143.298 391.165,147.548 C394.282,151.798 397.965,173.048 397.965,173.048 L408.732,173.048 C408.732,173.048 405.615,144.432 403.065,141.032 C403.065,141.032 401.932,115.816 405.898,110.149 L387.198,114.115 Z" id="Path_1140" fill="#575988" fill-rule="nonzero"></path>
            <path d="M387.198,114.115 L388.048,133.948 C388.048,133.948 388.048,143.298 391.165,147.548 C394.282,151.798 397.965,173.048 397.965,173.048 L408.732,173.048 C408.732,173.048 405.615,144.432 403.065,141.032 C403.065,141.032 401.932,115.816 405.898,110.149 L387.198,114.115 Z" id="Path_1141" fill="#000000" fill-rule="nonzero" opacity="0.1"></path>
            <path d="M409.58,96.267 C409.58,96.267 416.097,111.85 404.197,116.383 C392.297,120.916 370.764,120.35 370.764,120.35 L369.631,153.216 C369.631,153.216 356.314,154.916 356.031,150.666 L356.031,114.684 C356.031,114.684 356.314,110.717 365.098,107.317 C373.882,103.917 385.781,102.217 385.781,102.217 L386.348,94.85 L409.58,96.267 Z" id="Path_1142" fill="#575988" fill-rule="nonzero"></path>
            <path d="M399.139,44.936 C401.401811,44.685784 403.691198,45.0094002 405.796,45.877 C407.532,46.608 409.202,47.756 409.58,49.521 C410.028,51.612 409.531,56.302 408.961,60.269 C408.048802,66.4899427 407.932868,72.8017548 408.616,79.052 C408.733223,81.0652319 409.153624,83.0492422 409.863,84.937 C411.563,88.054 413.263,102.787 413.263,102.787 C413.263,102.787 394.563,95.704 385.213,99.954 C385.213,99.954 383.938,70.913 383.796,61.421 C383.686,54.072 393.004,45.696 396.121,45.413 C397.95,45.243 397.324,45.12 399.139,44.936 L399.139,44.936 Z" id="Path_1143" fill="#000000" fill-rule="nonzero" opacity="0.1"></path>
            <path d="M399.139,44.366 C401.401811,44.115784 403.691198,44.4394002 405.796,45.307 C407.532,46.037 409.202,47.186 409.58,48.951 C410.028,51.042 409.531,55.732 408.961,59.699 C408.048802,65.9199427 407.932868,72.2317548 408.616,78.482 C408.836472,80.4800065 409.254175,82.4512835 409.863,84.367 C411.138,88.192 413.263,102.217 413.263,102.217 C413.263,102.217 394.563,95.134 385.213,99.384 C385.213,99.384 383.938,70.343 383.796,60.851 C383.686,53.502 393.004,45.126 396.121,44.843 C397.95,44.677 397.324,44.554 399.139,44.366 L399.139,44.366 Z" id="Path_1144" fill="#E14B5A" fill-rule="nonzero"></path>
            <path d="M404.198,60.001 L384.082,58.868 C384.082,58.868 382.802,49.006 385.706,49.107 L405.615,49.802 C405.615,49.802 409.864,54.901 404.198,60.001 Z" id="Path_1145" fill="#000000" fill-rule="nonzero" opacity="0.1"></path>
            <path d="M404.198,59.434 L381.248,58.301 C381.248,58.301 363.398,52.918 358.298,46.968 C358.298,46.968 358.581,36.485 364.248,35.918 L377.648,45.747 C379.991055,47.4653673 382.797139,48.4385939 385.701,48.54 L405.61,49.235 C405.61,49.235 409.864,54.334 404.198,59.434 L404.198,59.434 Z" id="Path_1146" fill="#E14B5A" fill-rule="nonzero"></path>
            <path d="M405.189,39.176 C405.526,36.489 406.744,35.598 407.597,34.501 C409.58,31.951 392.864,38.184 392.864,38.184 C393.725965,39.5119711 394.48165,40.9059762 395.124,42.353 C396.458935,42.9676572 397.911356,43.2852998 399.381,43.284004 C401.846,43.284004 403.426,40.631 405.189,39.176 L405.189,39.176 Z" id="Path_1147" fill="#000000" fill-rule="nonzero" opacity="0.1"></path>
            <circle id="Ellipse_189" fill="#F7C4A7" fill-rule="nonzero" cx="399.381" cy="32.801" r="10.2"></circle>
            <path d="M392.94,25.652 C391.940547,24.3853381 391.224437,22.9190184 390.84,21.352 L389.71,17.842 C391.246,18.75 392.884,16.704 394.645,16.422 C395.906,16.222 397.098,16.957 398.26,17.489 C403.303,19.796 409.873,18.651 413.935,22.427 C414.489855,22.9072133 414.919835,23.5149503 415.188,24.198 C415.377143,24.8468482 415.453917,25.523267 415.415,26.198 C415.447746,27.9863719 415.269515,29.7723677 414.884,31.519 C413.919,35.427 411.341,38.706 408.83,41.852 C408.417652,42.5030749 407.797999,42.9962607 407.071,43.252 C405.613,43.578 404.485,42.002 403.921,40.619 C403.173842,38.7870065 402.622769,36.8810475 402.277,34.933 C402.189038,34.1008824 401.961521,33.289529 401.604,32.533 C400.726,30.977 398.562,29.504 397.246,28.298 C395.956,27.109 394.148,26.972 392.94,25.652 L392.94,25.652 Z" id="Path_1148" fill="#000000" fill-rule="nonzero" opacity="0.1"></path>
            <path d="M392.94,25.369 C391.940547,24.1023381 391.224437,22.6360184 390.84,21.069 L389.71,17.559 C391.246,18.467 392.884,16.421 394.645,16.139 C395.906,15.939 397.098,16.674 398.26,17.206 C403.303,19.513 409.873,18.368 413.935,22.144 C414.489855,22.6242133 414.919835,23.2319503 415.188,23.915 C415.377143,24.5638482 415.453917,25.240267 415.415,25.915 C415.447746,27.7033719 415.269515,29.4893677 414.884,31.236 C413.919,35.144 411.341,38.423 408.83,41.569 C408.417652,42.2200749 407.797999,42.7132607 407.071,42.969 C405.613,43.295 404.485,41.719 403.921,40.336 C403.173863,38.5039991 402.622791,36.5980424 402.277,34.65 C402.189038,33.8178824 401.961521,33.006529 401.604,32.25 C400.726,30.694 398.562,29.221 397.246,28.015 C395.956,26.821 394.148,26.688 392.94,25.369 L392.94,25.369 Z" id="Path_1149" fill="#632652" fill-rule="nonzero"></path>
            <ellipse id="Ellipse_190" fill="#F7C4A7" fill-rule="nonzero" cx="402.072" cy="33.935" rx="1" ry="1.842"></ellipse>
            <path d="M407.176,83.092 C407.176,83.092 406.609,84.792 403.776,84.509 C400.943,84.226 392.726,83.659 392.726,84.509" id="Path_1150" fill="#000000" fill-rule="nonzero" opacity="0.1"></path>
            <path d="M384.647,179 C384.257754,178.699695 383.970121,178.287096 383.823,177.818 C383.749,178.186 383.976,178.664 384.647,179.284 C388.33,182.684 409.863,183.251 409.863,183.251 L409.863,182.968 C409.725,182.963 388.319,182.389 384.647,179 Z" id="Path_1151" fill="#FFFFFF" fill-rule="nonzero" opacity="0.5"></path>
            <path d="M367.647,160.017 C363.397,161.15 344.98,153.784 344.131,152.934 C344.017338,152.819123 343.93594,152.676332 343.895,152.52 C343.794682,152.865726 343.884415,153.238728 344.131,153.501 C344.981,154.351 363.397,161.718 367.647,160.584 C369.835,160.001 370.322,157.259 370.281,154.736 C370.24,157.089 369.672,159.477 367.647,160.017 L367.647,160.017 Z" id="Path_1152" fill="#FFFFFF" fill-rule="nonzero" opacity="0.5"></path>
            <path d="M206.022,181.734 C205.028419,176.206141 204.41896,170.616094 204.198,165.004 C203.799539,155.53152 197.483801,147.334515 188.426,144.534 C186.667234,143.994719 184.884701,143.536239 183.084,143.16 C165.914,139.513 160.698,142.697 160.106,143.116 C159.606014,142.201631 159.171588,141.252911 158.806,140.277 L158.722,139.977 C162.119512,136.352997 164.189308,131.685031 164.594,126.734 C167.402788,124.081061 169.036033,120.41643 169.131,116.554 C169.078388,113.270968 167.872294,110.111123 165.724,107.628 L165.724,102.508 C165.724,96.5936723 163.374542,90.92158 159.192481,86.7395188 C155.01042,82.5574575 149.338328,80.208 143.424,80.208 L141.616,80.208 C129.30005,80.208 119.316,90.1920501 119.316,102.508 L119.316,108.034 C117.361757,110.447404 116.275892,113.447884 116.233,116.553 C116.319978,120.328839 117.885582,123.919673 120.593,126.553 C120.969421,131.686091 123.134848,136.524419 126.712,140.225 C126.833,141.062 126.956,141.963 127.078,142.914 L96.359,149.414 C96.359,149.414 84.516,149.901 76.89,165.638 C70.435,178.961 57.585,213.211 53.79,223.408 C53.103,225.256 52.713,226.315 52.713,226.315 C52.713,226.315 52.839,226.188 53.08,225.971 L52.713,226.964 C52.713,226.964 52.899,226.775 53.254,226.464 C52.716,230.731 52.639,238.055 58.229,238.964 C62.915,239.729 74.985,240.043 84.106,240.172 L84.106,240.181 L84.739,240.181 C90.783,240.262 95.382,240.262 95.382,240.262 L95.382,240.181 L193.455,240.181 L193.455,239.176 C193.45612,238.263293 193.272429,237.359809 192.915,236.52 C192.962333,236.466 193.008,236.411333 193.052,236.356 C193.576914,237.048928 193.926203,237.858675 194.07,238.716 C194.059134,238.799763 194.043778,238.882883 194.024,238.965 L194.082,238.815 C194.105381,239.083054 194.085802,239.353122 194.024,239.615 C194.024,239.615 206.607,207.194 206.472,187.836 C206.508697,185.792745 206.35436,183.750532 206.011,181.736 L206.022,181.734 Z M127.594,147.287 C127.431947,146.361079 127.328076,145.425913 127.283,144.487 L127.283,144.461 C127.389,145.376 127.494,146.32 127.594,147.287 Z M89.474,216.925 L89.474,224.652 L84.63,225.686 L89.474,216.925 Z" id="Path_1153" fill="url(#linearGradient-2)" fill-rule="nonzero"></path>
            <path d="M142.022,83.33 C154.33795,83.33 164.322,93.3140501 164.322,105.63 L164.322,115.141 L119.726,115.141 L119.726,105.63 C119.726,93.3140501 129.71005,83.33 142.026,83.33 L142.022,83.33 Z" id="Path_1154" fill="#E14B5A" fill-rule="nonzero"></path>
            <ellipse id="Ellipse_191" fill="#E14B5A" fill-rule="nonzero" cx="142.178" cy="118.256" rx="25.414" ry="17.463"></ellipse>
            <path d="M125.885,135.176 C125.885,135.176 131.185,162.929 125.885,170.413 C120.585,177.897 142.1,180.859 142.1,180.859 L164.4,172.751 L167.518,152.794 C167.518,152.794 153.953,145.154 156.76,129.718 L125.885,135.176 Z" id="Path_1155" fill="#F7C4A7" fill-rule="nonzero"></path>
            <path d="M191.681,228.722 C191.681,228.722 193.081,234.803 185.444,235.894 C180.932182,236.557814 176.343719,236.503137 171.849,235.732 L170.164,220.458 L187.938,220.458 L191.681,228.722 Z" id="Path_1156" fill="#F7C4A7" fill-rule="nonzero"></path>
            <path d="M56.758,220.938 C56.758,220.938 53.384,234.646 61.024,235.893 C68.664,237.14 96.724,237.14 96.724,237.14 L96.724,220.925 L84.024,223.639 L72.094,212.194 L56.758,220.938 Z" id="Path_1157" fill="#F7C4A7" fill-rule="nonzero"></path>
            <path d="M127.522,144.138 L97.664,150.453 C97.664,150.453 86.282,150.921 78.954,166.045 C71.626,181.169 55.723,224.357 55.723,224.357 C55.723,224.357 69.288,210.636 85.191,225.292 L95.791,206.114 L93.452,236.514 L175.619,236.514 L175.619,222.176 C175.619,222.176 192.77,231.376 191.519,236.52 C191.519,236.52 206.195,198.706 203.039,181.52 C202.084117,176.207574 201.498382,170.835382 201.286,165.442 C200.902353,156.339549 194.833019,148.463069 186.129,145.772 C184.438504,145.255806 182.725797,144.815367 180.996,144.452 C163.378,140.71 158.856,144.452 158.856,144.452 C158.856,144.452 155.443,155.552 155.504,160.589 C155.582,167.059 146.304,171.347 146.304,171.347 C146.304,171.347 132.583,168.073 131.96,165.422 C131.337,162.771 126.431,147.256 127.522,144.138 L127.522,144.138 Z" id="Path_1158" fill="#000000" fill-rule="nonzero" opacity="0.1"></path>
            <path d="M127.521,143.513 L97.663,149.828 C97.663,149.828 86.281,150.296 78.953,165.42 C71.625,180.544 55.722,223.732 55.722,223.732 C55.722,223.732 69.287,210.011 85.19,224.667 L95.79,205.489 L93.451,235.889 L175.618,235.889 L175.618,221.549 C175.618,221.549 192.769,230.749 191.518,235.893 C191.518,235.893 206.194,198.079 203.038,180.893 C202.083133,175.580571 201.497398,170.208381 201.285,164.815 C200.901353,155.712549 194.832019,147.836069 186.128,145.145 C184.437198,144.628692 182.724154,144.188252 180.994,143.825 C163.376,140.083 158.854,143.825 158.854,143.825 C158.854,143.825 155.441,154.925 155.502,159.962 C155.58,166.432 146.302,170.72 146.302,170.72 C146.302,170.72 132.581,167.446 131.958,164.795 C131.335,162.144 126.43,146.632 127.521,143.513 L127.521,143.513 Z" id="Path_1159" fill="#575988" fill-rule="nonzero"></path>
            <path d="M158.037,142.189 C156.782552,138.637779 156.501493,134.815517 157.223,131.119 L126.352,136.576 C126.352,136.576 126.798,138.909 127.301,142.404 C131.332701,146.587955 136.904942,148.933796 142.715144,148.893153 C148.525346,148.852511 154.064224,146.428947 158.037,142.189 L158.037,142.189 Z" id="Path_1160" fill="#000000" fill-rule="nonzero" opacity="0.1"></path>
            <path d="M163.304,126.285 C163.446213,137.993437 154.069937,147.600287 142.3615,147.7425 C130.653063,147.884713 121.046213,138.508437 120.904,126.8 L120.904,126.285 C120.902941,118.183575 125.516724,110.789105 132.794,107.229 C133.426667,106.920333 134.079,106.641333 134.751,106.392 C138.241369,105.109141 142.006232,104.759955 145.673,105.379 L145.681,105.379 C155.349706,107.025307 162.624788,115.092184 163.267,124.879 C163.291667,125.344333 163.304,125.813 163.304,126.285 L163.304,126.285 Z" id="Path_1161" fill="#F7C4A7" fill-rule="nonzero"></path>
            <g id="Group_364" opacity="0.1" transform="translate(120.895000, 105.859000)" fill="#000000" fill-rule="nonzero">
                <path d="M13.817,1.031 L13.847,1.012 C5.52209976,4.09050425 -0.00376844851,12.0291261 -1.92625686e-06,20.905 C-1.92625686e-06,21.076 -1.92625686e-06,21.248 0.006,21.419 C0.664317838,21.4011723 1.31158058,21.2454885 1.906,20.962 C7.076,18.55 10.177,11.167 11.395,6.019 C11.834,4.177 12.252,2.1 13.817,1.031 L13.817,1.031 Z" id="Path_1162"></path>
                <path d="M30.048,1.626 C28.3700155,0.854913015 26.5977726,0.308210878 24.777,1.70530257e-13 C26.2709569,0.343279736 27.6051034,1.18126188 28.563,2.378 C29.0323575,3.01668517 29.4215975,3.71053319 29.722,4.444 C24.0105011,1.94716041 17.4910255,2.08241924 11.888,4.814 C13.22,7.731 17.347,9.323 20.102,10.388 C23.1186667,11.5526667 26.171,12.6176667 29.259,13.583 C28.3503333,12.8436667 27.4413333,12.1056667 26.532,11.369 L32.689,12.348 C32.755641,11.1222704 32.6101714,9.89423663 32.259,8.718 C33.431,9.669 35.003,9.987 36.283,10.795 C38.683,12.307 39.683,15.226 40.989,17.743 C41.2918085,18.4358184 41.7647833,19.0408821 42.364,19.502 C41.8493774,11.734988 37.1221633,4.87369542 30.048,1.626 L30.048,1.626 Z" id="Path_1163"></path>
            </g>
            <path d="M134.712,106.411 L134.742,106.392 C126.4171,109.470504 120.891232,117.409126 120.894998,126.285 C120.894998,126.456 120.894998,126.628 120.901,126.8 C121.559318,126.782172 122.206581,126.626489 122.801,126.343 C127.971,123.931 131.072,116.548 132.29,111.4 C132.729,109.557 133.147,107.479 134.712,106.411 L134.712,106.411 Z" id="Path_1164" fill="#632652" fill-rule="nonzero"></path>
            <path d="M150.943,107.006 C149.265011,106.234924 147.49277,105.688222 145.672,105.38 C147.165957,105.72328 148.500103,106.561262 149.458,107.758 C149.927349,108.396691 150.316588,109.090538 150.617,109.824 C144.905501,107.32716 138.386025,107.462419 132.783,110.194 C134.115,113.111 138.242,114.703 140.997,115.768 C144.013667,116.932667 147.066,117.997667 150.154,118.963 C149.245333,118.223667 148.336333,117.485667 147.427,116.749 L153.584,117.728 C153.650621,116.502271 153.505152,115.274241 153.154,114.098 C154.326,115.049 155.898,115.367 157.178,116.175 C159.578,117.687 160.578,120.606 161.884,123.123 C162.186809,123.815818 162.659783,124.420882 163.259,124.882 C162.744377,117.114988 158.017163,110.253695 150.943,107.006 L150.943,107.006 Z" id="Path_1165" fill="#632652" fill-rule="nonzero"></path>
            <path d="M118.479,122.788 C118.479,122.788 140.307,95.659 165.565,122.788 L163.382,116.707 C163.382,116.707 151.533,99.401 143.117,103.143 C134.701,106.885 126.434,109.536 126.434,109.536 L118.479,122.788 Z" id="Path_1166" fill="#000000" fill-rule="nonzero" opacity="0.1"></path>
            <path d="M118.479,122.309 C118.479,122.309 140.307,95.18 165.565,122.309 L163.382,116.228 C163.382,116.228 151.533,98.922 143.117,102.668 C134.701,106.414 126.434,109.061 126.434,109.061 L118.479,122.309 Z" id="Path_1167" fill="#E14B5A" fill-rule="nonzero"></path>
            <path d="M100.547,180.777 C100.547,180.777 95.87,193.25 102.418,204.477 C108.966,215.704 96.649,220.377 96.649,220.377" id="Path_1168" fill="#000000" fill-rule="nonzero" opacity="0.1"></path>
            <path d="M176.323,169.551 C176.323,169.551 184.431,179.841 179.13,189.04 C173.829,198.239 174.141,220.379 174.141,220.379" id="Path_1169" fill="#000000" fill-rule="nonzero" opacity="0.1"></path>
            <path d="M93.376,229.579 L183.495,229.579 C187.628299,229.579 190.979,232.929701 190.979,237.063 L85.892,237.063 C85.892,235.07812 86.6804906,233.174535 88.0840128,231.771013 C89.4875351,230.367491 91.3911198,229.579 93.376,229.579 L93.376,229.579 Z" id="Path_1170" fill="#535461" fill-rule="nonzero"></path>
            <path d="M106.932,178.127 L169.939,178.127 C178.716423,178.12976 185.83124,185.244577 185.834,194.022 L185.834,231.294 L91.034,231.294 L91.034,194.022 C91.0367608,185.242625 98.1546247,178.127 106.934,178.127 L106.932,178.127 Z" id="Path_1171" fill="#535461" fill-rule="nonzero"></path>
            <circle id="Ellipse_192" fill="#FFFFFF" fill-rule="nonzero" cx="138.358" cy="207.049" r="5.613"></circle>
            <path d="M119.726,110.068 C119.726,110.068 141.18,88.626 164.318,109.677" id="Path_1172" stroke="#000000" opacity="0.1"></path>
            <polygon id="Rectangle_640" fill="#6A5C99" fill-rule="nonzero" points="167.585 108.702 169.74 108.702 169.74 120.912 167.585 120.912"></polygon>
            <path d="M164.712,116.602 C168.811057,116.602 172.134,119.924943 172.134,124.024 L172.134,124.503 C172.134,128.602057 168.811057,131.925 164.712,131.925 L164.712,116.602 Z" id="Path_1173" fill="#FFD037" fill-rule="nonzero"></path>
            <rect id="Rectangle_641" fill="#6A5C99" fill-rule="nonzero" x="163.275" y="115.884" width="3.352" height="16.759" rx="1.676"></rect>
            <polygon id="Rectangle_642" fill="#6A5C99" fill-rule="nonzero" transform="translate(115.162500, 115.047000) rotate(180.000000) translate(-115.162500, -115.047000) " points="114.085 108.942 116.24 108.942 116.24 121.152 114.085 121.152"></polygon>
            <path d="M111.69,116.842 C115.789057,116.842 119.112,120.164943 119.112,124.264 L119.112,124.742 C119.112,128.841057 115.789057,132.164 111.69,132.164 L111.69,116.842 Z" id="Path_1174" fill="#FFD037" fill-rule="nonzero" transform="translate(115.401000, 124.503000) rotate(180.000000) translate(-115.401000, -124.503000) "></path>
            <rect id="Rectangle_643" fill="#6A5C99" fill-rule="nonzero" transform="translate(118.872000, 124.504500) rotate(180.000000) translate(-118.872000, -124.504500) " x="117.196" y="116.125" width="3.352" height="16.759" rx="1.676"></rect>
            <path d="M167.33,95.652 C164.413,89.586 158.058,82.252 144.361,81.666 L144.361,81.646 L144.197,81.654 L144.186,81.654 L139.334,81.885 L139.334,81.909 C125.727,82.535 119.403,89.841 116.494,95.888 C114.560049,99.9843993 113.533975,104.450281 113.486,108.98 L115.161,108.939 L116.836,108.901 C116.909216,104.863702 117.839064,100.88799 119.564,97.237 C123.258,89.65 130.054,85.615 139.764,85.243 L144.056,85.005 C153.766,85.377 160.562,89.413 164.256,96.999 C165.980965,100.64998 166.910814,104.625698 166.984,108.663 L168.659,108.701 L170.334,108.742 C170.286025,104.212281 169.259951,99.7463993 167.326,95.65 L167.33,95.652 Z" id="Path_1175" fill="#FFD037" fill-rule="nonzero"></path>
            <polygon id="Rectangle_644" fill="#D6D6E3" fill-rule="nonzero" points="15.33 237.162 243.883 237.162 243.883 298.526 15.33 298.526"></polygon>
            <polygon id="Rectangle_645" fill="#000000" fill-rule="nonzero" opacity="0.1" points="15.33 241.292 243.883 241.292 243.883 249.257 15.33 249.257"></polygon>
            <polygon id="Rectangle_646" fill="#D6D6E3" fill-rule="nonzero" points="0 236.276 259.212 236.276 259.212 244.241 0 244.241"></polygon>
            <path d="M177.496,216.467 C177.496,216.467 187.278,234.4 211.731,229.509 C236.184,224.618 224.366,274.749 224.366,274.749 C224.366,274.749 220.366,298.663 223.181,298.525595" id="Path_1176" stroke="#535461" stroke-width="3"></path>
        </g>
    </g>
</svg>