<svg xmlns="http://www.w3.org/2000/svg" width="352.607" height="275.851" viewBox="0 0 352.607 275.851">
    <defs>
        <style>
            .cls-1,.cls-7,.cls-9{fill:#584dfc}.cls-1{opacity:.136}.cls-2{fill:#dedbff;opacity:.587}.cls-3{fill:#d0d2d5}.cls-17,.cls-4,.cls-8{opacity:.1}.cls-5{fill:#3f3d56}.cls-6{fill:#fff}.cls-8{fill:#444053}.cls-9{opacity:.3}.cls-10{fill:#fa5959}.cls-10,.cls-11,.cls-12{opacity:.8}.cls-11{fill:#fed253}.cls-12{fill:#8ccf4d}.cls-13{fill:url(#linear-gradient)}.cls-14{fill:#2f2e41}.cls-15{fill:#454b69}.cls-16{fill:#fbbebe}
        </style>
        <linearGradient id="linear-gradient" x1=".459" x2=".459" y1=".999" y2="-.006" gradientUnits="objectBoundingBox">
            <stop offset="0" stop-color="gray" stop-opacity=".251"/>
            <stop offset=".54" stop-color="gray" stop-opacity=".122"/>
            <stop offset="1" stop-color="gray" stop-opacity=".102"/>
        </linearGradient>
    </defs>
    <g id="Group_351" data-name="Group 351" transform="translate(-17.359 -42.916)">
        <path id="Path_1186" d="M176.3 0c97.37 0 176.3 6.129 176.3 13.689s-78.927 13.69-176.3 13.69S0 21.25 0 13.689 78.934 0 176.3 0z" class="cls-1" data-name="Path 1186" transform="translate(17.359 256.956)"/>
        <ellipse id="Ellipse_170" cx="47.706" cy="8.297" class="cls-2" data-name="Ellipse 170" rx="47.706" ry="8.297" transform="translate(206.937 302.173)"/>
        <path id="Path_965" d="M451.169 613.75l-73.919-.95.22-1.9 3.572-31.274h64.917l4.775 31.274.365 2.373z" class="cls-3" data-name="Path 965" transform="translate(-221.495 -342.689)"/>
        <path id="Path_966" d="M451.1 657.393h-36.889l-36.961-.477.22-1.9h73.263z" class="cls-4" data-name="Path 966" transform="translate(-221.495 -386.805)"/>
        <path id="Rectangle_617" d="M0 0h98.087v2.369H0z" class="cls-3" data-name="Rectangle 617" transform="translate(143.435 268.692)"/>
        <path id="Path_967" d="M494.52 175.189a6.169 6.169 0 0 0-6.139-6.189H214.459a6.169 6.169 0 0 0-6.139 6.2v166.034h286.2z" class="cls-5" data-name="Path 967" transform="translate(-159.417 -126.084)"/>
        <path id="Path_968" d="M208.32 580.19v19.447a6.139 6.139 0 0 0 6.139 6.139h273.922a6.14 6.14 0 0 0 6.139-6.139V580.19z" class="cls-3" data-name="Path 968" transform="translate(-159.417 -366.7)"/>
        <path id="Rectangle_618" d="M0 0h263.928v149.261H0z" class="cls-6" data-name="Rectangle 618" transform="translate(60.75 53.328)"/>
        <path id="Path_969" d="M547.7 606.024a6.389 6.389 0 0 0 5.032-2.443 6.655 6.655 0 0 0 .5-.73l-3.514-.593 3.8.025a6.4 6.4 0 0 0 .12-5.065l-5.09 2.638 4.7-3.451a6.4 6.4 0 1 0-10.566 7.16 6.388 6.388 0 0 0 5.028 2.46z" class="cls-7" data-name="Path 969" transform="translate(-354.273 -374.327)"/>
        <path id="Path_970" d="M483.48 584.77l29.49 29.619-4.526-29.619z" class="cls-4" data-name="Path 970" transform="translate(-283.657 -345.697)"/>
        <path id="Rectangle_619" d="M0 0h264.215v8.72H0z" class="cls-8" data-name="Rectangle 619" transform="translate(60.543 53.345)"/>
        <rect id="Rectangle_620" width="79.606" height="5.306" class="cls-9" data-name="Rectangle 620" rx=".58" transform="translate(152.279 54.863)"/>
        <path id="Path_971" d="M639.448 201.781h-.2l-.07-.062a1.614 1.614 0 0 0 .373-1.033 1.568 1.568 0 1 0-1.564 1.58 1.618 1.618 0 0 0 1.033-.377l.071.062v.195l1.215 1.215.361-.365zm-1.456 0a1.087 1.087 0 1 1 .774-.32 1.1 1.1 0 0 1-.774.32z" class="cls-5" data-name="Path 971" transform="translate(-409.928 -143.715)"/>
        <circle id="Ellipse_171" cx="1.597" cy="1.597" r="1.597" class="cls-10" data-name="Ellipse 171" transform="translate(63.696 56.108)"/>
        <circle id="Ellipse_172" cx="1.597" cy="1.597" r="1.597" class="cls-11" data-name="Ellipse 172" transform="translate(68.089 56.108)"/>
        <circle id="Ellipse_173" cx="1.597" cy="1.597" r="1.597" class="cls-12" data-name="Ellipse 173" transform="translate(72.486 56.108)"/>
        <path id="Path_972" d="M547.2 337.419c-3.621-4.812-8.869-7.849-14.71-7.849s-11.088 3.037-14.71 7.849a15.881 15.881 0 0 0 29.42 0z" class="cls-7" data-name="Path 972" transform="translate(-340.503 -220.045)"/>
        <path id="Path_973" d="M497.434 347.185a3.806 3.806 0 0 1-.73-.415 2.929 2.929 0 0 1-.8-1.041 2.979 2.979 0 1 0-4.862.722 3.317 3.317 0 0 0 .705.568 2.05 2.05 0 0 1 .792.83 5.991 5.991 0 0 0 1.377 1.809 12.028 12.028 0 0 0 1.888 1.327 27.508 27.508 0 0 0-1.552 8.114 11.222 11.222 0 0 0-3.161.51 5.1 5.1 0 0 0-1.464.73 3.5 3.5 0 0 0-.361-.025 2.983 2.983 0 1 0 2.792 4.032 1.9 1.9 0 0 1 1.539-1.245 6.951 6.951 0 0 1 .767-.05 26.715 26.715 0 0 0 3.547 11.064 8.7 8.7 0 0 0-3.3 4.505 1.246 1.246 0 0 0-.236.17 2.825 2.825 0 0 0-.348.324 2.978 2.978 0 1 0 5 .975 1.954 1.954 0 0 1 .485-2.107 8.36 8.36 0 0 1 .705-.606c3.364 3.928 7.367 6.446 12.366 6.745v-26.652a18.4 18.4 0 0 1-15.149-10.284zm41.413 13.158a3.3 3.3 0 0 0-.361.025 5.624 5.624 0 0 0-1.464-.73 11.145 11.145 0 0 0-3.161-.51 28.112 28.112 0 0 0-1.551-8.11 12.04 12.04 0 0 0 1.888-1.327 6.463 6.463 0 0 0 1.427-1.9 1.75 1.75 0 0 1 .734-.726 2.978 2.978 0 1 0-4.148-1.315 2.829 2.829 0 0 1-.8 1.041 7.837 7.837 0 0 1-.73.535 18.271 18.271 0 0 1-15.133 10.159v26.678c4.978-.3 9.006-2.829 12.366-6.745.261.207.481.394.668.568a2.016 2.016 0 0 1 .523 2.17 2.978 2.978 0 1 0 5.011-.967 2.832 2.832 0 0 0-.349-.324 2.98 2.98 0 0 0-.236-.17 8.583 8.583 0 0 0-3.319-4.505 26.715 26.715 0 0 0 3.547-11.064 6.6 6.6 0 0 1 .734.05 1.991 1.991 0 0 1 1.6 1.245 2.979 2.979 0 0 0 5.745-.9 3.024 3.024 0 0 0-2.983-3.178z" class="cls-7" data-name="Path 973" transform="translate(-322.07 -226.995)"/>
        <path id="Path_974" d="M670.538 622.627a3.966 3.966 0 0 0-.9-1 11.959 11.959 0 0 1-3.1-6.691 68.269 68.269 0 0 0-1.294-7.388 24.361 24.361 0 0 0-1.46-3.6c-.415-.888-.938-2.626-1.7-3.248a1.119 1.119 0 0 0-.523-.253 6.161 6.161 0 0 0-1.5-2c-1.186-1.074-2.634-1.929-3.427-3.319a7.466 7.466 0 0 0-.8-1.365c-.535-.589-1.381-.83-1.875-1.452-.643-.8-.5-1.958-.415-2.983s0-2.253-.888-2.792c-.531-.328-1.215-.295-1.767-.585a2.558 2.558 0 0 1-1.141-2.394c.017-.933.307-1.842.382-2.775.232-2.97-1.726-5.924-.971-8.8a17.9 17.9 0 0 1 1.427-3.053 6.387 6.387 0 0 0 .415-1.054 14.821 14.821 0 0 0 4.041.975c-2.286-5.127-1.705-11.084-2.771-16.593l.137-.187a8.646 8.646 0 0 0 1.751-4.92c0-2.049-.958-3.966-1.39-5.974-.369-1.705-.353-3.489-.83-5.165a15.612 15.612 0 0 0-1.311-3q-.776-1.439-1.63-2.833l-1.6-5.277a25.5 25.5 0 0 0-2.966-7.11c-.531-.78-.693-2.365-1.51-2.837a3.655 3.655 0 0 0-2.157-.377 4.033 4.033 0 0 1-2.311-2.858 2.767 2.767 0 0 1 .083-.83h.141c1.825-.166 2.75-1.776 3.7-3.186 1.535-2.282.95-5.368 0-7.965a5.394 5.394 0 0 0-1.245-2.194c-1.332-1.245-3.439-.971-5.156-1.572-.577-.2-1.116-.5-1.7-.643a5.1 5.1 0 0 0-3.381.635 33.665 33.665 0 0 1-3.115 1.622c-1.1.415-2.448.742-2.717 1.867a2.075 2.075 0 0 0 .091 1.133 4.224 4.224 0 0 0 1.282 1.85 7.388 7.388 0 0 0 4.509 10.3c.315.506.61 1.02.879 1.547a5.1 5.1 0 0 1 .722 3.02 9.312 9.312 0 0 0-.83 1.016 19.55 19.55 0 0 0-2.489 5.546 58.755 58.755 0 0 0-2 7.579 56.947 56.947 0 0 0-2.983 6.471 14.609 14.609 0 0 1-3.891-.523l-3.5-.792a7.915 7.915 0 0 1-3.443-1.381c-.506-.415-.9-.967-1.415-1.377s-1.547-.892-2.111-.552a1.662 1.662 0 0 0-.286.22c-.514-1.041-1-2.074-1.6-3.082a5.847 5.847 0 0 0-3.754-2.97 3.821 3.821 0 0 0-2.817.655c-.946.672-1.539 2.074-.83 3.02a5.508 5.508 0 0 0 .577.589 12.119 12.119 0 0 1 1.282 1.78 9.089 9.089 0 0 0 5.6 3.634l-.145.415c-.295.863-.921 1.9-.763 2.8l15.573 5.331a9.592 9.592 0 0 0 3.136.693 5.063 5.063 0 0 0 1.245-.166v.83c.042 5.472-.83 10.906-.991 16.373a4.247 4.247 0 0 0 .631 2.854 3.2 3.2 0 0 0 3.049.83 7.083 7.083 0 0 0 .772-.174 28.766 28.766 0 0 1 .8 4.194l1.029 7.409a11.26 11.26 0 0 1 .162 2.3c-.12 1.738-1.037 3.294-1.7 4.9s-1.058 3.526-.187 5.028c.274.465.651.859.9 1.34a5.451 5.451 0 0 1 .415 2.356q.1 3.352.182 6.712a.759.759 0 0 0-.523.1c-.863.672-.767 3.87-.83 4.862-.066 1.659 0 3.352-.091 5.028a29.965 29.965 0 0 1-1.083 6.675 4.27 4.27 0 0 1-.95 1.912 4.041 4.041 0 0 1-1.688.875 19.284 19.284 0 0 1-6.393.871 6.292 6.292 0 0 0-2.6.22 1.791 1.791 0 0 0-1.174 2.074 2.616 2.616 0 0 0 1.713 1.29 27.179 27.179 0 0 1 4.563 2.1 12.34 12.34 0 0 0 1.763 1 9.094 9.094 0 0 0 1.817.448l7.355 1.269c1.506.257 3.319.415 4.277-.83a3.77 3.77 0 0 0 .568-2.439 32.579 32.579 0 0 1-.158-5.007 15.407 15.407 0 0 1 .772-2.875q1.1-3.265 2.207-6.525a34.293 34.293 0 0 0 1.771-6.675 2.488 2.488 0 0 0-.539-2.294 1.469 1.469 0 0 0-.548-.282c-.025-2-.286-4-.174-6 .029-.5.079-1 .12-1.5a7.313 7.313 0 0 1 1.025 1.211c.709 1.112.971 2.58 2.053 3.319.921.631 2.286.6 2.933 1.51a4.257 4.257 0 0 1 .465 1.124 8.015 8.015 0 0 0 1.659 2.634 13.273 13.273 0 0 0 1.025 2.63q.917 1.937 1.825 3.862a45.058 45.058 0 0 0 2.074 4.053 11.427 11.427 0 0 1 1.39 2.68 6.156 6.156 0 0 1-1.879 5.808 16.153 16.153 0 0 1-5.463 3.186 1.539 1.539 0 0 0-.556.332 1.074 1.074 0 0 0-.253.722 2.342 2.342 0 0 0 1.692 2.074 6.331 6.331 0 0 0 2.833.1 42.08 42.08 0 0 0 15.274-4.513 5.392 5.392 0 0 0 1.821-1.406 2.128 2.128 0 0 0 .28-2.157z" class="cls-13" data-name="Path 974" transform="translate(-388.778 -316.995)"/>
        <path id="Path_975" d="M709.171 572.2q1.328 2.037 2.489 4.173a15.347 15.347 0 0 1 1.315 2.974c.481 1.659.469 3.431.83 5.123.415 1.991 1.386 3.891 1.386 5.932a8.53 8.53 0 0 1-1.751 4.878 23.16 23.16 0 0 1-3.659 3.775 77.828 77.828 0 0 1-5.177-25.392 8.91 8.91 0 0 1 .39-3.568c.27-.705 1.564-2.638 2.4-1.879.3.278.382 1.531.568 1.95a14.992 14.992 0 0 0 1.211 2.033z" class="cls-14" data-name="Path 975" transform="translate(-449.816 -359.591)"/>
        <path id="Path_976" d="M709.171 572.2q1.328 2.037 2.489 4.173a15.347 15.347 0 0 1 1.315 2.974c.481 1.659.469 3.431.83 5.123.415 1.991 1.386 3.891 1.386 5.932a8.53 8.53 0 0 1-1.751 4.878 23.16 23.16 0 0 1-3.659 3.775 77.828 77.828 0 0 1-5.177-25.392 8.91 8.91 0 0 1 .39-3.568c.27-.705 1.564-2.638 2.4-1.879.3.278.382 1.531.568 1.95a14.992 14.992 0 0 0 1.211 2.033z" class="cls-4" data-name="Path 976" transform="translate(-449.816 -359.591)"/>
        <path id="Path_977" d="M394.29 425.193c-3.281 3.277-3.675 4.721-5.646 5.372s-9.06 4.323-6.832 8.392l5.99 3.957.174.116.917 2.754-9.06 16.129s-14.934-6.828-16.4 3.273-.535 12.86-.929 18.253.129 6.953-1.186 6.953-1.834-3.543-1.834-3.543-.083-.162-.228-.465c-1.954-4.061-15.216-33.875 6.027-54.368 0 0 9.84-.647 12.208-11.931 1.634-7.8 7.351-7.127 11.151-5.538a12.6 12.6 0 0 1 3.41 2 16.8 16.8 0 0 1 2.443 2.9c1.085 1.718 1.674 3.863-.205 5.746z" class="cls-3" data-name="Path 977" transform="translate(-244.301 -269.182)"/>
        <path id="Path_978" d="M394.971 484.5l.917 2.755-9.06 16.129s-14.934-6.828-16.4 3.273-.535 12.86-.929 18.253.129 6.953-1.186 6.953-1.834-3.543-1.834-3.543-.083-.162-.228-.465c-.66-5.044-4-34.551 8.118-32.983 0 0 9.836 4.6 11.408 2.763 1.245-1.452 6.77-9.8 9.018-13.229z" class="cls-4" data-name="Path 978" transform="translate(-251.296 -310.646)"/>
        <path id="Path_979" d="M427.016 420.823l-5.99 6.807s-6.957 9.309-8.4 8.915a6.734 6.734 0 0 0-1.315-.153 2.555 2.555 0 0 1-1.659-4.306c2.373-2.489 6.745-7.214 7.031-8.263s3.07-5.65 4.464-7.9a12.6 12.6 0 0 1 3.41 2 16.8 16.8 0 0 1 2.459 2.9z" class="cls-4" data-name="Path 979" transform="translate(-276.82 -270.574)"/>
        <path id="Path_980" d="M600.929 562.3c-1.016 2.033-6.222 9.657-8.5 12.988l-1.066 1.568s-.415 2.754-7.214-.66S417.6 505.374 417.6 505.374l-1.083-3.252 7.882-11.8 175.091 67.645s2.754 1.705 1.439 4.333z" class="cls-15" data-name="Path 980" transform="translate(-281.249 -314.11)"/>
        <path id="Path_981" d="M592.429 591.934l-1.066 1.568s-.415 2.754-7.214-.66-166.549-70.82-166.549-70.82l-1.083-3.252z" class="cls-4" data-name="Path 981" transform="translate(-281.249 -330.758)"/>
        <path id="Path_982" d="M599.771 588.833a5.821 5.821 0 0 0-4.683.917 3.853 3.853 0 0 0-1.344 2.555c-.108 1.149.56 2.514 1.713 2.6a5.45 5.45 0 0 0 .83-.054 12.391 12.391 0 0 1 2.174.182 8.873 8.873 0 0 0 7.562-3.053c.991-1.245-.315-1.784-1.485-2.033-1.601-.339-3.165-.857-4.767-1.114z" class="cls-16" data-name="Path 982" transform="translate(-384.949 -371.688)"/>
        <path id="Path_983" d="M672.932 664.493l1.029 7.309a11.131 11.131 0 0 1 .158 2.286c-.12 1.721-1.037 3.265-1.7 4.858s-1.062 3.5-.187 4.978c.27.46.647.855.892 1.332a5.359 5.359 0 0 1 .415 2.335l.282 10.371a65.256 65.256 0 0 0 9.616-.054.534.534 0 0 0 .348-.108.563.563 0 0 0 .12-.377c.141-2.427-.282-4.858-.145-7.284.05-.888.174-1.771.191-2.663.05-3.613-1.734-7.152-1.195-10.723a23.642 23.642 0 0 1 .664-2.667c1.7-6.222 1.344-12.76.967-19.186a.452.452 0 0 0-.083-.29.44.44 0 0 0-.224-.12 11.8 11.8 0 0 0-10.694 2.033c-.452.365-1.593.718-1.892 1.153-.415.606.129 1.211.369 1.854a23.6 23.6 0 0 1 1.069 4.963z" class="cls-5" data-name="Path 983" transform="translate(-430.365 -409.885)"/>
        <path id="Path_984" d="M672.932 664.493l1.029 7.309a11.131 11.131 0 0 1 .158 2.286c-.12 1.721-1.037 3.265-1.7 4.858s-1.062 3.5-.187 4.978c.27.46.647.855.892 1.332a5.359 5.359 0 0 1 .415 2.335l.282 10.371a65.256 65.256 0 0 0 9.616-.054.534.534 0 0 0 .348-.108.563.563 0 0 0 .12-.377c.141-2.427-.282-4.858-.145-7.284.05-.888.174-1.771.191-2.663.05-3.613-1.734-7.152-1.195-10.723a23.642 23.642 0 0 1 .664-2.667c1.7-6.222 1.344-12.76.967-19.186a.452.452 0 0 0-.083-.29.44.44 0 0 0-.224-.12 11.8 11.8 0 0 0-10.694 2.033c-.452.365-1.593.718-1.892 1.153-.415.606.129 1.211.369 1.854a23.6 23.6 0 0 1 1.069 4.963z" class="cls-4" data-name="Path 984" transform="translate(-430.365 -409.885)"/>
        <path id="Path_985" d="M699.778 658.717a17.984 17.984 0 0 0-1.427 3.028c-.755 2.858 1.2 5.808.967 8.736-.075.925-.361 1.825-.382 2.75a2.566 2.566 0 0 0 1.141 2.381c.552.282 1.245.253 1.763.577.875.535.975 1.751.888 2.771s-.232 2.161.415 2.958c.494.618 1.34.859 1.871 1.444a7.119 7.119 0 0 1 .8 1.352c.792 1.386 2.24 2.232 3.427 3.319s2.19 2.68 1.659 4.186a4.616 4.616 0 0 1-2.539 2.3 26.934 26.934 0 0 1-6.044 2.136 1.459 1.459 0 0 1-.693.037 1.481 1.481 0 0 1-.606-.415 11.254 11.254 0 0 1-3.053-4.07 4.178 4.178 0 0 0-.465-1.112c-.647-.908-2.012-.875-2.933-1.5-1.079-.734-1.34-2.19-2.045-3.29a36.778 36.778 0 0 0-2.489-2.721c-1.269-1.61-1.58-3.758-2.489-5.6-.386-.78-.879-1.51-1.186-2.323a12.684 12.684 0 0 1-.568-3c-.585-4.845-2.074-9.724-1.137-14.519.207-1.054.527-2.074.66-3.161.228-1.879-.133-3.8.145-5.679a1.564 1.564 0 0 1 .626-1.207 1.658 1.658 0 0 1 .714-.145 48.644 48.644 0 0 1 7.376.166c1.245.12 2.638.373 3.385 1.39a7.421 7.421 0 0 1 .8 3.095 7.636 7.636 0 0 0 1.605 3.032c.698 1.022.325 2.03-.186 3.084z" class="cls-5" data-name="Path 985" transform="translate(-437.976 -406.311)"/>
        <path id="Path_986" d="M664.212 752.829a2.911 2.911 0 0 1 1.887.373 2.492 2.492 0 0 1 .539 2.277 34.188 34.188 0 0 1-1.775 6.637l-2.207 6.475a15.209 15.209 0 0 0-.772 2.854 32.225 32.225 0 0 0 .158 4.978 3.9 3.9 0 0 1-.572 2.419c-.938 1.207-2.767 1.066-4.273.83l-7.347-1.245a8.742 8.742 0 0 1-1.817-.444 12.707 12.707 0 0 1-1.763-.991 27.136 27.136 0 0 0-4.563-2.074c-.689-.257-1.46-.585-1.709-1.278a1.791 1.791 0 0 1 1.174-2.074 6.359 6.359 0 0 1 2.6-.224 19.5 19.5 0 0 0 6.388-.863 4.042 4.042 0 0 0 1.684-.871 4.149 4.149 0 0 0 .971-1.954 29.111 29.111 0 0 0 1.112-6.637c.087-1.659.029-3.319.1-4.978.042-.983-.054-4.148.809-4.825.66-.506 3.373.892 4.264 1.1a20.736 20.736 0 0 0 5.112.515z" class="cls-14" data-name="Path 986" transform="translate(-411.98 -466.714)"/>
        <path id="Path_987" d="M733.356 756.424a70.989 70.989 0 0 1 1.294 7.334 11.933 11.933 0 0 0 3.1 6.637 4.091 4.091 0 0 1 .9 1 2.1 2.1 0 0 1-.311 2.169 5.445 5.445 0 0 1-1.821 1.4 42.248 42.248 0 0 1-15.27 4.484 6.437 6.437 0 0 1-2.829-.1 2.333 2.333 0 0 1-1.688-2.074 1.058 1.058 0 0 1 .249-.718 1.547 1.547 0 0 1 .56-.328 16.518 16.518 0 0 0 5.46-3.173 6.05 6.05 0 0 0 1.879-5.75 11.375 11.375 0 0 0-1.4-2.659 44.946 44.946 0 0 1-2.074-4.02l-1.825-3.829a10.043 10.043 0 0 1-1.166-3.51 16.842 16.842 0 0 0 6.729-1.079 10.583 10.583 0 0 0 2.767-1.659c.705-.589 1.348-1.688 2.3-.921.763.614 1.244 2.344 1.693 3.219a23.635 23.635 0 0 1 1.453 3.577z" class="cls-14" data-name="Path 987" transform="translate(-456.922 -465.696)"/>
        <path id="Path_988" d="M680.462 533.018c.183 1.593 1.726 2.642 3.2 3.273l-9.321 2.974c.6-1.153.116-2.564-.481-3.734a21.132 21.132 0 0 0-1.659-2.659c-.091-.129-.195-.29-.129-.44a.464.464 0 0 1 .261-.2 23.435 23.435 0 0 1 5.986-2.049c.606-.087 1.751-.328 2.2.286s-.144 1.815-.057 2.549z" class="cls-16" data-name="Path 988" transform="translate(-430.777 -337.365)"/>
        <path id="Path_989" d="M680.462 533.018c.183 1.593 1.726 2.642 3.2 3.273l-9.321 2.974c.6-1.153.116-2.564-.481-3.734a21.132 21.132 0 0 0-1.659-2.659c-.091-.129-.195-.29-.129-.44a.464.464 0 0 1 .261-.2 23.435 23.435 0 0 1 5.986-2.049c.606-.087 1.751-.328 2.2.286s-.144 1.815-.057 2.549z" class="cls-4" data-name="Path 989" transform="translate(-430.777 -337.365)"/>
        <circle id="Ellipse_174" cx="7.309" cy="7.309" r="7.309" class="cls-16" data-name="Ellipse 174" transform="translate(236.958 182.324)"/>
        <path id="Path_990" d="M663.118 595.289a3.229 3.229 0 0 0 3.049.83c2.551-.415 4.638-2.294 7.135-2.97 3.062-.83 6.3.236 9.193 1.543s5.766 2.9 8.927 3.128c-2.858-6.372-1.224-14.038-3.958-20.464-.668-1.572-1.6-3.086-1.75-4.787-.187-2.111.867-4.148 1.029-6.247a15.2 15.2 0 0 0-.954-5.517l-2-6.571a25.159 25.159 0 0 0-2.962-7.052c-.535-.776-.7-2.348-1.51-2.817-1.775-1.025-4.468.266-6.393.336a6.674 6.674 0 0 0-4.8 2.987 19.2 19.2 0 0 0-2.489 5.5A52.321 52.321 0 0 0 663.42 562c-.062.448-.116.9-.158 1.348-.415 4.26.191 8.546.224 12.827v.029c.042 5.43-.83 10.827-.991 16.253a4.336 4.336 0 0 0 .623 2.832z" class="cls-14" data-name="Path 990" transform="translate(-425.184 -345.505)"/>
        <path id="Path_991" d="M664.4 582.246a9.361 9.361 0 0 0 3.837-2.3 16.039 16.039 0 0 0 2.547-2.9 20.678 20.678 0 0 0 2.194-4.592 53.66 53.66 0 0 0 2.9-13.387 5.113 5.113 0 0 0-.6-3.568 3 3 0 0 0-3.63-.88 6.015 6.015 0 0 0-2.2 2.369 30.588 30.588 0 0 0-3.091 5.733c-.332.9-.577 1.834-.9 2.742a25.294 25.294 0 0 1-1.137 2.626c-.062.448-.116.9-.158 1.348-.382 4.263.207 8.528.238 12.809z" class="cls-4" data-name="Path 991" transform="translate(-426.087 -351.573)"/>
        <path id="Path_992" d="M647.628 553.556a5.141 5.141 0 0 1 .606 3.563 53.6 53.6 0 0 1-2.9 13.387 20.5 20.5 0 0 1-2.195 4.63 16.2 16.2 0 0 1-2.547 2.9 7.947 7.947 0 0 1-5.04 2.452 9.609 9.609 0 0 1-3.136-.684l-15.577-5.3c-.158-.888.469-1.925.763-2.779l.83-2.46a3.127 3.127 0 0 1 1.128-1.784c.618-.369 1.6.137 2.111.547s.9.95 1.41 1.369a7.968 7.968 0 0 0 3.443 1.369l3.5.784a14.6 14.6 0 0 0 3.891.518c.975-2.978 2.829-5.6 3.879-8.554.324-.9.568-1.838.9-2.742a30.477 30.477 0 0 1 3.091-5.733 6.01 6.01 0 0 1 2.2-2.369 3 3 0 0 1 3.643.886z" class="cls-14" data-name="Path 992" transform="translate(-398.452 -350.432)"/>
        <path id="Path_993" d="M670.315 509.759a3.689 3.689 0 0 0-.44-1.369 1.149 1.149 0 0 0-1.245-.548c-.73.228-.975 1.357-1.738 1.394-.514.025-.884-.5-1.045-.987a3.009 3.009 0 0 0-.635-1.394 2.365 2.365 0 0 0-.9-.415c-1.771-.56-3.6-1.593-4.19-3.356a2.007 2.007 0 0 1-.1-1.124c.27-1.116 1.659-1.452 2.717-1.854s2.074-1.091 3.111-1.614a5.112 5.112 0 0 1 3.381-.626 17.6 17.6 0 0 1 1.705.635c1.717.6 3.821.319 5.152 1.56a5.32 5.32 0 0 1 1.245 2.174c.929 2.58 1.518 5.642-.021 7.907-.95 1.4-1.871 3-3.7 3.165-2.118.177-2.961-1.748-3.297-3.548z" class="cls-14" data-name="Path 993" transform="translate(-423.716 -318.474)"/>
        <g id="Group_350" class="cls-17" data-name="Group 350" transform="translate(236.284 182.113)">
            <path id="Path_994" d="M667.095 511.333a3.046 3.046 0 0 0-.631-1.394 2.365 2.365 0 0 0-.9-.415c-1.776-.56-3.6-1.593-4.194-3.356a2.044 2.044 0 0 1-.091-1.124 1.407 1.407 0 0 1 .22-.494 2.174 2.174 0 0 0-1.431 1.373 2.008 2.008 0 0 0 .1 1.124c.589 1.763 2.418 2.8 4.19 3.356a2.366 2.366 0 0 1 .9.415 3.033 3.033 0 0 1 .635 1.394c.166.494.531 1.012 1.045.987s.763-.494 1.091-.888a1.32 1.32 0 0 1-.934-.978z" data-name="Path 994" transform="translate(-660.023 -504.55)"/>
            <path id="Path_995" d="M687.475 525.333c-2.132.2-2.974-1.746-3.319-3.534a3.61 3.61 0 0 0-.415-1.369 1.153 1.153 0 0 0-1.245-.548 2.208 2.208 0 0 0-.917.83 1.245 1.245 0 0 1 .938.581 3.687 3.687 0 0 1 .44 1.369c.336 1.788 1.178 3.733 3.319 3.534a3.423 3.423 0 0 0 2.19-1.137 3.092 3.092 0 0 1-.991.274z" data-name="Path 995" transform="translate(-672.638 -513.506)"/>
        </g>
    </g>
</svg>
