<svg xmlns="http://www.w3.org/2000/svg" xmlns:xlink="http://www.w3.org/1999/xlink" width="485.739" height="434.189" viewBox="0 0 485.739 434.189">
    <defs>
        <style>
            .cls-1{fill:#1ce5af}.cls-1,.cls-17,.cls-6,.cls-7{opacity:.1}.cls-2{fill:#3a3768}.cls-3{fill:#fff}.cls-4{fill:#e6e8ec}.cls-5{fill:#009b84}.cls-6{fill:#6c63ff}.cls-8{fill:#ffd037}.cls-9{fill:#a8a8a8}.cls-10{opacity:.2}.cls-11{fill:url(#linear-gradient)}.cls-12{fill:url(#linear-gradient-2)}.cls-13{fill:#ffbdc6}.cls-14{fill:#474463}.cls-15{fill:#f2f1f2}.cls-16{fill:#ff748e}
        </style>
        <linearGradient id="linear-gradient" x1=".505" x2=".505" y1="1.007" gradientUnits="objectBoundingBox">
            <stop offset="0" stop-color="gray" stop-opacity=".251"/>
            <stop offset=".54" stop-color="gray" stop-opacity=".122"/>
            <stop offset="1" stop-color="gray" stop-opacity=".102"/>
        </linearGradient>
        <linearGradient id="linear-gradient-2" x1=".5" x2=".5" y1="1" xlink:href="#linear-gradient"/>
    </defs>
    <g id="Group_631" data-name="Group 631" transform="translate(-37.685 -59.009)">
        <ellipse id="Ellipse_268" cx="178.55" cy="24.154" class="cls-1" data-name="Ellipse 268" rx="178.55" ry="24.154" transform="translate(105.447 434.594)"/>
        <rect id="Rectangle_762" width="5.204" height="42.891" class="cls-2" data-name="Rectangle 762" rx="2.29" transform="translate(377.575 170.238)"/>
        <rect id="Rectangle_763" width="2.919" height="14.121" class="cls-2" data-name="Rectangle 763" rx="1.46" transform="translate(204.629 136.633)"/>
        <rect id="Rectangle_764" width="3.289" height="24.577" class="cls-2" data-name="Rectangle 764" rx="1.645" transform="translate(204.523 162.49)"/>
        <rect id="Rectangle_765" width="3.131" height="24.788" class="cls-2" data-name="Rectangle 765" rx="1.565" transform="translate(204.576 195.666)"/>
        <rect id="Rectangle_766" width="174.104" height="353.84" class="cls-2" data-name="Rectangle 766" rx="21" transform="translate(206.279 89.97)"/>
        <path id="Path_1714" d="M603.509 199h-19.971v2.4a11.384 11.384 0 0 1-11.39 11.384h-63.514a11.384 11.384 0 0 1-11.39-11.384V199h-18.7a13.827 13.827 0 0 0-13.827 13.827V520.6a13.827 13.827 0 0 0 13.827 13.827h124.965a13.827 13.827 0 0 0 13.828-13.827V212.851A13.827 13.827 0 0 0 603.509 199z" class="cls-3" data-name="Path 1714" transform="translate(-247.686 -99.837)"/>
        <rect id="Rectangle_767" width="24.312" height="4.934" class="cls-4" data-name="Rectangle 767" rx="2.467" transform="translate(276.537 100.537)"/>
        <circle id="Ellipse_269" cx="2.802" cy="2.802" r="2.802" class="cls-4" data-name="Ellipse 269" transform="translate(304.527 100.203)"/>
        <path id="Path_1715" d="M814.446 156.885s-49.459-2.984-43.632 31.672c0 0-1.175 6.126 4.394 8.9 0 0 .088-2.567 5.075-1.692a23.2 23.2 0 0 0 5.375.258 11.2 11.2 0 0 0 6.567-2.684s13.9-5.745 19.308-28.465c0 0 4-4.958 3.842-6.232l-8.347 3.565s2.855 6.021.587 11.025c0 0-.27-10.808-1.874-10.573-.323.047-4.335 2.085-4.335 2.085s4.9 10.485 1.2 18.109c0 0 1.4-12.923-2.737-17.352L794 168.938s5.733 10.832 1.844 19.672c0 0 1-13.557-3.084-18.838l-5.322 4.153s5.386 10.673 2.1 18c0 0-.429-15.777-3.254-16.97 0 0-4.658 4.112-5.369 5.792 0 0 3.689 7.754 1.4 11.842 0 0-1.4-10.514-2.555-10.573 0 0-4.64 6.966-5.122 11.748 0 0 .2-7.1 4-12.406 0 0-4.488.769-7.107 3.677 0 0 .722-4.922 8.253-5.357 0 0 3.836-5.287 4.858-5.6 0 0-7.484-.629-12.024 1.386 0 0 3.994-4.646 13.4-2.532l5.257-4.294s-9.856-1.345-14.039.141c0 0 4.811-4.112 15.454-1.116l5.721-3.419s-8.406-1.809-13.41-1.175c0 0 5.287-2.849 15.09.241l4.112-1.839s-6.156-1.21-7.959-1.4-1.9-.687-1.9-.687a21.352 21.352 0 0 1 11.566 1.286s8.683-3.239 8.536-3.785z" class="cls-5" data-name="Path 1715" transform="translate(-373.785 -82.433)"/>
        <path id="Path_1716" d="M745.064 130.67s-22.321-1.345-19.713 14.315a3.82 3.82 0 0 0 1.985 4.024s.041-1.175 2.3-.77a10.285 10.285 0 0 0 2.426.117 5.028 5.028 0 0 0 2.966-1.222s6.285-2.6 8.729-12.864c0 0 1.8-2.238 1.733-2.814l-3.771 1.609s1.286 2.72.276 4.981c0 0-.123-4.881-.846-4.77-.147 0-1.962.946-1.962.946s2.22 4.74.546 8.182c0 0 .634-5.839-1.239-7.842l-2.655 1.574s2.59 4.893.834 8.887c0 0 .452-6.127-1.392-8.511l-2.4 1.88s2.432 4.822.952 8.135c0 0-.2-7.131-1.474-7.671a14.73 14.73 0 0 0-2.426 2.62s1.668 3.524.634 5.351c0 0-.634-4.752-1.175-4.776 0 0-2.1 3.148-2.314 5.287a11.466 11.466 0 0 1 1.809-5.6 6.32 6.32 0 0 0-3.213 1.662s.329-2.226 3.73-2.42a16.07 16.07 0 0 1 2.2-2.538 13.773 13.773 0 0 0-5.433.629s1.8-2.1 6.05-1.145l2.35-1.938s-4.458-.587-6.344.065c0 0 2.173-1.856 6.984-.505l2.575-1.548a23.537 23.537 0 0 0-6.062-.523s2.391-1.286 6.82.106l1.85-.828s-2.784-.546-3.6-.634-.858-.311-.858-.311a9.627 9.627 0 0 1 5.228.587s3.97-1.481 3.9-1.727z" class="cls-5" data-name="Path 1716" transform="translate(-355.136 -71.632)"/>
        <ellipse id="Ellipse_270" cx="15.819" cy="2.673" class="cls-6" data-name="Ellipse 270" rx="15.819" ry="2.673" transform="translate(491.788 451.582)"/>
        <ellipse id="Ellipse_271" cx="15.819" cy="2.673" class="cls-6" data-name="Ellipse 271" rx="15.819" ry="2.673" transform="translate(37.685 473.515)"/>
        <ellipse id="Ellipse_272" cx="15.819" cy="2.673" class="cls-6" data-name="Ellipse 272" rx="15.819" ry="2.673" transform="translate(98.874 487.853)"/>
        <ellipse id="Ellipse_273" cx="23.619" cy="3.994" class="cls-5" data-name="Ellipse 273" rx="23.619" ry="3.994" transform="translate(449.36 478.901)"/>
        <path id="Path_1717" d="M901.735 833.513a6.878 6.878 0 0 0 2.25-3.4 3.033 3.033 0 0 0-1.574-3.46c-1.445-.552-2.99.452-4.159 1.463s-2.514 2.167-4.047 1.95a6.156 6.156 0 0 0 1.909-5.762 2.426 2.426 0 0 0-.535-1.175c-.8-.858-2.255-.494-3.213.188-3.054 2.144-3.906 6.3-3.924 10.027a18.858 18.858 0 0 1-.059-4.112c-.012-1.363-.382-2.937-1.551-3.659a4.662 4.662 0 0 0-2.35-.552 4.891 4.891 0 0 0-3.841 1.093c-1.175 1.245-.858 3.336.153 4.7a14.954 14.954 0 0 0 3.977 3.184 8.812 8.812 0 0 1 2.837 2.708 2.436 2.436 0 0 1 .211.488h8.581a24.118 24.118 0 0 0 5.335-3.681z" class="cls-5" data-name="Path 1717" transform="translate(-418.987 -357.149)"/>
        <path id="Path_1718" d="M285.64 753.45s3.231 4.223-1.486 10.573-8.605 11.748-7.049 15.725c0 0 7.119-11.836 12.923-12s1.985-7.179-4.388-14.298z" class="cls-5" data-name="Path 1718" transform="translate(-170.131 -328.606)"/>
        <path id="Path_1719" d="M285.773 753.45a5.19 5.19 0 0 1 .658 1.328c5.651 6.638 8.664 12.835 3.231 12.987-5.057.147-11.125 9.193-12.582 11.478.047.176.106.347.17.523 0 0 7.119-11.836 12.923-12s1.974-7.197-4.4-14.316z" class="cls-7" data-name="Path 1719" transform="translate(-170.264 -328.606)"/>
        <path id="Path_1720" d="M301.57 761.942c0 1.486-.164 2.69-.37 2.69s-.37-1.2-.37-2.69.206-.787.411-.787.329-.699.329.787z" class="cls-8" data-name="Path 1720" transform="translate(-180.064 -331.718)"/>
        <path id="Path_1721" d="M303.813 764.912c-1.3.711-2.444 1.14-2.538.957s.875-.9 2.179-1.615.793-.194.887 0 .776-.054-.528.658z" class="cls-8" data-name="Path 1721" transform="translate(-180.245 -332.914)"/>
        <path id="Path_1722" d="M257.774 753.45s-3.231 4.223 1.486 10.573 8.605 11.748 7.049 15.725c0 0-7.113-11.836-12.923-12s-1.997-7.179 4.388-14.298z" class="cls-5" data-name="Path 1722" transform="translate(-159.305 -328.606)"/>
        <path id="Path_1723" d="M257.765 753.45a5.288 5.288 0 0 0-.664 1.328c-5.651 6.638-8.658 12.835-3.231 12.987 5.063.147 11.131 9.193 12.588 11.478a4.55 4.55 0 0 1-.176.523s-7.113-11.836-12.923-12-1.979-7.197 4.406-14.316z" class="cls-7" data-name="Path 1723" transform="translate(-159.296 -328.606)"/>
        <path id="Path_1724" d="M252.65 761.942c0 1.486.17 2.69.376 2.69s.37-1.2.37-2.69-.206-.787-.411-.787-.335-.699-.335.787z" class="cls-8" data-name="Path 1724" transform="translate(-160.184 -331.718)"/>
        <path id="Path_1725" d="M248.592 764.912c1.3.711 2.438 1.14 2.538.957s-.881-.9-2.185-1.615-.787-.194-.887 0-.77-.054.534.658z" class="cls-8" data-name="Path 1725" transform="translate(-158.182 -332.914)"/>
        <path id="Path_1726" d="M254.4 793.884s9.022-.282 11.748-2.214 13.88-4.253 14.55-1.145 13.563 15.443 3.378 15.525-23.672-1.586-26.386-3.236-3.29-8.93-3.29-8.93z" class="cls-9" data-name="Path 1726" transform="translate(-160.906 -343.277)"/>
        <path id="Path_1727" d="M284.251 808.386c-10.185.082-23.672-1.586-26.386-3.237-2.062-1.263-2.89-5.78-3.166-7.859h-.3s.587 7.272 3.284 8.928 16.2 3.319 26.386 3.237c2.937 0 3.953-1.069 3.9-2.62-.411.952-1.533 1.533-3.718 1.551z" class="cls-10" data-name="Path 1727" transform="translate(-160.906 -346.695)"/>
        <path id="Path_1728" d="M377.46 474.88a.54.54 0 0 0 .64.082 2.267 2.267 0 0 1-.64-.082z" class="cls-11" data-name="Path 1728" transform="translate(-211.682 -213.667)"/>
        <path id="Path_1729" d="M380.092 251.268c-1.239-.364-3-.957-5.134-1.7a27.508 27.508 0 0 0 4.758-9.71l-.182.07c.059-.217.123-.429.182-.646-4.077 1.68-8.594-1.175-11.466-4.823s-4.828-8.188-7.971-11.554a36.83 36.83 0 0 0-4.223-3.683 5.612 5.612 0 0 0-3.066-1.521c-1.833-.053-3.272 1.762-5.04 2.308a6.826 6.826 0 0 1-3.524-.129c-4.564-1.063-8.964-3.019-13.6-3.524a15.713 15.713 0 0 0-7.378.84c-2.35.9-3.407 2.7-5.287 4.112-2.038 1.539-6.1 1.5-8.5 1.762a60.864 60.864 0 0 1-8.776.37 19.9 19.9 0 0 0-5.052.188c-3.489.775-6.291 3.583-8.9 6.285a4.7 4.7 0 0 0-1.474 2.35 3.118 3.118 0 0 0 0 .775 5.046 5.046 0 0 0 .352 2.056 27.259 27.259 0 0 0 3.348 6.849 20.532 20.532 0 0 1 2.937 4.84 9.533 9.533 0 0 1 .452 2.79 21.409 21.409 0 0 1-.311 3 38.181 38.181 0 0 1-2.262 7.983 15.347 15.347 0 0 0-1.322 4.212 7.578 7.578 0 0 0 0 .893c-.176 4.6 4.411 7.918 5.287 12.494a8.335 8.335 0 0 1 .129 1.145 7.811 7.811 0 0 1-4.069 6.748c.206.082.417.153.629.229a6.606 6.606 0 0 1-.629.352c.429.164.869.305 1.316.435a30.909 30.909 0 0 0-6.7 8.329c-7.906 15-61.794 44.413-61.794 44.413s.305.17.8.464c-.2.123-.411.264-.646.423-4.664 3.148-15.613 12.335-5.715 23.919 0 0 7.724-12.365 13.134-17.622.247-.235.482-.452.711-.658a1.6 1.6 0 0 1 .211 1.269l35.437-20.189s12.594-8.94 16.106-10.961a28.915 28.915 0 0 1 7.983-3.472l-.411.182a15.947 15.947 0 0 1 4.065-.587c6.273.1 13.064 4.758 15.307 23.208 3 24.706 1.609 29.158.646 29.769a1.687 1.687 0 0 1-.352-.065.525.525 0 0 0 .094.07 1.706 1.706 0 0 1-.388-.07.54.54 0 0 0 .517.129.5.5 0 0 0 .394-.047h.476c0 .223-.035.458-.053.687-.047 0-.282.135 0 .153a49.854 49.854 0 0 0 0 4.494c-3.119.176-6.232.364-8.964.535l.247-1.31.112-.587c2.391-.194 4.664-.9 4.928-2.878.587-4.323-5.287-6.632-10.25-6.92s-34.85 1.733-34.85 1.733-4.482 5.874 9.727 7.7c.423.223.863.47 1.31.728 5.563 3.219 13.116 9.14 16.729 12.059l.505.405-1.621 1.31c8.811 2.021 17.281 36.054 21.963 51.626S325.911 450.3 334.4 448c7.959-2.168 8.975-25.6 9.069-28.541v-.3l14.15 17.686 1.075 1.345c.417.217.822.423 1.222.617 10.72 5.175 22.562-4.74 19.19-16.018-3.4-11.4-8.688-28.236-12.212-35.355-2.937-5.962-6.761-15.86-9.075-22.074a8.149 8.149 0 0 0 .875-.423s-.053-.276-.147-.787l.147-.076s-3.407-17.945-3.595-30.685V332.3c2.561-.587 4.182-.822 4.182-.822l.047-.552-.3.065 1.421-16.529s5.228-11.272 1.228-15.971a9.985 9.985 0 0 1-2.35-4.881c-.67-4.323 0-11.519 9.322-17.5 14.35-9.228 19.919-16.729 19.919-16.729s.312-5.516-8.476-8.113zm-28.5 11.466V255.1c2.661-.129 5.38.182 8.053 0a20.3 20.3 0 0 0 3.889-.658l.646.452a70.908 70.908 0 0 1-12.588 7.84zm-40.683 119.717c1.051.74 2.109 1.51 3.148 2.279a167.616 167.616 0 0 0 1.257 6.608 53.006 53.006 0 0 0-4.405-8.887z" class="cls-12" data-name="Path 1729" transform="translate(-143.926 -106.946)"/>
        <path id="Path_1730" d="M395.114 491l-.634 3.442-.488 2.632-.887 4.817-8.6 6.021s-.775-.664-2.056-1.709c-3.524-2.9-10.931-8.811-16.371-11.983a18.32 18.32 0 0 0-4.5-2.073z" class="cls-13" data-name="Path 1730" transform="translate(-205.129 -220.318)"/>
        <path id="Path_1731" d="M395.114 491l-.634 3.442a26.857 26.857 0 0 1-5.674-.294l-20.065.288a61.665 61.665 0 0 1-2.661-.217 18.321 18.321 0 0 0-4.5-2.073z" class="cls-7" data-name="Path 1731" transform="translate(-205.129 -220.318)"/>
        <path id="Path_1732" d="M383.918 488.705s10.027 1.721 10.614-2.561-5.163-6.6-10.033-6.884-34.11 1.721-34.11 1.721-5.157 6.878 13.469 8.03z" class="cls-14" data-name="Path 1732" transform="translate(-200.242 -215.462)"/>
        <path id="Path_1733" d="M395.114 491l-.634 3.442-.488 2.632-.887 4.817-8.6 6.021s-.775-.664-2.056-1.709c-3.524-2.9-10.931-8.811-16.371-11.983a18.32 18.32 0 0 0-4.5-2.073z" class="cls-7" data-name="Path 1733" transform="translate(-205.129 -220.318)"/>
        <path id="Path_1734" d="M395.114 491l-.634 3.442a26.857 26.857 0 0 1-5.674-.294l-20.065.288a61.665 61.665 0 0 1-2.661-.217 18.321 18.321 0 0 0-4.5-2.073z" class="cls-7" data-name="Path 1734" transform="translate(-205.129 -220.318)"/>
        <path id="Path_1735" d="M383.914 488.673s10.033 1.715 10.608-2.584-5.163-6.591-10.033-6.878-34.11 1.721-34.11 1.721-5.157 6.878 13.469 8.024z" class="cls-7" data-name="Path 1735" transform="translate(-200.238 -215.442)"/>
        <path id="Rectangle_768" d="M0 0h52.454v62.199H0z" class="cls-14" data-name="Rectangle 768" transform="translate(153.149 131.94)"/>
        <path id="Rectangle_769" d="M0 0h52.454v62.199H0z" class="cls-7" data-name="Rectangle 769" transform="translate(153.149 132.222)"/>
        <path id="Path_1736" d="M237.267 432.439a8.4 8.4 0 0 0-3.2 2.261c-5.287 5.234-12.858 17.516-12.858 17.516-9.68-11.531 1.034-20.641 5.6-23.772 1.11-.758 1.856-1.175 1.856-1.175z" class="cls-13" data-name="Path 1736" transform="translate(-145.594 -194.023)"/>
        <path id="Path_1737" d="M398.161 288.22s2.579 18.057 11.466 22.356-11.466 12.335-11.466 12.335l-27.8-10.326s15.766-5.163 12.611-20.353z" class="cls-13" data-name="Path 1737" transform="translate(-208.752 -136.65)"/>
        <path id="Path_1738" d="M343.368 473.16l-.629 3.43-.511 2.643-.887 4.817-8.6 6.015s-.775-.658-2.056-1.7c-3.524-2.9-10.931-8.811-16.377-11.983a18.209 18.209 0 0 0-4.5-2.074z" class="cls-13" data-name="Path 1738" transform="translate(-183.769 -212.957)"/>
        <path id="Path_1739" d="M343.384 473.16l-.628 3.43a26.865 26.865 0 0 1-5.674-.294l-20.065.288a61.976 61.976 0 0 1-2.667-.217 18.21 18.21 0 0 0-4.5-2.073z" class="cls-7" data-name="Path 1739" transform="translate(-183.785 -212.957)"/>
        <path id="Path_1740" d="M332.193 470.883s10.033 1.715 10.6-2.579-5.157-6.6-10.033-6.884-34.1 1.721-34.1 1.721-5.163 6.878 13.469 8.03z" class="cls-14" data-name="Path 1740" transform="translate(-178.897 -208.102)"/>
        <path id="Path_1741" d="M356.892 483.36l-.887 4.817-8.6 6.015s-.775-.658-2.056-1.7l11.372-9.328z" class="cls-7" data-name="Path 1741" transform="translate(-198.433 -217.083)"/>
        <path id="Path_1742" d="M412.949 540.032c-.394-.194-.787-.394-1.175-.587l-1.057-1.333-13.868-17.587v.305c-.094 2.937-1.093 26.21-8.881 28.359-8.312 2.291-18.338 2.866-22.908-12.611s-12.923-49.3-21.5-51.309l12.758-10.461s8.447 9.88 11.889 19.337c-.129-.587-5.962-27.842-1.175-32.665h41.852s6.461 18.4 10.89 27.519c3.448 7.078 8.623 23.813 11.953 35.138 3.302 11.184-8.287 21.063-18.778 15.895z" class="cls-14" data-name="Path 1742" transform="translate(-197.694 -208.138)"/>
        <path id="Path_1743" d="M426.871 442.041c-6.461 3.824-34.827 2.267-44.055 1.645l-2.516-.186c-.27 0 .041-.153.041-.153l.258-2.6 6.878-17.481 36.83-21.358a32.068 32.068 0 0 0-.934 9.633c.173 12.666 3.498 30.5 3.498 30.5z" class="cls-7" data-name="Path 1743" transform="translate(-212.809 -183.559)"/>
        <path id="Path_1744" d="M426.656 440.583c-6.461 3.824-34.827 2.267-44.055 1.645l-2.514-.176-.417-.035.458-.117 2.267-.587 4.869-19.49 36.83-21.352a32.067 32.067 0 0 0-.934 9.633c.171 12.652 3.496 30.479 3.496 30.479z" class="cls-15" data-name="Path 1744" transform="translate(-212.593 -182.965)"/>
        <path id="Path_1745" d="M423.414 410.091c-7.489 1.727-23.972 6.8-30.3 19.032-4.223 8.147-7.777 11.642-10.256 13.1l-2.514-.176a1.472 1.472 0 0 0 .041-.153l2.267-.587 4.869-19.49 36.83-21.352a32.13 32.13 0 0 0-.937 9.626z" class="cls-7" data-name="Path 1745" transform="translate(-212.87 -182.965)"/>
        <path id="Path_1746" d="M235.356 427.29l8.6 5.157a8.4 8.4 0 0 0-3.2 2.261c-.717-2.091-5.216-5.01-7.26-6.256 1.114-.745 1.86-1.162 1.86-1.162z" class="cls-7" data-name="Path 1746" transform="translate(-152.283 -194.031)"/>
        <path id="Path_1747" d="M377.317 471.772a.511.511 0 0 1-.587-.082 2.039 2.039 0 0 0 .587.082z" class="cls-7" data-name="Path 1747" transform="translate(-211.38 -212.351)"/>
        <path id="Path_1748" d="M337.556 293.537s-7.742.858-13.187-4.875c0 0-22.908 6.6-30.668 21.5S233.2 354.3 233.2 354.3s9.175 5.157 8.312 7.736l34.688-20.062s12.335-8.881 15.76-10.89 22.362-14.332 26.374 19.2 0 29.522 0 29.522 5.733 2.009 14.045-14.045 34.1-19.778 34.1-19.778l1.433-16.905s5.116-11.207 1.175-15.86a9.986 9.986 0 0 1-2.3-4.852c-.652-4.294 0-11.448 9.128-17.393 14.045-9.175 19.49-16.623 19.49-16.623s.288-5.451-8.312-8.03-43.563-16.62-43.563-16.62l-1.175 4.875 27.59 19.472s-13.757 11.16-24.671 10.89c.001.001 2.026 8.312-7.718 8.6z" class="cls-16" data-name="Path 1748" transform="translate(-152.159 -120.756)"/>
        <path id="Path_1749" d="M407.872 296.682a55.978 55.978 0 0 1-1.586-7l-15.19 4.012a16.652 16.652 0 0 1-.347 8.764 16.335 16.335 0 0 0 17.122-5.774z" class="cls-7" data-name="Path 1749" transform="translate(-217.165 -137.252)"/>
        <circle id="Ellipse_274" cx="16.335" cy="16.335" r="16.335" class="cls-13" data-name="Ellipse 274" transform="translate(161.755 132.227)"/>
        <path id="Path_1750" d="M381.979 219.756c4.535.511 8.84 2.461 13.3 3.524a6.6 6.6 0 0 0 3.442.135c1.733-.54 3.143-2.35 4.94-2.3a5.253 5.253 0 0 1 3 1.51 36.274 36.274 0 0 1 4.112 3.665c3.078 3.342 4.987 7.842 7.795 11.478s7.237 6.461 11.225 4.793c-2.714 10.573-11.6 18.626-21.217 19.284-3.836.258-7.765-.54-11.478.587a10.139 10.139 0 0 1-2.9.7c-2.138 0-3.859-1.962-5.193-3.871-3.125-4.488-5.6-9.586-9.116-13.68-1.175-1.351-2.532-2.637-4.176-2.884s-3.154.535-4.617 1.292a21.766 21.766 0 0 0-6.755 4.7 9.35 9.35 0 0 0-2.279 8.224c.417 1.563 1.369 2.972 1.386 4.605.035 2.6-2.267 4.511-2.72 7.049a26.488 26.488 0 0 0-.112 3.207c-.2 3.477-2.473 6.326-4.846 8.511a6.115 6.115 0 0 0-2.22 3.078c-.182.893 0 1.844-.117 2.749-.347 2.256-2.6 3.4-4.588 3.7a13.351 13.351 0 0 1-6.884-.816c2.784-1.322 4.5-5.063 3.853-8.423-.887-4.652-5.563-7.989-5.163-12.729a14.809 14.809 0 0 1 1.292-4.188 38.219 38.219 0 0 0 2.209-7.93 13.372 13.372 0 0 0-.135-6.326 19.567 19.567 0 0 0-2.855-4.811 27.294 27.294 0 0 1-3.307-6.779 4.7 4.7 0 0 1-.317-2.238 4.6 4.6 0 0 1 1.439-2.35c2.555-2.684 5.287-5.48 8.711-6.244a19.344 19.344 0 0 1 4.946-.194 57.56 57.56 0 0 0 8.594-.364c2.35-.276 6.32-.235 8.312-1.762 1.856-1.427 2.9-3.207 5.187-4.112a15.167 15.167 0 0 1 7.248-.8z" class="cls-7" data-name="Path 1750" transform="translate(-195.201 -108.346)"/>
        <path id="Path_1751" d="M428.67 507.07s9.457 18.632 6.591 24.359" class="cls-7" data-name="Path 1751" transform="translate(-232.811 -226.949)"/>
        <path id="Path_1752" d="M448.051 576.849L434.2 559.286v.305s-.8-5.686 1.839-3.777c5.78 4.182 15.026 11.037 15.225 12.218s-1.874 5.898-3.213 8.817z" class="cls-7" data-name="Path 1752" transform="translate(-235.046 -246.899)"/>
        <g id="Group_630" class="cls-17" data-name="Group 630" transform="translate(81.352 128.92)">
            <path id="Path_1753" d="M422.688 309.529s1.175 4.84-2.608 7.26c5.815-.993 6.074-5.522 5.874-7.489a18.452 18.452 0 0 1-3.266.229z" data-name="Path 1753" transform="translate(-310.619 -274.268)"/>
            <path id="Path_1754" d="M236.884 380.85s52.736-29.235 60.5-44.137c5.551-10.7 18.932-17.111 26.039-19.883-5.181 1.762-22.638 8.406-29.193 21.029-7.73 14.902-60.5 44.141-60.5 44.141z" data-name="Path 1754" transform="translate(-233.73 -277.375)"/>
            <path id="Path_1755" d="M432.77 282.642c8.975-2.79 17.551-9.757 17.551-9.757l-27.537-19.5.629-2.667-2.637-1.057-1.145 4.875 27.519 19.49a66.492 66.492 0 0 1-14.379 8.617z" data-name="Path 1755" transform="translate(-310.433 -249.66)"/>
            <path id="Path_1756" d="M442.27 415.958a68.463 68.463 0 0 1 10.785-2.725l.047-.552a73.125 73.125 0 0 0-10.832 3.278z" data-name="Path 1756" transform="translate(-319.775 -316.923)"/>
            <path id="Path_1757" d="M369.167 432.387h-.253a.517.517 0 0 1-.587-.082 2.061 2.061 0 0 0 .587.082c.94-.546 2.35-4.828-.587-29.6-3.16-26.433-15.6-24.371-22.4-21.328 6.955-1.915 16.523-.258 19.243 22.474 2.966 24.776 1.551 29.058.587 29.6a6.349 6.349 0 0 0 3.41-1.146z" data-name="Path 1757" transform="translate(-280.024 -303.325)"/>
            <path id="Path_1758" d="M379.277 471.282a2.059 2.059 0 0 1-.587-.082.517.517 0 0 0 .587.082z" data-name="Path 1758" transform="translate(-293.541 -341.069)"/>
        </g>
        <path id="Path_1759" d="M381.98 218.783c4.535.517 8.84 2.461 13.3 3.524a6.6 6.6 0 0 0 3.442.129c1.733-.535 3.143-2.35 4.94-2.3a5.478 5.478 0 0 1 3 1.51 36.843 36.843 0 0 1 4.112 3.665c3.078 3.342 4.987 7.842 7.795 11.478s7.237 6.461 11.225 4.793c-2.714 10.573-11.6 18.626-21.217 19.284-3.836.264-7.765-.535-11.478.587a9.944 9.944 0 0 1-2.9.7c-2.138 0-3.859-1.962-5.193-3.871-3.125-4.488-5.6-9.58-9.116-13.675-1.175-1.357-2.532-2.643-4.176-2.89s-3.154.54-4.617 1.3a21.668 21.668 0 0 0-6.755 4.7 9.35 9.35 0 0 0-2.279 8.224c.417 1.562 1.369 2.972 1.386 4.605.035 2.608-2.267 4.511-2.72 7.049a26.438 26.438 0 0 0-.112 3.207c-.2 3.477-2.473 6.32-4.846 8.511a6.1 6.1 0 0 0-2.22 3.072c-.182.9 0 1.844-.117 2.755-.347 2.256-2.6 3.4-4.588 3.695a13.234 13.234 0 0 1-6.884-.816c2.784-1.316 4.5-5.063 3.853-8.417-.887-4.652-5.563-7.994-5.163-12.729a14.749 14.749 0 0 1 1.292-4.188 38.368 38.368 0 0 0 2.209-7.936 13.377 13.377 0 0 0-.135-6.326 19.678 19.678 0 0 0-2.855-4.811 27.354 27.354 0 0 1-3.307-6.773 4.763 4.763 0 0 1-.317-2.244 4.629 4.629 0 0 1 1.439-2.32c2.555-2.684 5.287-5.475 8.711-6.244a19.609 19.609 0 0 1 4.946-.188 58.372 58.372 0 0 0 8.594-.364c2.35-.276 6.32-.241 8.312-1.762 1.856-1.421 2.9-3.207 5.187-4.112a15.272 15.272 0 0 1 7.252-.822z" class="cls-14" data-name="Path 1759" transform="translate(-195.202 -107.949)"/>
        <circle id="Ellipse_275" cx="32.935" cy="32.935" r="32.935" class="cls-3" data-name="Ellipse 275" transform="translate(261.459 238.299)"/>
        <path id="Path_1760" d="M608.249 453.629a44.019 44.019 0 1 1-44.019-44.019 44.019 44.019 0 0 1 44.019 44.019zm-49.106 23.3l32.657-32.651a2.837 2.837 0 0 0 0-4.018l-4.018-3.988a2.831 2.831 0 0 0-4.012 0L557.133 462.9 544.7 450.44a2.849 2.849 0 0 0-4.018 0l-4.018 4.041a2.849 2.849 0 0 0 0 4.018l18.462 18.456a2.837 2.837 0 0 0 4.018 0z" class="cls-5" data-name="Path 1760" transform="translate(-270.581 -186.736)"/>
    </g>
</svg>
