<svg xmlns="http://www.w3.org/2000/svg" xmlns:xlink="http://www.w3.org/1999/xlink" width="581.232" height="390.995" viewBox="0 0 581.232 390.995">
    <defs>
        <style>
            .cls-1,.cls-15,.cls-18{fill:#ed1d55}.cls-1,.cls-6,.cls-8,.cls-9{opacity:.1}.cls-2{fill:url(#linear-gradient)}.cls-3{fill:#be6f72}.cls-4{fill:#3f3d56}.cls-5{fill:#65617d}.cls-7{fill:#e3e8f4}.cls-9{fill:#fff}.cls-10{fill:url(#linear-gradient-2)}.cls-11{fill:#f86d70}.cls-12{fill:#fbbebe}.cls-13{fill:#444053}.cls-14{fill:#e8e8f0}.cls-16{fill:#e0e0e0}.cls-17{fill:#f55f44}.cls-18,.cls-21{opacity:.05}.cls-19{fill:url(#linear-gradient-3)}.cls-20{fill:#f5f5f5}.cls-22{fill:#b40031}
        </style>
        <linearGradient id="linear-gradient" x1=".5" x2=".5" y1="1" gradientUnits="objectBoundingBox">
            <stop offset="0" stop-color="gray" stop-opacity=".251"/>
            <stop offset=".54" stop-color="gray" stop-opacity=".122"/>
            <stop offset="1" stop-color="gray" stop-opacity=".102"/>
        </linearGradient>
        <linearGradient id="linear-gradient-2" x2="1" y1=".5" y2=".5" xlink:href="#linear-gradient"/>
        <linearGradient id="linear-gradient-3" x1="-11.741" x2="-11.741" y1="5.084" y2="4.933" gradientUnits="objectBoundingBox">
            <stop offset="0" stop-color="gray" stop-opacity=".251"/>
            <stop offset=".535" stop-color="gray" stop-opacity=".122"/>
            <stop offset="1" stop-color="gray" stop-opacity=".102"/>
        </linearGradient>
    </defs>
    <g id="Group_843" data-name="Group 843" transform="translate(-116.651 -90.504)">
        <g id="Group_851" data-name="Group 851" transform="translate(147.04 115.743)">
            <path id="Path_2134" d="M344.313 385c10.146-.654 22.735-8.436 32.523-11.877q17.377-6.094 34.892-11.727 60.975-19.617 123.257-33.431 5.813-1.293 11.643-2.523a91.48 91.48 0 0 0-27.206-36.942q.452-4.858.459-9.749c0-51.465-36.375-93.186-81.263-93.186a72.912 72.912 0 0 0-39.438 11.706c-31.771-23.63-73.237-37.931-118.607-37.931-64.468 0-121.063 28.878-153.132 72.364l150.717 28.79 92.437 17.65c-105.38 3.556-211.085 7.091-316.162-1.256-28.605 31.3-33.63 81.1-11.992 118.877 0 1.864.069 3.712.193 5.544 2.677.867 5.261 1.708 7.58 2.258Q106.048 416.9 162.6 425.888C134.816 445.256 100.984 448 68.938 456.2a87.371 87.371 0 0 0 59.813 23.36h345.766c37.441 0 67.788-29.47 67.788-65.828a101.565 101.565 0 0 0 11.019-34.2c-69.281 7.558-139.424.991-209.011 5.468z" class="cls-1" data-name="Path 2134" transform="translate(-28.499 -159.34)"/>
            <g id="Group_850" data-name="Group 850" transform="translate(0 .406)">
                <path id="Path_2135" d="M553.339 363.127c.075-30.409-12.944-58.958-34.9-76.527q.449-4.856.459-9.744c0-51.465-36.4-93.17-81.282-93.17a72.983 72.983 0 0 0-39.452 11.7c-31.778-23.64-73.26-37.947-118.64-37.947-73.815 0-137.353 37.869-165.531 92.173a74.144 74.144 0 0 0-4.73-.161c-44.884 0-81.282 41.721-81.282 93.186a102.768 102.768 0 0 0 13.373 51.221c0 46.3 38.662 83.842 86.334 83.842h345.856c37.445 0 67.8-29.475 67.8-65.834a103.084 103.084 0 0 0 11.995-48.739z" class="cls-1" data-name="Path 2135" transform="translate(-27.98 -157.44)"/>
            </g>
        </g>
        <g id="Group_849" data-name="Group 849" transform="translate(459.605 138.303)">
            <path id="Path_2136" d="M896.078 387.136a8.243 8.243 0 0 0-3.611-1.583c-1.384-.318-2.8-.518-4.2-.74l-18.217-2.627a21.462 21.462 0 0 0-5.579-.3 7.081 7.081 0 0 0-4.854 2.516 3.782 3.782 0 0 0-.843 2.368 6.243 6.243 0 0 0 .829 2.456 8.206 8.206 0 0 1 .451 1.088 24.863 24.863 0 0 0 .651 2.479 2.105 2.105 0 0 0 .311.488.774.774 0 0 1 0 .126c-.2 1.021.444 2.086.156 3.071-.252.844-1.073 1.354-1.591 2.057a3.093 3.093 0 0 0-.074 3.411c.555.858 1.561 1.443 1.85 2.427.377 1.295-.644 2.545-1.554 3.544a54.931 54.931 0 0 0-4.632 5.838 3.62 3.62 0 0 0-.74 1.739c-.081 1.287 1.154 2.42.94 3.7-.17 1.006-1.154 1.62-2.005 2.22-3.145 2.072-5.668 5.4-5.919 9.167a32.113 32.113 0 0 0-7.162-16.278 11.642 11.642 0 0 1-2.656-4.166c-.163-.644-.192-1.332-.414-1.953-.74-1.961-3.093-2.8-4.121-4.61-.74-1.273-.74-2.908-1.657-4.025s-2.36-1.369-3.152-2.449a15.666 15.666 0 0 1-1.006-2.279 4.979 4.979 0 0 0-1.369-1.643 3.967 3.967 0 0 0-.34-.244 1.176 1.176 0 0 0 .392-.873c0-.866-.858-1.435-1.606-1.865a45.687 45.687 0 0 1-2.819-1.754 6.594 6.594 0 0 0 2.523-2.064 6.785 6.785 0 0 0 .962-4.439 5.6 5.6 0 0 0-1.324-3.4c-.466-.5-1.051-.851-1.539-1.317-1.265-1.236-1.694-3.063-2.22-4.75-.7-2.22-1.783-4.55-3.811-5.727-.977-.57-2.116-.836-3.07-1.435a2.68 2.68 0 0 1-1.421-2.819c.222-.74.91-1.25 1.376-1.879a3.744 3.744 0 0 0-.94-5.179c-.547-.348-1.221-.651-1.332-1.287a2.353 2.353 0 0 1-1.717-1.82 7.018 7.018 0 0 1 0-2.634q.289-2.064.57-4.114a2.679 2.679 0 0 0 2.057 0 18.117 18.117 0 0 0 2.22 2.9 28.98 28.98 0 0 1 5.179 8.99c.422 1.184.851 2.508 1.946 3.137.377.215.807.326 1.177.555a4.393 4.393 0 0 1 1.154 1.184c.888 1.176 1.776 2.346 2.656 3.522l.044.178a1.036 1.036 0 0 0 .119.3.984.984 0 0 0 .636.326c2.723.629 5.779 1.206 8.139-.281 2.131-1.332 3.063-3.966 4.869-5.727 1.28-1.25 3.093-2.22 3.455-3.981a13.106 13.106 0 0 1-1.273-.466c.37-.37.74-.8 1.243-1.287a15.674 15.674 0 0 0 1.968-2.346 15.115 15.115 0 0 0 1.48-3.315q2.138-6.1 4.292-12.2c.681-1.924 1.361-3.862 2.22-5.734.888-2.027 1.939-3.973 2.908-5.964a79.165 79.165 0 0 0 5.756-16.2 5.914 5.914 0 0 0 .229-2.36 6.224 6.224 0 0 0-2.1-3.2 15.417 15.417 0 0 0-3.156-2.609 5.179 5.179 0 0 0-3.951-.636c-1.894.555-3.085 2.493-3.522 4.439a46.591 46.591 0 0 0-.459 5.919c-.266 2.849-1.243 5.6-1.48 8.457-.126 1.65 0 3.322-.2 4.972a18.142 18.142 0 0 1-2.22 6.126 39.658 39.658 0 0 1-9.567 11.794c-.451.377-.918.74-1.361 1.147a7.054 7.054 0 0 1 .1-.962 5.8 5.8 0 0 0-.94.333 2.819 2.819 0 0 0-.111-1.11c-.592-1.768-3.226-2.22-3.7-4.018a8.222 8.222 0 0 1-.126-1.347c-.156-1.576-1.228-2.908-1.6-4.439-.34-1.413-.081-2.96-.74-4.269a11.933 11.933 0 0 0-1.968-2.22 8.71 8.71 0 0 1-1.872-3.529c-.1-.363-.185-.74-.288-1.1a5.047 5.047 0 0 0-.266-2.434c-.673-1.672-2.412-2.745-3.041-4.439-.488-1.317-.274-2.96-1.2-3.981a4.329 4.329 0 0 0-1.754-1.058 39.015 39.015 0 0 0-10.559-2.493c-2.027-.185-4.262-.289-5.712-1.717-1.694-1.657-1.776-4.639-3.759-5.919-1.746-1.132-4.218-.3-5.572 1.295a7.063 7.063 0 0 0-.562.74 7.92 7.92 0 0 1-.155-3.034c0-.252.052-.51.074-.74a14.8 14.8 0 0 0 8.021-6.334v.044l.089.229c.215.54.555 1.058 1.058 1.117a1.479 1.479 0 0 0 .917-.333 7.593 7.593 0 0 0 1.228-1.065q.281-.311.533-.644a8.378 8.378 0 0 0 .873-1.48 8.79 8.79 0 0 0 .74-2.479c.133-.858.148-1.739.3-2.6a15.983 15.983 0 0 1 .54-1.961c.074-.215.148-.429.215-.644s.163-.5.237-.74a17.146 17.146 0 0 0 .74-4.691v-.8a7.807 7.807 0 0 0-2.486-5.512c-1.273-1.043-2.96-1.48-3.892-2.893a13.769 13.769 0 0 1-1.1-3.278 7.4 7.4 0 0 0-5.816-5.231 6.475 6.475 0 0 0-4.6 1.265l-.1.081a7.4 7.4 0 0 0-1.835 2.042 6.1 6.1 0 0 1-2.6-1.48c-.74-.688-1.31-1.554-2.057-2.22a5.29 5.29 0 0 0-5.268-1.11 6.3 6.3 0 0 0-3.766 4.314c-.407 1.524-.333 3.278-1.184 4.55-.659.991-1.739 1.48-2.494 2.382a4.484 4.484 0 0 0-.932 1.976 5.357 5.357 0 0 0-.126 1.236 2.255 2.255 0 0 0 .044.548v.089a3.937 3.937 0 0 0 .126.6 5.179 5.179 0 0 0 1.1 2.027 4.869 4.869 0 0 0 1.783 1.287 7.229 7.229 0 0 0 .858.274l.88.2.311.074a14.753 14.753 0 0 0-.414 13.03 5.955 5.955 0 0 1-.074.622 51.162 51.162 0 0 0 .385 8.723 4.681 4.681 0 0 1-.54 3.322 6.291 6.291 0 0 1-1.073.954c.4-.518.807-1.028 1.221-1.539a5.276 5.276 0 0 0-4.173-1.08 19.333 19.333 0 0 0-8.139 2.486c-1.657.954-3.359 2.22-5.253 2-1.117-.126-2.22-.74-3.307-.444a6.7 6.7 0 0 0-1.694 1.006 2.294 2.294 0 0 1-1.391.429c-1.162-1.428-2.96-2.4-4.351-3.559a34.277 34.277 0 0 1-4.328-4.639 764.263 764.263 0 0 1-7.14-8.716c-1.983-2.456-4.018-5.113-4.365-8.257a8.082 8.082 0 0 1-.052-.94 23.908 23.908 0 0 1 .563-4.439 2.219 2.219 0 0 0 0-1.073c-.222-.74-1.073-1.014-1.805-1.176.1-.57.163-1.154.2-1.709.414-6.363-.037-12.83 1.31-19.06a12.955 12.955 0 0 1 3.071-6.563c2.7-2.73 7.222-3.389 9.293-6.622 1.731-2.693 1.043-6.5-1.132-8.879a11.206 11.206 0 0 0-8.716-3.226 4.5 4.5 0 0 0-2.538.681 5.4 5.4 0 0 0-1.539 2.338L723.474 237a46.673 46.673 0 0 0-2.323 6.2c-.888 3.241-1.088 6.659-1.791 9.929 0 2.516-1.62 5.653-2.508 7.969-.991 2.6-2.064 5.179-2.96 7.836-.222.666-1 2.641-1.48 4.439a2.712 2.712 0 0 0-.5.377 13.381 13.381 0 0 0-1.051 1.561c-.673.888-1.768 1.361-2.508 2.22s-.9 2.434.133 2.863a3.017 3.017 0 0 0 .644.141 2.505 2.505 0 0 1 .4.067c1.11.311 1.546 1.709 1.384 2.863s-.74 2.22-.836 3.374c-.2 2.042 1 3.944 2.153 5.66a48.779 48.779 0 0 0 3.951 5.32c1.043 1.169 2.22 2.22 3.27 3.344 4 4.114 7.184 8.923 10.78 13.392a29.7 29.7 0 0 0 4.388 4.6 33.056 33.056 0 0 0 3.322 2.286l6.186 3.921a6.777 6.777 0 0 0 2.338 1.1 3.113 3.113 0 0 0 .829 0c.037.185.067.363.111.548.481 1.939 1.539 3.7 1.657 5.675s-.059 4 .081 5.993c.133 1.842.54 3.7.644 5.512.207 3.492-.651 6.94-1.48 10.359-1.25 5-2.005 10.107-4.439 14.643a8.609 8.609 0 0 0-1.48 3.951 2.043 2.043 0 0 0 .044.518l-1.11.629c-.326.185-.651.37-.947.562-1.406.917-2.908 1.931-3.485 3.515-.466 1.28-.252 2.745-.814 3.988a1.756 1.756 0 0 1-.089.163c-.592 1.154-1.768 2.013-2.035 3.278-.2.969.185 2 0 2.96v.037a10.731 10.731 0 0 0-.4 1.48 1.767 1.767 0 0 0 .044.488 2.819 2.819 0 0 0 .888 1.443 5.912 5.912 0 0 0 .866.688q.474.311.977.577l.192.1c.281.148.562.289.851.422l.192.081c.333.148.673.281 1.014.4l.237.074c.266.089.54.17.814.237l.185.059.17.037.74.155.274.052q.488.081 1 .133h.3c.252 0 .5.037.74.044h1.354a8.27 8.27 0 0 0 1.043-.1h.111c.311-.044.621-.1.932-.163l.237-.052c.289-.067.577-.133.866-.222l.156-.044c.348-.1.7-.215 1.036-.348a27.164 27.164 0 0 0 3.418-1.694c.74-.407 1.48-.821 2.22-1.2a17.241 17.241 0 0 1 1.687-.74 9.521 9.521 0 0 1 4.439-.74 17.392 17.392 0 0 1 2.22.451v.244q.9 5.327 1.783 10.655a21.683 21.683 0 0 1 3.063-1.842 6.812 6.812 0 0 0-.392 1.665 6.614 6.614 0 0 0 0 1.324 2.874 2.874 0 0 1-.207 2.035c-.259.34-.74.533-.88.917a3.126 3.126 0 0 0-.074 1.206 1.924 1.924 0 0 1-1.761 1.791 2.812 2.812 0 0 1-1.117 3.3 3.914 3.914 0 0 0-.858.562 2.558 2.558 0 0 0-.5 1.117 19.772 19.772 0 0 1-5.794 9.522 18.627 18.627 0 0 0-2.863 2.8 12.732 12.732 0 0 0-1.295 2.553q-2.96 7.236-6.008 14.48a32.131 32.131 0 0 0-2.575 8.354c-.888 7.976-7.991 14.739-6.659 22.656a11.1 11.1 0 0 0 2.309 5.409 13.615 13.615 0 0 0 5.919 3.633c5.7 2.22 11.72 3.433 17.713 4.654l9.412 1.931a41.141 41.141 0 0 0 5.608.888c2.272.155 4.6-.059 6.815.518a21.153 21.153 0 0 0 4.092 1.088c1.214.067 2.708-.192 3.426.8s.163 2.3.843 3.182c1.1 1.4 3.766 0 4.958 1.317a6.137 6.137 0 0 1 .74 1.635 2.96 2.96 0 0 0 .74.932 6.258 6.258 0 0 1 .089 1.265 21.807 21.807 0 0 1-1.066 5.046q-1.332 4.506-2.656 9.02a19.977 19.977 0 0 0-.74 3.255 7.811 7.811 0 0 0 0 1.613 4.43 4.43 0 0 0 2.656 3.855 4.869 4.869 0 0 0 3.6-.444 15.9 15.9 0 0 0 2.96-2 20.215 20.215 0 0 0 4.269-4.4c3.7-5.534 2.5-13.022 5.1-19.141 1.724-4.084 5.083-7.4 6.2-11.705a4.683 4.683 0 0 0 .089-2.531c-.466-1.48-2.042-2.323-3.515-2.856h-.08a30.311 30.311 0 0 0-3.7-1.058c-.311-.067-.629-.118-.947-.17a5.807 5.807 0 0 1-1.635-2.131 4.964 4.964 0 0 0-.348-1.28 1.332 1.332 0 0 0-1.066-.592c-.74-.074-1.731.192-2.538.133-1.65-.118-2.745-1.739-4.225-2.486a8.627 8.627 0 0 0-4.661-.451 4.312 4.312 0 0 1-1.687-.1 6.343 6.343 0 0 1-1.776-1.221 7.444 7.444 0 0 0-6.519-1.31 7.1 7.1 0 0 1-2.22.5c-1.443-.081-2.464-1.369-3.529-2.345-2.915-2.671-7.066-3.374-10.6-5.128a2.42 2.42 0 0 1-1.273-1.1c-.407-1.006.511-2.013 1.339-2.7l6.082-5.053c6.659-5.534 14.983-9.7 18.076-17.817a10.3 10.3 0 0 1 1.48-3.041 4.12 4.12 0 0 1 .821-.74 6.215 6.215 0 0 1 4.55-.888 15.368 15.368 0 0 1 5.357 2.338q3.973 2.4 7.732 5.179a68.369 68.369 0 0 1 7.066 5.8c3.885 3.7 7.118 8.087 10.736 12.075s7.754 7.71 12.778 9.619 11.1 1.828 15.412-1.376c4.98-3.7 6.578-10.314 7.836-16.381 2.775-2.678 3.611-6.755 4.965-10.359.851-2.286 1.938-4.439 2.856-6.718 1.095-2.678 1.953-5.446 2.812-8.206a39.453 39.453 0 0 0 1.968-8.561c.355-4.61-.88-9.515.414-13.844a51.047 51.047 0 0 0 4.943-1.9c2.5-.821 5.179-.688 7.828-.673h.17a4.04 4.04 0 0 0 2.6-.614 4.147 4.147 0 0 0 1.073-3.152c.109-2.81-.07-5.992-2.192-7.827zm-107.2-126.213a5.5 5.5 0 0 1-1.872.133z" class="cls-2" data-name="Path 2136" transform="translate(-660.02 -226.257)"/>
            <path id="Path_2137" d="M811.694 328.806a8.139 8.139 0 0 1-3.078 1.635l-5.246 1.879c-2.849 1.021-5.823 2.049-8.827 1.68-1.68-.207-8.879-1.265-9.966-2.575-1.658-2.027 4.151-5.009 6.134-6.718a8.386 8.386 0 0 0 1.243-1.1 4.46 4.46 0 0 0 .54-3.307 51.051 51.051 0 0 1-.385-8.709 17.586 17.586 0 0 1 .3-2.064c.74-3.4 3.907-2.161 6.408-1.258a50.1 50.1 0 0 1 8.694 3.766 6.237 6.237 0 0 1 2.146 1.82c1.1 1.657.659 3.833.481 5.919-.155 1.62-.148 3.174.866 4.351a11.2 11.2 0 0 1 1.4 1.48 2.775 2.775 0 0 1-.71 3.201z" class="cls-3" data-name="Path 2137" transform="translate(-679.925 -247.333)"/>
            <path id="Path_2138" d="M720.822 254.907c.74-3.278.9-6.659 1.791-9.907a46.383 46.383 0 0 1 2.323-6.178l3.263-7.614a5.369 5.369 0 0 1 1.539-2.331 4.557 4.557 0 0 1 2.538-.681 11.307 11.307 0 0 1 8.716 3.219c2.175 2.345 2.863 6.141 1.132 8.827-2.072 3.233-6.593 3.884-9.293 6.607a12.937 12.937 0 0 0-3.071 6.548c-1.347 6.215-.9 12.66-1.309 19.008-.133 1.976-.518 4.232-2.22 5.253a6.476 6.476 0 0 1-3.315.644l-4.854.081c-.814 0-3.766.511-4.306-.1-.947-1.073 1.214-6.415 1.606-7.606.873-2.641 1.946-5.216 2.96-7.813.878-2.319 2.5-5.449 2.5-7.957z" class="cls-3" data-name="Path 2138" transform="translate(-661.519 -226.759)"/>
            <path id="Path_2139" d="M850.115 576.114c-1.117 4.277-4.476 7.606-6.2 11.683-2.6 6.1-1.428 13.57-5.1 19.089a20.163 20.163 0 0 1-4.269 4.4 15.85 15.85 0 0 1-2.96 1.99 4.869 4.869 0 0 1-3.6.444 4.428 4.428 0 0 1-2.656-3.848 7.755 7.755 0 0 1 0-1.605 19.905 19.905 0 0 1 .74-3.248q1.332-4.491 2.656-9a21.8 21.8 0 0 0 1.066-5.031c.1-1.865-1.088-4.292-.585-6.03.229-.784 1.088-1.48 1.48-2.138a12.385 12.385 0 0 0 1.273-3.026c.607-2.064 1.021-4.269 2.294-6.008a14.1 14.1 0 0 1 2.886-2.7 7.652 7.652 0 0 1 2.752-1.546 6.74 6.74 0 0 1 2.96.141 29.035 29.035 0 0 1 3.7 1.051h.067c1.48.533 3.048 1.354 3.515 2.849a4.652 4.652 0 0 1-.019 2.533z" class="cls-4" data-name="Path 2139" transform="translate(-690.592 -315.519)"/>
            <path id="Path_2140" d="M951.348 450.922a4.1 4.1 0 0 1-1.073 3.145 4.039 4.039 0 0 1-2.6.614h-.2c-2.641 0-5.327-.148-7.828.673-1.9.629-3.648 1.783-5.631 2.013-2.73.311-5.3-1.184-7.717-2.486a76.8 76.8 0 0 0-7.007-3.33c-1.569-.644-4.772-1.058-5.527-2.775a25.3 25.3 0 0 1-.651-2.471 8.206 8.206 0 0 0-.451-1.088 6.252 6.252 0 0 1-.829-2.449 3.781 3.781 0 0 1 .844-2.368 7.1 7.1 0 0 1 4.846-2.494 21.457 21.457 0 0 1 5.579.3l18.216 2.619c1.406.2 2.819.4 4.2.74a8.243 8.243 0 0 1 3.611 1.583c2.152 1.803 2.329 4.977 2.218 7.774z" class="cls-4" data-name="Path 2140" transform="translate(-713.099 -281.29)"/>
            <path id="Path_2141" d="M892.328 457.9c-2.22 4.684-.621 10.225-1.021 15.4a39.269 39.269 0 0 1-1.968 8.538c-.858 2.752-1.717 5.512-2.812 8.183-.917 2.22-2.005 4.439-2.856 6.7-1.354 3.611-2.22 7.673-4.965 10.359-1.258 6.052-2.856 12.667-7.836 16.337-4.328 3.2-10.359 3.307-15.412 1.376s-9.16-5.631-12.778-9.619-6.852-8.331-10.736-12.046a67.331 67.331 0 0 0-7.081-5.793q-3.759-2.73-7.732-5.135a15.487 15.487 0 0 0-5.357-2.331 6.215 6.215 0 0 0-4.55.888 4.131 4.131 0 0 0-.821.74 10.179 10.179 0 0 0-1.48 3.034c-3.108 8.095-11.446 12.253-18.105 17.773l-6.082 5.039c-.829.688-1.746 1.694-1.339 2.693a2.418 2.418 0 0 0 1.273 1.095c3.537 1.746 7.688 2.449 10.6 5.113 1.066.977 2.086 2.264 3.529 2.338a7.086 7.086 0 0 0 2.22-.5 7.465 7.465 0 0 1 6.518 1.3 6.344 6.344 0 0 0 1.776 1.221 4.315 4.315 0 0 0 1.687.1 9.005 9.005 0 0 1 4.661.451c1.413.7 2.575 2.36 4.225 2.479.806.059 1.768-.207 2.538-.133a1.332 1.332 0 0 1 1.066.592 4.9 4.9 0 0 1 .348 1.273c.3 1.043 1.325 1.68 1.99 2.538a7.012 7.012 0 0 1 1.066 4.772 20.363 20.363 0 0 1-6.482 13.629 8.021 8.021 0 0 1-3.988 2.22 3.7 3.7 0 0 1-3.951-1.754 6.081 6.081 0 0 0-.74-1.628c-1.191-1.31-3.862.081-4.958-1.317-.681-.873-.192-2.272-.844-3.174s-2.22-.74-3.426-.792a21.7 21.7 0 0 1-4.092-1.088c-2.22-.577-4.543-.363-6.814-.518a41.127 41.127 0 0 1-5.608-.888l-9.412-1.924a111.551 111.551 0 0 1-17.713-4.639 14.255 14.255 0 0 1-5.919-3.626 11.1 11.1 0 0 1-2.308-5.4C745.3 523.9 752.4 517.15 753.3 509.2a31.7 31.7 0 0 1 2.575-8.331q3.011-7.221 6.008-14.45a12.856 12.856 0 0 1 1.258-2.56 18.587 18.587 0 0 1 2.859-2.794 19.7 19.7 0 0 0 5.794-9.5 2.558 2.558 0 0 1 .5-1.117 4.164 4.164 0 0 1 .858-.555 2.811 2.811 0 0 0 1.117-3.293 1.924 1.924 0 0 0 1.761-1.791 3.093 3.093 0 0 1 .074-1.2c.178-.385.621-.577.881-.917a2.86 2.86 0 0 0 .207-2.027 6.6 6.6 0 0 1 0-1.324 6.8 6.8 0 0 1 1.983-4.136c1.768-1.739 4.284-1.287 6.726-1.7a38.527 38.527 0 0 0 7.1-2.271 69.779 69.779 0 0 1 20.059-4.639 43.8 43.8 0 0 1 20.258 3.226 11.516 11.516 0 0 1 2.612 1.48 4.95 4.95 0 0 1 1.369 1.635 15.246 15.246 0 0 0 1.006 2.271c.792 1.08 2.286 1.428 3.152 2.449s.94 2.745 1.657 4.01c1.028 1.805 3.411 2.641 4.121 4.6.222.622.252 1.3.414 1.946a11.131 11.131 0 0 0 2.656 4.158 31.972 31.972 0 0 1 7.162 16.278c.237-3.751 2.76-7.073 5.919-9.145.851-.555 1.835-1.169 2.005-2.175.215-1.273-1.021-2.4-.94-3.7a3.625 3.625 0 0 1 .74-1.731 54.723 54.723 0 0 1 4.632-5.823c.91-1 1.931-2.22 1.554-3.537-.288-.984-1.295-1.561-1.85-2.42a3.078 3.078 0 0 1 .074-3.4c.518-.7 1.339-1.213 1.591-2.049.289-.984-.355-2.05-.155-3.063a3.789 3.789 0 0 1 1.524-1.975 12.671 12.671 0 0 1 3.307-2.175c1.953-.74 4.129-.466 6.2-.178 3.463.481 7.347 1.221 9.3 4.121 1.256 1.809 1.892 4.562.96 6.502z" class="cls-5" data-name="Path 2141" transform="translate(-670.091 -283.531)"/>
            <path id="Path_2142" d="M951.34 450.922a4.1 4.1 0 0 1-1.073 3.145 4.039 4.039 0 0 1-2.6.614h-.2c.3-1.539 2.175-2.419 2.5-3.981a3.522 3.522 0 0 0-.814-2.686c-1.583-2.138-4.129-3.322-6.659-4.188a44.113 44.113 0 0 0-22.241-1.665 22.393 22.393 0 0 0-5.845 1.8 19.027 19.027 0 0 0-1.776 1.258 6.251 6.251 0 0 1-.829-2.449 3.78 3.78 0 0 1 .844-2.368 7.1 7.1 0 0 1 4.846-2.494 21.456 21.456 0 0 1 5.579.3l18.216 2.619a42.659 42.659 0 0 1 4.2.74 8.243 8.243 0 0 1 3.611 1.583c2.175 1.801 2.352 4.975 2.241 7.772z" class="cls-6" data-name="Path 2142" transform="translate(-713.092 -281.29)"/>
            <path id="Path_2143" d="M850.115 576.577c-1.117 4.277-4.476 7.606-6.2 11.683-2.6 6.1-1.428 13.57-5.1 19.089a20.169 20.169 0 0 1-4.269 4.4 15.855 15.855 0 0 1-2.96 1.99 4.867 4.867 0 0 1-3.6.444 4.428 4.428 0 0 1-2.656-3.848 7.756 7.756 0 0 1 0-1.606l.044.119c.644 1.554 1.694 3.181 3.352 3.455a4.536 4.536 0 0 0 3.418-1.206c2.442-1.961 3.862-4.883 5.216-7.7a32.034 32.034 0 0 0 2.5-6.385c.3-1.258.436-2.545.74-3.8 1.406-6.112 6.193-11.1 7.251-17.292a4.233 4.233 0 0 0 .059-1.295 6.537 6.537 0 0 0-.636-1.613 7.986 7.986 0 0 1-.562-1.791c1.48.533 3.048 1.354 3.515 2.849a4.656 4.656 0 0 1-.119 2.508z" class="cls-6" data-name="Path 2143" transform="translate(-690.592 -315.981)"/>
            <path id="Path_2144" d="M827.348 548.917a10.724 10.724 0 0 1-3.337 4.558 16.278 16.278 0 0 1-7.184 3.108 7.147 7.147 0 0 1-3.7-.044c-1.643-.57-2.827-2.109-4.506-2.553-1.2-.326-2.486-.037-3.7-.215-2.183-.3-3.877-1.968-5.638-3.3-5.394-4.055-12.475-5.364-17.869-9.419a1.659 1.659 0 0 1-.577-.6 1.78 1.78 0 0 1-.111-.836 17.015 17.015 0 0 1 1.62-7.11 24.816 24.816 0 0 1 3.048-4.343c4.832-5.919 9.685-11.883 15.471-16.877a23.44 23.44 0 0 1 8.139-4.994c1.7-.525 5.061-1.021 7.133-.133a4.134 4.134 0 0 0-.821.74 10.177 10.177 0 0 0-1.48 3.034c-3.115 8.1-11.454 12.26-18.113 17.78l-6.082 5.039c-.829.688-1.746 1.694-1.339 2.693a2.419 2.419 0 0 0 1.273 1.1c3.537 1.746 7.688 2.449 10.6 5.113 1.065.977 2.087 2.264 3.529 2.338a7.09 7.09 0 0 0 2.22-.5 7.466 7.466 0 0 1 6.519 1.3 6.341 6.341 0 0 0 1.776 1.221 4.316 4.316 0 0 0 1.687.1 9.006 9.006 0 0 1 4.661.451c1.413.7 2.575 2.36 4.225 2.479.824.063 1.786-.218 2.556-.13z" class="cls-6" data-name="Path 2144" transform="translate(-678.997 -298.932)"/>
            <path id="Path_2145" d="M749.365 418.888c-1.406.9-2.9 1.924-3.478 3.492-.474 1.28-.252 2.745-.821 3.988s-1.85 2.109-2.131 3.441c-.2.969.192 1.99 0 2.96a12.758 12.758 0 0 0-.407 1.539c-.074 1.1.873 2 1.8 2.612a15.02 15.02 0 0 0 13.444 1.48 60.755 60.755 0 0 0 5.653-2.893 11.18 11.18 0 0 1 6.089-1.48c1.221.133 2.39.577 3.611.74a3.789 3.789 0 0 0 3.381-1.006 4.216 4.216 0 0 0 .74-1.754 26.2 26.2 0 0 0-.414-12.453c-.977-4.084-2.457-8.013-3.5-12.075a55.392 55.392 0 0 0-2.545-8.945c-1.236-2.849-3.315-5.5-6.223-6.585a1.161 1.161 0 0 0-.74-.1 1.257 1.257 0 0 0-.481.355 22.752 22.752 0 0 0-5.076 8.539c-1.162 3.544-1.48 7.3-2.545 10.862-.459 1.48-1.051 3.463-2.22 4.595a25.371 25.371 0 0 1-4.137 2.688z" class="cls-4" data-name="Path 2145" transform="translate(-669.064 -269.322)"/>
            <path id="Path_2146" d="M777.272 431.966a4.313 4.313 0 0 1-.777 1.753 3.752 3.752 0 0 1-3.381 1c-1.213-.148-2.382-.6-3.6-.74a11.158 11.158 0 0 0-6.089 1.48c-1.894.947-3.7 2.124-5.66 2.886a14.938 14.938 0 0 1-8.975.511 14.48 14.48 0 0 1-4.439-1.953c-.932-.607-1.872-1.48-1.8-2.612a12.618 12.618 0 0 1 .407-1.532c.192-.969-.193-1.99 0-2.96.281-1.332 1.568-2.22 2.131-3.448s.348-2.7.814-3.981c.577-1.576 2.079-2.59 3.485-3.5a26.59 26.59 0 0 0 4.2-2.708 4.181 4.181 0 0 0 .392-.547 13.317 13.317 0 0 0 1.761-4.077c1.088-3.566 1.384-7.318 2.538-10.869a22.8 22.8 0 0 1 5.083-8.531 1.116 1.116 0 0 1 .474-.355 1.183 1.183 0 0 1 .74.089c2.9 1.1 4.98 3.744 6.223 6.593a58.258 58.258 0 0 1 2.545 8.938c1.036 4.062 2.523 8.006 3.5 12.083s1.456 8.414.428 12.48z" class="cls-6" data-name="Path 2146" transform="translate(-669.069 -269.303)"/>
            <path id="Path_2147" d="M812.884 319.765a14.8 14.8 0 0 1-18.024-8.139 17.587 17.587 0 0 1 .3-2.064c.74-3.4 3.907-2.161 6.407-1.258a50.108 50.108 0 0 1 8.694 3.766 6.238 6.238 0 0 1 2.146 1.82c1.093 1.635.655 3.81.477 5.875z" class="cls-6" data-name="Path 2147" transform="translate(-682.676 -247.341)"/>
            <circle id="Ellipse_323" cx="14.798" cy="14.798" r="14.798" class="cls-3" data-name="Ellipse 323" transform="translate(110.941 42.783)"/>
            <path id="Path_2148" d="M846.785 451.7c0 1.228-1.665 1.62-2.9 1.554-4.439-.259-8.783-1.48-13.178-1.11-5.557.5-10.662 3.574-16.234 3.855-2.146.111-4.328-.207-6.444.185-2.738.511-5.179 2.175-7.969 2.412-2.419.207-4.809-.7-7.229-.607A11.617 11.617 0 0 0 788 459.37a6.8 6.8 0 0 1 1.983-4.136c1.768-1.739 4.284-1.287 6.726-1.7a38.529 38.529 0 0 0 7.1-2.271 69.777 69.777 0 0 1 20.059-4.639 43.8 43.8 0 0 1 20.251 3.2 11.519 11.519 0 0 1 2.612 1.48 1.165 1.165 0 0 1 .054.396z" class="cls-6" data-name="Path 2148" transform="translate(-680.892 -283.537)"/>
            <path id="Path_2149" d="M795.471 338.109l-5.993-2.22-2.53-.932a12.239 12.239 0 0 0-3.226-.858c-2.9-.222-5.631 1.709-7.177 4.173a22.544 22.544 0 0 0-2.626 8.265q-1.021 5.875-1.731 11.794a77.024 77.024 0 0 0-.777 10.758c.17 9.16 2.109 18.194 4.24 27.11a95.38 95.38 0 0 1 2.36 12.023c.177 1.672.259 3.352.436 5.031.192 1.887.5 3.751.814 5.623l1.783 10.632c2.22-1.576 4.743-2.96 7.473-3.041 2.419-.089 4.817.814 7.229.607 2.775-.229 5.231-1.894 7.969-2.4 2.116-.392 4.3-.081 6.452-.185 5.564-.281 10.677-3.359 16.226-3.855 4.4-.4 8.775.843 13.185 1.1 1.228.074 2.893-.318 2.893-1.554 0-.858-.858-1.428-1.606-1.857a79.182 79.182 0 0 1-10.026-7.155c-2.915-2.309-5.875-4.676-7.88-7.8-4.832-7.51-3.174-17.669-7.3-25.593-3.352-6.437 0-14.872 0-22.13a33.666 33.666 0 0 0-2.834-16.566l-2.878-7.288a1.191 1.191 0 0 0-.34-.555 1.132 1.132 0 0 0-.658-.2 6.941 6.941 0 0 0-4.78 1.532c-1.354 1.1-2.22 2.686-3.552 3.833-1.453 1.264-3.333 2.374-5.146 1.708z" class="cls-7" data-name="Path 2149" transform="translate(-676.577 -253.506)"/>
            <path id="Path_2150" d="M814.4 332.273a13.131 13.131 0 0 1 2.338-5.719c1.354-1.583 3.825-2.419 5.572-1.287 1.983 1.287 2.064 4.262 3.759 5.919 1.48 1.421 3.7 1.532 5.712 1.717a38.735 38.735 0 0 1 10.558 2.486 4.313 4.313 0 0 1 1.754 1.051c.925 1.051.74 2.664 1.2 3.973.629 1.687 2.368 2.76 3.041 4.439.74 1.865 0 3.951-.622 5.867-1.117 3.441-1.82 7.014-2.908 10.47a23.311 23.311 0 0 1-5.179 9.463c-1.125 1.154-2.8 2.22-4.277 1.532l-.57 4.106a6.976 6.976 0 0 0 0 2.627 2.352 2.352 0 0 0 1.716 1.82c.111.636.784.94 1.332 1.287a3.7 3.7 0 0 1 .94 5.179c-.466.629-1.154 1.125-1.376 1.872a2.66 2.66 0 0 0 1.421 2.812c.962.592 2.094.866 3.071 1.435 2.027 1.169 3.115 3.47 3.81 5.7.518 1.687.947 3.515 2.22 4.743.488.466 1.073.821 1.539 1.31a5.616 5.616 0 0 1 1.324 3.4 6.742 6.742 0 0 1-.962 4.439c-1.48 2.116-4.24 2.745-6.659 3.7-3.929 1.613-7.162 4.5-10.625 6.955a11.337 11.337 0 0 1-4.847 2.279c-2.4.318-4.757-.74-7.17-.836a17.8 17.8 0 0 0-4.277.562l-4.439.962c.237-3.441-1.657-6.888-2.715-10.166a50.52 50.52 0 0 1-1.894-19.237 150.667 150.667 0 0 1 3.093-19.193c.91-4.439.821-9.079 2.22-13.392 1.309-4.151 3.182-8.139 3.87-12.46 1.122-6.988-3.554-12.919-1.97-19.815z" class="cls-4" data-name="Path 2150" transform="translate(-685.834 -251.873)"/>
            <path id="Path_2151" d="M858.534 353.041a8.134 8.134 0 0 1 .851 2.4 8.678 8.678 0 0 0 1.872 3.522 12.127 12.127 0 0 1 1.968 2.22c.681 1.287.422 2.856.74 4.262.37 1.532 1.443 2.863 1.6 4.439a8.115 8.115 0 0 0 .126 1.347c.481 1.791 3.115 2.22 3.7 4.01.392 1.162-.281 2.427-.155 3.648a3.211 3.211 0 0 1 .067 1.154 2.344 2.344 0 0 1-.844 1.08 17.018 17.018 0 0 0-4.868 8.664 49.353 49.353 0 0 0-1.121 10.013l-2.893-3.825a4.4 4.4 0 0 0-1.154-1.184c-.37-.222-.8-.333-1.177-.555-1.1-.622-1.524-1.939-1.946-3.122a28.856 28.856 0 0 0-5.179-8.968c-1.176-1.384-2.545-2.775-2.8-4.573a8.426 8.426 0 0 1 .133-2.471c.74-4.846 1.531-9.811 3.892-14.11 1.1-2.013 2.531-3.833 3.589-5.875.706-1.351 1.705-4.873 3.599-2.076z" class="cls-4" data-name="Path 2151" transform="translate(-696.31 -258.96)"/>
            <path id="Path_2152" d="M749.249 341.42a3.381 3.381 0 0 1-.459 1.776 2.338 2.338 0 0 1-2.338.74 6.762 6.762 0 0 1-2.338-1.1q-3.093-1.953-6.186-3.914a34.233 34.233 0 0 1-3.322-2.279 29.652 29.652 0 0 1-4.388-4.595c-3.6-4.439-6.778-9.256-10.78-13.318-1.088-1.11-2.22-2.175-3.27-3.337a48.7 48.7 0 0 1-3.951-5.312c-1.154-1.709-2.353-3.6-2.153-5.646.118-1.154.673-2.22.836-3.367s-.274-2.545-1.384-2.856a2.5 2.5 0 0 0-.4-.067 3.021 3.021 0 0 1-.644-.141c-1.028-.429-.873-2.02-.133-2.856s1.835-1.3 2.508-2.22a13.4 13.4 0 0 1 1.051-1.561 4 4 0 0 1 1.724-.866 26.681 26.681 0 0 1 13.133-.5c.74.163 1.583.459 1.805 1.176a2.167 2.167 0 0 1 0 1.065 23.824 23.824 0 0 0-.562 4.439 7.852 7.852 0 0 0 .052.932c.348 3.137 2.382 5.793 4.365 8.243a805.01 805.01 0 0 0 7.14 8.694 34.168 34.168 0 0 0 4.328 4.624c1.48 1.228 3.4 2.22 4.55 3.8.94 1.273.636 3.011.74 4.543a100.854 100.854 0 0 1 .076 13.903z" class="cls-4" data-name="Path 2152" transform="translate(-660.017 -242.685)"/>
            <path id="Path_2153" d="M886.509 382.268a15.539 15.539 0 0 0 1.968-2.331 15.367 15.367 0 0 0 1.48-3.307l4.291-12.171c.681-1.924 1.362-3.855 2.22-5.727.888-2.02 1.938-3.966 2.908-5.919a78.935 78.935 0 0 0 5.749-16.093 5.958 5.958 0 0 0 .229-2.36 6.2 6.2 0 0 0-2.1-3.189 15.379 15.379 0 0 0-3.152-2.6 5.179 5.179 0 0 0-3.951-.636c-1.894.555-3.085 2.493-3.522 4.439a46.382 46.382 0 0 0-.459 5.919c-.266 2.841-1.243 5.586-1.48 8.435-.126 1.65 0 3.315-.2 4.957a18.1 18.1 0 0 1-2.22 6.119 39.726 39.726 0 0 1-9.567 11.764 15.383 15.383 0 0 0-2.871 2.76 9 9 0 0 0-1.384 3.448 7.939 7.939 0 0 0 .6 5.6c1.206 2.057 3.522 2.96 5.734 3.418 2.99.618 3.678-.403 5.727-2.526z" class="cls-3" data-name="Path 2153" transform="translate(-703.309 -252.664)"/>
            <path id="Path_2154" d="M806.875 273.232a6.9 6.9 0 0 1 6.7-3.633 7.4 7.4 0 0 1 5.816 5.224 13.489 13.489 0 0 0 1.1 3.27c.917 1.428 2.619 1.842 3.892 2.878a7.791 7.791 0 0 1 2.486 5.5 16.657 16.657 0 0 1-.984 6.223 19.794 19.794 0 0 0-.74 2.6c-.148.858-.163 1.731-.3 2.59a8.434 8.434 0 0 1-3.4 5.6 1.48 1.48 0 0 1-.917.333c-.577-.067-.932-.74-1.147-1.347-1.176-3.4-.9-7.547-3.063-10.255a11.209 11.209 0 0 0-3.507-2.612 4.52 4.52 0 0 0-1.791-.673 4.713 4.713 0 0 0-2.59.947 16.123 16.123 0 0 1-5.12 2.264 6.289 6.289 0 0 1-5.29-1.139c-1.021-.844-1.769-2.109-2.9-2.767s-2.316-.622-3.433-1.073a5.083 5.083 0 0 1-2.057-7.754c.74-.888 1.835-1.391 2.493-2.375.851-1.273.777-3.019 1.184-4.543a6.252 6.252 0 0 1 3.766-4.3 5.29 5.29 0 0 1 5.268 1.1c.74.666 1.332 1.524 2.057 2.22a5.919 5.919 0 0 0 5.475 1.48" class="cls-4" data-name="Path 2154" transform="translate(-681.047 -237.093)"/>
            <path id="Path_2155" d="M829.4 421.355a2.871 2.871 0 0 0-.784 3.137c.163.348 7.8-1.125 8.605-1.236 2.013-.289 5.542-.148 6.9-1.99 2.412-3.263-5.061-2.538-6.43-2.419-2.607.222-6.306.577-8.291 2.508z" class="cls-6" data-name="Path 2155" transform="translate(-691.41 -276.31)"/>
            <path id="Path_2156" d="M728.565 292.283a23.824 23.824 0 0 0-.562 4.439c-2.22.451-4.528-.289-6.659-1.029l-6.119-2.087a1.739 1.739 0 0 0-2.338.437 51.819 51.819 0 0 1-3.7 4.106 3.018 3.018 0 0 1-.644-.141c-1.028-.429-.873-2.02-.133-2.856s1.835-1.3 2.508-2.22a13.39 13.39 0 0 1 1.051-1.561 4 4 0 0 1 1.724-.866 26.681 26.681 0 0 1 13.133-.5c.74.163 1.583.459 1.806 1.176a2.168 2.168 0 0 1-.067 1.102z" class="cls-4" data-name="Path 2156" transform="translate(-660.035 -242.685)"/>
            <path id="Path_2157" d="M728.565 292.283a23.824 23.824 0 0 0-.562 4.439c-2.22.451-4.528-.289-6.659-1.029l-6.119-2.087a1.739 1.739 0 0 0-2.338.437 51.819 51.819 0 0 1-3.7 4.106 3.018 3.018 0 0 1-.644-.141c-1.028-.429-.873-2.02-.133-2.856s1.835-1.3 2.508-2.22a13.39 13.39 0 0 1 1.051-1.561 4 4 0 0 1 1.724-.866 26.681 26.681 0 0 1 13.133-.5c.74.163 1.583.459 1.806 1.176a2.168 2.168 0 0 1-.067 1.102z" class="cls-6" data-name="Path 2157" transform="translate(-660.035 -242.685)"/>
            <path id="Path_2158" d="M806.353 482.122a3.693 3.693 0 0 1 2.582 1.939l-8.568-2.175-4.439-1.132c-.784-.2-3.6-.429-4.114-1.043-.74-.9 1.887-.281 2.36-.215 1.435.215 2.871.437 4.3.7 2.693.475 5.282 1.267 7.879 1.926z" class="cls-6" data-name="Path 2158" transform="translate(-681.85 -292.053)"/>
            <path id="Path_2159" d="M809.712 491.292c-.74-.5-2.864-.437-3.774-.651-1.332-.318-2.641-.74-3.951-1.147-2.656-.866-5.29-1.85-8.021-2.486-.5-.111-2.22-.141-2.138-.777s1.717-.858 2.124-.888c2.419-.177 5.438.955 7.688 1.761a33.884 33.884 0 0 1 8.072 4.188z" class="cls-6" data-name="Path 2159" transform="translate(-681.887 -293.64)"/>
            <path id="Path_2160" d="M804.909 472.395c-2.715-.74-5.179-2.427-7.976-2.753a3.241 3.241 0 0 1-2.035-.621 2.4 2.4 0 0 1-.659-1.184 13.785 13.785 0 0 1 5.749 1.443 18.085 18.085 0 0 1 2.693 1.435c.619.378 1.555 1.465 2.228 1.68z" class="cls-6" data-name="Path 2160" transform="translate(-682.515 -289.089)"/>
            <path id="Path_2161" d="M875.4 384.46a12.941 12.941 0 0 0 9.071 14.3c-.362 1.754-2.175 2.723-3.455 3.973-1.805 1.754-2.738 4.38-4.869 5.712-2.375 1.48-5.431.9-8.139.281a.991.991 0 0 1-.636-.333.91.91 0 0 1-.118-.289c-.9-3.278-1.48-6.777-.562-10.063.74-2.8 2.516-5.179 3.936-7.651s1.549-5.116 4.772-5.93z" class="cls-4" data-name="Path 2161" transform="translate(-701.238 -267.405)"/>
            <path id="Path_2162" d="M777.085 327.111a19.239 19.239 0 0 0-8.139 2.479c-1.657.947-3.359 2.22-5.253 1.99-1.117-.126-2.22-.74-3.307-.444a6.488 6.488 0 0 0-1.694 1.006 1.916 1.916 0 0 1-1.865.3l-.74 10.24c-.281 3.892-.555 7.865.377 11.661.481 1.939 1.539 3.7 1.657 5.668s-.059 3.988.081 5.978c.133 1.842.54 3.655.644 5.5.207 3.478-.651 6.925-1.48 10.307-1.251 4.987-2.005 10.085-4.44 14.6a8.614 8.614 0 0 0-1.48 3.944 2.02 2.02 0 0 0 .044.518c-.74.407-1.428.792-2.057 1.191-1.406.91-2.908 1.924-3.485 3.5-.466 1.28-.252 2.745-.814 3.981s-1.85 2.116-2.131 3.448c-.2.969.185 1.99 0 2.96a12.64 12.64 0 0 0-.407 1.532c-.074 1.11.865 2.005 1.8 2.612a14.48 14.48 0 0 0 4.439 1.953l4.417-17.536a141.389 141.389 0 0 0 10.011-23.285 50.065 50.065 0 0 1 2.893-7.665 36.01 36.01 0 0 0 2.22-4.351 32.768 32.768 0 0 0 1.066-5.853 40.963 40.963 0 0 1 1.739-6.755 28.986 28.986 0 0 0 1.887-7.236c.244-3.566-1.051-7.332.326-10.632a14.137 14.137 0 0 1 2.257-3.4c1.909-2.338 3.648-4.787 5.557-7.125-.993-1.063-2.643-1.174-4.123-1.086z" class="cls-4" data-name="Path 2162" transform="translate(-669.082 -252.483)"/>
            <g id="Group_841" class="cls-8" data-name="Group 841" transform="translate(107.575 33.705)">
                <path id="Path_2163" d="M817.028 271.81l-.925.067-.1.074a5.455 5.455 0 0 0 1.025-.141z" data-name="Path 2163" transform="translate(-795.75 -271.81)"/>
                <path id="Path_2164" d="M826.839 290.887a19.937 19.937 0 0 1-.947 4.321 19.794 19.794 0 0 0-.74 2.6c-.148.858-.163 1.731-.3 2.59a8.436 8.436 0 0 1-3.4 5.6 1.479 1.479 0 0 1-.917.333c-.577-.067-.932-.74-1.147-1.347-1.177-3.4-.9-7.547-3.063-10.255a11.21 11.21 0 0 0-3.507-2.612 4.522 4.522 0 0 0-1.791-.673 4.713 4.713 0 0 0-2.59.947 16.121 16.121 0 0 1-5.12 2.264 6.289 6.289 0 0 1-5.29-1.139c-1.021-.843-1.768-2.109-2.9-2.767s-2.316-.622-3.433-1.073a5.053 5.053 0 0 1-2.886-3.3 2.1 2.1 0 0 1-.059-.281 5.179 5.179 0 0 0 .059 2.5 5.053 5.053 0 0 0 2.885 3.3c1.117.451 2.375.459 3.433 1.073s1.879 1.924 2.9 2.767a6.29 6.29 0 0 0 5.291 1.139 16.125 16.125 0 0 0 5.12-2.264 4.712 4.712 0 0 1 2.59-.947 4.521 4.521 0 0 1 1.79.673 11.21 11.21 0 0 1 3.455 2.634c2.168 2.708 1.887 6.859 3.063 10.255.215.614.57 1.28 1.147 1.347a1.479 1.479 0 0 0 .969-.355 8.435 8.435 0 0 0 3.4-5.623c.133-.858.148-1.731.3-2.59a19.794 19.794 0 0 1 .74-2.6 16.654 16.654 0 0 0 .984-6.223c-.007-.087-.022-.19-.036-.294z" data-name="Path 2164" transform="translate(-788.631 -275.527)"/>
            </g>
            <path id="Path_2166" d="M648.478 494.3c40.769-16.026 62.374-44.535 73.465-66.428 12.933-25.527 14.694-47.354 14.761-48.286l.5-6.755h5.179l-.5 6.755c-.067.917-1.828 22.759-14.761 48.286-11.1 21.894-32.7 50.4-73.465 66.428q-4.772 1.887-9.915 3.529l-.5-1.576q2.676-.953 5.236-1.953z" class="cls-9" data-name="Path 2166" transform="translate(-643.24 -264.38)"/>
        </g>
        <g id="Group_852" data-name="Group 852" transform="translate(60 -41)">
            <path id="Path_2179" d="M342.277 423.473c-1.709-.57-11.772-8.531-12.534-12.134s5.32-37.173 5.32-37.173a13.669 13.669 0 0 1-1.48-.111v-.54l1.25-44.1s5.127-29.6-4.558-27.872-3.611 27.872-3.611 27.872-1.1 13.274-1.879 17.255c-.74 3.84-4.129 19.482-1.82 24.343a5.287 5.287 0 0 0 .281.5s.385 16.685-3.8 18.964c-3.988 2.168-5.645 13.081-5.786 14.058l-.215-.089a11.593 11.593 0 0 1-3.085-2.819c-.089-.111-.155-.229-.237-.348a16.3 16.3 0 0 0-5.017-25.445 10.507 10.507 0 0 0-.984-4.084c-1.924-4.114-12.578-9.493-20.148-9.619-3.492-.1-6.356.888-7.4 3.618-.533 1.384-.37 2.96-.592 4.4-.444 2.96-2.346 5.276-4.787 7.118a30.009 30.009 0 0 0-3.189-3.071c-2.471-1.894-7.4-8.139-7.4-8.139s-15.383-15.93-16.522-20.3-16.507-30.58-19.926-26.015 11.772 24.461 11.772 24.461 2.886 7.229 5.105 9.67 19.237 27.154 19.237 27.154l.814 1.687c-3.6 1.894-6.881 4.306-8.043 8.065-1.7 5.534 2.02 11.1 4.595 16.278 5.017 10.107 5.734 23-.74 32.23-5.8 8.154-15.864 12.031-25.282 15.42a24.883 24.883 0 0 0 15.982 5.305c-2.175 6.3-9.885 8.391-16.455 9.56 3.448 3.315 8.383 4.521 13.118 5.253a39.315 39.315 0 0 0 7.022.555h.577l.577-.044a20.1 20.1 0 0 0 2.39-.3 12.557 12.557 0 0 0 8.487-5.579c1.48-2.582 2-6.1 4.684-7.4a5.985 5.985 0 0 1 2.22-.525h1.443l11.195.111h1.428c3.159-.074 6.533-.621 8.139-3.233a8.966 8.966 0 0 0 1.014-4.106c.237-3.544 0-7.192.1-10.766.954 6.5 1.953 16.64-.422 20.384a34.774 34.774 0 0 1-6.94 7.525 13.319 13.319 0 0 0-1.835 1.879c-.363.259-.577.4-.577.4l-.229.688a13.028 13.028 0 0 0-1.805 4.188 2.908 2.908 0 0 0-.141 1.191c.259.525-1.85 2.693-1.236 3.6-5.268 6.178-6.267 15.538-6.267 15.538l-9.619 14.606c-4.943 12.985-12.342 14.317-12.342 14.317s-17.38-11.661-17.854-12.231-7.118-3.418-7.118-3.418a7.533 7.533 0 0 0-3.418-3.122c-2.279-.947-2.471-4.439-2.471-4.439-.281-8.25-5.128-8.879-5.128-8.879a15.745 15.745 0 0 0-9.182 1.635l-.7.052c-3.359.274-7.4.577-11.838.873-12.349.814-15.286 8.812-15.286 8.812a2.462 2.462 0 0 0 .474 3.559c1.99 1.85 14.731 0 15.272-.044a8.275 8.275 0 0 1-2.9-.2 207.77 207.77 0 0 1 7.118-.148h.57a30.794 30.794 0 0 0-.215 3.759c0 2.368 6.548 3.885 6.548 3.885l19.94 17.758s12.534 5.6 20.51 13.659 15.027 1.1 15.027 1.1c8.442-2.087 32.733-31.453 32.755-31.483 0 .858.511 29.419 1.48 35.153a3.808 3.808 0 0 0 .215.851c1.139 2.464-.385 9.2-1.043 12.038a33.444 33.444 0 0 0-.481 7.207s-9.108 34.776-8.354 37.831-4.935 17.255-4.935 17.255v11.843l.991-.052a6.4 6.4 0 0 0-.355.592l-.067.126s6.075 1.324 10.159.947 11.1 3.145 11.1 3.145 2.375 1.125 9.685 1.6 7.31-3.226 7.31-3.226c-.836-5.039-12.386-6.726-12.741-6.777a34.14 34.14 0 0 1-2.523-1.768l-.148-.118a3.171 3.171 0 0 0 .126-.34c1.236-5.031-5.6-7.214-5.6-7.214v-1.228c4.439-2.279 5.32-17.921 5.32-17.921s6.659-19.341 7.591-22.567 0-8.057 0-8.057l.666-4.173a20.523 20.523 0 0 0 1.428-3.411 8.426 8.426 0 0 1 1.613-3.981c1.043-1.236-1.139-4.173-1.139-4.173l1.9-4.928v-5.409l4.439-19.622s4.654-22.856 3.041-30.336 1.9-11.283 1.9-11.283a9.353 9.353 0 0 1-.977.444 28.258 28.258 0 0 0 1.147-3.152l9.989 1.236v.148h3.6s-1.14-14.058-1.14-19.726 3.84-26.008 3.84-26.008 1.721-19.885.012-20.455zm-44.342-16.411c0 .555-.052 1.132-.089 1.724l-.2.3-.37-.311-.451.7-.133.067c-.977-.5-1.48-3.381-2.183-2.76l-.1.081c-.155-.178-.311-.229-.474-.081l-.148.126v-.659a16.647 16.647 0 0 0 4.143.525c.012.103.004.199.004.288zm33.222 65.466h.215l-.355.932c.043-.31.083-.613.139-.931zm-36.47 167.788l-1.361-.34.74-.126.688.451.081.059zm13.91-1.99c-.451-.237-.91-.51-1.354-.792.147.082.732.385 1.357.792z" class="cls-10" data-name="Path 2179" transform="translate(-121.931 -169.968)"/>
            <path id="Path_2180" d="M358.082 390.03l-8.96 23.351h2.178l-8.43 6.719 15.212 1.894z" class="cls-11" data-name="Path 2180" transform="translate(-143.945 -101.446)"/>
            <path id="Path_2181" d="M358.082 390.03l-8.96 23.351-2.257-.607-4 7.325 15.212 1.894z" class="cls-6" data-name="Path 2181" transform="translate(-143.945 -101.446)"/>
            <path id="Path_2182" d="M344.44 395.3h14.051l5.157-42.433H344.44z" class="cls-11" data-name="Path 2182" transform="translate(-144.353 -91.78)"/>
            <path id="Path_2183" d="M344.44 395.3h14.051l5.157-42.433H344.44z" class="cls-6" data-name="Path 2183" transform="translate(-144.353 -91.78)"/>
            <path id="Path_2184" d="M334.847 473.88l3.034-.51 6.97-1.184s20.932-4.721 25.253-5.105a26.985 26.985 0 0 0 7.577-2.16c1.132-.488 1.85-.858 1.85-.858l-7.54-13.77-11.7-8.672s-7.4-1.576-10.529-5.882a6.933 6.933 0 0 1-.969-6.57c1.909-5.919-11.4 5.66-11.4 5.66s.126 2.775 0 6.311c0 .7-.067 1.421-.118 2.161a14.546 14.546 0 0 1-.118 1.48c-.326 3.515-.991 7.133-2.308 9.293-3.22 5.282-.002 19.806-.002 19.806z" class="cls-12" data-name="Path 2184" transform="translate(-162.203 -202.743)"/>
            <path id="Path_2185" d="M338.79 441.539h.3c.533 0 .962-1.132 1.48-1.184 4.166-.4 7.969-1.273 10.61-4.225a6.94 6.94 0 0 1-.969-6.563c1.909-5.919-11.4 5.653-11.4 5.653s.134 2.78-.021 6.319z" class="cls-6" data-name="Path 2185" transform="translate(-163.601 -202.846)"/>
            <path id="Path_2186" d="M316.89 417.96a16.211 16.211 0 0 0 16.219 16.219 11.306 11.306 0 0 0 1.583-.074 16.219 16.219 0 1 0-17.8-16.145z" class="cls-12" data-name="Path 2186" transform="translate(-157.905 -196.048)"/>
            <path id="Path_2187" d="M294.3 389.121c-.533 1.376-.37 2.915-.585 4.373-.792 5.261-6.141 8.413-10.98 10.618s-10.3 4.817-11.839 9.9c-1.687 5.5 2 11.01 4.558 16.167 4.987 10.048 5.7 22.863-.74 32.053-5.719 8.139-15.686 12-25.068 15.39a24.713 24.713 0 0 0 15.871 5.283c-2.153 6.267-9.811 8.346-16.337 9.5 3.426 3.3 8.331 4.5 13.03 5.224a29.546 29.546 0 0 0 10.359.192 12.444 12.444 0 0 0 8.42-5.549c1.48-2.567 1.983-6.067 4.654-7.362a8.422 8.422 0 0 1 3.8-.555l11.1.118c3.455 0 7.547-.266 9.33-3.219a8.878 8.878 0 0 0 1.006-4.084c.481-7.281-.917-14.976 2.079-21.62.9-2.005-4.891-5.179-4.284-7.3a68.213 68.213 0 0 0 2.59-20.651c0-5.882 3.825-10.951 6.985-15.915s5.8-11.232 3.307-16.559c-2.818-5.944-23.935-14.579-27.256-6.004z" class="cls-4" data-name="Path 2187" transform="translate(-140.293 -191.826)"/>
            <path id="Path_2188" d="M330.13 755.229l2.826 1.872.437.289.081.052 3.352 2.22 7.828 1.317 6.881-.474s1.983-4.143-1.132-4.047a6.481 6.481 0 0 1-2.841-.821l-.429-.214c-.451-.237-.9-.5-1.347-.784a33.524 33.524 0 0 1-2.5-1.761c-1.036-.8-1.724-1.406-1.724-1.406z" class="cls-12" data-name="Path 2188" transform="translate(-161.348 -287.011)"/>
            <path id="Path_2189" d="M334 758.565l.437.289.081.052 3.352 2.22 7.828 1.317 6.881-.473s1.983-4.144-1.132-4.047a6.483 6.483 0 0 1-2.841-.821c.548.429 1.006.9 1.051 1.287.126 1.058-5.091 2.96-5.091 2.96l-7.355-1.946s-1.25-.355-2.96-.8l-.163-.044z" class="cls-6" data-name="Path 2189" transform="translate(-162.355 -288.475)"/>
            <path id="Path_2190" d="M317 760.006s6.03 1.317 10.085.94 11.039 3.115 11.039 3.115 2.36 1.11 9.619 1.583 7.257-3.211 7.257-3.211c-.829-5.009-12.3-6.659-12.652-6.733a14.108 14.108 0 0 1 1.347.784c.814.533 1.694 1.228 1.761 1.791.126 1.051-5.091 2.959-5.091 2.959l-7.355-1.938s-1.25-.363-2.96-.807h-.163a63.1 63.1 0 0 0-7.71-1.591c-3.167-.34-4.787 2.353-5.12 2.96a.879.879 0 0 0-.059.148z" class="cls-4" data-name="Path 2190" transform="translate(-157.933 -288.111)"/>
            <path id="Path_2191" d="M188.54 578.717l3.2 2.457s.932-.045 2.323-.089h.444a204.99 204.99 0 0 1 7.066-.148 22.43 22.43 0 0 1 4.506.252c1.6.562 4.439-9.145 4.439-9.145l-3.211-.74-1.065-.251-.74-.178-2.612-.614-7.917.9-5.564 3.581z" class="cls-12" data-name="Path 2191" transform="translate(-124.521 -239.879)"/>
            <path id="Path_2192" d="M188.54 578.717l3.2 2.457s.932-.045 2.323-.089a2.8 2.8 0 0 1-1.48-1.324c-2.072-5.749 8.206-8.205 8.206-8.205l4.787-.207.932-.044h.74l-1.065-.252-.74-.178-2.612-.614-7.917.9-5.564 3.581z" class="cls-6" data-name="Path 2192" transform="translate(-124.521 -239.879)"/>
            <path id="Path_2193" d="M179.64 580.279c1.939 1.791 14.635 0 15.168-.044a7.989 7.989 0 0 1-2.878-.2 3.174 3.174 0 0 1-2.22-1.591c-2.072-5.756 8.206-8.206 8.206-8.206l4.787-.207.925-.045 11.639-.5.562-3.2s-3.781.355-9.715.829c-3.337.274-7.4.577-11.787.866-12.26.814-15.175 8.768-15.175 8.768a2.459 2.459 0 0 0 .488 3.53z" class="cls-4" data-name="Path 2193" transform="translate(-121.939 -238.843)"/>
            <path id="Path_2194" d="M372.172 373.179a3.28 3.28 0 0 0 .281.5l2.826 4.143 7.355.74.081-2.915 1.236-43.861s5.091-29.419-4.528-27.724-3.581 27.724-3.581 27.724-1.1 13.2-1.865 17.166c-.747 3.836-4.099 19.418-1.805 24.227z" class="cls-12" data-name="Path 2194" transform="translate(-172.078 -170.624)"/>
            <path id="Path_2195" d="M350.14 543.7l2.094 3.581 4.684 8.013s8.494 3.115 10.669.74c1.191-1.295 2.479-5.816 3.381-9.619.74-3.078 1.236-5.675 1.236-5.675z" class="cls-12" data-name="Path 2195" transform="translate(-166.553 -232.2)"/>
            <path id="Path_2196" d="M350.14 543.713l2.094 3.581a2.464 2.464 0 0 0 .355-.377c2.368-3.019 12.793-.644 18.379-.451.74-3.078 1.236-5.675 1.236-5.675z" class="cls-6" data-name="Path 2196" transform="translate(-166.553 -232.213)"/>
            <path id="Path_2197" d="M206.16 579.887a22.43 22.43 0 0 1 4.506.252c1.6.562 4.439-9.145 4.439-9.145l-4.277-1.006 11.639-.5.562-3.2s-3.781.355-9.715.829a12.21 12.21 0 0 0-3.233 2.7l-.178.222a19.391 19.391 0 0 0-3.743 9.848z" class="cls-6" data-name="Path 2197" transform="translate(-129.104 -238.843)"/>
            <path id="Path_2198" d="M330.13 755.218l3.263 2.161c4.869-.881 9.315-2.264 9.841-4.439a.734.734 0 0 0 0-.1c-1.036-.8-1.724-1.406-1.724-1.406z" class="cls-6" data-name="Path 2198" transform="translate(-161.348 -287)"/>
            <path id="Path_2199" d="M317.09 760.291a112.883 112.883 0 0 0 12.83-1.376 63.125 63.125 0 0 0-7.717-1.606c-3.16-.34-4.78 2.353-5.113 2.982z" class="cls-6" data-name="Path 2199" transform="translate(-157.957 -288.522)"/>
            <path id="Path_2200" d="M206.64 576.977c0 2.36 6.5 3.87 6.5 3.87l19.807 17.632s12.445 5.564 20.362 13.577 14.9 1.132 14.9 1.132c8.39-2.072 32.556-31.305 32.556-31.305s.562 33.384 1.694 35.833-.377 9.145-1.036 11.979a33.3 33.3 0 0 0-.474 7.162s-9.049 34.605-8.294 37.624-4.906 17.166-4.906 17.166v11.787s22.16-.851 23.381-5.845-5.557-7.17-5.557-7.17v-1.228c4.439-2.264 5.275-17.817 5.275-17.817s6.607-19.237 7.547-22.441 0-8.021 0-8.021l.659-4.143a20.684 20.684 0 0 0 1.413-3.4 8.389 8.389 0 0 1 1.606-3.958c1.036-1.228-1.132-4.151-1.132-4.151l1.887-4.906v-5.372l4.439-19.519s4.624-22.73 3.019-30.181 1.887-11.217 1.887-11.217c-7.569 3.966-11.387-4.861-12.638-8.657-.318-.977-.474-1.628-.474-1.628s-10.4-3.833-20.074-2.915a23.105 23.105 0 0 0-5.764 1.221c-10.751 3.87-12.445 19.9-12.445 19.9l-9.523 14.524C266.357 589.43 259 590.747 259 590.747s-17.255-11.594-17.758-12.164-7.073-3.4-7.073-3.4a7.474 7.474 0 0 0-3.4-3.108c-2.264-.947-2.449-4.439-2.449-4.439-.281-8.206-5.091-8.879-5.091-8.879-16.685-1.387-16.589 15.867-16.589 18.22z" class="cls-4" data-name="Path 2200" transform="translate(-129.229 -232.197)"/>
            <path id="Rectangle_874" d="M0 0h10.181v31.586H0z" class="cls-11" data-name="Rectangle 874" transform="rotate(180 91.793 149.339)"/>
            <path id="Rectangle_875" d="M0 0h10.181v31.586H0z" class="cls-6" data-name="Rectangle 875" transform="rotate(180 91.793 149.339)"/>
            <path id="Path_2201" d="M372.44 397.41a.449.449 0 0 0 0 .067 3.272 3.272 0 0 0 .281.5l2.826 4.143 7.355.74.081-2.915c-2.294-.175-7.517-.804-10.543-2.535z" class="cls-6" data-name="Path 2201" transform="translate(-172.353 -194.921)"/>
            <path id="Path_2202" d="M369.477 398.18s.377 16.589-3.773 18.853-5.764 14.058-5.764 14.058 12.578 8.272 15.383 11.912 9.241 12.312 7.917 14.384 3.211 11.505 3.211 11.505-8.3 16.973-6.415 23.388 2.072 23.381 2.072 23.381h3.592s-1.132-13.955-1.132-19.615 3.766-25.837 3.766-25.837 1.7-19.8 0-20.362-11.69-8.487-12.445-12.075 5.283-37 5.283-37-7.736-.328-11.695-2.592z" class="cls-11" data-name="Path 2202" transform="translate(-169.102 -195.121)"/>
            <path id="Path_2203" d="M336.12 470.79a16.145 16.145 0 0 0 2.464 6.467l6.97-1.184s20.932-4.721 25.253-5.105a26.982 26.982 0 0 0 7.577-2.16 33.414 33.414 0 0 0-9.36-15.353l-2.656-2.464a44.5 44.5 0 0 0-13.392-8.561c.311.259 22.271 19.008 17.462 22.685s-17.758-5.275-17.758-5.275l-14.724-12.652-.533-.459-.851 1.324a12.353 12.353 0 0 1 1.265.607 21.665 21.665 0 0 1 10.363 12.874c3.021 10.174-12.08 9.256-12.08 9.256z" class="cls-6" data-name="Path 2203" transform="translate(-162.906 -206.63)"/>
            <path id="Path_2204" d="M330 543.507s13.955 7.732 17.343 3.4c.74-.954 2.3-1.369 4.247-1.48-.318-.977-.474-1.628-.474-1.628s-10.4-3.833-20.074-2.915c-.635 1.594-1.042 2.623-1.042 2.623z" class="cls-13" data-name="Path 2204" transform="translate(-161.314 -232.2)"/>
            <path id="Path_2205" d="M336.422 446.751l15.257 13.126s12.9 8.982 17.758 5.276-17.469-22.693-17.469-22.693a45.137 45.137 0 0 1 13.385 8.54l2.656 2.464c6.985 6.474 8.561 6.474 8.8 15.989.059 2.346-.74 5.712-1.354 6.319-2.264 2.22-3.848 18.342-3.5 20.229s-4.217 18.172-2.738 22.7-18.5-2.264-21.879 2.079-17.336-3.4-17.336-3.4 7.732-19.807 9.619-21.124 4.151-11.505 0-16.219a17.592 17.592 0 0 1-4.521-9.237s15.094.932 12.068-9.241a21.353 21.353 0 0 0-11.6-13.481z" class="cls-14" data-name="Path 2205" transform="translate(-161.314 -206.638)"/>
            <path id="Path_2206" d="M360.633 493.38s-5.853 11.032-13.422 13.9c-.244.089-.481.17-.74.244-7.902 2.4 14.754-10.724 14.162-14.144z" class="cls-6" data-name="Path 2206" transform="translate(-165.163 -219.882)"/>
            <path id="Path_2207" d="M251.291 352.74s2.826 7.17 5.09 9.619 19.045 26.969 19.045 26.969l1.421 2.96 1.221 2.523 10.751-1.132.74-4.336-.414-.5a50.8 50.8 0 0 0-6-6.289c-2.449-1.879-7.355-8.1-7.355-8.1s-15.272-15.849-16.4-20.185-16.411-30.336-19.8-25.837 11.701 24.308 11.701 24.308z" class="cls-12" data-name="Path 2207" transform="translate(-137.669 -176.843)"/>
            <g id="Group_842" class="cls-8" data-name="Group 842" transform="translate(125.904 193.693)">
                <path id="Path_2208" d="M291.092 519.089a8.428 8.428 0 0 0-3.8.547c-2.664 1.295-3.167 4.795-4.647 7.362a12.443 12.443 0 0 1-8.427 5.549 18.8 18.8 0 0 1-2.042.281 23.19 23.19 0 0 0 6.482-.281 12.443 12.443 0 0 0 8.431-5.547c1.48-2.568 1.983-6.067 4.647-7.362a5.924 5.924 0 0 1 2.22-.518z" data-name="Path 2208" transform="translate(-272.18 -420.254)"/>
                <path id="Path_2209" d="M328.583 427.6c0-5.882 3.825-10.951 6.977-15.915s5.8-11.232 3.307-16.559c-2.131-4.55-14.976-10.655-22.389-9.449 7.258.94 16.2 5.719 17.95 9.449 2.494 5.327-.155 11.594-3.307 16.559s-6.992 10.033-6.977 15.915a69.072 69.072 0 0 1-2.6 20.651c-.6 2.109 5.179 5.3 4.291 7.3-3 6.659-1.6 14.339-2.079 21.62a8.99 8.99 0 0 1-1.014 4.084c-1.48 2.434-4.513 3.063-7.466 3.2h2.582c3.448 0 7.54-.266 9.323-3.219a8.991 8.991 0 0 0 1.014-4.084c.481-7.281-.925-14.968 2.079-21.62.9-2-4.891-5.179-4.291-7.3a68.249 68.249 0 0 0 2.6-20.632z" data-name="Path 2209" transform="translate(-283.39 -385.521)"/>
            </g>
            <path id="Path_2210" d="M290.12 413.688l1.221 2.523 10.751-1.132.74-4.336-.414-.5c-1.148.557-9.738 4.695-12.298 3.445z" class="cls-6" data-name="Path 2210" transform="translate(-150.942 -198.258)"/>
            <path id="Path_2211" d="M330.032 442.225s-2.641-4.143-4.151-3.019-2.094-3.4-2.96-2.641-3.389 2.856-4.439-.081c-.821-2.338-9.759-17.129-13.385-23.078-.932-1.539-1.517-2.486-1.517-2.486s-10.181 5.091-12.63 3.4v3.58l2.072.192 11.1 20.717s3.492 5.557 3.256 7.5 4.476 10.425 5.231 10.988 8.879 10 8.879 10 4.151 20.369.562 26.03-9.8 9.8-9.8 9.8-1.872 5.468-1.6 6.038-2.175 3.019-1.043 3.773 2.641 6.03 2.641 6.03 5.283-8.487 8.139-9.8 6.511-18.675 6.511-18.675 1.043-10.225 1.125-16.825-.255-31.443 2.009-31.443z" class="cls-6" data-name="Path 2211" transform="translate(-151.158 -198.435)"/>
            <path id="Path_2212" d="M329.262 442.225s-2.634-4.143-4.143-3.019-2.1-3.4-2.96-2.641-3.381 2.856-4.439-.081c-.829-2.338-9.767-17.129-13.385-23.078l-1.517-2.486s-10.181 5.091-12.638 3.4v3.58l2.079.192 11.1 20.717s3.5 5.557 3.256 7.5 4.439 10.425 5.231 10.988 8.879 10 8.879 10 4.151 20.369.57 26.03a34.688 34.688 0 0 1-6.829 7.562 13.2 13.2 0 0 0-4.442 7.111 2.812 2.812 0 0 0-.133 1.184c.274.562-2.175 3.019-1.043 3.773s2.656 6.052 2.656 6.052 5.283-8.487 8.139-9.8 6.519-18.675 6.519-18.675 1.038-10.234 1.124-16.834-.244-31.475 1.976-31.475z" class="cls-11" data-name="Path 2212" transform="translate(-150.957 -198.435)"/>
            <path id="Path_2213" d="M307.739 569.21s7.924 1.48 11.1 3.766-12.069-3.576-12.069-3.576z" class="cls-6" data-name="Path 2213" transform="translate(-155.272 -239.605)"/>
            <path id="Path_2214" d="M333.83 596.35s8.265 6.888 6.785 13.111-5.3 21.879-5.3 21.879z" class="cls-6" data-name="Path 2214" transform="translate(-162.311 -246.665)"/>
            <path id="Path_2215" d="M232.3 578.45s-11.646 1.273-10.891 2.782 10.891-1.391 10.891-1.391z" class="cls-6" data-name="Path 2215" transform="translate(-133.061 -242.009)"/>
            <path id="Path_2216" d="M354.945 654.52s.74.94-3.581 0-1.132-3.84-1.132-3.84z" class="cls-6" data-name="Path 2216" transform="translate(-166.282 -260.796)"/>
            <path id="Path_2217" d="M351.619 673.313s-5.919.94-9.093 0 9.093 0 9.093 0z" class="cls-6" data-name="Path 2217" transform="translate(-164.436 -266.574)"/>
            <path id="Path_2218" d="M333.236 742.171s-1.036-1.132-6.223.94-7.258 2.168-8.768 1.48 14.991-2.42 14.991-2.42z" class="cls-6" data-name="Path 2218" transform="translate(-158.232 -284.512)"/>
            <path id="Path_2219" d="M343.735 576.28l-7.355 10.233s3.959-8.96 7.355-10.233z" class="cls-6" data-name="Path 2219" transform="translate(-162.974 -241.444)"/>
            <path id="Path_2220" d="M323.236 449.15s-.318 3.4-5.061 4.721-5.645 2.4-5.645 2.4" class="cls-6" data-name="Path 2220" transform="translate(-156.771 -208.378)"/>
            <path id="Path_2221" d="M305.843 415.88s-6.26 4.439-12.793 3.5" class="cls-6" data-name="Path 2221" transform="translate(-151.704 -199.725)"/>
            <path id="Path_2222" d="M316.78 542.99s1.828 1.147 6.215-3.87" class="cls-6" data-name="Path 2222" transform="translate(-157.876 -231.779)"/>
            <path id="Path_2223" d="M376.419 470.335a3.214 3.214 0 0 0-1.058-2.486l-1.228-1.48a5.7 5.7 0 0 0-.807-.829c-.74-.57-1.687-.74-2.456-1.25" class="cls-6" data-name="Path 2223" transform="translate(-171.945 -212.316)"/>
        </g>
        <ellipse id="Ellipse_324" cx="29.751" cy="5.031" class="cls-15" data-name="Ellipse 324" rx="29.751" ry="5.031" transform="translate(593.375 471.436)"/>
        <path id="Path_2226" d="M951.148 751.759a8.613 8.613 0 0 0 2.834-4.284 3.821 3.821 0 0 0-1.982-4.358c-1.82-.7-3.766.57-5.238 1.842s-3.167 2.73-5.091 2.456a7.769 7.769 0 0 0 2.4-7.259 3.05 3.05 0 0 0-.666-1.48c-1.014-1.08-2.841-.622-4.055.229-3.848 2.708-4.92 7.939-4.943 12.638-.385-1.694-.059-3.463-.067-5.179s-.488-3.7-1.961-4.61a5.854 5.854 0 0 0-2.96-.7c-1.724-.067-3.655.111-4.832 1.376-1.48 1.569-1.088 4.2.185 5.919s3.218 2.819 5.009 4.01a11.1 11.1 0 0 1 3.574 3.411 3.075 3.075 0 0 1 .266.614h10.847a30.158 30.158 0 0 0 6.68-4.625z" class="cls-15" data-name="Path 2226" transform="translate(-315.717 -283.519)"/>
        <g id="Group_848" data-name="Group 848" transform="rotate(14.98 -530.836 1252.573)">
            <ellipse id="Ellipse_325" cx="11.879" cy="1.782" class="cls-16" data-name="Ellipse 325" rx="11.879" ry="1.782" transform="rotate(-63.611 68.823 42.681)"/>
            <ellipse id="Ellipse_326" cx="11.879" cy="1.211" class="cls-16" data-name="Ellipse 326" rx="11.879" ry="1.211" transform="rotate(-63.611 202.934 -40.42)"/>
            <path id="Rectangle_876" d="M0 0h7.127v23.758H0z" class="cls-17" data-name="Rectangle 876" transform="rotate(39.547 -124.964 157.074)"/>
            <path id="Rectangle_877" d="M0 0h8.02v23.758H0z" class="cls-18" data-name="Rectangle 877" transform="rotate(-166.769 44.252 66.659)"/>
            <path id="Rectangle_878" d="M0 0h7.127v23.758H0z" class="cls-15" data-name="Rectangle 878" transform="rotate(-166.769 44.252 66.659)"/>
            <path id="Rectangle_879" d="M0 0h24.946v165.713H0z" class="cls-19" data-name="Rectangle 879" transform="rotate(-63.611 70.555 42.269)"/>
            <path id="Path_2227" d="M148.468 94.936C145.562 93.543-2.106 20.226.023 21.282 8.219 8.773 10.582 0 10.582 0l148.445 73.654s-5.213 9.146-10.559 21.282z" class="cls-20" data-name="Path 2227" transform="translate(1.573 64.871)"/>
            <path id="Rectangle_880" d="M0 0h13.661v23.758H0z" class="cls-21" data-name="Rectangle 880" transform="rotate(26.389 -168.506 212.897)"/>
            <path id="Rectangle_881" d="M0 0h12.473v23.758H0z" class="cls-17" data-name="Rectangle 881" transform="rotate(26.389 -168.802 214.165)"/>
            <path id="Rectangle_882" d="M0 0h8.315v23.758H0z" class="cls-21" data-name="Rectangle 882" transform="rotate(26.389 -169.693 217.965)"/>
            <path id="Rectangle_883" d="M0 0h7.127v23.758H0z" class="cls-15" data-name="Rectangle 883" transform="rotate(26.389 -169.99 219.232)"/>
            <path id="Path_2231" d="M8.124 27.417L0 39.6s2.708 12.527 62.62 12.188S127.271 39.6 127.271 39.6L116.1 23.356 81.913 0z" class="cls-22" data-name="Path 2231" transform="translate(58.034 71.928)"/>
            <path id="Path_2233" d="M236.6 54.158l-106.623 47.05L0 54.158 119.147 0l58.487 26.967 2.1.968z" class="cls-22" data-name="Path 2233" transform="translate(2.353)"/>
            <path id="Path_2235" d="M4.3 38.469l-2.031.122L0 0l2.1.968z" class="cls-20" data-name="Path 2235" transform="translate(179.987 26.967)"/>
            <path id="Path_2236" d="M9.478 6.894L0 64.437s68.036-22 127.271 0L118.47 3.51S38.926-6.307 9.478 6.894z" class="cls-15" data-name="Path 2236" transform="translate(58.034 47.094)"/>
            <ellipse id="Ellipse_332" cx="9.816" cy="6.77" class="cls-20" data-name="Ellipse 332" rx="9.816" ry="6.77" transform="translate(174.303 63.635)"/>
        </g>
    </g>
</svg>
