<svg xmlns="http://www.w3.org/2000/svg" width="563.155" height="463.566" viewBox="0 0 563.155 463.566">
    <defs>
        <style>
            .cls-1,.cls-4{fill:#4d8af0}.cls-1,.cls-15,.cls-2,.cls-6{opacity:.1}.cls-2{fill:#6c63ff}.cls-3{fill:url(#linear-gradient)}.cls-5{fill:#8e5362}.cls-7{fill:#bdd2e8}.cls-8{fill:#494457}.cls-9{fill:#0048c1}.cls-10{fill:#362133}.cls-11{fill:#ffc1c7}.cls-12{fill:#575988}.cls-13{fill:#c4747b}.cls-14{fill:#bb7684}.cls-16{fill:none;stroke:#535461;stroke-miterlimit:10;stroke-width:2px}.cls-17{fill:#a8a8a8}.cls-18{opacity:.2}.cls-19{fill:#ffd037}
        </style>
        <linearGradient id="linear-gradient" x1=".5" x2=".5" y1="1" gradientUnits="objectBoundingBox">
            <stop offset="0" stop-color="gray" stop-opacity=".251"/>
            <stop offset=".54" stop-color="gray" stop-opacity=".122"/>
            <stop offset="1" stop-color="gray" stop-opacity=".102"/>
        </linearGradient>
    </defs>
    <g id="Group_834" data-name="Group 834" transform="translate(-47.297 .003)">
        <path id="Path_2048" d="M319.928 706.08c-5.14-.52-10.509-1.076-15.377.284s-8.9 5.333-7.456 9.131c3.229 8.466 22.18 2.57 30.918 8.357 3.12 2.068 4.336 5.321 6.772 7.861 3.943 4.124 10.721 6.047 17.264 7.105 39.3 6.355 84.112-10 118.561 5.751 11.156 5.1 19.955 13.224 32.187 16.629 16.206 4.511 33.953-.308 50.721-3.4a248.084 248.084 0 0 1 63.425-3.326c15.68 1.209 36.535 1.614 41.554-9.772 3.229-7.323-3.6-15.474-12.674-18.939s-19.689-3.356-29.817-3.023c-19.55.7-39.1 2.116-58.655 1.427-37.8-1.342-73.518-16.327-110.331-16.822-42.871-.52-84.02 3.078-127.092-1.263z" class="cls-1" data-name="Path 2048" transform="translate(-174.914 -319.227)"/>
        <path id="Path_2049" d="M265.126 388.652c-6.047 6.113-6.416 15.486-6.416 15.486s9.367-.532 15.389-6.652S280.521 382 280.521 382s-9.373.55-15.395 6.652z" class="cls-2" data-name="Path 2049" transform="translate(-159.858 -191.338)"/>
        <path id="Path_2050" d="M309.18 132.381c2.135 8.314 9.965 13.484 9.965 13.484s4.372-8.3 2.237-16.617-9.965-13.478-9.965-13.478-4.396 8.302-2.237 16.611z" class="cls-2" data-name="Path 2050" transform="translate(-179.574 -86.093)"/>
        <path id="Path_2051" d="M890.212 176.708c-6.047 6.113-6.422 15.486-6.422 15.486s9.373-.532 15.4-6.652 6.41-15.492 6.41-15.492-9.366.574-15.388 6.658z" class="cls-2" data-name="Path 2051" transform="translate(-406.961 -107.551)"/>
        <path id="Path_2052" d="M589.581 312.96c-.7 8.55 5 16 5 16s6.851-6.416 7.552-14.972-5-15.988-5-15.988-6.851 6.4-7.552 14.96z" class="cls-2" data-name="Path 2052" transform="translate(-290.632 -158.132)"/>
        <path id="Path_2053" d="M917.641 511.266c-.7 8.55 5 16 5 16s6.851-6.416 7.552-14.966-5-16-5-16-6.851 6.416-7.552 14.966z" class="cls-2" data-name="Path 2053" transform="translate(-420.319 -236.522)"/>
        <path id="Path_2054" d="M422.424 124.968c-36.1-1.179-70.488-12.094-103.322-24.066s-65.355-25.21-100.593-31.547c-22.665-4.076-48.587-4.65-66.845 6.748-17.577 10.963-23.256 29.9-26.307 47.462-2.3 13.212-3.648 27.12 2.644 39.492 4.373 8.593 12.127 15.813 17.494 24.036 18.671 28.632 5.472 63.933-14.755 91.912-9.483 13.116-20.5 25.621-27.825 39.583s-10.71 29.95-4.3 44.184c6.348 14.113 21.482 24.713 37.877 32.169 33.3 15.117 72.518 19.477 110.791 21.932 84.7 5.442 169.837 3.084 254.756.726 31.428-.871 62.99-1.754 93.905-6.313 17.17-2.528 34.892-6.543 47.36-16.242 15.82-12.311 19.742-33.155 9.137-48.592-17.784-25.887-66.94-32.32-79.385-60.106-6.839-15.293.184-32.326 10.13-46.512 21.332-30.428 57.083-57.125 58.963-91.912 1.294-23.885-15.893-47.806-42.468-59.108-27.853-11.852-66.482-10.358-87.022 9.252-21.17 20.166-58.359 27.934-90.235 26.902z" class="cls-1" data-name="Path 2054" transform="translate(-47.929 -66.69)"/>
        <path id="Path_2055" d="M674.282 247.458a5.442 5.442 0 0 0-3.713 3.271l-.6-.1-2.255-.363s-11.949-.986-14.18-.835-3.628-2.05-3.628-2.05l-8.883-7.516-.689-.6c.962-.363 1.56-.55 1.56-.55s-23.837-29.63-28.977-30.2-13.636-7.492-13.72-7.559l-.091-.472c-.187-1-.326-2.008-.429-3.023l1.264.774a10.2 10.2 0 0 1 .036-1.052 19.133 19.133 0 0 1 3.556-10.159c2.485-3.447 6.162-6.156 7.631-10.128a14.639 14.639 0 0 0 .78-5.315 17.717 17.717 0 0 0-2.479-9.246 11.55 11.55 0 0 0-7.8-5.382c-.847-.133-1.711-.151-2.546-.345-4.964-1.167-6.791-7.825-11.616-9.457a9.784 9.784 0 0 0-6.924.683c-2.171.943-4.136 2.3-6.258 3.344s-4.529 1.814-6.458 3.3a6.753 6.753 0 0 0-.6.52l-.381.369a13.691 13.691 0 0 0-2.062 2.691l-.091.151c-.06.1-.115.212-.169.32s-.091.169-.127.254-.1.193-.139.29l-.127.29-.109.278c-.036.1-.079.206-.109.314s-.06.175-.085.266l-.091.32-.054.26a2.146 2.146 0 0 1-.06.333 1.066 1.066 0 0 0 0 .242v1.119a3.68 3.68 0 0 0 .109.526 10.564 10.564 0 0 0 2.31 3.241c-.1.091-.194.175-.29.272a21.079 21.079 0 0 0-6.452 15.184 20.8 20.8 0 0 0 .345 3.755 20.148 20.148 0 0 0-3.525-2.135 30.772 30.772 0 0 0-13.116-3.023c-7.407-.085-17.814-2.866-17.814-2.866a7.076 7.076 0 0 1 .6 1.6c-.453-.26-.943-.538-1.482-.828a43.428 43.428 0 0 0-13.908-4.656s-3.084.429-3.5-6.047a27.457 27.457 0 0 0-1.088-5.968 101.717 101.717 0 0 1-3.664-18.141l-1.034-9.506s4.65-24.797 1.85-35.367c.9-3.314.393-6.349-2.576-8.532-11.713-8.623-23.528 24.937-23.528 24.937l-4.39 4.263a9.422 9.422 0 0 0-3.725-1.421s-2.364 2.419-4.009 9.022c-.871 3.5-6.821 9.348-12.2 14.059-3.822 3.344-7.51 6.821-11.193 10.31-2.721 2.588-8.786 6.289-22.017 8.381-2.074.327-3.961.635-5.684.919a17.735 17.735 0 0 0 .665-4.8 18.008 18.008 0 0 0-14.126-17.494 4.511 4.511 0 0 0 0-1.276 5.285 5.285 0 0 0-1.336-2.419c-2.788-3.447-5.811-6.99-9.959-8.623a12.971 12.971 0 0 0-5.376-.865h-1.475A13.775 13.775 0 0 0 372 130.246c-1.488 1.989-2.382 4.348-3.664 6.47a28.78 28.78 0 0 1-10.02 9.354c-2.389 1.445-4.9 2.691-7.153 4.33-8.181 5.944-11.955 16.931-9.9 26.751.907 4.311 2.824 8.556 2.31 12.928-.405 3.392-2.231 6.44-4.094 9.318s-3.834 5.8-4.571 9.137.036 7.256 2.83 9.276a22.32 22.32 0 0 1 3.15 2.1 10.1 10.1 0 0 1 1.451 2.274 22.627 22.627 0 0 0 14.071 10.933 10.28 10.28 0 0 0 2.878.314h.29c2.219.139 4.493-.454 5.237-2.419a5.493 5.493 0 0 1 .5-1.282 1.506 1.506 0 0 1 .877-.6 8.053 8.053 0 0 1 2.05.774 26.074 26.074 0 0 0 9.965 2.848 14.025 14.025 0 0 0 1.748.03 7.728 7.728 0 0 0 3.562-.508 7.632 7.632 0 0 0 2.739-2.346c.157-.2.3-.411.454-.6a50.014 50.014 0 0 1-4.463 13.908s-3.628 6.047-3.368 12.142a12.2 12.2 0 0 0 1.361 6.41s.1-.266.314-.683c1.04 1.742 4.451 7.311 6.688 9.264.109 5.751.085 12.952-.635 14.434-1.209 2.534-5.031 20.559 11.4 32.853l3.791 8.3-15.598 1.103c-1.578-.218-21.986-2.963-22.089 1.034-.1 4.154 3.084 44.608 13.666 41.868 9.862-2.552 6.609-14.349 6.119-15.933l.351-.1-.387-.109 7.891-7.48a3.5 3.5 0 0 0-.6-2.594l.079-.042 19.06.853 4.481 9.735s7.6 11.562 1.439 21.291-12.535 24.943-13.563 34.171c-.841 7.546-6.428 14.96-8.429 17.4-3.574 1.209-17.282 6.591-11.81 14.736 6.265 9.324 26.606 27.072 34.83 26.461s4.928-6.591 4.928-6.591l-6.875-6.664s-1.209-14.2-.72-18.352a4.276 4.276 0 0 0-3.023-4.372c.647-4.626 2.286-13.394 5.8-18.237 4.928-6.8 20.753-36.7 20.753-36.7s5.031-4.463 3.9-17.741a305.799 305.799 0 0 1-.853-13.781l17.911.8s19.211-1.929 6.162-22.512-40.786-40.756-40.786-40.756l-.248-12.741c1.258.314 2 .472 2 .472s-.109-.46-.29-1.282l.29.066s-4.009-17.348-5.243-31.141l1.131.52c11.918 13.793 19.955 2.135 19.955 2.135s25.173-35.386 22.706-33.766a2.141 2.141 0 0 1-1.657.1l1.814-5.781s7.432-11.356-3.356-17.741c-8.8-5.212-8.574 11.126-8.194 17.3l-.435-.369s-8.423 12.7-12.946 19.773-8.32 2.419-8.32 2.419l-5.714-6.44a22.62 22.62 0 0 0 1.361-8.054 13.684 13.684 0 0 0-3.864-10.449c-4.36-4.444-5.636-8.75-5.769-12.063a12.77 12.77 0 0 1 1.143-4.971l29.7-15.722s6.265.1 14.688-12.88a222.771 222.771 0 0 1 17.983-23.722s-.175-.254-.478-.671c.3-.357.478-.55.478-.55s-.345-.5-.931-1.276l4.577-5.279a67.733 67.733 0 0 0-.054 7.166l2.37 8.012 1.33 44.608s-1.439 4.233 7.813 8.52c7.825 3.628 20.221 9.675 23.837 11.459-.133.327-.212.5-.212.5l1.076-.073.157.073c18.074-1.621 17.457 16.423 17.457 16.423s1.209 36.7-4.311 49.481-4.729 28.59-4.729 28.59.55-2.7 3.628.828a62.6 62.6 0 0 1-.2.986c-1.766 8.847-5.442 27.664-6.125 35.3a123.669 123.669 0 0 1-4.009 20.559l-1.814 33.76 11.556.562-.127 1.209a3.8 3.8 0 0 1-1.959 2.945c-3.955 2.147-13.3 9.675-12.553 32.907l-.4 3.737a46.945 46.945 0 0 1-5.642 18.026c-.266.472-.5.925-.7 1.361a1.112 1.112 0 0 1 .314-.647s-6 1.246-4.771 17.469 3.084 19.06 5.551 19.259 14.512 3.144 13.865-2.836-1.209-19.265-.411-21.291 4.076-7.492.967-8.81a46.346 46.346 0 0 0 1.3-11.368s6.047-9.53 10.37-13.079 6.652-9.578 8.218-17.336c.109-.508 12.741-8.925 10.884-15.915a42.237 42.237 0 0 1-.744-3.247 57.735 57.735 0 0 1-.206-1.209h.224l2.57-15.413v15.008l1.524.2-.054 1.209-.647 14.392a23.693 23.693 0 0 1-1.814 8.151c-2.721 6.44-7.74 20.777-6.373 36.281l-.145 13.823c-.435.085-6.712 1.566-5.521 17.233 1.209 16.218 3.078 19.06 5.545 19.259s14.513 3.144 13.872-2.836-1.223-19.267-.423-21.288 2.237-7.383-.871-8.7a11.586 11.586 0 0 1 1.294-5.218c1.354-2.3 5.877-13.255 9.282-21.678a77.586 77.586 0 0 0 5.714-26.806v-.308a25.129 25.129 0 0 1 1.965-9.028 58.215 58.215 0 0 0 3.289-9.923c.085-.405.151-.8.212-1.209l2.951.393 10.074-43.6s2.757-23.631 1.409-34.3a20.994 20.994 0 0 0-.187-1.24l.6.054s2.056-5.267 1.439-27.779 4.112-29.63 4.112-29.63c2.552-8.091 5.37-10.8 7.014-11.707a2.969 2.969 0 0 1 1.409-.46l7.625 8.726 1.4 1.608a.512.512 0 0 0 0-.1l.6.707a6.513 6.513 0 0 1-.048-1.082c4.07 2.364 13.472 7.891 19.084 11.858 7.317 5.17 9.324 4.565 15.722 4.027 3.882-.32 9.131-2.5 12.65-4.154l.32-.151a15.445 15.445 0 0 0 2.975 1.209s10.328 8.75 11.326-7.22-12.378-12.11-12.378-12.11zM406.406 433.435a14.936 14.936 0 0 1-3.023-1.276zm-16.169-172.868l.036 2.268-.157.073c.048-.799.084-1.585.121-2.341zm161.536 202.4v.883a.647.647 0 0 1-.001-.882z" class="cls-3" data-name="Path 2055" transform="translate(-189.876 -75.348)"/>
        <path id="Rectangle_871" d="M0 0h17.536v18.443H0z" class="cls-4" data-name="Rectangle 871" transform="translate(377.328 121.921)"/>
        <path id="Path_2056" d="M660.867 602.962c-1.542 7.71-3.828 13.7-8.06 17.234s-10.177 13-10.177 13c-.1 12.6-3.429 16.423-3.429 16.423l-3.429.907h-8.466a41.891 41.891 0 0 1-1.814-6.748c-.1-.84.5-2.249 1.33-3.761a47.117 47.117 0 0 0 5.533-17.917l.393-3.719c-.714-23.081 8.466-30.573 12.317-32.707a3.774 3.774 0 0 0 1.917-2.927l.683-6.6 22.772 1.119s-.484 2.008.381 6.652c.175.961.411 2.032.726 3.223 1.815 6.95-10.581 15.313-10.677 15.821z" class="cls-5" data-name="Path 2056" transform="translate(-304.848 -268.088)"/>
        <path id="Path_2057" d="M725.895 588.54a58.7 58.7 0 0 1-3.223 9.862 25.326 25.326 0 0 0-1.935 8.974v.308a78.106 78.106 0 0 1-5.605 26.642c-3.344 8.369-7.776 19.259-9.107 21.551-2.213 3.828-.907 10.28-.907 10.28l-12.819-.907.224-21.569c-1.336-15.4 3.586-29.63 6.253-36.057a23.631 23.631 0 0 0 1.814-8.1l.6-14.307.187-4.233s22.664-3.223 24.574 1.917a10.878 10.878 0 0 1-.056 5.639z" class="cls-5" data-name="Path 2057" transform="translate(-331.261 -269.606)"/>
        <path id="Path_2058" d="M684.861 583.92L661 582.747l.683-6.6 22.8 1.119s-.505 2.004.378 6.654z" class="cls-6" data-name="Path 2058" transform="translate(-318.889 -268.088)"/>
        <path id="Path_2059" d="M731.707 588.54L707 585.221l.188-4.233s22.664-3.223 24.574 1.917c.532 1.36.405 3.386-.055 5.635z" class="cls-6" data-name="Path 2059" transform="translate(-337.073 -269.606)"/>
        <path id="Path_2060" d="M719.188 484.73l-9.875 43.338-29.224-3.93v-14.919l-2.528 15.329-35.072-1.717 1.814-33.56a124.474 124.474 0 0 0 3.93-20.456c.683-7.583 4.275-26.286 6.011-35.072.6-2.9.943-4.723.943-4.723s60.069 12.493 64 17.028c.671.774 1.113 2.419 1.385 4.6 1.319 10.596-1.384 34.082-1.384 34.082z" class="cls-7" data-name="Path 2060" transform="translate(-311.572 -209.926)"/>
        <path id="Path_2061" d="M653.33 519.19s23.643-12.4 29.406-9.778z" class="cls-6" data-name="Path 2061" transform="translate(-315.857 -241.563)"/>
        <path id="Path_2062" d="M674.66 458.82s19.652 14.918 20.257 18.945z" class="cls-6" data-name="Path 2062" transform="translate(-324.289 -221.706)"/>
        <path id="Path_2063" d="M665.83 543.8s14.21-.6 18.745 3.023z" class="cls-6" data-name="Path 2063" transform="translate(-320.798 -255.283)"/>
        <path id="Path_2064" d="M706.776 517.44s6.754 22.107 3.828 28.154-5.944-1.415-5.944-1.415z" class="cls-6" data-name="Path 2064" transform="translate(-336.148 -244.879)"/>
        <path id="Path_2065" d="M688.816 708s-6.652 1.01-5.442 17.131 3.023 18.951 5.442 19.15 14.21 3.126 13.605-2.824-1.209-19.144-.405-21.164 2.2-7.335-.853-8.647l-.659 3.108s-6.452-5.95-10.28-1.614a16.742 16.742 0 0 0-.792-3.1c-.38-.946-1.215-1.44-.616-2.04z" class="cls-8" data-name="Path 2065" transform="translate(-327.676 -320.211)"/>
        <path id="Path_2066" d="M859.617 363.576s-1.524.853-3.761 1.917c-3.453 1.645-8.6 3.809-12.408 4.13-6.277.532-8.242 1.137-15.419-4-5.509-3.943-14.73-9.439-18.745-11.785l-1.747-1.034-.175-.1v-.073l3.332-9.155 11.791-6.271 2.927 2.509 8.714 7.468s1.361 2.189 3.555 2.038 13.908.828 13.908.828l2.213.363 4.662.774z" class="cls-5" data-name="Path 2066" transform="translate(-376.747 -173.628)"/>
        <path id="Path_2067" d="M888.43 372.222s-1.524.853-3.761 1.917c-2.364-1.209-5.3-3.477-4.172-7.208 1.022-3.356 1.3-5.974 2.141-7.861l4.662.774z" class="cls-6" data-name="Path 2067" transform="translate(-405.56 -182.273)"/>
        <path id="Path_2068" d="M887.24 353.563s13.152-3.779 12.172 12.094-11.112 7.183-11.112 7.183-8.617-2.268-6.8-8.242 1.284-9.598 5.74-11.035z" class="cls-5" data-name="Path 2068" transform="translate(-405.955 -179.941)"/>
        <path id="Path_2069" d="M633.2 202.622l-13.7 5.757-.212.091-.151-.073-.853-.429c-3.543-1.766-15.722-7.806-23.383-11.392-9.07-4.233-7.661-8.466-7.661-8.466l-1.306-44.342-2.322-7.964s-1.639-26.993 11.489-33.76 4.638 39.1 4.638 39.1l1.016 9.53a102.062 102.062 0 0 0 3.6 18 27.965 27.965 0 0 1 1.064 5.932c.405 6.446 3.428 6.017 3.428 6.017a42.093 42.093 0 0 1 13.63 4.632 34.091 34.091 0 0 1 4.511 2.854z" class="cls-5" data-name="Path 2069" transform="translate(-288.269 -80.398)"/>
        <path id="Path_2070" d="M738.685 283.789l-11.695-1.209a44.93 44.93 0 0 0 4.964-10.116 17.182 17.182 0 0 0 .514-2.086 6.959 6.959 0 0 0-.641-5.134c-3.422-5.037 20.36-12.094 20.36-12.094a58.086 58.086 0 0 0-.26 8.393 42.458 42.458 0 0 0 .6 5.811c.72 3.912 2.153 7.595 4.886 9.481 7.473 5.14-18.728 6.954-18.728 6.954z" class="cls-5" data-name="Path 2070" transform="translate(-344.976 -140.402)"/>
        <path id="Path_2071" d="M738.685 293.075l-11.695-1.209a44.931 44.931 0 0 0 4.964-10.116c1.348 1.917 1.814 1.875 3.707 2.256 0 0 11.8 1.747 16.883-7.365.72 3.912 2.153 7.595 4.886 9.481 7.456 5.139-18.745 6.953-18.745 6.953z" class="cls-6" data-name="Path 2071" transform="translate(-344.976 -149.688)"/>
        <path id="Path_2072" d="M809.327 353.835a6.48 6.48 0 0 0 .048 1.076l-1.814-2.11-.151-.175 3.332-9.155 11.791-6.271 2.927 2.509c-4.191 1.603-15.946 6.691-16.133 14.126z" class="cls-6" data-name="Path 2072" transform="translate(-376.767 -173.628)"/>
        <path id="Path_2073" d="M655.773 257.455l-13.7 5.757h-.363l-1.058.073s.079-.175.206-.5c1.143-2.776 6.446-16.327 4.154-22.712a34.094 34.094 0 0 1 4.511 2.854z" class="cls-6" data-name="Path 2073" transform="translate(-310.844 -135.231)"/>
        <path id="Path_2074" d="M728.258 450.627c-5.333-.478-58.691-5.412-63.667-13.267a27.593 27.593 0 0 0-2.661-3.628c.6-2.9.943-4.723.943-4.723s60.069 12.493 64 17.028c.671.763 1.113 2.402 1.385 4.59z" class="cls-6" data-name="Path 2074" transform="translate(-319.256 -209.922)"/>
        <path id="Path_2075" d="M702.324 269.659s11.93 1.766 16.974-7.5c0 0 8.423 6.918 13.46 7.51s28.42 30.029 28.42 30.029-18.745 6.047-17.536 15.722l-8.871-10.28s-4.432-.206-8.26 12.094c0 0-4.638 7.051-4.033 29.424s-1.409 27.616-1.409 27.616-58.86-5.037-64.1-13.3-6.047-4.233-6.047-4.233-.81-15.722 4.632-28.42 4.233-49.179 4.233-49.179.6-17.941-17.131-16.326c0 0 7.456-17.336 4.033-23.988 0 0 10.2 2.77 17.469 2.854a29.883 29.883 0 0 1 12.872 3.018 14.271 14.271 0 0 1 5.339 4.027c3.422 4.837 9.07 2.624 9.07 2.624a91.569 91.569 0 0 0 5.261 12.9c.236.441.472.877.714 1.294a19.836 19.836 0 0 0 1.076 1.705c1.452 2.07 1.863 2.016 3.834 2.409z" class="cls-9" data-name="Path 2075" transform="translate(-311.639 -134.737)"/>
        <path id="Path_2076" d="M754.881 261.513a20.713 20.713 0 0 1-2.141 2.57 21.1 21.1 0 0 1-15.117 6.373 21.718 21.718 0 0 1-2.183-.109 6.96 6.96 0 0 0-.641-5.134c-3.423-5.037 20.36-12.094 20.36-12.094a58.089 58.089 0 0 0-.278 8.394z" class="cls-6" data-name="Path 2076" transform="translate(-347.93 -140.39)"/>
        <path id="Path_2077" d="M746.988 231.984A21.085 21.085 0 1 1 740.812 217a21.164 21.164 0 0 1 6.176 14.984z" class="cls-5" data-name="Path 2077" transform="translate(-336.148 -123.668)"/>
        <path id="Path_2078" d="M792 325.8l.435 14.162s6.319-5.091 6.518-9.929S792 325.8 792 325.8z" class="cls-6" data-name="Path 2078" transform="translate(-370.675 -169.113)"/>
        <path id="Path_2079" d="M707.66 349.24s16.629 22.827 26.3 25.143-22.672-17.742-26.3-25.143z" class="cls-6" data-name="Path 2079" transform="translate(-337.334 -178.388)"/>
        <path id="Path_2080" d="M736.83 353.17s9.27 10.473 15.921 11.779z" class="cls-6" data-name="Path 2080" transform="translate(-348.866 -179.941)"/>
        <path id="Path_2081" d="M682.83 396.82s16.931 16.629 26.606 17.639z" class="cls-6" data-name="Path 2081" transform="translate(-327.519 -197.197)"/>
        <path id="Path_2082" d="M751.1 231.982a21.086 21.086 0 0 1-6.047 14.791l-2.322-1.445a6.421 6.421 0 0 1-2.262-1.965c-.768-1.282-.544-2.89-.484-4.384.127-3.163-.744-6.585-3.217-8.562-4.009-3.211-10.437-1.433-14.512-4.584a14.308 14.308 0 0 1-2.57-2.86l-3.822-5.122c-.23-.3-.508-.6-.8-.961a21.164 21.164 0 0 1 36 15.117z" class="cls-6" data-name="Path 2082" transform="translate(-340.26 -123.666)"/>
        <path id="Path_2083" d="M715.812 196c1.893-1.445 4.2-2.207 6.331-3.271s4.009-2.419 6.138-3.326a9.667 9.667 0 0 1 6.8-.683c4.735 1.627 6.525 8.242 11.392 9.4.822.193 1.669.212 2.5.339a11.368 11.368 0 0 1 7.649 5.351 17.814 17.814 0 0 1 2.419 9.2 14.737 14.737 0 0 1-.768 5.279c-1.439 3.949-5.049 6.652-7.486 10.068a19.145 19.145 0 0 0-3.5 11.181l-5.9-3.67a6.362 6.362 0 0 1-2.262-1.965c-.768-1.282-.544-2.89-.484-4.384.127-3.163-.744-6.585-3.211-8.562-4.015-3.211-10.443-1.433-14.512-4.584a14.307 14.307 0 0 1-2.57-2.86l-3.822-5.122c-.828-1.113-2.419-2.5-2.782-3.852-.812-2.911 1.939-6.895 4.068-8.539z" class="cls-10" data-name="Path 2083" transform="translate(-338.889 -114.791)"/>
        <path id="Path_2084" d="M742.03 240.531a6.361 6.361 0 0 1-2.261-1.965c-.768-1.282-.544-2.89-.484-4.384.127-3.162-.744-6.585-3.217-8.562-4.009-3.211-10.437-1.433-14.512-4.584a14.305 14.305 0 0 1-2.57-2.86l-3.822-5.122c-.835-1.113-2.419-2.5-2.782-3.852-.659-2.334 1.01-5.376 2.794-7.323-2 1.85-4.2 5.364-3.453 7.982.387 1.355 1.953 2.739 2.781 3.852l3.822 5.122a14.313 14.313 0 0 0 2.57 2.86c4.057 3.15 10.485 1.373 14.512 4.584 2.467 1.977 3.338 5.4 3.211 8.562-.06 1.494-.284 3.1.484 4.384a6.362 6.362 0 0 0 2.262 1.965l5.9 3.67a10.028 10.028 0 0 1 .036-1.046z" class="cls-6" data-name="Path 2084" transform="translate(-338.882 -120.134)"/>
        <path id="Path_2085" d="M623.9 682.94s-5.89 1.209-4.68 17.361 3.023 18.951 5.442 19.15 14.21 3.126 13.605-2.824-1.209-19.144-.405-21.164 4-7.444.949-8.756l-2.461 3.217s-6.452-5.95-10.28-1.615c.004.001-3.576-3.96-2.17-5.369z" class="cls-8" data-name="Path 2085" transform="translate(-302.309 -310.304)"/>
        <path id="Path_2086" d="M633.23 699.5c1.276.6 2.467 1.342 3.737 1.947a8.388 8.388 0 0 0 4.057.956 2.83 2.83 0 0 0 1.657-.574" class="cls-6" data-name="Path 2086" transform="translate(-307.911 -316.85)"/>
        <path id="Path_2087" d="M697.33 725.62a20.55 20.55 0 0 0 2.2 2.159 7.661 7.661 0 0 0 4.233.877 1.716 1.716 0 0 0 .726-.091 1.766 1.766 0 0 0 .647-.6l.792-1.022" class="cls-6" data-name="Path 2087" transform="translate(-333.251 -327.176)"/>
        <path id="Path_2088" d="M532.795 268.779s-2.721-25.8 7.861-19.447 3.3 17.633 3.3 17.633l-2.485 7.964z" class="cls-11" data-name="Path 2088" transform="translate(-268.083 -138.495)"/>
        <path id="Path_2089" d="M561 124.81l6.047-5.938s11.592-33.36 23.081-24.792-14.561 30.234-14.561 30.234l-6.905 8.06z" class="cls-11" data-name="Path 2089" transform="translate(-279.357 -76.963)"/>
        <path id="Path_2090" d="M414.462 361.889l-.3 6.851s5.545 9.675 7.861 10.382 2.116-20.463 2.116-20.463z" class="cls-9" data-name="Path 2090" transform="translate(-221.309 -182.111)"/>
        <path id="Path_2092" d="M334.76 284.87l.411 25.252h28.112l-2.116-14.712z" class="cls-11" data-name="Path 2092" transform="translate(-132.337 -112.615)"/>
        <path id="Path_2093" d="M438.79 455.82l1.312 8.06 16.429 36.487s7.456 11.489 1.409 21.164-12.293 24.792-13.3 33.959-8.967 18.141-8.967 18.141l17.336 7.359s1.209-14.41 6.047-21.164 20.354-36.481 20.354-36.481 4.94-4.438 3.834-17.639-1.01-22.476-1.01-22.476l-1.711-21.061z" class="cls-12" data-name="Path 2093" transform="translate(-229.813 -220.52)"/>
        <path id="Path_2094" d="M438.79 455.82l1.312 8.06 16.429 36.487s7.456 11.489 1.409 21.164-12.293 24.792-13.3 33.959-8.967 18.141-8.967 18.141l17.336 7.359s1.209-14.41 6.047-21.164 20.354-36.481 20.354-36.481 4.94-4.438 3.834-17.639-1.01-22.476-1.01-22.476l-1.711-21.061z" class="cls-6" data-name="Path 2094" transform="translate(-229.813 -220.52)"/>
        <path id="Path_2095" d="M429.239 648.82s-18.546 5.642-12.4 14.918 26.1 26.909 34.165 26.3 4.837-6.555 4.837-6.555l-6.754-6.652s-1.209-14.107-.7-18.237-5.745-6.047-6.555-3.628-12.593-6.146-12.593-6.146z" class="cls-13" data-name="Path 2095" transform="translate(-221.876 -296.816)"/>
        <path id="Path_2096" d="M443.128 375.58l-14.7 1.627a5.273 5.273 0 0 0-4.692 5.376c.157 5.878.26 15.226-.562 16.931-1.209 2.522-4.934 20.463 11.187 32.653l21.871 6.954-35.072 2.521 1.113 19.453 5.442-3.023 66.515 3.023s18.848-1.917 6.047-22.373-40.006-40.514-40.006-40.514l-.3-15.927-2.02-4.632z" class="cls-12" data-name="Path 2096" transform="translate(-224.077 -188.8)"/>
        <path id="Path_2097" d="M487.66 479.118a18.89 18.89 0 0 1 15.117 0z" class="cls-6" data-name="Path 2097" transform="translate(-250.365 -229.106)"/>
        <path id="Path_2098" d="M409.767 483.911s-21.666-3.12-21.769 1.01 3.023 44.342 13.406 41.62 5.944-16.024 5.944-16.024l7.764-7.456s.8-4.13-4.336-3.731z" class="cls-13" data-name="Path 2098" transform="translate(-210.966 -231.178)"/>
        <path id="Path_2099" d="M480.563 290.113l8.562 9.778s3.731 4.638 8.163-2.419 12.7-19.652 12.7-19.652 9.173 8.06 11.592 6.452-22.271 33.566-22.271 33.566-7.861 11.586-19.556-2.116l-3.422-1.614z" class="cls-9" data-name="Path 2099" transform="translate(-245.886 -150.154)"/>
        <circle id="Ellipse_316" cx="17.838" cy="17.838" r="17.838" class="cls-11" data-name="Ellipse 316" transform="translate(190.644 64.549)"/>
        <path id="Path_2101" d="M428.9 188.709s-15.329 7.256-13.515 19.955a280.782 280.782 0 0 1 2.116 28.723s6.96 10.28-2.268 29.932c0 0-5.9 9.977-1.965 17.233 0 0 4.36-11.489 15.631-3.023s29.418 12.4 29.418 12.4-9.373-41.119-3.628-46.863c0 0 9.977-14.815.907-24.187s-4.535-18.141-4.535-18.141l29.128-15.619s6.144.1 14.41-12.8a222.126 222.126 0 0 1 17.639-23.583s-6.253-9.373-12.094-10.08c0 0-2.322 2.419-3.93 8.974-.859 3.477-6.694 9.288-11.973 13.974-3.749 3.326-7.365 6.779-10.975 10.28-2.673 2.57-8.623 6.246-21.6 8.327-21.359 3.397-22.766 4.498-22.766 4.498z" class="cls-6" data-name="Path 2101" transform="translate(-220.422 -96.719)"/>
        <path id="Path_2102" d="M428.9 186.709s-15.329 7.256-13.515 19.955a280.782 280.782 0 0 1 2.116 28.723s6.96 10.28-2.268 29.932c0 0-5.9 9.977-1.965 17.234 0 0 4.36-11.489 15.631-3.023s29.418 12.4 29.418 12.4-9.373-41.119-3.628-46.863c0 0 9.977-14.815.907-24.187s-4.535-18.141-4.535-18.141l29.128-15.619s6.144.1 14.41-12.8a222.123 222.123 0 0 1 17.639-23.583s-6.253-9.373-12.094-10.08c0 0-2.322 2.419-3.93 8.974-.859 3.477-6.694 9.288-11.973 13.974-3.749 3.326-7.365 6.779-10.975 10.28-2.673 2.57-8.623 6.246-21.6 8.327-21.359 3.396-22.766 4.497-22.766 4.497z" class="cls-4" data-name="Path 2102" transform="translate(-220.422 -95.929)"/>
        <path id="Path_2103" d="M461.83 342.49s11.888 17.536 12.19 20.559c.006 0-1.808-18.849-12.19-20.559z" class="cls-6" data-name="Path 2103" transform="translate(-240.154 -175.719)"/>
        <path id="Path_2104" d="M436 244.82s8.29 9.977 20.269 1.615A25.693 25.693 0 0 1 436 244.82z" class="cls-6" data-name="Path 2104" transform="translate(-229.943 -137.109)"/>
        <path id="Path_2105" d="M405.356 164.344a5.351 5.351 0 0 0-1.306-2.419c-2.733-3.429-5.7-6.948-9.772-8.574a13.509 13.509 0 0 0-15.413 4.39c-1.463 1.971-2.334 4.317-3.6 6.428a28.514 28.514 0 0 1-9.826 9.3c-2.34 1.433-4.807 2.673-7.014 4.3-8.024 5.908-11.731 16.828-9.711 26.606.889 4.281 2.769 8.5 2.262 12.85-.393 3.374-2.189 6.4-4.009 9.264s-3.761 5.769-4.487 9.07.036 7.214 2.776 9.215a23.063 23.063 0 0 1 3.09 2.092 10.045 10.045 0 0 1 1.421 2.262 22.234 22.234 0 0 0 13.8 10.884c2.6.683 6.089.435 7.039-2.08a5.442 5.442 0 0 1 .49-1.276c.859-1.209 2.751-.532 4.082.163a25.269 25.269 0 0 0 9.754 2.8 8.133 8.133 0 0 0 4-.478 7.383 7.383 0 0 0 2.691-2.328c3.181-4.142 4.094-9.554 4.638-14.748a34.452 34.452 0 0 0-.042-10.159c-1.028-5.358-4.287-10.364-3.8-15.794.514-5.8 5.224-10.552 5.944-16.326a12.45 12.45 0 0 0-2.122-8.58 12.27 12.27 0 0 1-1.614-2.528 2.509 2.509 0 0 1 .484-2.776 4.233 4.233 0 0 1 1.258-.6c3.888-1.494 5.962-5.388 6.24-9.373a20.823 20.823 0 0 1 .417-4.378c.661-2.285 2.674-4.776 2.33-7.207z" class="cls-6" data-name="Path 2105" transform="translate(-192.871 -100.612)"/>
        <path id="Path_2106" d="M403.356 164.344a5.351 5.351 0 0 0-1.306-2.419c-2.733-3.429-5.7-6.948-9.772-8.574a13.509 13.509 0 0 0-15.413 4.39c-1.463 1.971-2.334 4.317-3.6 6.428a28.514 28.514 0 0 1-9.826 9.3c-2.34 1.433-4.807 2.673-7.014 4.3-8.024 5.908-11.731 16.828-9.711 26.606.889 4.281 2.769 8.5 2.262 12.85-.393 3.374-2.189 6.4-4.009 9.264s-3.761 5.769-4.487 9.07.036 7.214 2.776 9.215a23.063 23.063 0 0 1 3.09 2.092 10.046 10.046 0 0 1 1.421 2.262 22.234 22.234 0 0 0 13.8 10.884c2.6.683 6.089.435 7.039-2.08a5.44 5.44 0 0 1 .49-1.276c.859-1.209 2.751-.532 4.082.163a25.269 25.269 0 0 0 9.754 2.8 8.133 8.133 0 0 0 4-.478 7.383 7.383 0 0 0 2.691-2.328c3.181-4.142 4.094-9.554 4.638-14.748a34.451 34.451 0 0 0-.042-10.159c-1.028-5.358-4.287-10.364-3.8-15.794.514-5.8 5.224-10.552 5.944-16.326a12.451 12.451 0 0 0-2.122-8.58 12.27 12.27 0 0 1-1.614-2.528 2.51 2.51 0 0 1 .484-2.776 4.233 4.233 0 0 1 1.258-.6c3.888-1.494 5.962-5.388 6.24-9.373a20.823 20.823 0 0 1 .417-4.378c.661-2.285 2.674-4.776 2.33-7.207z" class="cls-14" data-name="Path 2106" transform="translate(-192.081 -100.612)"/>
        <g id="Group_834-2" class="cls-15" data-name="Group 834" transform="translate(171.052 51.864)">
            <path id="Path_2107" d="M382.276 324.261a5.7 5.7 0 0 0-.5 1.276 4.045 4.045 0 0 1-3.67 2.358c2.28.23 4.717-.32 5.484-2.358a5.7 5.7 0 0 1 .5-1.276 1.512 1.512 0 0 1 .6-.514 2.076 2.076 0 0 0-2.414.514z" data-name="Path 2107" transform="translate(-378.11 -220.111)"/>
            <path id="Path_2108" d="M431.469 164.325a5.218 5.218 0 0 0-1.306-2.419c-2.733-3.429-5.7-6.948-9.772-8.574a12.7 12.7 0 0 0-5.563-.834 12.347 12.347 0 0 1 3.749.834c4.07 1.627 7.039 5.146 9.772 8.574a5.218 5.218 0 0 1 1.306 2.419c.345 2.419-1.663 4.928-2.328 7.166a18.967 18.967 0 0 0-.417 4.378c-.284 3.979-2.352 7.861-6.246 9.373a4.233 4.233 0 0 0-1.258.6 2.51 2.51 0 0 0-.478 2.782 12.238 12.238 0 0 0 1.609 2.528 12.439 12.439 0 0 1 2.128 8.574c-.726 5.787-5.442 10.528-5.95 16.326-.484 5.442 2.782 10.437 3.8 15.788a34.658 34.658 0 0 1 .045 10.16c-.544 5.194-1.451 10.612-4.638 14.748a7.359 7.359 0 0 1-2.685 2.328 6.011 6.011 0 0 1-1.977.49 7.819 7.819 0 0 0 3.791-.49 7.359 7.359 0 0 0 2.7-2.286c3.187-4.136 4.094-9.554 4.638-14.748a34.455 34.455 0 0 0-.042-10.159c-1.022-5.351-4.287-10.364-3.8-15.788.52-5.811 5.225-10.552 5.95-16.327a12.438 12.438 0 0 0-2.128-8.574 12.24 12.24 0 0 1-1.608-2.528 2.509 2.509 0 0 1 .478-2.782 4.232 4.232 0 0 1 1.258-.6c3.894-1.5 5.962-5.394 6.246-9.373a20.4 20.4 0 0 1 .417-4.378c.646-2.28 2.653-4.771 2.309-7.208z" data-name="Path 2108" transform="translate(-391.215 -152.462)"/>
        </g>
        <path id="Path_2109" d="M406.82 525a8.169 8.169 0 0 0 8.363 2.31" class="cls-6" data-name="Path 2109" transform="translate(-218.408 -247.868)"/>
        <path id="Path_2110" d="M468.172 696a5.134 5.134 0 0 1-4.172 1.052" class="cls-6" data-name="Path 2110" transform="translate(-241.012 -315.467)"/>
        <ellipse id="Ellipse_317" cx="16.284" cy="2.751" class="cls-1" data-name="Ellipse 317" rx="16.284" ry="2.751" transform="translate(47.297 393.8)"/>
        <ellipse id="Ellipse_318" cx="16.284" cy="2.751" class="cls-4" data-name="Ellipse 318" rx="16.284" ry="2.751" transform="translate(493.119 448.584)"/>
        <ellipse id="Ellipse_319" cx="16.284" cy="2.751" class="cls-2" data-name="Ellipse 319" rx="16.284" ry="2.751" transform="translate(493.119 395.626)"/>
        <ellipse id="Ellipse_320" cx="16.284" cy="2.751" class="cls-1" data-name="Ellipse 320" rx="16.284" ry="2.751" transform="translate(93.471 419.348)"/>
        <ellipse id="Ellipse_321" cx="24.314" cy="4.112" class="cls-4" data-name="Ellipse 321" rx="24.314" ry="4.112" transform="translate(536.59 417.987)"/>
        <ellipse id="Ellipse_322" cx="54.881" cy="9.276" class="cls-1" data-name="Ellipse 322" rx="54.881" ry="9.276" transform="translate(156.43 445.011)"/>
        <path id="Path_2111" d="M1024.75 746.295a7.094 7.094 0 0 0 2.322-3.5 3.117 3.117 0 0 0-1.621-3.562c-1.487-.568-3.078.46-4.281 1.506s-2.588 2.225-4.166 2.008a6.331 6.331 0 0 0 1.959-5.932 2.485 2.485 0 0 0-.544-1.209c-.828-.883-2.322-.5-3.314.193-3.144 2.213-4.021 6.482-4.039 10.328a19.408 19.408 0 0 1-.055-4.233c-.006-1.4-.4-3.023-1.6-3.767a4.88 4.88 0 0 0-2.419-.6c-1.415-.048-2.987.091-3.955 1.125-1.209 1.288-.889 3.441.157 4.837a15.812 15.812 0 0 0 4.088 3.277 9.069 9.069 0 0 1 2.927 2.788 3.057 3.057 0 0 1 .218.5h8.859a24.627 24.627 0 0 0 5.46-3.749z" class="cls-4" data-name="Path 2111" transform="translate(-453.796 -330.92)"/>
        <path id="Path_2112" d="M939.587 794.885a7.079 7.079 0 0 0 2.316-3.5 3.126 3.126 0 0 0-1.62-3.562c-1.487-.568-3.078.46-4.281 1.506s-2.588 2.225-4.166 2.008a6.331 6.331 0 0 0 1.959-5.932 2.419 2.419 0 0 0-.544-1.209c-.822-.883-2.322-.5-3.308.194-3.144 2.213-4.021 6.482-4.039 10.328a19.034 19.034 0 0 1-.06-4.233c-.006-1.4-.4-3.023-1.6-3.767a4.838 4.838 0 0 0-2.419-.574c-1.415-.048-2.987.091-3.955 1.125-1.209 1.288-.889 3.441.157 4.838a15.734 15.734 0 0 0 4.094 3.277 9.072 9.072 0 0 1 2.921 2.788 3.057 3.057 0 0 1 .218.5h8.859a24.792 24.792 0 0 0 5.466-3.779z" class="cls-4" data-name="Path 2112" transform="translate(-420.127 -350.128)"/>
        <path id="Path_2113" d="M305.054 651.79s-8.5-28.849 1.6-50.08a45.569 45.569 0 0 0 3.7-28.6 76.53 76.53 0 0 0-4.045-13.418" class="cls-16" data-name="Path 2113" transform="translate(-176.856 -261.581)"/>
        <path id="Path_2114" d="M311.289 533.185c0 3.537-6.4 13.787-6.4 13.787s-6.4-10.249-6.4-13.787a6.4 6.4 0 1 1 12.8 0z" class="cls-4" data-name="Path 2114" transform="translate(-175.581 -248.495)"/>
        <path id="Path_2115" d="M328.748 563.525c-1.923 2.963-12.868 8.091-12.868 8.091s.2-12.094 2.122-15.051a6.4 6.4 0 0 1 10.745 6.96z" class="cls-4" data-name="Path 2115" transform="translate(-182.458 -259.248)"/>
        <path id="Path_2116" d="M326.466 617.361c-3.156 1.6-15.2.5-15.2.5s6.271-10.334 9.427-11.924a6.4 6.4 0 0 1 5.769 11.428z" class="cls-4" data-name="Path 2116" transform="translate(-180.635 -279.622)"/>
        <path id="Path_2117" d="M316.653 659.544c-2.842 2.1-14.893 3.023-14.893 3.023s4.438-11.247 7.256-13.352a6.4 6.4 0 0 1 7.613 10.28z" class="cls-4" data-name="Path 2117" transform="translate(-176.876 -296.547)"/>
        <path id="Path_2118" d="M292.448 577.3c2.54 2.461 14.349 5.013 14.349 5.013s-2.89-11.737-5.442-14.2a6.4 6.4 0 0 0-8.919 9.185z" class="cls-4" data-name="Path 2118" transform="translate(-172.468 -264.239)"/>
        <path id="Path_2119" d="M280.266 625.455c3.156 1.59 15.19.49 15.19.49s-6.271-10.334-9.427-11.924a6.4 6.4 0 1 0-5.763 11.436z" class="cls-4" data-name="Path 2119" transform="translate(-166.986 -282.788)"/>
        <path id="Path_2120" d="M276.8 675c2.842 2.1 14.893 3.023 14.893 3.023s-4.438-11.247-7.256-13.345a6.4 6.4 0 0 0-7.613 10.28z" class="cls-4" data-name="Path 2120" transform="translate(-166.093 -302.658)"/>
        <path id="Path_2121" d="M274 702.4s10.346-2.056 13.11-4.8 15.172-7.528 16.55-4.106 18.624 15.063 6.9 17.119-27.592 2.739-31.038 1.373S274 702.4 274 702.4z" class="cls-17" data-name="Path 2121" transform="translate(-165.902 -314.01)"/>
        <path id="Path_2122" d="M310.577 715.87c-11.725 2.056-27.592 2.739-31.038 1.367-2.63-1.04-4.457-6.047-5.176-8.387l-.363.091s2.068 8.218 5.521 9.59 19.314.683 31.039-1.373c3.386-.6 4.354-1.983 3.991-3.749-.273 1.131-1.451 2.02-3.974 2.461z" class="cls-18" data-name="Path 2122" transform="translate(-165.902 -320.547)"/>
        <path id="Path_2123" d="M937.191 659.91s3.326 4.348-1.53 10.884-8.859 12.094-7.256 16.188c0 0 7.329-12.184 13.3-12.354s2.035-7.407-4.514-14.718z" class="cls-4" data-name="Path 2123" transform="translate(-424.456 -301.2)"/>
        <path id="Path_2124" d="M937.319 659.91a5.442 5.442 0 0 1 .683 1.367c5.817 6.833 8.913 13.212 3.32 13.37-5.206.151-11.453 9.463-12.952 11.815a5.587 5.587 0 0 0 .175.538s7.329-12.184 13.3-12.354 2.023-7.425-4.526-14.736z" class="cls-6" data-name="Path 2124" transform="translate(-424.584 -301.2)"/>
        <path id="Path_2125" d="M952.888 668.422c0 1.53-.175 2.769-.387 2.769s-.381-1.209-.381-2.769.212-.81.423-.81.345-.719.345.81z" class="cls-19" data-name="Path 2125" transform="translate(-433.973 -304.174)"/>
        <path id="Path_2126" d="M955.178 671.407c-1.342.732-2.515 1.173-2.612.986s.9-.925 2.243-1.657.816-.2.919 0 .792-.061-.55.671z" class="cls-19" data-name="Path 2126" transform="translate(-434.147 -305.331)"/>
        <path id="Path_2127" d="M909.28 659.91s-3.326 4.348 1.53 10.884 8.859 12.094 7.256 16.188c0 0-7.323-12.184-13.3-12.354s-2.047-7.407 4.514-14.718z" class="cls-4" data-name="Path 2127" transform="translate(-414.086 -301.2)"/>
        <path id="Path_2128" d="M909.271 659.91a5.442 5.442 0 0 0-.683 1.367c-5.817 6.833-8.913 13.212-3.32 13.37 5.206.151 11.453 9.463 12.952 11.815a4.324 4.324 0 0 1-.181.538s-7.323-12.184-13.3-12.354-2.029-7.425 4.532-14.736z" class="cls-6" data-name="Path 2128" transform="translate(-414.078 -301.2)"/>
        <path id="Path_2129" d="M903.94 668.422c0 1.53.175 2.769.387 2.769s.381-1.209.381-2.769-.212-.81-.423-.81-.345-.719-.345.81z" class="cls-19" data-name="Path 2129" transform="translate(-414.926 -304.174)"/>
        <path id="Path_2130" d="M899.905 671.407c1.342.732 2.509 1.173 2.612.986s-.9-.925-2.243-1.657-.816-.2-.919 0-.792-.061.55.671z" class="cls-19" data-name="Path 2130" transform="translate(-413.008 -305.331)"/>
        <path id="Path_2131" d="M905.69 700.484s9.288-.29 12.094-2.28 14.289-4.372 14.984-1.209 13.956 15.9 3.471 15.982-24.363-1.633-27.156-3.332-3.393-9.161-3.393-9.161z" class="cls-17" data-name="Path 2131" transform="translate(-415.618 -315.252)"/>
        <path id="Path_2132" d="M936.42 715.172c-10.485.085-24.363-1.633-27.156-3.332-2.129-1.294-2.981-5.944-3.259-8.091h-.315s.6 7.492 3.386 9.191 16.671 3.417 27.156 3.332c3.023 0 4.07-1.1 4.015-2.691-.423.975-1.578 1.573-3.827 1.591z" class="cls-18" data-name="Path 2132" transform="translate(-415.618 -318.531)"/>
    </g>
</svg>
