<svg xmlns="http://www.w3.org/2000/svg">
  <defs>
    <symbol id="facebook-icon">
      <path
        d="M13.012 14.5l.667-4.343H9.511V7.338a2.172 2.172 0 012.449-2.347h1.895V1.293A23.105 23.105 0 0010.491 1C7.059 1 4.816 3.08 4.816 6.846v3.31H1V14.5h3.816V25h4.7V14.5z"
        data-name="Icon awesome-facebook-f" stroke="currentColor" stroke-width="2" />
    </symbol>
    <symbol id="twitter-icon">
      <path
        d="M25 1.099a11.891 11.891 0 01-3.425 1.669A4.887 4.887 0 0013 6.037v1.091a11.629 11.629 0 01-9.818-4.942s-4.364 9.813 5.454 14.182A12.7 12.7 0 011 18.549c9.818 5.455 21.818 0 21.818-12.545a4.909 4.909 0 00-.087-.905 8.422 8.422 0 002.269-4z"
        data-name="Icon feather-twitter" stroke-linecap="round" stroke-linejoin="round" stroke="currentColor"
        stroke-width="2" />
    </symbol>
    <symbol id="instagram-icon">
      <g id="Icon_feather-instagram" data-name="Icon feather-instagram" transform="translate(-2 -2)">
        <path id="Path_1216" d="M9 3h12a6 6 0 016 6v12a6 6 0 01-6 6H9a6 6 0 01-6-6V9a6 6 0 016-6z"
          stroke-linecap="round" stroke-linejoin="round" stroke-width="2" stroke="#3d3691" data-name="Path 1216" />
        <path id="Path_1217" d="M21.529 15.995a4.758 4.758 0 11-4.008-4.008 4.758 4.758 0 014.008 4.008z"
          stroke-linecap="round" stroke-linejoin="round" stroke-width="2" stroke="currentColor" data-name="Path 1217"
          transform="translate(-1.781 -1.734)" />
          <path id="Path_1218" d="M26.25 9.75 h 0.01" stroke="currentColor" stroke-width="3" stroke-linecap="round" stroke-linejoin="round" data-name="Path 1218" transform="translate(-4.65 -1.35)"/>
      </g>
    </symbol>
     <symbol id="bullet-icon" viewBox="0 0 29.107 29.107">
        <path d="M14.554 0C6.561 0 0 6.562 0 14.552c0 7.996 6.561 14.555 14.554 14.555 7.996 0 14.553-6.559 14.553-14.555C29.106 6.562 22.55 0 14.554 0z"/>
     </symbol>   
    <symbol id="close-btn">
      <g pointer-events="none" fill="none" stroke="currentColor" stroke-width="2"><path d="M2 14L14 2M2 2l12 12"/></g>
    </symbol>
    <symbol id="play-icon">
      <path id="Play" d="M45 90A45.012 45.012 0 0 1 27.484 3.536a45.012 45.012 0 0 1 35.032 82.928A44.72 44.72 0 0 1 45 90zm-8.963-62.956v35.912L62.971 45z" class="cls-1" transform="translate(1 1)"/>
    </symbol>
    <symbol id="check-icon"  viewBox="0 0 100 100">>
      <path stroke="currentColor" fill="currentColor" stroke-width="" d="M78.049 19.015L29.458 67.606c-.428.428-1.121.428-1.548 0L.32 40.015c-.427-.426-.427-1.119 0-1.547l6.704-6.704c.428-.427 1.121-.427 1.548 0l20.113 20.112 41.113-41.113c.429-.427 1.12-.427 1.548 0l6.703 6.704c.428.427.428 1.119 0 1.548z"/>
    </symbol>
  </defs>
</svg>



