<svg xmlns="http://www.w3.org/2000/svg" width="500" height="372" viewBox="0 0 500 372">
  <defs>
    <linearGradient id="undraw_in_progress_ql66-a" x1="49.991%" x2="49.991%" y1="100.006%" y2="-.012%">
      <stop offset="0%" stop-color="gray" stop-opacity=".25"/>
      <stop offset="54%" stop-color="gray" stop-opacity=".12"/>
      <stop offset="100%" stop-color="gray" stop-opacity=".1"/>
    </linearGradient>
  </defs>
  <g fill="none" fill-rule="evenodd">
    <path fill="#6C63FF" fill-rule="nonzero" d="M290.578635,52.0276954 C258.570722,51.2017804 228.086053,43.5262117 198.976261,35.1285856 C169.866469,26.7309594 141.03363,17.4085064 109.792285,12.9574679 C89.6983185,10.0939664 66.7161227,9.6884273 50.529179,17.6953511 C34.9455984,25.3907023 29.9109792,38.6745796 27.2057369,51.0385757 C25.1681503,60.3214639 23.9713155,70.0890208 29.5499505,78.7784372 C33.4272997,84.8120673 40.3016815,89.8813056 45.0593472,95.6627102 C61.6122651,115.771513 49.9109792,140.563798 31.9782394,160.197824 C23.5707221,169.406528 13.8031652,178.189911 7.30959446,187.997033 C0.816023739,197.804154 -2.1859545,209.030663 3.49653808,219.035608 C9.12462908,228.926805 22.5420376,236.389713 37.0771513,241.627102 C66.5974283,252.265084 101.369931,255.306627 135.301682,257.032641 C210.390702,260.850643 285.875371,259.193867 361.162216,257.527201 C389.025717,256.913947 417.007913,256.295747 444.416419,253.076162 C459.638971,251.300692 475.351137,248.476756 486.40455,241.666667 C500.430267,233.021761 503.907023,218.382789 494.50544,207.542038 C478.738872,189.357072 435.158259,184.836795 424.124629,165.321464 C418.061325,154.579624 424.287834,142.616222 433.105836,132.650841 C452.017804,111.28091 483.714144,92.5321464 485.380811,68.1008902 C486.52819,51.3254204 471.290801,34.520277 447.72997,26.5825915 C423.036597,18.264095 388.788328,19.3076162 370.578635,33.0811078 C351.810089,47.2799209 318.84273,52.7398615 290.578635,52.0276954 Z" opacity=".1">
                            <animate repeatCount="indefinite" attributeName="d" dur="20s" values="
                            M290.578635,52.0276954 C258.570722,51.2017804 228.086053,43.5262117 198.976261,35.1285856 C169.866469,26.7309594 141.03363,17.4085064 109.792285,12.9574679 C89.6983185,10.0939664 66.7161227,9.6884273 50.529179,17.6953511 C34.9455984,25.3907023 29.9109792,38.6745796 27.2057369,51.0385757 C25.1681503,60.3214639 23.9713155,70.0890208 29.5499505,78.7784372 C33.4272997,84.8120673 40.3016815,89.8813056 45.0593472,95.6627102 C61.6122651,115.771513 49.9109792,140.563798 31.9782394,160.197824 C23.5707221,169.406528 13.8031652,178.189911 7.30959446,187.997033 C0.816023739,197.804154 -2.1859545,209.030663 3.49653808,219.035608 C9.12462908,228.926805 22.5420376,236.389713 37.0771513,241.627102 C66.5974283,252.265084 101.369931,255.306627 135.301682,257.032641 C210.390702,260.850643 285.875371,259.193867 361.162216,257.527201 C389.025717,256.913947 417.007913,256.295747 444.416419,253.076162 C459.638971,251.300692 475.351137,248.476756 486.40455,241.666667 C500.430267,233.021761 503.907023,218.382789 494.50544,207.542038 C478.738872,189.357072 435.158259,184.836795 424.124629,165.321464 C418.061325,154.579624 424.287834,142.616222 433.105836,132.650841 C452.017804,111.28091 483.714144,92.5321464 485.380811,68.1008902 C486.52819,51.3254204 471.290801,34.520277 447.72997,26.5825915 C423.036597,18.264095 388.788328,19.3076162 370.578635,33.0811078 C351.810089,47.2799209 318.84273,52.7398615 290.578635,52.0276954 Z;
                            M266.662239,27.5791296 C233.181272,16.107814 214.787339,16.107814 194.430873,18.3976261 C174.074407,20.6874382 164.198458,32.7349159 134.881949,31.6023739 C114.334093,30.8085785 101.386975,30.581213 82.8215493,38.167761 C64.2561235,45.7543089 56.7855846,52.6716037 56.7855846,64.371909 C56.7855846,76.8583611 52.7178355,82.0348704 33.3728981,90.3707589 C21.5791269,95.4527894 8.32424747,95.2274975 2.68545994,119.564787 C-3.18971051,144.922318 2.68545994,159.700146 2.68545994,180.316518 C2.68545994,190.54114 0.570833118,207.943761 8.32424747,225.16815 C16.0776618,242.39254 33.1206726,263.119543 52.5768991,256.666174 C72.0331256,250.212804 74.6983185,251.428785 89.2334322,256.666174 C118.753709,267.304156 100.662291,283.694655 134.594042,285.420669 C209.683062,289.238671 203.855525,292.895648 279.14237,291.228981 C307.005871,290.615727 317.007178,290.043074 336.692039,282.930181 C350.952404,277.777366 364.77992,273.542718 382.655786,256.666174 C400.531653,239.789629 408.128355,231.27904 415.454995,219.866223 C429.000989,198.765425 426.764905,190.869129 424.78172,158.649852 C424.08407,147.315666 427.478285,131.302845 432.462908,120.410485 C448,86.4589515 445,58.3283877 432.462908,39.0504451 C422.323298,23.4590443 423.109494,36.2759644 399.548663,28.3382789 C374.85529,20.0197824 370.644506,42.0029063 338.916914,45.7665678 C307.189322,49.5302292 300.143205,39.0504451 266.662239,27.5791296 Z;
                            M290.578635,52.0276954 C258.570722,51.2017804 228.086053,43.5262117 198.976261,35.1285856 C169.866469,26.7309594 141.03363,17.4085064 109.792285,12.9574679 C89.6983185,10.0939664 66.7161227,9.6884273 50.529179,17.6953511 C34.9455984,25.3907023 29.9109792,38.6745796 27.2057369,51.0385757 C25.1681503,60.3214639 23.9713155,70.0890208 29.5499505,78.7784372 C33.4272997,84.8120673 40.3016815,89.8813056 45.0593472,95.6627102 C61.6122651,115.771513 49.9109792,140.563798 31.9782394,160.197824 C23.5707221,169.406528 13.8031652,178.189911 7.30959446,187.997033 C0.816023739,197.804154 -2.1859545,209.030663 3.49653808,219.035608 C9.12462908,228.926805 22.5420376,236.389713 37.0771513,241.627102 C66.5974283,252.265084 101.369931,255.306627 135.301682,257.032641 C210.390702,260.850643 285.875371,259.193867 361.162216,257.527201 C389.025717,256.913947 417.007913,256.295747 444.416419,253.076162 C459.638971,251.300692 475.351137,248.476756 486.40455,241.666667 C500.430267,233.021761 503.907023,218.382789 494.50544,207.542038 C478.738872,189.357072 435.158259,184.836795 424.124629,165.321464 C418.061325,154.579624 424.287834,142.616222 433.105836,132.650841 C452.017804,111.28091 483.714144,92.5321464 485.380811,68.1008902 C486.52819,51.3254204 471.290801,34.520277 447.72997,26.5825915 C423.036597,18.264095 388.788328,19.3076162 370.578635,33.0811078 C351.810089,47.2799209 318.84273,52.7398615 290.578635,52.0276954 Z
                ">
        </animate>
        </path>
    <g opacity=".8" transform="translate(359.05)">
      <path fill="#6C63FF" fill-rule="nonzero" d="M105.722057,88.4174085 C105.722057,88.4174085 100.143422,86.1523244 82.3986152,94.2927794 C64.6538081,102.433234 62.43818,101.399604 57.8437191,100.153314 C53.2492582,98.9070227 50.6874382,98.6152324 45.7616222,91.8199802 C45.7616222,91.8199802 42.2997033,72.992087 38.9268051,70.0593472 C35.553907,67.1266073 21.28091,71.7260138 21.28091,71.7260138 C21.28091,71.7260138 4.15924827,75.6627102 0.87537092,52.7695351 C0.87537092,52.7695351 3.18991098,35.5192878 0.0346191889,30.2225519 C0.0346191889,30.2225519 6.40454995,32.9673591 16.909001,28.5361029 C27.413452,24.1048467 35.8209693,33.3135509 35.8209693,33.3135509 C35.8209693,33.3135509 38.4718101,40.1730959 38.1948566,44.2581602 C37.9179031,48.3432245 39.5944609,49.8862512 44.6241345,47.9080119 C44.6241345,47.9080119 47.0969337,44.4065282 43.6003956,38.620178 C40.1038576,32.8338279 37.6261128,28.5212661 38.6003956,24.0257171 C39.5746785,19.5301682 42.3689416,13.3036597 51.355094,10.1780415 C60.3412463,7.05242334 72.5519288,6.46884273 78.4124629,4.0553907 C84.272997,1.64193867 85.6874382,0.0247279921 85.6874382,0.0247279921 C85.6874382,0.0247279921 82.0820969,3.63996044 90.578635,18.9515331 C99.0751731,34.2631058 93.6597428,40.9149357 93.6597428,40.9149357 C93.6597428,40.9149357 89.1394659,51.6864491 69.1889219,50.8061325 C69.1889219,50.8061325 49.9653808,51.5084075 60.4451039,59.6587537 C60.4451039,59.6587537 67.1562809,58.2937685 77.1958457,55.1038576 C87.2354105,51.9139466 94.470821,65.0791296 96.2710188,74.2383778 C98.0712166,83.3976261 105.722057,88.4174085 105.722057,88.4174085 Z"/>
      <path fill="#444053" fill-rule="nonzero" d="M79.8862512,11.6172107 L79.9901088,11.5875371 C80.7616222,14.5103858 72.1711177,26.2512364 64.8269041,35.5885262 L64.7428289,35.5242334 C75.098912,22.3541048 80.4995054,13.8625124 79.8862512,11.6172107 Z"/>
      <path fill="#444053" fill-rule="nonzero" d="M64.8911968,35.3313551 L64.9357072,35.4500495 C59.0702275,42.9080119 51.6913947,51.810089 45.7863501,58.4025717 C45.2225519,59.0306627 44.6636993,59.6884273 44.1295747,60.3808111 L43.9564787,60.2472799 C44.5004946,59.5697329 45.0593472,58.9070227 45.6231454,58.2690406 C51.5281899,51.6666667 59.0306627,42.7843719 64.8911968,35.3313551 Z"/>
      <path fill="#444053" fill-rule="nonzero" d="M44.0999011,60.049456 L44.2185955,60.2472799 C33.4718101,73.6646884 32.7596439,94.495549 32.7349159,94.6785361 L30.4698318,92.0870425 C30.4945598,91.8793274 33.2789318,73.5558853 44.0999011,60.049456 Z"/>
      <path stroke="#444053" d="M93.264095 81.1424332C93.264095 81.1424332 80.5934718 74.5548961 70.7171118 76.9188922 60.8407517 79.2828882 38.6102868 68.5608309 38.6102868 68.5608309 38.6102868 68.5608309 29.1691395 64.7279921 27.2700297 60.3560831 27.2700297 60.3560831 20.7962413 53.5064293 20.4253215 49.9703264 20.0544016 46.4342235 13.7339268 37.512364 9.63897132 37.1909001M91.4292779 87.4826904C91.4292779 87.4826904 85.049456 83.1849654 85.7912957 78.1701286M81.6419387 93.0365974C81.6419387 93.0365974 72.512364 89.7230465 71.5974283 76.7161227M66.9139466 96.3996044C66.9139466 96.3996044 58.189911 89.1641939 61.0880317 76.5182987M49.2136499 92.8635015C49.2136499 92.8635015 43.4075173 80.6824926 48.5756677 72.7596439M93.4124629 73.1107814C93.4124629 73.1107814 86.810089 75.2077151 88.2294758 78.6795252M85.4451039 61.132542C85.4451039 61.132542 76.6122651 63.9317507 76.40455 76.4292779M73.1305638 58.2492582C73.1305638 58.2492582 65.0939664 68.1701286 65.6627102 77.1859545M59.0553907 62.1414441C59.0553907 62.1414441 51.0682493 69.7725025 52.0870425 74.0108803M54.2383778 59.446093C54.2383778 59.446093 46.7507418 60.7863501 45.7072206 58.3283877M44.5103858 50.4055391C44.5103858 50.4055391 48.2937685 55.4154303 49.2680514 54.2927794M82.007913 47.2354105C82.007913 47.2354105 63.1355094 48.6053412 58.867458 42.9179031M40.5390702 25.1632047C40.5390702 25.1632047 49.396637 44.1691395 55.8259149 46.5924827M49.8367953 16.107814C49.8367953 16.107814 55.2769535 33.5905045 62.0128586 39.0504451"/>
      <path stroke="#444053" stroke-width=".75" d="M89.950544 32.8090999C89.950544 32.8090999 75.6083086 38.9663699 66.983185 32.7349159M62.6162216 12.3788328C62.6162216 12.3788328 65.8951533 25.2373887 70.3115727 28.3382789M87.7843719 18.3976261C87.7843719 18.3976261 79.7181009 21.4490603 76.7062315 19.1097923"/>
      <path stroke="#444053" d="M37.6013848 54.6043521C37.6013848 54.6043521 37.6013848 65.8061325 34.5499505 66.6023739M12.6656775 69.1196835C12.6656775 69.1196835 24.7823937 70.1582591 30.3659743 63.9070227M34.4757666 41.3699308C34.4757666 41.3699308 31.5479723 52.7448071 23.4619189 55.7912957M5.40059347 57.1513353C5.40059347 57.1513353 13.9762611 60.1186944 21.3501484 52.5420376M24.9455984 31.6023739C24.9455984 31.6023739 24.1345203 41.2512364 18.8872404 45.7665678M5.72700297 42.4480712C5.72700297 42.4480712 12.8437191 42.4925816 14.5103858 40.1780415"/>
    </g>
    <ellipse cx="130.5" cy="363.447" fill="#6C63FF" fill-rule="nonzero" opacity=".1" rx="107.814" ry="7.666"/>
    <path fill="url(#undraw_in_progress_ql66-a)" fill-rule="nonzero" d="M192.957468,321.711177 C194.441147,319.0455 196.216617,316.533136 197.650841,313.832839 C198.961424,311.36004 199.985163,308.738872 201.167161,306.196835 C203.189911,301.844708 205.682493,297.72997 207.952522,293.496538 C209.436202,290.722057 210.870425,287.700297 210.583581,284.564787 C210.311573,281.597428 208.570722,279.025717 207.898121,276.15727 C205.158259,264.3818 198.565776,253.570722 194.545005,242.181009 C193.51632,239.292779 192.51731,236.384768 191.231454,233.59545 C188.758655,228.229476 185.296736,223.407517 181.834817,218.625124 C180.587287,216.798002 179.198253,215.071631 177.680514,213.461919 C176.439169,212.220574 175.04451,211.127596 173.916914,209.782394 C171.592483,207.012859 170.504451,203.026706 167.596439,200.880317 C167.546983,201.008902 167.492582,201.132542 167.43818,201.261128 C165.356083,195.944609 158.372898,192.43818 154.322453,188.031652 C151.964486,185.340508 149.794821,182.490034 147.828882,179.500495 L139.01088,166.755687 C137.492582,164.559842 135.944609,162.304649 135.331355,159.688427 C134.579624,156.533136 135.276954,153.170129 134.535114,150.014837 C134.060744,148.115444 133.136269,146.358095 131.839763,144.891197 C131.923838,144.866469 132.012859,144.83185 132.101879,144.812067 C133.783383,144.362018 135.563798,144.282888 137.230465,143.882295 C140.86548,143.016815 144.025717,140.692384 147.645895,139.762611 C149.495549,139.268051 151.468843,139.169139 153.145401,138.278932 C154.816894,137.278765 155.670661,135.329001 155.272008,133.422354 C154.099901,127.215628 157.373887,120.924827 156.81998,114.62908 C156.671612,112.888229 156.226508,111.191889 155.939664,109.465875 C155.272008,105.459941 155.395648,101.355094 155.633037,97.2898121 C156.761708,95.4577993 158.115844,93.774683 159.663699,92.2799209 C161.889219,90.1335312 164.545005,88.3234421 166.092977,85.6379822 C167.443126,83.2591494 167.769535,80.3857567 167.428289,77.6656775 C167.185955,75.6874382 166.513353,73.6053412 164.95549,72.4035608 C163.397626,71.2017804 161.162216,71.1127596 159.277943,71.7408506 C159.015826,71.8249258 158.758655,71.9287834 158.506429,72.0375865 C156.914827,71.2409838 155.065739,71.1336867 153.392681,71.7408506 C151.513353,72.363996 149.901088,73.6053412 148.387735,74.8961424 C147.490773,75.5995041 146.703974,76.4329776 146.053412,77.3689416 C145.098912,78.8526212 144.821958,80.6824926 144.46093,82.4282888 C143.693245,85.7984272 142.574371,89.0788013 141.122651,92.2156281 C140.855589,92.7695351 140.133531,93.7636004 139.549951,94.7131553 L138.491592,94.495549 C138.031652,98.9020772 134.342235,102.136499 132.096934,105.944609 C131.003956,107.794263 130.237389,109.817013 129.253215,111.730959 C128.130224,113.814415 126.876481,115.824698 125.499505,117.749753 C124.164194,119.727992 122.827234,121.688098 121.488625,123.630069 C119.810996,126.180597 117.994888,128.637295 116.048467,130.98912 C114.233432,130.840752 112.418398,130.707221 110.608309,130.677547 C107.57015,130.634005 104.535609,130.904147 101.552918,131.48368 C101.379056,130.434801 101.271687,129.37598 101.231454,128.313551 C101.231454,128.249258 101.231454,128.184965 101.231454,128.120673 C101.231454,127.863501 101.261128,127.556874 101.295747,127.225519 C106.520564,123.726512 109.582777,117.789845 109.40505,111.504132 C109.227323,105.21842 105.834555,99.4642656 100.420376,96.2660732 C100.518622,95.7101255 100.581393,95.1484897 100.608309,94.5845697 C100.608309,94.2532146 100.608309,93.9169139 100.608309,93.59545 C100.608309,93.4272997 100.608309,93.2591494 100.573689,93.1008902 C100.543057,92.7673634 100.486842,92.4366834 100.405539,92.1117705 C100.365974,91.9535114 100.321464,91.7952522 100.267062,91.6172107 C100.161819,91.3069056 100.024234,91.0085288 99.8565776,90.727003 C99.8462239,90.7097185 99.834655,90.6931915 99.8219585,90.677547 C99.7576657,90.5736894 99.6933729,90.4698318 99.6191889,90.3709199 C99.5450049,90.2720079 99.5548961,90.2917903 99.5252226,90.2522255 C99.473134,90.1798718 99.4169942,90.1105227 99.3570722,90.0445104 L99.2334322,89.9159248 C99.1790307,89.8565776 99.1246291,89.7972305 99.0652819,89.7428289 L98.9268051,89.6191889 L98.7537092,89.4658754 L98.59545,89.347181 L98.4174085,89.2136499 L98.2443126,89.0999011 L98.066271,88.9861523 C98.0069238,88.9465875 97.9426311,88.9119683 97.8783383,88.8773492 L97.6953511,88.7734916 L97.4975272,88.6745796 L97.3145401,88.5855589 L97.0969337,88.4915925 L96.9188922,88.4124629 L96.6815035,88.3234421 L96.5133531,88.2591494 L96.256182,88.1701286 L96.1028684,88.1206726 L95.8209693,88.0316518 L95.6874382,87.992087 L95.3808111,87.9080119 L95.2621167,87.8733927 L94.9406528,87.7942631 L94.8466864,87.7695351 L94.4906034,87.6904055 L94.4312562,87.6904055 L93.9070227,87.5766568 C91.7408506,87.1315529 89.5614903,86.7474448 87.3689416,86.4243323 C85.5736894,86.15727 83.7339268,85.9297725 81.9634026,86.330366 C79.520277,86.8743818 77.4826904,88.5262117 75.1978239,89.5499505 C72.4975272,90.7665678 69.5004946,91.0880317 66.6221563,91.7556874 C63.743818,92.4233432 60.7814045,93.5657765 58.9762611,95.9248269 C57.6013848,97.7250247 57.0524233,100.014837 56.6419387,102.245302 C53.2195846,120.860534 56.909001,139.95549 57.6063304,158.877349 C57.8783383,166.241345 57.5469832,174.114738 53.3728981,180.143422 L65.529179,179.821958 C66.1127596,179.821958 66.7012859,179.787339 67.2947577,179.75272 C67.8882295,179.718101 68.4817013,179.673591 69.0652819,179.604352 C70.6069771,179.459838 72.1047082,179.011023 73.4718101,178.283877 C74.1048865,177.923314 74.6828392,177.473611 75.1879327,176.948566 C76.8397626,175.24728 77.7200791,172.868447 78.5262117,170.593472 C78.7982196,169.826904 79.0702275,169.050445 79.3125618,168.269041 C79.4114738,167.942631 79.5054402,167.616222 79.5895153,167.279921 L79.6290801,167.121662 L79.7675569,167.185955 C80.2621167,168.115727 80.8209693,169.025717 81.4144411,169.906034 C83.5361029,173.031652 86.2265084,175.702275 88.8971316,178.358061 C94.2037587,183.625124 99.6290801,188.986152 106.28091,192.368942 C108.526212,193.501484 110.9545,194.455984 112.665678,196.32542 C113.506429,197.230465 114.233432,198.392681 115.425321,198.704253 C116.167161,198.897132 116.983185,198.704253 117.690406,199.020772 C118.728981,199.455984 119.109792,200.707221 119.589515,201.735905 C120.069238,202.76459 121.152324,203.813056 122.181009,203.343225 C121.787633,205.291904 122.540203,207.29428 124.119683,208.501484 C124.617888,208.778088 125.047274,209.163521 125.375865,209.62908 C125.534246,210.053639 125.621148,210.501518 125.633037,210.9545 C125.844403,212.217577 126.511222,213.359439 127.507418,214.164194 C126.543027,215.761622 127.31454,218.051434 127.339268,220.04451 C127.339268,221.716123 126.790307,223.328388 126.414441,224.95549 C125.321464,229.727992 125.919881,234.723046 126.810089,239.535114 C127.304649,242.1909 127.93274,244.940653 129.663699,247.002967 C130.227498,247.670623 130.900099,248.249258 131.493571,248.897132 C132.626452,250.173584 133.567719,251.607976 134.287834,253.155292 C135.788785,256.219072 136.811209,259.494835 137.319486,262.868447 C137.558404,264.561236 138.041505,266.21044 138.753709,267.76459 C139.836795,270.128586 138.847676,273.036597 139.817013,275.450049 C140.257171,276.533136 141.068249,277.457962 141.330366,278.590504 C141.701286,280.237389 140.835806,281.884273 140.603363,283.560831 C140.039565,287.487636 142.873393,291.132542 143.130564,295.089021 C143.172681,295.321109 143.123033,295.560483 142.992087,295.756677 C142.799209,295.974283 142.467854,295.969337 142.205737,296.092977 C141.711177,296.330366 141.577646,296.998022 141.419387,297.551929 C141.261128,298.105836 140.816024,298.733927 140.267062,298.565776 C132.141444,302.912957 123.728981,306.928783 115.603363,311.275964 L111.894164,313.254204 L92.0573689,323.852621 C91.5659526,324.096673 91.2568386,324.599703 91.2611276,325.148368 C91.2611276,325.385757 91.2908012,325.642928 91.3105836,325.86548 C89.9208704,326.211672 88.5855589,326.627102 87.636004,326.800198 C87.2453017,326.874382 86.8545994,326.948566 86.4688427,327.032641 C86.5626743,326.88232 86.6233713,326.713717 86.6468843,326.538081 C86.650232,326.03331 86.272948,325.607 85.7715134,325.548961 C85.2869769,325.501012 84.7979071,325.565319 84.3422354,325.736894 C83.2083147,326.046785 82.0502135,326.260206 80.8803165,326.374876 C79.4906034,326.508408 78.0761622,326.503462 76.7309594,326.869436 C75.3857567,327.23541 74.0603363,328.051434 73.5163205,329.342235 C73.244147,330.089068 73.1231082,330.882544 73.1602374,331.676558 C73.1301127,334.73364 73.4924526,337.781949 74.2383778,340.746785 C74.2623057,340.985272 74.3957153,341.199093 74.5994065,341.32542 C74.7725025,341.394659 74.9802176,341.32542 75.1533136,341.40455 C75.3056725,341.496761 75.4197745,341.640705 75.4747774,341.810089 C76.305638,343.699308 76.4985163,345.806133 76.7210682,347.863501 C77.0507748,350.913287 77.4678536,353.95483 77.9723046,356.988131 C78.2690406,358.758655 78.6350148,360.608309 79.7873393,361.973294 C81.0534125,363.456973 83.0563798,364.114738 84.9901088,364.376855 C89.0702275,364.925816 93.189911,364.099901 97.2156281,363.254204 C97.9673591,363.095945 98.7734916,362.903066 99.2779426,362.319486 C99.646799,361.853688 99.8237186,361.264546 99.7725025,360.672601 C99.6785361,358.63996 97.8288823,357.210682 96.1473788,356.068249 L93.8526212,354.480712 C93.4497647,354.266751 93.2454687,353.805042 93.3580613,353.363007 L93.5064293,350.361029 L93.0613254,350.361029 C93.5558853,348.244313 94.3521266,346.211672 95.9099901,344.757666 C96.983185,343.768546 98.3827893,343.076162 99.5054402,342.176063 C100.945806,343.283596 102.690582,343.923864 104.50544,344.01088 C107.472799,340.014837 111.65183,337.294758 115.830861,334.614243 C119.225121,332.470095 122.733429,330.512046 126.340257,328.748764 C129.261457,327.304649 132.228816,325.951203 135.242334,324.688427 C139.495549,322.898121 143.827893,321.300692 148.165183,319.742829 C151.058358,318.704253 153.976261,317.680514 156.641939,316.147379 C163.565776,312.14639 168.456973,304.159248 167.522255,296.162216 C166.345203,286.073195 168.862512,275.558853 168.694362,265.400593 C168.644906,262.433234 168.536103,259.465875 167.636004,256.622156 C167.845386,256.770622 168.042223,256.936031 168.22453,257.116716 C170.024728,258.79822 170.459941,261.468843 172.181009,263.387735 C173.521266,264.896142 175.558853,265.860534 176.369931,267.700297 C176.988131,269.109792 176.89911,271.013848 178.189911,271.824926 C178.555885,272.057369 178.991098,272.156281 179.357072,272.383778 C179.794901,272.695799 180.16362,273.094824 180.440158,273.555885 C181.810089,275.509397 183.229476,277.601385 183.377844,279.985163 C183.442136,280.929773 183.353116,282.02275 184.0455,282.660732 C184.243323,282.843719 184.495549,282.97725 184.599407,283.22453 C184.817013,283.71909 184.243323,284.243323 184.144411,284.792285 C184.000989,285.553907 184.75272,286.132542 185.217606,286.770524 C186.013506,287.862447 186.013506,289.34329 185.217606,290.435213 C181.162216,295.702275 180.430267,302.799209 176.884273,308.432245 C175.657765,310.375865 174.292779,312.215628 173.105836,314.183976 C169.455984,320.227498 167.611276,327.171118 165.820969,334.01088 C166.585817,335.342456 167.622078,336.49835 168.862512,337.403561 C168.192413,339.706714 167.037317,341.839848 165.474777,343.659743 C165.075956,344.104694 164.702784,344.571984 164.357072,345.059347 C164.067035,344.692141 163.687173,344.405967 163.254204,344.228487 C162.603845,347.067689 162.272089,349.970555 162.265084,352.883284 C162.265084,354.802176 162.527201,356.993076 164.085064,358.10089 C164.706814,358.492617 165.390898,358.775283 166.107814,358.936696 L169.500495,359.925816 C170.097374,360.154645 170.74501,360.217871 171.374876,360.108803 C171.77547,359.995054 172.131553,359.747774 172.542038,359.668645 C172.988052,359.62255 173.438657,359.68184 173.857567,359.841741 L176.790307,360.697329 C177.781918,360.961338 178.751003,361.30366 179.688427,361.721068 C180.524233,362.121662 181.295747,362.64095 182.116716,363.086053 C183.481972,363.775927 184.899084,364.357984 186.355094,364.826904 L191.409496,366.567755 C192.817683,367.125907 194.289428,367.507963 195.791296,367.705242 C196.829871,367.794263 197.883284,367.705242 198.907023,367.883284 C199.688427,368.016815 200.445104,368.298714 201.231454,368.380533 C202.53643,368.416622 203.819355,368.035212 204.891197,367.289812 C205.309889,367.053355 205.671262,366.727444 205.949555,366.335312 C206.691395,365.178042 206.053412,363.649852 205.331355,362.48269 C203.991098,360.316518 202.31454,358.288823 200.103858,357.042532 C199.208704,356.547972 198.239367,356.181998 197.31454,355.727003 C194.683482,354.441147 192.700297,352.294758 190.212661,350.825915 C189.558595,350.360208 188.66689,350.420206 188.081108,350.969337 C186.013848,349.62908 183.778437,348.318497 182.64095,346.137488 C182.134183,345.085038 181.800201,343.957849 181.65183,342.799209 C182.814045,343.076162 183.986152,343.293769 185.16815,343.486647 C187.091988,336.028684 189.193867,328.437191 192.957468,321.711177 Z M145.445104,110.78635 C145.346192,111.345203 145.237389,111.89911 145.118694,112.453017 C144.129575,117.096934 142.715134,122.299703 139.480712,125.756677 C138.41686,126.769991 137.180916,127.58558 135.830861,128.165183 L135.469832,128.343225 C137.799209,122.121662 141.508408,116.355094 145.445104,110.78635 Z"/>
    <path fill="#FBBEBE" fill-rule="nonzero" d="M150.232443,83.239367 C150.598417,81.5133531 150.875371,79.7032641 151.829871,78.214639 C152.482399,77.2786947 153.270822,76.4452667 154.169139,75.7418398 C155.682493,74.4609298 157.299703,73.2294758 159.183976,72.6063304 C161.068249,71.983185 163.283877,72.0672601 164.866469,73.264095 C166.44906,74.4609298 167.116716,76.5232443 167.363996,78.4915925 C167.700297,81.1968348 167.363996,84.0454995 166.023739,86.40455 C164.490603,89.0801187 161.829871,90.8555885 159.594461,93.0019782 C157.974952,94.5513991 156.566537,96.3073453 155.405539,98.2245302 C154.877204,99.2237858 154.23674,100.159593 153.496538,101.013848 C152.735345,101.87569 151.610413,102.325296 150.464886,102.225519 C149.510386,102.072206 148.733927,101.409496 147.992087,100.776459 C147.077151,99.975272 144.614243,98.5459941 144.530168,97.2749753 C144.470821,96.2462908 146.394659,93.9119683 146.864491,92.9475767 C148.326198,89.8392665 149.455125,86.5851041 150.232443,83.239367 L150.232443,83.239367 Z"/>
    <path fill="#000" fill-rule="nonzero" d="M150.232443,83.239367 C150.598417,81.5133531 150.875371,79.7032641 151.829871,78.214639 C152.482399,77.2786947 153.270822,76.4452667 154.169139,75.7418398 C155.682493,74.4609298 157.299703,73.2294758 159.183976,72.6063304 C161.068249,71.983185 163.283877,72.0672601 164.866469,73.264095 C166.44906,74.4609298 167.116716,76.5232443 167.363996,78.4915925 C167.700297,81.1968348 167.363996,84.0454995 166.023739,86.40455 C164.490603,89.0801187 161.829871,90.8555885 159.594461,93.0019782 C157.974952,94.5513991 156.566537,96.3073453 155.405539,98.2245302 C154.877204,99.2237858 154.23674,100.159593 153.496538,101.013848 C152.735345,101.87569 151.610413,102.325296 150.464886,102.225519 C149.510386,102.072206 148.733927,101.409496 147.992087,100.776459 C147.077151,99.975272 144.614243,98.5459941 144.530168,97.2749753 C144.470821,96.2462908 146.394659,93.9119683 146.864491,92.9475767 C148.326198,89.8392665 149.455125,86.5851041 150.232443,83.239367 L150.232443,83.239367 Z" opacity=".1"/>
    <path fill="#6C63FF" fill-rule="nonzero" d="M98.3036597,132.670623 C102.26609,131.616962 106.355452,131.117651 110.454995,131.186944 C117.294758,131.285856 124.33729,132.942631 130.850643,130.845697 C132.532083,130.262501 134.167123,129.553267 135.74184,128.724036 C137.052423,128.071217 138.387735,127.398615 139.391691,126.330366 C142.631058,122.898121 144.025717,117.72997 145.039565,113.115727 C146.053412,108.501484 146.315529,103.7636 146.577646,99.0504451 C148.264095,99.8367953 150.039565,100.613254 151.909001,100.454995 C153.778437,100.296736 155.642928,98.8724036 155.633037,96.9930762 C155.356083,101.36004 155.138477,105.781405 155.875371,110.093966 C156.162216,111.805143 156.607319,113.491592 156.760633,115.222552 C157.31454,121.473788 154.035608,127.720079 155.207715,133.88724 C155.604468,135.784105 154.749345,137.723047 153.081108,138.709199 C151.399604,139.614243 149.421365,139.727992 147.571711,140.192878 C143.946588,141.117705 140.781405,143.422354 137.141444,144.282888 C135.445104,144.683482 133.679525,144.777448 132.007913,145.207715 C129.604352,145.840752 127.423343,147.215628 124.975272,147.650841 C123.140455,147.97725 121.251236,147.754698 119.396637,147.912957 C117.784372,148.046489 116.20178,148.47181 114.58457,148.511375 C110.628091,148.610287 106.884273,146.369931 104.253215,143.397626 C101.622156,140.425321 99.9554896,136.271019 98.3036597,132.670623 Z"/>
    <path fill="#000" fill-rule="nonzero" d="M98.3036597,132.670623 C102.26609,131.616962 106.355452,131.117651 110.454995,131.186944 C117.294758,131.285856 124.33729,132.942631 130.850643,130.845697 C132.532083,130.262501 134.167123,129.553267 135.74184,128.724036 C137.052423,128.071217 138.387735,127.398615 139.391691,126.330366 C142.631058,122.898121 144.025717,117.72997 145.039565,113.115727 C146.053412,108.501484 146.315529,103.7636 146.577646,99.0504451 C148.264095,99.8367953 150.039565,100.613254 151.909001,100.454995 C153.778437,100.296736 155.642928,98.8724036 155.633037,96.9930762 C155.356083,101.36004 155.138477,105.781405 155.875371,110.093966 C156.162216,111.805143 156.607319,113.491592 156.760633,115.222552 C157.31454,121.473788 154.035608,127.720079 155.207715,133.88724 C155.604468,135.784105 154.749345,137.723047 153.081108,138.709199 C151.399604,139.614243 149.421365,139.727992 147.571711,140.192878 C143.946588,141.117705 140.781405,143.422354 137.141444,144.282888 C135.445104,144.683482 133.679525,144.777448 132.007913,145.207715 C129.604352,145.840752 127.423343,147.215628 124.975272,147.650841 C123.140455,147.97725 121.251236,147.754698 119.396637,147.912957 C117.784372,148.046489 116.20178,148.47181 114.58457,148.511375 C110.628091,148.610287 106.884273,146.369931 104.253215,143.397626 C101.622156,140.425321 99.9554896,136.271019 98.3036597,132.670623 Z" opacity=".1"/>
    <path fill="#3F3D56" fill-rule="nonzero" d="M276.162216,138.748764 C289.932785,138.748764 302.347322,147.044219 307.616629,159.766757 C312.885935,172.489295 309.97224,187.13326 300.23427,196.869815 C290.4963,206.606371 275.851913,209.517938 263.13014,204.246784 C250.408367,198.975629 242.114716,186.559887 242.116716,172.789318 C242.119447,153.988439 257.361337,138.748764 276.162216,138.748764 L276.162216,138.748764 Z M276.162216,130.341246 C258.991123,130.341246 243.5109,140.685127 236.940269,156.549339 C230.369639,172.413552 234.002645,190.673739 246.145149,202.814828 C258.287652,214.955916 276.548262,218.586795 292.411709,212.014317 C308.275156,205.441838 318.617233,189.96041 318.615232,172.789318 C318.587974,149.355265 299.596272,130.365774 276.162216,130.341246 L276.162216,130.341246 Z"/>
    <rect width="9.951" height="10.475" x="269.876" y="120.41" fill="#3F3D56" fill-rule="nonzero"/>
    <polygon fill="#3F3D56" fill-rule="nonzero" points="294.167 126.474 304.118 126.474 304.118 136.949 294.167 136.949" transform="rotate(31 299.142 131.711)"/>
    <polygon fill="#3F3D56" fill-rule="nonzero" points="311.628 143.465 321.579 143.465 321.579 153.94 311.628 153.94" transform="rotate(61 316.603 148.703)"/>
    <polygon fill="#3F3D56" fill-rule="nonzero" points="311.861 191.249 321.812 191.249 321.812 201.724 311.861 201.724" transform="rotate(122 316.836 196.486)"/>
    <polygon fill="#3F3D56" fill-rule="nonzero" points="230.749 143.462 240.699 143.462 240.699 153.937 230.749 153.937" transform="rotate(119 235.724 148.7)"/>
    <polygon fill="#3F3D56" fill-rule="nonzero" points="230.517 191.245 240.468 191.245 240.468 201.72 230.517 201.72" transform="rotate(58 235.492 196.483)"/>
    <polygon fill="#3F3D56" fill-rule="nonzero" points="248.205 126.473 258.155 126.473 258.155 136.948 248.205 136.948" transform="rotate(149 253.18 131.71)"/>
    <rect width="9.951" height="10.475" x="269.876" y="214.693" fill="#3F3D56" fill-rule="nonzero"/>
    <polygon fill="#3F3D56" fill-rule="nonzero" points="294.169 208.633 304.119 208.633 304.119 219.107 294.169 219.107" transform="rotate(-31 299.144 213.87)"/>
    <polygon fill="#3F3D56" fill-rule="nonzero" points="248.206 208.633 258.157 208.633 258.157 219.108 248.206 219.108" transform="rotate(-149 253.181 213.87)"/>
    <rect width="12.047" height="8.902" x="222.74" y="168.6" fill="#3F3D56" fill-rule="nonzero"/>
    <rect width="12.047" height="8.902" x="317.537" y="168.6" fill="#3F3D56" fill-rule="nonzero" transform="rotate(-180 323.56 173.051)"/>
    <path fill="#3F3D56" fill-rule="nonzero" d="M355.252226,77.4678536 C369.022795,77.4678536 381.437332,85.7633086 386.706639,98.4858471 C391.975945,111.208385 389.06225,125.85235 379.32428,135.588905 C369.58631,145.325461 354.941922,148.237028 342.22015,142.965874 C329.498377,137.694719 321.204726,125.278977 321.206726,111.508408 C321.209457,92.7075287 336.451347,77.4678536 355.252226,77.4678536 L355.252226,77.4678536 Z M355.252226,69.0603363 C338.081133,69.0603363 322.60091,79.4042171 316.030279,95.2684294 C309.459649,111.132642 313.092655,129.392829 325.235158,141.533918 C337.377662,153.675006 355.638272,157.305886 371.501719,150.733407 C387.365166,144.160928 397.707243,128.6795 397.705242,111.508408 C397.677984,88.0743546 378.686281,69.0848645 355.252226,69.0603363 Z"/>
    <rect width="9.951" height="10.475" x="348.966" y="59.135" fill="#3F3D56" fill-rule="nonzero"/>
    <polygon fill="#3F3D56" fill-rule="nonzero" points="373.26 65.19 383.211 65.19 383.211 75.664 373.26 75.664" transform="rotate(31 378.236 70.427)"/>
    <polygon fill="#3F3D56" fill-rule="nonzero" points="390.721 82.183 400.671 82.183 400.671 92.657 390.721 92.657" transform="rotate(61 395.696 87.42)"/>
    <polygon fill="#3F3D56" fill-rule="nonzero" points="390.95 129.969 400.9 129.969 400.9 140.444 390.95 140.444" transform="rotate(122 395.925 135.207)"/>
    <polygon fill="#3F3D56" fill-rule="nonzero" points="309.836 82.187 319.786 82.187 319.786 92.662 309.836 92.662" transform="rotate(119 314.81 87.424)"/>
    <polygon fill="#3F3D56" fill-rule="nonzero" points="309.605 129.968 319.556 129.968 319.556 140.443 309.605 140.443" transform="rotate(58 314.58 135.205)"/>
    <polygon fill="#3F3D56" fill-rule="nonzero" points="327.295 65.19 337.245 65.19 337.245 75.665 327.295 75.665" transform="rotate(149 332.27 70.428)"/>
    <rect width="9.951" height="10.475" x="348.966" y="153.412" fill="#3F3D56" fill-rule="nonzero"/>
    <polygon fill="#3F3D56" fill-rule="nonzero" points="373.258 147.353 383.209 147.353 383.209 157.828 373.258 157.828" transform="rotate(-31 378.234 152.59)"/>
    <polygon fill="#3F3D56" fill-rule="nonzero" points="327.293 147.351 337.243 147.351 337.243 157.825 327.293 157.825" transform="rotate(-149 332.268 152.588)"/>
    <rect width="12.047" height="8.902" x="301.825" y="107.319" fill="#3F3D56" fill-rule="nonzero"/>
    <rect width="12.047" height="8.902" x="396.632" y="107.319" fill="#3F3D56" fill-rule="nonzero" transform="rotate(-180 402.656 111.77)"/>
    <path fill="#3F3D56" fill-rule="nonzero" d="M197.052423,74.8466864 C197.453017,74.8466864 197.85361,74.8466864 198.254204,74.8466864 C216.819371,75.479843 231.450114,90.8778465 231.134353,109.451123 C230.818591,128.0244 215.672894,142.916178 197.096934,142.917903 C196.69634,142.917903 196.295747,142.917903 195.890208,142.917903 C177.32408,142.284712 162.692977,126.885209 163.010104,108.310994 C163.327231,89.7367791 178.475502,74.8457146 197.052423,74.8466864 L197.052423,74.8466864 Z M197.052423,66.4391691 L197.052423,66.4391691 C173.887696,66.4363088 154.997142,85.0037479 154.600392,108.165078 C154.203641,131.326407 172.447183,150.529949 195.598417,151.320475 C196.092977,151.320475 196.587537,151.345203 197.082097,151.345203 C220.245858,151.345203 239.133831,132.777208 239.529216,109.616822 C239.924601,86.4564348 221.681426,67.2543955 198.531157,66.4638971 C198.036597,66.4638971 197.542038,66.4391691 197.047478,66.4391691 L197.052423,66.4391691 Z"/>
    <polygon fill="#3F3D56" fill-rule="nonzero" points="192.419 56.504 202.369 56.504 202.369 66.979 192.419 66.979" transform="rotate(1.99 197.394 61.742)"/>
    <polygon fill="#3F3D56" fill-rule="nonzero" points="216.48 63.4 226.431 63.4 226.431 73.875 216.48 73.875" transform="rotate(32.99 221.456 68.637)"/>
    <polygon fill="#3F3D56" fill-rule="nonzero" points="233.344 80.987 243.295 80.987 243.295 91.462 233.344 91.462" transform="rotate(62.99 238.32 86.224)"/>
    <polygon fill="#3F3D56" fill-rule="nonzero" points="231.924 128.736 241.875 128.736 241.875 139.211 231.924 139.211" transform="rotate(123.99 236.9 133.974)"/>
    <polygon fill="#3F3D56" fill-rule="nonzero" points="152.512 78.172 162.463 78.172 162.463 88.646 152.512 88.646" transform="rotate(120.99 157.487 83.409)"/>
    <polygon fill="#3F3D56" fill-rule="nonzero" points="149.89 126.7 159.874 126.7 159.874 137.211 149.89 137.211" transform="rotate(60.113 154.882 131.955)"/>
    <polygon fill="#3F3D56" fill-rule="nonzero" points="170.559 61.791 180.51 61.791 180.51 72.266 170.559 72.266" transform="rotate(150.99 175.534 67.029)"/>
    <polygon fill="#3F3D56" fill-rule="nonzero" points="189.149 150.721 199.099 150.721 199.099 161.196 189.149 161.196" transform="rotate(1.99 194.124 155.958)"/>
    <polygon fill="#3F3D56" fill-rule="nonzero" points="213.642 145.515 223.592 145.515 223.592 155.99 213.642 155.99" transform="rotate(-29.01 218.617 150.752)"/>
    <polygon fill="#3F3D56" fill-rule="nonzero" points="167.713 143.908 177.664 143.908 177.664 154.383 167.713 154.383" transform="rotate(-147.01 172.688 149.146)"/>
    <polygon fill="#3F3D56" fill-rule="nonzero" points="143.667 103.06 155.714 103.06 155.714 111.962 143.667 111.962" transform="rotate(1.99 149.69 107.51)"/>
    <polygon fill="#3F3D56" fill-rule="nonzero" points="238.418 106.338 250.466 106.338 250.466 115.24 238.418 115.24" transform="rotate(-178.01 244.442 110.789)"/>
    <path fill="#FBBEBE" fill-rule="nonzero" d="M87.4233432 325.969337C86.1981102 326.118877 85.0101112 326.489185 83.9169139 327.062315 82.4332344 327.967359 81.5182987 329.564787 80.8654797 331.177052 79.2284866 335.222552 78.8872404 339.663699 78.818002 344.035608 78.7586548 347.556874 78.8773492 351.162216 80.1384768 354.446093 80.4843821 355.485652 81.0844771 356.422345 81.884273 357.171118 82.5878331 357.724476 83.4026749 358.119244 84.272997 358.328388 86.1523244 358.822948 88.3333333 358.822948 89.8714144 357.636004 91.5825915 356.295747 92.0128586 353.936696 92.3738872 351.795252 92.8684471 348.907023 93.5558853 345.860534 95.702275 343.847676 97.2947577 342.363996 99.5746785 341.622156 100.731949 339.782394 102.111771 337.596439 101.384768 334.742829 100.504451 332.309594 99.7378833 330.20277 98.6152324 325.924827 96.4094955 324.846686 94.2037587 323.768546 89.7181009 325.553907 87.4233432 325.969337zM168.7636 336.330366C168.096829 338.688789 166.914362 340.869597 165.301682 342.715134 164.312562 343.84273 163.10089 345.212661 163.620178 346.612265 163.831379 347.086069 164.145642 347.506776 164.540059 347.843719 171.790307 354.940653 181.933729 358.392681 191.998022 359.648863 192.15995 359.692784 192.330654 359.692784 192.492582 359.648863 192.789318 359.515331 192.858556 359.154303 192.898121 358.822948 193.05883 357.774006 193.05883 356.706706 192.898121 355.657765 192.403561 353.184965 190.252226 351.468843 188.145401 350.113749 186.038576 348.758655 183.733927 347.443126 182.556874 345.232443 181.073195 342.48269 181.711177 338.902077 179.965381 336.330366 178.55094 334.238378 175.924827 333.363007 173.432245 332.952522 172.566766 332.818991 170.727003 331.869436 169.970326 332.309594 169.198813 332.754698 169.025717 335.469832 168.7636 336.330366z"/>
    <path fill="#3F3D56" fill-rule="nonzero" d="M86.4342235 325.712166C86.4375712 325.207395 86.0602873 324.781085 85.5588526 324.723046 85.0746944 324.673343 84.5855954 324.735961 84.1295747 324.906034 82.9954567 325.214024 81.8373772 325.425787 80.6676558 325.53907 79.2779426 325.672601 77.8585559 325.667656 76.5084075 326.03363 75.1582591 326.399604 73.8377844 327.205737 73.2888229 328.506429 73.0218072 329.249431 72.900896 330.037033 72.9327399 330.825915 72.9047917 333.861686 73.2671403 336.888461 74.0108803 339.83185 74.0373824 340.07075 74.1723599 340.284161 74.3768546 340.410485 74.5499505 340.479723 74.7576657 340.410485 74.9307616 340.489614 75.0827877 340.579931 75.1969782 340.722229 75.2522255 340.890208 76.0880317 342.769535 76.28091 344.846686 76.5034619 346.904055 76.8331685 349.934059 77.2502473 352.954171 77.7546983 355.964392 78.0514342 357.720079 78.4174085 359.564787 79.5746785 360.90999 80.8407517 362.39367 82.8486647 363.031652 84.7823937 363.293769 88.867458 363.837784 92.992087 363.016815 97.0276954 362.176063 97.7971386 362.099226 98.5208458 361.774686 99.0900099 361.251236 99.458698 360.789189 99.635752 360.20314 99.5845697 359.614243 99.4906034 357.596439 97.636004 356.152324 95.9545005 355.04451L93.6399604 353.486647C93.4784803 353.397402 93.3397162 353.272176 93.2344214 353.120673 93.1247196 352.889854 93.0851691 352.631916 93.1206726 352.378833L93.2690406 349.411474C90.1364706 349.461169 87.2854308 351.230714 85.8506429 354.015826 85.529179 354.653808 85.2274975 355.400593 84.5598417 355.647873 83.7339268 355.959446 82.8140455 355.262117 82.537092 354.426311 82.3444695 353.563242 82.3699657 352.665776 82.611276 351.815035 83.9663699 344.554896 83.6498516 337.091988 84.4757666 329.75272 84.526817 328.929158 84.7799004 328.130841 85.2126607 327.428289 85.6132542 326.874382 86.3600396 326.389713 86.4342235 325.712166zM187.443126 353.862512C187.784372 354.426311 188.313551 354.851632 188.630069 355.435213 188.946588 356.018793 188.941642 356.869436 188.372898 357.200791 188.037175 357.348714 187.663301 357.386794 187.304649 357.309594 180.043292 356.408349 173.226325 353.324935 167.754698 348.466864 166.846223 347.699082 166.041571 346.816293 165.361029 345.840752 164.723046 344.851632 164.183976 343.689416 163.095945 343.283877 162.445652 346.102991 162.113868 348.986192 162.106825 351.879327 162.106825 353.783383 162.368942 355.959446 163.926805 357.062315 164.551259 357.450062 165.236841 357.729311 165.9545 357.888229L169.352127 358.847676C169.951298 359.074076 170.599862 359.137226 171.231454 359.030663 171.632047 358.92186 171.988131 358.669634 172.398615 358.59545 172.845862 358.547921 173.298028 358.6055 173.71909 358.7636L176.65183 359.619189C177.644097 359.871794 178.614816 360.202533 179.554896 360.608309 180.390702 361.003956 181.167161 361.523244 181.983185 361.963403 183.351601 362.649741 184.772112 363.226875 186.231454 363.689416L191.394659 365.479723C192.805878 366.037035 194.281202 366.415835 195.78635 366.607319 196.824926 366.69634 197.878338 366.607319 198.907023 366.785361 199.688427 366.918892 200.445104 367.200791 201.2364 367.279921 202.540239 367.315637 203.821739 366.936382 204.896142 366.196835 205.314864 365.96277 205.67768 365.640454 205.959446 365.252226 206.701286 364.099901 206.063304 362.581602 205.336301 361.419387 203.996044 359.272997 202.319486 357.260138 200.103858 356.03363 199.203759 355.53907 198.234421 355.173096 197.309594 354.723046 194.678536 353.447082 192.68546 351.315529 190.197824 349.856578 187.848665 348.491592 186.335312 352.047478 187.443126 353.862512z"/>
    <path fill="#FBBEBE" fill-rule="nonzero" d="M114.925816,145.994065 C112.198284,147.868002 109.073146,149.083521 105.796241,149.545005 C104.082152,149.758418 102.355171,149.850964 100.628091,149.821958 C93.4264871,149.813306 86.2377726,149.212868 79.1345203,148.026706 C81.9634026,144.910979 84.8219585,141.597428 85.8902077,137.512364 C86.4195543,135.357559 86.5286989,133.120934 86.2116716,130.924827 C85.7832996,128.107407 85.1114801,125.332428 84.2037587,122.631058 C87.2335012,122.793528 90.2713526,122.715804 93.2888229,122.398615 C95.0098912,122.225519 99.223541,120.657765 100.707221,121.844708 C102.096934,122.947577 101.048467,126.849654 101.023739,128.649852 C101.023739,128.714144 101.023739,128.778437 101.023739,128.84273 C101.101539,131.575417 101.690319,134.269377 102.759644,136.785361 C104.935707,141.65183 109.589515,145.647873 114.925816,145.994065 Z"/>
    <path fill="#000" fill-rule="nonzero" d="M101.043521,128.625124 C96.6583173,131.489945 91.2488288,132.3194 86.206726,130.900099 C85.778354,128.082679 85.1065345,125.3077 84.1988131,122.60633 C87.2285556,122.7688 90.266407,122.691076 93.2838773,122.373887 C95.0049456,122.200791 99.2185955,120.633037 100.702275,121.81998 C102.116716,122.922849 101.068249,126.824926 101.043521,128.625124 Z" opacity=".1"/>
    <circle cx="91.133" cy="112.631" r="18.101" fill="#FBBEBE" fill-rule="nonzero"/>
    <path fill="#6C63FF" fill-rule="nonzero" d="M167.932931,204.223541 C167.952768,207.196267 166.401436,209.958578 163.852621,211.488625 C162.453316,212.223263 160.953598,212.748165 159.401583,213.046489 C151.122651,215.024728 142.64095,216.65183 134.139466,216.167161 C132.299703,216.063304 130.430267,215.845697 128.778437,215.039565 C127.126607,214.233432 125.717112,212.725025 125.469832,210.905045 C125.458754,210.454725 125.370082,210.009691 125.207715,209.589515 C124.880068,209.125699 124.450299,208.743307 123.951533,208.47181 C122.391397,207.273463 121.650539,205.290804 122.042532,203.363007 C121.008902,203.822948 119.930762,202.784372 119.446093,201.760633 C118.961424,200.736894 118.580613,199.500495 117.542038,199.070227 C116.834817,198.768546 116.018793,198.946588 115.272008,198.753709 C114.080119,198.447082 113.353116,197.27003 112.512364,196.389713 C110.796241,194.554896 108.363007,193.605341 106.117705,192.477745 C99.4559842,189.119683 94.0257171,183.79822 88.7091988,178.565776 C86.0336301,175.929773 83.3382789,173.273986 81.2166172,170.158259 C80.6181998,169.282888 80.0791296,168.382789 79.5697329,167.457962 C77.9612666,164.374013 76.5666199,161.183181 75.3956479,157.908012 C74.7230465,156.15727 74.0405539,154.307616 74.3175074,152.467854 C74.3422354,152.299703 74.3768546,152.131553 74.4164194,151.973294 C74.7610521,150.777906 75.317158,149.653969 76.0583581,148.654797 C77.8981207,145.949555 80.3115727,143.387735 83.4767557,142.556874 C86.6419387,141.726014 89.8021761,142.72997 93.016815,143.412463 C94.0842502,143.649994 95.1664977,143.815223 96.256182,143.907023 C99.6636993,144.149357 103.036597,143.234421 106.330366,142.324431 L109.92087,141.335312 C111.721068,140.840752 112.621167,138.664688 114.441147,138.283877 C115.254215,138.16688 116.082266,138.208871 116.879327,138.407517 C120.573689,139.109792 124.297725,140.014837 127.546983,141.894164 C128.270376,142.314091 128.962871,142.78512 129.619189,143.30366 C131.933729,145.133531 133.7636,147.571711 134.436202,150.420376 C135.178042,153.55094 134.480712,156.894164 135.232443,160.024728 C135.845697,162.611276 137.398615,164.866469 138.92186,167.047478 L147.759644,179.668645 C149.732244,182.638786 151.905106,185.470942 154.263106,188.145401 C159.000989,193.30366 167.814045,197.205737 167.932931,204.223541 Z"/>
    <path fill="#FBBEBE" fill-rule="nonzero" d="M144.332344,83.239367 C144.698318,81.5133531 144.970326,79.7032641 145.924827,78.214639 C146.577354,77.2786947 147.365777,76.4452667 148.264095,75.7418398 C149.782394,74.4609298 151.394659,73.2294758 153.278932,72.6063304 C155.163205,71.983185 157.378833,72.0672601 158.961424,73.264095 C160.544016,74.4609298 161.211672,76.5232443 161.458952,78.4915925 C161.795252,81.1968348 161.458952,84.0454995 160.118694,86.40455 C158.585559,89.0801187 155.924827,90.8555885 153.689416,93.0019782 C152.071508,94.5528653 150.663271,96.3085898 149.500495,98.2245302 C148.972159,99.2237858 148.331696,100.159593 147.591494,101.013848 C146.830301,101.87569 145.705368,102.325296 144.559842,102.225519 C143.610287,102.072206 142.828882,101.409496 142.087043,100.776459 C141.172107,99.975272 138.704253,98.5459941 138.625124,97.2749753 C138.565776,96.2462908 140.489614,93.9119683 140.959446,92.9475767 C142.420569,89.8385325 143.551071,86.5846093 144.332344,83.239367 Z"/>
    <path fill="#3F3D56" fill-rule="nonzero" d="M207.947577,292.912957 C205.672601,297.111771 203.18002,301.20178 201.152324,305.524233 C199.970326,308.051434 198.946588,310.652819 197.631058,313.110781 C196.196835,315.791296 194.431256,318.283877 192.93274,320.934718 C189.159248,327.616222 187.057369,335.153314 185.113749,342.576657 C179.67705,341.762402 174.446253,339.915844 169.703264,337.136499 C169.3818,336.948566 169.075173,336.750742 168.778437,336.538081 C167.510151,335.629226 166.449748,334.460929 165.667656,333.110781 C167.462908,326.320475 169.307616,319.416419 172.962413,313.417409 C174.154303,311.439169 175.519288,309.634026 176.745796,307.705242 C180.301682,302.116716 181.03363,295.064293 185.093966,289.83185 C185.890426,288.749234 185.890426,287.274505 185.093966,286.191889 C184.624135,285.583581 183.877349,285.004946 184.015826,284.253215 C184.119683,283.704253 184.693373,283.209693 184.470821,282.695351 C184.366963,282.448071 184.114738,282.31454 183.916914,282.136499 C183.22453,281.498516 183.313551,280.410485 183.254204,279.475767 C183.10089,277.106825 181.681503,275.024728 180.286845,273.090999 C180.008642,272.632567 179.640153,272.235473 179.203759,271.923838 C178.837784,271.701286 178.402572,271.602374 178.036597,271.374876 C176.740851,270.563798 176.834817,268.67458 176.211672,267.274975 C175.400593,265.430267 173.358061,264.490603 172.017804,262.992087 C170.311573,261.088032 169.87636,258.432245 168.061325,256.765579 C167.878279,256.585705 167.681509,256.420353 167.472799,256.271019 C168.372898,259.065282 168.461919,262.047478 168.526212,264.990109 C168.699308,275.074184 166.177052,285.514342 167.35905,295.534125 C168.288823,303.481701 163.402572,311.414441 156.454006,315.385757 C153.783383,316.909001 150.86548,317.927794 147.967359,318.961424 C143.620178,320.499505 139.287834,322.087043 135.024728,323.867458 C132.01121,325.113749 129.043851,326.457303 126.122651,327.898121 C122.511483,329.650822 118.996728,331.595576 115.593472,333.724036 C111.409496,336.384768 107.225519,339.09001 104.253215,343.061325 C101.379822,342.982196 98.7487636,341.256182 96.9287834,339.030663 C95.1088032,336.805143 93.9614243,334.085064 92.9179031,331.434224 C91.9930762,329.13452 91.0830861,326.760633 91.0138477,324.282888 C91.0391197,323.739583 91.3736794,323.258894 91.8743818,323.046489 L111.740851,312.51731 L115.454995,310.53907 C123.590504,306.221563 132.017804,302.230465 140.153314,297.917903 C140.702275,298.081108 141.142433,297.457962 141.305638,296.928783 C141.468843,296.399604 141.582591,295.717112 142.096934,295.479723 C142.354105,295.356083 142.690406,295.361029 142.883284,295.143422 C143.008968,294.948742 143.058285,294.714487 143.021761,294.485658 C142.759644,290.529179 139.92087,286.933729 140.489614,283.031652 C140.731949,281.369931 141.587537,279.732938 141.216617,278.086053 C140.9545,276.953511 140.143422,276.038576 139.703264,274.965381 C138.714144,272.566766 139.703264,269.678536 138.635015,267.329377 C137.925154,265.784725 137.442093,264.145651 137.200791,262.462908 C136.689184,259.111558 135.665004,255.858869 134.164194,252.818991 C133.441889,251.281936 132.500691,249.857645 131.369931,248.590504 C130.771513,247.947577 130.098912,247.373887 129.530168,246.706231 C127.804154,244.658754 127.166172,241.928783 126.676558,239.287834 C125.78635,234.50544 125.192878,229.545005 126.28091,224.807122 C126.656775,223.189911 127.230465,221.587537 127.205737,219.930762 C127.181009,217.739862 126.216617,215.182987 127.739862,213.600396 C128.370775,213.034044 129.137438,212.64049 129.965381,212.457962 C133.466864,211.414441 137.111771,210.939664 140.736894,210.479723 L157.329377,208.308605 C159.228487,208.05638 161.172107,207.814045 162.848665,206.869436 C165.098912,205.628091 166.592483,203.328388 167.507418,200.934718 C170.420376,203.061325 171.508408,207.02275 173.832839,209.767557 C174.965381,211.107814 176.364985,212.1909 177.60633,213.422354 C179.124128,215.021013 180.514771,216.735754 181.765579,218.55094 C185.227498,223.30366 188.689416,228.090999 191.162216,233.422354 C192.453017,236.191889 193.452028,239.080119 194.480712,241.953511 C198.531157,253.264095 205.133531,264.000989 207.873393,275.692384 C208.545994,278.55094 210.29179,281.132542 210.563798,284.055391 C210.870425,287.156281 209.436202,290.153314 207.947577,292.912957 Z"/>
    <path fill="#000" fill-rule="nonzero" d="M121.053412 198.976261C120.646888 199.727928 120.435998 200.569787 120.440158 201.424332 120.811078 199.594461 123.328388 198.580613 123.491592 196.770524 123.565776 195.934718 123.412463 195.974283 122.898121 196.414441 122.116716 197.091988 121.77547 198.259149 121.053412 198.976261zM128.724036 204.535114C128.192516 204.983981 127.795432 205.57105 127.576657 206.231454 127.148628 207.161423 127.066212 208.213538 127.344214 209.198813 127.715134 209.025717 127.838773 208.570722 127.952522 208.175074 128.13467 207.55877 128.399175 206.969873 128.738872 206.424332 129.035608 205.929773 130.405539 204.826904 130.400607 204.307616 130.385757 203.511375 129.09001 204.253215 128.724036 204.535114zM129.609298 143.269041C128.445984 144.270137 127.163636 145.123928 125.791296 145.811078 122.205737 147.626113 118.234421 148.585559 114.624135 150.346192 112.843058 151.258903 111.112849 152.267641 109.441147 153.367953L98.7091988 160.16815C97.8470048 160.662007 97.0523978 161.265443 96.3452028 161.963403 95.0544016 163.338279 95.0593472 165.756677 93.8724036 167.230465 92.6854599 168.704253 90.6379822 169.535114 88.6646884 169.634323 86.6880257 169.645738 84.7246016 169.310968 82.8635015 168.644906 81.736364 168.307726 80.6299511 167.904793 79.5499505 167.43818 78.4204696 166.958777 77.351438 166.347902 76.3649852 165.6182 74.4510386 164.174085 72.9030663 162.072206 72.6162216 159.683482 72.4872757 158.044315 72.7046443 156.396357 73.2542038 154.846686 73.5512934 153.838524 73.9334781 152.857418 74.396637 151.913947 74.6604317 151.37729 74.964638 150.861462 75.3066271 150.37092 77.7794263 146.879327 82.1167161 145.242334 86.3155292 144.436202 88.5212661 144.005935 90.7665678 143.743818 92.9970326 143.367953 94.0644678 143.605484 95.1467153 143.770713 96.2363996 143.862512 99.6439169 144.104847 103.016815 143.189911 106.310584 142.279921L109.901088 141.290801C111.701286 140.796241 112.601385 138.620178 114.421365 138.239367 115.234433 138.12237 116.062483 138.16436 116.859545 138.363007 120.553907 139.065282 124.277943 139.970326 127.527201 141.849654 128.254298 142.272359 128.950118 142.746707 129.609298 143.269041L129.609298 143.269041z" opacity=".1"/>
    <path fill="#6C63FF" fill-rule="nonzero" d="M138.363007,95.2274975 C137.903066,99.6043521 134.208704,102.818991 131.933729,106.602374 C130.840752,108.437191 130.074184,110.450049 129.09001,112.349159 C127.962181,114.419751 126.706881,116.41832 125.331355,118.333333 L121.310584,124.169139 C118.946588,127.601385 116.557864,131.063304 113.536103,133.936696 C108.269041,134.83185 103.852621,138.743818 98.8575668,140.642928 C94.8615232,142.161227 90.504451,142.368942 86.3105836,143.184965 C82.1167161,144.000989 77.7695351,145.657765 75.3066271,149.119683 C74.3895155,150.485085 73.6950761,151.987478 73.2492582,153.570722 C72.6965004,155.117865 72.480671,156.765251 72.6162216,158.402572 C72.9179031,160.78635 74.446093,162.883284 76.3600396,164.33729 C78.2739862,165.791296 80.5637982,166.65183 82.8585559,167.363996 C84.720274,168.027697 86.6832795,168.362395 88.6597428,168.353304 C90.6379822,168.254204 92.6458952,167.492582 93.8724036,165.949555 C95.098912,164.406528 95.0395648,162.057369 96.3452028,160.682493 C97.0541816,159.984484 97.8504285,159.381065 98.7141444,158.88724 L109.446093,152.087043 C111.116641,150.993628 112.845186,149.991501 114.624135,149.085064 C118.234421,147.319486 122.205737,146.364985 125.791296,144.549951 C129.376855,142.734916 132.715134,139.737883 133.432245,135.781405 C135.6182,123.625124 144.030663,113.377844 151.2364,103.338279 C150.999011,103.288823 151.073195,102.749753 150.984174,102.522255 C150.064293,100.138477 148.016815,98.3432245 145.712166,97.2106825 C143.407517,96.0781405 140.835806,95.7616222 138.363007,95.2274975 Z"/>
    <path fill="#3F3D56" fill-rule="nonzero" d="M100.420376,95.3165183 C100.554168,93.9980189 100.294303,92.6694377 99.6735905,91.4985163 C98.4817013,89.520277 95.9841741,88.8229476 93.7388724,88.3580613 C91.5661062,87.9129575 89.3834487,87.5304979 87.1909001,87.2106825 C85.3907023,86.9485658 83.5459941,86.7161227 81.7754698,87.1216617 C79.3026706,87.6607319 77.2898121,89.297725 75,90.3165183 C72.2947577,91.5232443 69.297725,91.8397626 66.4094955,92.5074184 C63.5212661,93.1750742 60.5637982,94.3076162 58.7537092,96.6518299 C57.3788328,98.4322453 56.8298714,100.707221 56.4193867,102.922849 C52.992087,121.414441 56.6815035,140.380811 57.3837784,159.174085 C57.6557864,166.488625 57.3244313,174.307616 53.1454006,180.316518 L65.3165183,179.995054 C68.4322453,179.915925 71.7804154,179.75272 74.2185955,177.828882 C76.3748764,176.137488 77.3936696,173.412463 78.3184965,170.830861 C79.0454995,168.79822 79.7774481,166.726014 79.8714144,164.569733 C80.0642928,160.153314 77.5568744,155.816024 78.3877349,151.468843 C78.9960435,148.22453 81.355094,145.603363 83.8822948,143.47181 C86.4094955,141.340257 89.2185955,139.515331 91.2611276,136.904055 C94.9109792,132.289812 95.6083086,125.984174 95.1533136,120.12364 C94.8813056,116.636993 94.2581602,113.150346 94.5598417,109.663699 C94.7873393,107.057369 95.6132542,104.366963 97.3194857,102.334322 C99.2383778,100.029674 100.252226,98.5855589 100.420376,95.3165183 Z"/>
    <path fill="#000" fill-rule="nonzero" d="M99.6735905 91.4985163C98.5014837 89.5499505 96.0682493 88.8476756 93.8377844 88.3827893 95.0234936 88.8047044 96.0380928 89.603875 96.7260138 90.6577646 97.3489988 91.8278803 97.6089999 93.1571573 97.4727992 94.4757666 97.3046489 97.7398615 96.2908012 99.1839763 94.3521266 101.493571 92.6458952 103.526212 91.8199802 106.211672 91.5924827 108.822948 91.2908012 112.309594 91.9139466 115.796241 92.1859545 119.282888 92.6409496 125.143422 91.9436202 131.44906 88.2987141 136.063304 86.2512364 138.654797 83.4421365 140.514342 80.9198813 142.631058 78.3976261 144.747774 76.0286845 147.383778 75.4203759 150.628091 74.6043521 154.975272 77.1117705 159.312562 76.9040554 163.728981 76.810089 165.885262 76.0731949 167.957468 75.3461919 169.990109 74.4263106 172.571711 73.4025717 175.29179 71.2462908 176.983185 68.7734916 178.907023 65.4451039 179.075173 62.3442136 179.154303L53.7240356 179.3818C53.5311573 179.698318 53.3333333 180.014837 53.1206726 180.316518L65.2917903 179.995054C68.4075173 179.915925 71.7556874 179.75272 74.1938675 177.828882 76.3501484 176.137488 77.3689416 173.412463 78.2937685 170.830861 79.0207715 168.79822 79.7527201 166.726014 79.8466864 164.569733 80.0395648 160.153314 77.5321464 155.816024 78.3630069 151.468843 78.9713155 148.22453 81.330366 145.603363 83.8575668 143.47181 86.3847676 141.340257 89.1938675 139.515331 91.2363996 136.904055 94.8862512 132.289812 95.5835806 125.984174 95.1285856 120.12364 94.8565776 116.636993 94.2334322 113.150346 94.5351137 109.663699 94.7626113 107.057369 95.5885262 104.366963 97.2947577 102.334322 99.2334322 100.029674 100.262117 98.5855589 100.41543 95.3165183 100.550736 93.998512 100.292598 92.6699592 99.6735905 91.4985163zM191.117705 282.087043L168.778437 336.562809C167.510151 335.653954 166.449748 334.485657 165.667656 333.135509 167.462908 326.345203 169.307616 319.441147 172.962413 313.442136 174.154303 311.463897 175.519288 309.658754 176.745796 307.72997 180.301682 302.141444 181.03363 295.089021 185.093966 289.856578 185.890426 288.773962 185.890426 287.299232 185.093966 286.216617 184.624135 285.608309 183.877349 285.029674 184.015826 284.277943 184.119683 283.728981 184.693373 283.234421 184.470821 282.720079 184.366963 282.472799 184.114738 282.339268 183.916914 282.161227 183.22453 281.523244 183.313551 280.435213 183.254204 279.500495 183.10089 277.131553 181.681503 275.049456 180.286845 273.115727 180.008642 272.657295 179.640153 272.260201 179.203759 271.948566 178.837784 271.726014 178.402572 271.627102 178.036597 271.399604 176.740851 270.588526 176.834817 268.699308 176.211672 267.299703 175.400593 265.454995 173.358061 264.515331 172.017804 263.016815 170.311573 261.11276 169.87636 258.456973 168.061325 256.790307L167.908012 256.40455 169.648863 245.895153 191.117705 282.087043z" opacity=".1"/>
  </g>
</svg>
