<svg width="640px" height="475px" viewBox="0 0 640 475" version="1.1" xmlns="http://www.w3.org/2000/svg" xmlns:xlink="http://www.w3.org/1999/xlink">
    <defs>
        <linearGradient x1="345.5%" y1="100%" x2="345.5%" y2="0%" id="linearGradient-1">
            <stop stop-color="#808080" stop-opacity="0.251" offset="0%"></stop>
            <stop stop-color="#808080" stop-opacity="0.122" offset="54%"></stop>
            <stop stop-color="#808080" stop-opacity="0.102" offset="100%"></stop>
        </linearGradient>
    </defs>
    <g id="Page-1" stroke="none" stroke-width="1" fill="none" fill-rule="evenodd">
        <g id="intro-section">


         <circle id="Ellipse_10" fill="#584DFC" fill-rule="nonzero" opacity="0.1" cx="12.429" cy="76.494" r="12.429">
            <animateMotion dur="27s" repeatCount="indefinite"
      path="M61.7402333,2.60248561 C44.1418829,2.14591871 53.0044805,2.43287664 35.4010257,2.60248561 C18.0244877,2.76990825 3.27091094,5.0535093 1.03033407,24.3266929 C0.673171216,27.3989665 3.42865914,36.2413112 11.4953502,37.2873288 C29.246965,39.5892022 33.1393821,31.6288544 44.720017,43.457265 C48.613829,47.4343878 50.603815,53.0431448 54.5969414,56.9205434 C57.2198955,59.4674798 60.689685,61.1230582 64.144635,62.3189235 C67.8470706,63.6004512 71.8279944,64.0343547 75.7405966,64.2390177 C90.3906261,65.005341 123.525472,49.2627554 112.430983,29.4335403 C103.714739,13.8549685 110.584069,16.6159432 95.0982333,6.63870459 C79.6123976,-3.338534 79.3385837,3.05905252 61.7402333,2.60248561 Z" />
            </circle>
            <circle id="Ellipse_11" fill="#584DFC" fill-rule="nonzero" opacity="0.1" cx="349.785" cy="24.123" r="12.429">
            <animateMotion dur="40s" repeatCount="indefinite"
      path="M4.562,50.5346856 C-3.01747457,60.015415 1.63097629,69.5243536 14.6190688,73.4375431 C39.165,80.8330001 45.724,73.4375431 68.8681559,73.4375431 C72.4740755,73.4375431 83.5005756,80.8330001 86.7482623,82.3443675 C95.4712345,86.403754 103.344395,92.380589 112.458424,95.4633358 C130.022716,101.404316 157.615897,102.791867 172.833324,89.783476 C201.930028,64.91059 197.745745,34.3458427 161.772676,21.5924862 C156.355138,19.6718329 144.82303,17.068704 140.342515,19.3305951 C135.862,21.5924862 131.370574,30.8618379 130.071016,34.977855 C126.766369,45.4444776 107.545568,43.3490885 100.573443,41.4267578 C68.9147535,32.6979308 70.4193068,-8.71067936 21.5681009,3.47222541 C-3.46730298,9.71575483 23.2260439,21.5924862 15.42,34.977855 L4.562,50.5346856 Z" />
            </circle>
            <circle id="Ellipse_12" fill="#584DFC" fill-rule="nonzero" opacity="0.1" cx="496.957" cy="73.224" r="12.429">
              <animateMotion dur="28s" repeatCount="indefinite"
      path="M116.791016,62.8183594 C107.332361,94.2404711 30.1814537,105.222384 9.04492188,79.9492188 C-13.0608368,53.5171391 15.7307708,14.2015553 42.0117188,5.52734375 C73.6931744,-4.92934329 95.5332031,1.15429687 113.138672,41.7597656 C115.306968,48.2334368 118.966903,55.589955 116.791016,62.8183594 Z" />
            </circle>
            <circle id="Ellipse_13" fill="#584DFC" fill-rule="nonzero" opacity="0.1" cx="37.281" cy="145.064" r="20.83">
             <animateMotion dur="39s" repeatCount="indefinite"
      path="M31.2653625,64.4813631 C35.4227527,52.3636394 36.5922671,38.356235 38.4306721,24.9937712 C41.0685323,5.82046072 34.3782537,-2.75022551 21.7154991,2.53570598 C11.4304381,6.82909472 2.39779434,33.7689418 1,58.891979 C1.48319109,95.916502 16.9901618,106.089904 31.2653625,64.4813631 Z" />
            </circle>
            <circle id="Ellipse_14" fill="#584DFC" fill-rule="nonzero" opacity="0.1" cx="251.692" cy="408.642" r="20.83">
             <animateMotion dur="24s" repeatCount="indefinite"
      path="M70.2695743,38.8494801 C88.7680721,39.7705765 90.2832155,48.2208404 106.213537,40.7092572 C125.415641,31.654939 101.100969,8.30467329 91.536377,4.71754366 C67.2998017,-4.37220497 75.4567863,4.54094801 46.8866469,6.26819566 C37.3913449,6.84224739 27.9303471,4.54962981 18.4245175,4.18976907 C15.754768,4.08870077 12.9429187,3.95389153 10.4400419,4.8884421 C-7.2374942,11.4890672 3.07252789,33.9182129 14.3681928,41.5436437 C22.6544215,47.1374768 35.0997505,41.5568136 44.1584195,41.5436437 C50.4649069,40.627159 63.9047266,38.532555 70.2695743,38.8494801 Z" />
            </circle>
            <circle id="Ellipse_15" fill="#584DFC" fill-rule="nonzero" opacity="0.1" cx="529.172" cy="391.633" r="20.83">
             <animateMotion dur="22s" repeatCount="indefinite"
      path="M55.2812546,36.5337225 C52.6563923,20.1761529 41.4013793,3.00579118 25.4381005,1.22495875 C15.9785064,0.16966477 0.975220698,-1.50025445 0.606983045,14.0752662 C0.480427236,19.4282566 2.84608431,27.4469294 3.75125291,32.7085347 C2.08202344,61.4279298 60.4210521,68.5638194 55.2812546,36.5337225 Z" />
            </circle>


            <path id="Path_22" fill="#584DFC" fill-rule="nonzero" opacity="0.1" d="M202.673,0.092 C162.508,1.672 123.987,25.835 105.073,61.307 C89.047,91.36 87.073,126.584 80.173,159.935 C71.657,201.035 55.373,240.072 37.973,278.262 C28.63,298.776 18.773,319.733 17.241,342.223 C15.109,373.437 30.032,404.547 53.441,425.314 C76.85,446.081 107.925,457.039 139.12,459.429 C155.72,460.699 173.068,459.521 187.82,451.792 C203.415,443.621 214.792,428.847 230.45,420.792 C244.964,413.322 261.944,412.27 278.24,413.247 C299.582475,414.527989 320.612742,418.99824 340.631,426.509 C363.408,435.065 384.588,447.448 407.314,456.125 C430.04,464.802 455.431,469.634 478.663,462.4 C500.463,455.6 517.736,439.093 533.25,422.372 C558.778481,394.919359 582.061618,365.461384 602.875,334.282 C616.901,313.274 629.956,291.105 636.162,266.614 C648.016,219.794 631.697,166.968 595.503,135.025 C565.532,108.518 525.286,97.025 485.891,90.025 C449.967,83.664 408.429,83.267 375.36,66.684 C343.82,50.871 315.125,31.35 282.073,17.905 C256.744,7.605 229.985,-0.989 202.673,0.092 Z">
                           <animate repeatCount="indefinite" attributeName="d" dur="19s" values="
               M202.673,0.092 C162.508,1.672 123.987,25.835 105.073,61.307 C89.047,91.36 87.073,126.584 80.173,159.935 C71.657,201.035 55.373,240.072 37.973,278.262 C28.63,298.776 18.773,319.733 17.241,342.223 C15.109,373.437 30.032,404.547 53.441,425.314 C76.85,446.081 107.925,457.039 139.12,459.429 C155.72,460.699 173.068,459.521 187.82,451.792 C203.415,443.621 214.792,428.847 230.45,420.792 C244.964,413.322 261.944,412.27 278.24,413.247 C299.582475,414.527989 320.612742,418.99824 340.631,426.509 C363.408,435.065 384.588,447.448 407.314,456.125 C430.04,464.802 455.431,469.634 478.663,462.4 C500.463,455.6 517.736,439.093 533.25,422.372 C558.778481,394.919359 582.061618,365.461384 602.875,334.282 C616.901,313.274 629.956,291.105 636.162,266.614 C648.016,219.794 631.697,166.968 595.503,135.025 C565.532,108.518 525.286,97.025 485.891,90.025 C449.967,83.664 408.429,83.267 375.36,66.684 C343.82,50.871 315.125,31.35 282.073,17.905 C256.744,7.605 229.985,-0.989 202.673,0.092 Z;
               M190.662469,41.7695313 C158.175538,9.03883342 99.4108935,28.593 81.315,64.065 C65.9821889,94.118 64.7125473,90.883 58.111,124.234 C49.9633512,165.334 91.0856675,189.320289 81.315,232.958659 C76.5476393,254.250945 33.064,254.905023 24.858,281.665009 C15.5242553,312.1026 9.3950389,344.554216 24.858,372.1405 C40.3209611,399.726784 80.9953091,418.413 110.841,420.803 C126.722983,422.073 150.978576,425.76057 176.219314,420.803 C201.460052,415.84543 212.147048,396.862342 242.263672,393.917 C272.380296,390.971658 283.788234,389.453158 312.522,392.487658 C341.255766,395.522158 356.72292,411.404487 370.246839,423.859375 C383.770759,436.314263 406.071826,451.473282 433.355865,458.695312 C460.639905,465.917343 490.966237,469.697 513.193359,462.463 C535.420482,455.229 559.386,437.049859 559.386,405.68543 C559.386,374.321 539.472881,320.880512 559.386,289.701129 C572.805319,268.693129 608.269466,238.920223 614.207031,214.429223 C625.548298,167.609223 609.272995,111.774698 574.644531,79.8316978 C545.969897,53.3246978 486.615798,24.123 452.307153,24.123 C417.998507,24.123 403.961003,30.8373125 365.801092,55.6953125 C327.641182,80.5533125 318.869203,85.653 281.890625,85.653 C232.581797,79.7403022 206.143203,57.3664262 190.662469,41.7695313 Z;
               M202.673,0.092 C162.508,1.672 123.987,25.835 105.073,61.307 C89.047,91.36 87.073,126.584 80.173,159.935 C71.657,201.035 55.373,240.072 37.973,278.262 C28.63,298.776 18.773,319.733 17.241,342.223 C15.109,373.437 30.032,404.547 53.441,425.314 C76.85,446.081 107.925,457.039 139.12,459.429 C155.72,460.699 173.068,459.521 187.82,451.792 C203.415,443.621 214.792,428.847 230.45,420.792 C244.964,413.322 261.944,412.27 278.24,413.247 C299.582475,414.527989 320.612742,418.99824 340.631,426.509 C363.408,435.065 384.588,447.448 407.314,456.125 C430.04,464.802 455.431,469.634 478.663,462.4 C500.463,455.6 517.736,439.093 533.25,422.372 C558.778481,394.919359 582.061618,365.461384 602.875,334.282 C616.901,313.274 629.956,291.105 636.162,266.614 C648.016,219.794 631.697,166.968 595.503,135.025 C565.532,108.518 525.286,97.025 485.891,90.025 C449.967,83.664 408.429,83.267 375.36,66.684 C343.82,50.871 315.125,31.35 282.073,17.905 C256.744,7.605 229.985,-0.989 202.673,0.092 Z
               ">
        </animate>
            </path>
            <polygon id="Path_23" fill="#464A5F" fill-rule="nonzero" points="536.695 331.506 537.655 332.471 538.086 330.81 537.626 329.172 536.442 329.172"></polygon>
            <polygon id="Path_24" fill="#000000" fill-rule="nonzero" opacity="0.1" points="536.695 331.506 537.655 332.471 538.086 330.81 537.626 329.172 536.442 329.172"></polygon>
            <polygon id="Path_25" fill="#9C9CA1" fill-rule="nonzero" points="536.695 331.506 537.626 332.5 536.695 333.592 535.695 333.219 535.448 332.736"></polygon>
            <polygon id="Path_26" fill="#000000" fill-rule="nonzero" opacity="0.1" points="536.695 331.506 537.626 332.5 536.695 333.592 535.695 333.219 535.448 332.736"></polygon>
            <path d="M359.82,156.947 L254.733,262.034 C250.799012,265.967132 250.786046,272.340896 254.704,276.29 L415.783,438.651 C419.704118,442.601751 426.082548,442.635294 430.045,438.726 L536.701,333.598 L359.82,156.947 Z" id="Path_27" fill="#9C9CA1" fill-rule="nonzero"></path>
            <path d="M359.82,156.947 L254.733,262.034 C250.799012,265.967132 250.786046,272.340896 254.704,276.29 L415.783,438.651 C419.704118,442.601751 426.082548,442.635294 430.045,438.726 L536.701,333.598 L359.82,156.947 Z" id="Path_28" fill="#000000" fill-rule="nonzero" opacity="0.1"></path>
            <path d="M359.82,154.861 L254.733,259.948 C250.798348,263.881247 250.785382,270.255779 254.704,274.205 L415.783,436.559 C419.702736,440.511144 426.081174,440.546922 430.045,436.639 L536.701,331.483 L359.82,154.861 Z" id="Path_29" fill="#9C9CA1" fill-rule="nonzero"></path>
            <path d="M370.846,80.993 L361.204,154.168 L538.085,330.811 L548.244,256.432 C548.710237,253.057823 547.550674,249.662227 545.118,247.278 L374.455,79.741 C373.875281,79.1780021 373.027667,78.9899718 372.26426,79.2550174 C371.500852,79.520063 370.952117,80.1928885 370.846,80.994 L370.846,80.993 Z" id="Path_30" fill="#464A5F" fill-rule="nonzero"></path>
            <path d="M370.846,80.993 L361.204,154.168 L538.085,330.811 L548.244,256.432 C548.710237,253.057823 547.550674,249.662227 545.118,247.278 L374.455,79.741 C373.875281,79.1780021 373.027667,78.9899718 372.26426,79.2550174 C371.500852,79.520063 370.952117,80.1928885 370.846,80.994 L370.846,80.993 Z" id="Path_31" fill="#000000" fill-rule="nonzero" opacity="0.1"></path>
            <path d="M369.456,81.688 L359.814,154.861 L536.695,331.506 L546.854,257.127 C547.320073,253.752839 546.160536,250.357315 543.728,247.973 L373.065,80.436 C372.485281,79.8730021 371.637667,79.6849718 370.87426,79.9500174 C370.110852,80.215063 369.562117,80.8878885 369.456,81.689 L369.456,81.688 Z" id="Path_32" fill="#464A5F" fill-rule="nonzero"></path>
            <g id="Group_301" opacity="0.1" transform="translate(316.474000, 186.895000)" fill="#000000" fill-rule="nonzero">
                <path d="M43.817,1.593 L37.417,8.046 C37.0353984,8.42665513 36.8209371,8.94350268 36.8209371,9.4825 C36.8209371,10.0214973 37.0353984,10.5383449 37.417,10.919 L43.899,17.567 C44.6771148,18.3749587 45.9624505,18.4004596 46.772,17.624 L53.139,11.613 C53.943511,10.8514307 53.9880341,9.58519464 53.239,8.769 L46.757,1.678 C46.3858732,1.26119859 45.8593868,1.01575777 45.3015395,0.999484067 C44.7436921,0.983210366 44.2037931,1.19754225 43.809,1.592 L43.817,1.593 Z" id="Path_33"></path>
                <path d="M55.735,13.517 L49.362,19.964 C48.5859004,20.7531576 48.5859004,22.0188424 49.362,22.808 L55.844,29.456 C56.2168941,29.8454946 56.7295507,30.0704496 57.2686626,30.0811455 C57.8077745,30.0918415 58.3289504,29.8873976 58.717,29.513 L65.084,23.513 C65.90105,22.7454749 65.9457071,21.4624766 65.184,20.64 L58.684,13.566 C58.3071238,13.1548229 57.7776025,12.9169229 57.219905,12.9082207 C56.6622074,12.8995185 56.1255214,13.1207816 55.736,13.52 L55.735,13.517 Z" id="Path_34"></path>
                <path d="M68.247,26.026 L61.874,32.479 C61.1011049,33.2694666 61.1011049,34.5325334 61.874,35.323 L68.361,41.971 C69.1388357,42.7792428 70.4241778,42.8051912 71.234,42.029 L77.601,36.018 C78.405511,35.2564307 78.4500341,33.9901946 77.701,33.174 L71.219,26.083 C70.843307,25.6606119 70.308366,25.4142009 69.7431795,25.4031895 C69.1779931,25.3921781 68.6338602,25.6175659 68.242,26.025 L68.247,26.026 Z" id="Path_35"></path>
                <path d="M80.904,38.685 L74.537,45.167 C73.7641049,45.9574666 73.7641049,47.2205334 74.537,48.011 L81.025,54.659 C81.8028357,55.4672428 83.0881778,55.4931912 83.898,54.717 L90.259,48.706 C91.0687893,47.9481572 91.1174084,46.6796011 90.368,45.862 L83.852,38.742 C83.4758965,38.3306736 82.9474806,38.091702 82.3902309,38.0809275 C81.8329812,38.070153 81.2957226,38.2885196 80.904,38.685 L80.904,38.685 Z" id="Path_36"></path>
                <path d="M93.563,51.341 L87.196,57.806 C86.404011,58.5999232 86.404011,59.8850768 87.196,60.679 L93.683,67.327 C94.4611148,68.1349587 95.7464505,68.1604596 96.556,67.384 L102.917,61.373 C103.726789,60.6151572 103.775408,59.3466011 103.026,58.529 L96.544,51.438 C96.1732148,51.0099975 95.6407894,50.7559423 95.0748322,50.7369632 C94.508875,50.717984 93.9606257,50.9357994 93.562,51.338 L93.563,51.341 Z" id="Path_37"></path>
                <path d="M107.021,63.192 L99.108,71.208 C98.7460855,71.5786375 98.7460855,72.1703625 99.108,72.541 L107.078,80.706 C107.448637,81.0679145 108.040363,81.0679145 108.411,80.706 L116.324,73.236 C116.702176,72.8794142 116.722695,72.2848072 116.37,71.903 L108.406,63.192 C108.225841,63.0018663 107.975431,62.8941705 107.7135,62.8941705 C107.451569,62.8941705 107.201159,63.0018663 107.021,63.192 L107.021,63.192 Z" id="Path_38"></path>
                <path d="M119.679,75.852 L111.766,83.897 C111.404807,84.2655992 111.404807,84.8554008 111.766,85.224 L119.736,93.395 C120.106637,93.7569145 120.698363,93.7569145 121.069,93.395 L128.982,85.925 C129.360176,85.5684142 129.380695,84.9738072 129.028,84.592 L121.064,75.881 C120.887854,75.687039 120.639689,75.5740605 120.377738,75.5685756 C120.115787,75.5630907 119.863111,75.6655823 119.679,75.852 L119.679,75.852 Z" id="Path_39"></path>
                <path d="M130.885,87.055 L122.972,95.1 C122.610807,95.4685992 122.610807,96.0584008 122.972,96.427 L130.942,104.598 C131.312637,104.959915 131.904363,104.959915 132.275,104.598 L140.188,97.128 C140.566176,96.7714142 140.586695,96.1768072 140.234,95.795 L132.264,87.113 C132.091926,86.9171341 131.847189,86.8002252 131.586695,86.7894579 C131.326202,86.7786905 131.072651,86.875003 130.885,87.056 L130.885,87.055 Z" id="Path_40"></path>
                <path d="M143.434,99.606 L135.521,107.616 C135.15587,107.985322 135.15587,108.579678 135.521,108.949 L143.491,117.114 C143.860322,117.47913 144.454678,117.47913 144.824,117.114 L152.737,109.644 C153.112002,109.285985 153.13243,108.694014 152.783,108.311 L144.819,99.6 C144.638019,99.4106444 144.387142,99.3040317 144.12521,99.3051575 C143.863277,99.3063012 143.613334,99.4150835 143.434,99.606 L143.434,99.606 Z" id="Path_41"></path>
                <path d="M155.588,111.76 L147.675,119.77 C147.310411,120.139544 147.310411,120.733456 147.675,121.103 L155.645,129.274 C156.015637,129.635915 156.607363,129.635915 156.978,129.274 L164.891,121.804 C165.266002,121.445985 165.28643,120.854014 164.937,120.471 L156.944,111.789 C156.768721,111.604103 156.526767,111.496998 156.272051,111.49155 C156.017336,111.486103 155.771024,111.582766 155.588,111.76 Z" id="Path_42"></path>
                <path d="M167.74,123.89 L159.816,131.935 C159.454807,132.303599 159.454807,132.893401 159.816,133.262 L167.786,141.433 C168.156637,141.794915 168.748363,141.794915 169.119,141.433 L177.031,133.963 C177.409176,133.606414 177.429695,133.011807 177.077,132.63 L169.113,123.919 C168.937178,123.728832 168.691595,123.618321 168.43266,123.612852 C168.173725,123.607382 167.923695,123.707425 167.74,123.89 L167.74,123.89 Z" id="Path_43"></path>
                <path d="M179.894,136.067 L171.981,144.078 C171.619085,144.448637 171.619085,145.040363 171.981,145.411 L179.928,153.576 C180.290712,153.946097 180.882535,153.958972 181.261,153.605 L189.174,146.135 C189.552176,145.778414 189.572695,145.183807 189.22,144.802 L181.256,136.091 C181.080519,135.904256 180.837287,135.795961 180.581089,135.790506 C180.324892,135.78505 180.077271,135.882895 179.894,136.062 L179.894,136.067 Z" id="Path_44"></path>
                <path d="M32.25,13.166 L25.883,19.613 C25.5011522,19.9935242 25.2865208,20.5104208 25.2865208,21.0495 C25.2865208,21.5885792 25.5011522,22.1054758 25.883,22.486 L32.371,29.134 C32.7438941,29.5234946 33.2565507,29.7484496 33.7956626,29.7591455 C34.3347745,29.7698415 34.8559504,29.5653976 35.244,29.191 L41.605,23.191 C42.4279026,22.4274881 42.4766859,21.1416682 41.714,20.318 L35.192,13.218 C34.8153631,12.8092453 34.2878577,12.5724276 33.7321246,12.562605 C33.1763915,12.5527824 32.6408467,12.7708106 32.25,13.166 L32.25,13.166 Z" id="Path_45"></path>
                <path d="M6.967,38.444 L0.594,44.891 C-0.197989005,45.6849232 -0.197989005,46.9700768 0.594,47.764 L7.076,54.364 C7.84785021,55.1578456 9.1137538,55.1858878 9.92,54.427 L16.287,48.416 C17.094171,47.6556333 17.138772,46.3871819 16.387,45.572 L9.905,38.504 C9.52980812,38.0932696 9.00243287,37.8546017 8.44623842,37.8438257 C7.89004397,37.8330496 7.35381979,38.0511108 6.963,38.447 L6.967,38.444 Z" id="Path_46"></path>
                <path d="M44.168,25.084 L37.795,31.531 C37.4133984,31.9116551 37.1989371,32.4285027 37.1989371,32.9675 C37.1989371,33.5064973 37.4133984,34.0233449 37.795,34.404 L44.277,41.052 C45.0534391,41.8616649 46.3388152,41.889851 47.15,41.115 L53.511,35.076 C54.32805,34.3084749 54.3727071,33.0254766 53.611,32.203 L47.129,25.118 C46.7509691,24.7013153 46.2164904,24.4608779 45.6539143,24.4542936 C45.0913383,24.4479757 44.5514866,24.6760936 44.164,25.084 L44.168,25.084 Z" id="Path_47"></path>
                <path d="M56.677,37.599 L50.311,44.046 C49.5349004,44.8351576 49.5349004,46.1008424 50.311,46.89 L56.799,53.538 C57.1718941,53.9274946 57.6845507,54.1524496 58.2236626,54.1631455 C58.7627745,54.1738415 59.2839504,53.9693976 59.672,53.595 L66.033,47.595 C66.8559026,46.8314881 66.9046859,45.5456682 66.142,44.722 L59.66,37.631 C59.2791672,37.2124435 58.7411824,36.9714587 58.1753266,36.9658594 C57.6094707,36.9604528 57.0669009,37.1909292 56.678,37.602 L56.677,37.599 Z" id="Path_48"></path>
                <path d="M69.34,50.252 L62.973,56.705 C62.1974367,57.494377 62.1974367,58.759623 62.973,59.549 L69.46,66.197 C70.232349,66.9918069 71.5004247,67.017222 72.304,66.254 L78.671,60.254 C79.4939026,59.4904881 79.5426859,58.2046682 78.78,57.381 L72.287,50.342 C71.914028,49.9283277 71.38813,49.6851462 70.8313813,49.6689045 C70.2746327,49.6526629 69.7354528,49.8647736 69.339,50.256 L69.34,50.252 Z" id="Path_49"></path>
                <path d="M19.291,49.96 L12.919,56.407 C12.1429004,57.1961576 12.1429004,58.4618424 12.919,59.251 L19.401,65.899 C19.77403,66.2882509 20.2866409,66.5130347 20.8256709,66.523729 C21.3647009,66.5344233 21.8858242,66.3301487 22.274,65.956 L28.641,59.956 C29.45805,59.1884749 29.5027071,57.9054766 28.741,57.083 L22.259,49.998 C21.8808402,49.5793606 21.3450482,49.3376442 20.7809364,49.3310558 C20.2168247,49.3247328 19.6756413,49.5541244 19.288,49.964 L19.291,49.96 Z" id="Path_50"></path>
                <path d="M31.802,62.468 L25.437,68.917 C25.0551522,69.2975242 24.8405208,69.8144208 24.8405208,70.3535 C24.8405208,70.8925792 25.0551522,71.4094758 25.437,71.79 L31.924,78.438 C32.29703,78.8272509 32.8096409,79.0520347 33.3486709,79.062729 C33.8877009,79.0734233 34.4088242,78.8691487 34.797,78.495 L41.158,72.495 C41.9809026,71.7314881 42.0296859,70.4456682 41.267,69.622 L34.785,62.531 C34.408954,62.1079582 33.8736379,61.860743 33.3077474,61.8487875 C32.741857,61.8368321 32.1965775,62.0612178 31.803,62.468 L31.802,62.468 Z" id="Path_51"></path>
                <path d="M44.461,75.128 L38.094,81.581 C37.3177815,82.370498 37.3177815,83.636502 38.094,84.426 L44.582,91.074 C45.3601148,91.8819587 46.6454505,91.9074596 47.455,91.131 L53.816,85.12 C54.6257893,84.3621572 54.6744084,83.0936011 53.925,82.276 L47.443,75.185 C47.0661061,74.7627548 46.5303199,74.5166429 45.9644374,74.5058263 C45.3985549,74.4950096 44.8537549,74.7204664 44.461,75.128 L44.461,75.128 Z" id="Path_52"></path>
                <path d="M81.995,62.911 L75.628,69.364 C74.8519004,70.1531576 74.8519004,71.4188424 75.628,72.208 L82.115,78.856 C82.4878941,79.2454946 83.0005507,79.4704496 83.5396626,79.4811455 C84.0787745,79.4918415 84.5999504,79.2873976 84.988,78.913 L91.355,72.913 C91.7501477,72.5457986 91.9828099,72.0363627 92.0015742,71.4972649 C92.0203385,70.958167 91.8236601,70.4337872 91.455,70.04 L84.933,62.984 C84.5596328,62.571399 84.0331299,62.3303402 83.4768274,62.317293 C82.9205249,62.3042458 82.3832999,62.5203565 81.991,62.915 L81.995,62.911 Z" id="Path_53"></path>
                <path d="M94.654,75.57 L88.282,82.023 C87.5064367,82.812377 87.5064367,84.077623 88.282,84.867 L94.769,91.515 C95.14203,91.9042509 95.6546409,92.1290347 96.1936709,92.139729 C96.7327009,92.1504233 97.2538242,91.9461487 97.642,91.572 L104.009,85.561 C104.816825,84.8005283 104.861437,83.531314 104.109,82.716 L97.593,75.616 C97.2172641,75.2056745 96.6894527,74.9677344 96.1331724,74.9579021 C95.576892,74.9480698 95.0410017,75.1672089 94.651,75.564 L94.654,75.57 Z" id="Path_54"></path>
                <path d="M108.101,87.419 L100.189,95.464 C99.8238702,95.8333222 99.8238702,96.4276778 100.189,96.797 L108.161,104.928 C108.530322,105.29313 109.124678,105.29313 109.494,104.928 L117.407,97.458 C117.782002,97.0999848 117.80243,96.5080143 117.453,96.125 L109.491,87.414 C109.309847,87.2227103 109.057653,87.1148494 108.794202,87.1159769 C108.53075,87.1171221 108.279496,87.2271546 108.1,87.42 L108.101,87.419 Z" id="Path_55"></path>
                <path d="M119.317,98.607 L111.405,106.652 C111.03987,107.021322 111.03987,107.615678 111.405,107.985 L119.375,116.151 C119.744322,116.51613 120.338678,116.51613 120.708,116.151 L128.62,108.681 C128.995002,108.322985 129.01543,107.731014 128.666,107.348 L120.702,98.637 C120.525854,98.443039 120.277689,98.3300605 120.015738,98.3245756 C119.753787,98.3190907 119.501111,98.4215823 119.317,98.608 L119.317,98.607 Z" id="Path_56"></path>
                <path d="M131.869,111.174 L123.951,119.219 C123.589807,119.587599 123.589807,120.177401 123.951,120.546 L131.915,128.717 C132.285637,129.078915 132.877363,129.078915 133.248,128.717 L141.161,121.247 C141.540921,120.892097 141.56412,120.29742 141.213,119.914 L133.249,111.203 C133.07301,111.010943 132.826138,110.899205 132.565699,110.893728 C132.30526,110.888251 132.053909,110.989511 131.87,111.174 L131.869,111.174 Z" id="Path_57"></path>
                <path d="M144.02,123.316 L136.107,131.361 C135.74187,131.730322 135.74187,132.324678 136.107,132.694 L144.071,140.859 C144.443673,141.221642 145.037327,141.221642 145.41,140.859 L153.317,133.389 C153.696921,133.034097 153.72012,132.43942 153.369,132.056 L145.405,123.345 C145.228854,123.151039 144.980689,123.03806 144.718738,123.032576 C144.456787,123.027091 144.204111,123.129582 144.02,123.316 L144.02,123.316 Z" id="Path_58"></path>
                <path d="M44.651,49.626 L38.278,56.085 C37.5024367,56.874377 37.5024367,58.139623 38.278,58.929 L44.766,65.577 C45.1380746,65.9678542 45.6508869,66.1938527 46.1904126,66.2047447 C46.7299382,66.2156366 47.2514539,66.010519 47.639,65.635 L54.006,59.635 C54.8262909,58.8689474 54.8710426,57.5832331 54.106,56.762 L47.59,49.688 C47.2157225,49.2756877 46.6880396,49.0358855 46.1312913,49.0250987 C45.5745429,49.0143119 45.0379674,49.2334946 44.648,49.631 L44.651,49.626 Z" id="Path_59"></path>
                <path d="M57.31,62.285 L50.937,68.726 C50.1609004,69.5151576 50.1609004,70.7808424 50.937,71.57 L57.425,78.218 C57.7972099,78.6087185 58.3100966,78.8345346 58.8496211,78.8452387 C59.3891455,78.8559429 59.9105854,78.6506477 60.298,78.275 L66.665,72.275 C67.48205,71.5074749 67.5267071,70.2244766 66.765,69.402 L60.283,62.317 C59.9040331,61.8973795 59.3667494,61.6555057 58.8013584,61.6498999 C58.2359674,61.6444866 57.6940723,61.8758442 57.307,62.288 L57.31,62.285 Z" id="Path_60"></path>
                <path d="M69.969,74.944 L63.597,81.368 C62.8209004,82.1571576 62.8209004,83.4228424 63.597,84.212 L70.079,90.86 C70.4517592,91.2496305 70.9643418,91.4747678 71.5034548,91.4856514 C72.0425679,91.496535 72.5638192,91.2922687 72.952,90.918 L79.319,84.918 C80.13605,84.1504749 80.1807071,82.8674766 79.419,82.045 L72.937,74.954 C72.5541414,74.5403793 72.0164221,74.3047426 71.4528074,74.3036002 C70.8891928,74.3024661 70.3505261,74.5359291 69.966,74.948 L69.969,74.944 Z" id="Path_61"></path>
                <path d="M82.628,87.602 L76.255,94.049 C75.4789004,94.8381576 75.4789004,96.1038424 76.255,96.893 L82.737,103.541 C83.1098941,103.930495 83.6225507,104.15545 84.1616626,104.166146 C84.7007745,104.176841 85.2219504,103.972398 85.61,103.598 L91.977,97.598 C92.79405,96.8304749 92.8387071,95.5474766 92.077,94.725 L85.595,87.634 C85.2151959,87.2176562 84.6793424,86.9780302 84.1158151,86.9724327 C83.5522878,86.967029 83.0118588,87.1961494 82.624,87.605 L82.628,87.602 Z" id="Path_62"></path>
                <path d="M96.085,99.451 L88.167,107.461 C87.8050855,107.831637 87.8050855,108.423363 88.167,108.794 L96.131,116.96 C96.5003222,117.32513 97.0946778,117.32513 97.464,116.96 L105.376,109.49 C105.755921,109.135097 105.77912,108.54042 105.428,108.157 L97.464,99.44 C97.2833875,99.251612 97.0331001,99.1460148 96.7721277,99.1480663 C96.5111553,99.1501782 96.2625842,99.2597547 96.085,99.451 L96.085,99.451 Z" id="Path_63"></path>
                <path d="M107.29,110.673 L99.372,118.683 C99.0100855,119.053637 99.0100855,119.645363 99.372,120.016 L107.336,128.182 C107.705322,128.54713 108.299678,128.54713 108.669,128.182 L116.581,120.712 C116.960921,120.357097 116.98412,119.76242 116.633,119.379 L108.675,110.673 C108.495736,110.481253 108.244993,110.372416 107.9825,110.372416 C107.720007,110.372416 107.469264,110.481253 107.29,110.673 L107.29,110.673 Z" id="Path_64"></path>
                <path d="M119.834,123.199 L111.921,131.244 C111.559085,131.614637 111.559085,132.206363 111.921,132.577 L119.885,140.742 C120.246326,141.115285 120.840782,141.128218 121.218,140.771 L129.131,133.301 C129.510921,132.946097 129.53412,132.35142 129.183,131.968 L121.213,123.257 C121.040926,123.061134 120.796189,122.944225 120.535695,122.933458 C120.275202,122.922691 120.021651,123.019003 119.834,123.2 L119.834,123.199 Z" id="Path_65"></path>
                <path d="M131.993,135.382 L124.076,143.369 C123.714085,143.739637 123.714085,144.331363 124.076,144.702 L132.04,152.867 C132.401326,153.240285 132.995782,153.253218 133.373,152.896 L141.286,145.426 C141.665921,145.071097 141.68912,144.47642 141.338,144.093 L133.385,135.382 C133.20653,135.186628 132.954116,135.07533 132.6895,135.07533 C132.424884,135.07533 132.17247,135.186628 131.994,135.382 L131.993,135.382 Z" id="Path_66"></path>
                <path d="M156.174,135.481 L148.261,143.526 C147.89587,143.895322 147.89587,144.489678 148.261,144.859 L156.231,153.024 C156.592326,153.397285 157.186782,153.410218 157.564,153.053 L165.477,145.583 C165.852002,145.224985 165.87243,144.633014 165.523,144.25 L157.559,135.539 C157.386794,135.341242 157.140778,135.223087 156.878772,135.212304 C156.616766,135.201521 156.361874,135.299061 156.174,135.482 L156.174,135.481 Z" id="Path_67"></path>
                <path d="M168.327,147.639 L160.391,155.649 C160.02587,156.018322 160.02587,156.612678 160.391,156.982 L168.378,165.147 C168.739326,165.520285 169.333782,165.533218 169.711,165.176 L177.624,157.706 C177.999002,157.347985 178.01943,156.756014 177.67,156.373 L169.706,147.662 C169.530083,147.469169 169.282443,147.357403 169.021461,147.352918 C168.760479,147.348697 168.50925,147.452143 168.327,147.639 L168.327,147.639 Z" id="Path_68"></path>
                <path d="M106.756,136.285 L99.286,143.83 C98.7992695,144.326237 98.7992695,145.120763 99.286,145.617 L106.808,153.328 C107.294924,153.824295 108.08955,153.839413 108.595,153.362 L116.065,146.334 C116.553661,145.861944 116.588767,145.090487 116.145,144.576 L108.623,136.347 C108.389516,136.080939 108.056412,135.923258 107.702631,135.911326 C107.34885,135.899395 107.00588,136.034274 106.755,136.284 L106.756,136.285 Z" id="Path_69"></path>
                <path d="M118.909,148.438 L111.439,155.983 C110.951734,156.479019 110.951734,157.273981 111.439,157.77 L118.961,165.481 C119.447924,165.977295 120.24255,165.992413 120.748,165.515 L128.218,158.487 C128.724392,158.009784 128.755086,157.214843 128.287,156.7 L120.742,148.471 C120.50556,148.219627 120.1777,148.074285 119.832662,148.067885 C119.487624,148.061485 119.154599,148.194569 118.909,148.437 L118.909,148.438 Z" id="Path_70"></path>
                <path d="M131.086,160.591 L123.616,168.136 C123.129269,168.632237 123.129269,169.426763 123.616,169.923 L131.138,177.634 C131.623269,178.132007 132.417934,178.149795 132.925,177.674 L140.395,170.64 C140.904577,170.164237 140.935374,169.36664 140.464,168.853 L132.942,160.63 C132.707419,160.367684 132.374512,160.214461 132.022688,160.206878 C131.670864,160.199296 131.331665,160.338034 131.086,160.59 L131.086,160.591 Z" id="Path_71"></path>
                <path d="M143.458,172.504 L135.545,180.52 C135.182554,180.890421 135.182554,181.482579 135.545,181.853 L143.515,190.019 C143.884322,190.38413 144.478678,190.38413 144.848,190.019 L152.761,182.549 C153.139176,182.192414 153.159695,181.597807 152.807,181.216 L144.843,172.505 C144.662988,172.3146 144.412524,172.206716 144.1505,172.206716 C143.888476,172.206716 143.638012,172.3146 143.458,172.505 L143.458,172.504 Z" id="Path_72"></path>
                <path d="M19.723,25.024 L12.931,31.954 C12.5491522,32.3345242 12.3345208,32.8514208 12.3345208,33.3905 C12.3345208,33.9295792 12.5491522,34.4464758 12.931,34.827 L31.893,53.596 C32.671402,54.3635884 33.9173241,54.3786049 34.714,53.63 L41.794,46.97 C42.1957928,46.5922055 42.4269475,46.0674464 42.4346793,45.5159853 C42.4420302,44.9645243 42.2253116,44.4336404 41.834,44.045 L22.584,25.002 C21.7867862,24.2207396 20.5081051,24.2305721 19.723,25.024 L19.723,25.024 Z" id="Path_73"></path>
                <path d="M143.847,147.611 L135.547,156.069 C135.183101,156.443492 135.183101,157.039508 135.547,157.414 L156.009,177.67 C156.376856,178.02729 156.962144,178.02729 157.33,177.67 L165.986,169.527 C166.172295,169.348225 166.27761,169.101198 166.27761,168.843 C166.27761,168.584802 166.172295,168.337775 165.986,168.159 L145.167,147.564 C144.78554,147.223292 144.203262,147.244024 143.847,147.611 L143.847,147.611 Z" id="Path_74"></path>
                <path d="M57.533,87.01 L49.606,94.86 C49.4274967,95.0370616 49.3270924,95.2780756 49.3270924,95.5295 C49.3270924,95.7809244 49.4274967,96.0219384 49.606,96.199 L93.731,141.428 C94.1016375,141.789915 94.6933625,141.789915 95.064,141.428 L103.683,133.297 C103.8674,133.118422 103.971498,132.872697 103.971498,132.616 C103.971498,132.359303 103.8674,132.113578 103.683,131.935 L58.867,86.998 C58.492986,86.6387486 57.9004907,86.6440784 57.533,87.01 Z" id="Path_75"></path>
            </g>
            <path d="M360.295,187.093 L353.895,193.557 C353.1189,194.346158 353.1189,195.611842 353.895,196.401 L360.377,203.049 C361.155115,203.856959 362.44045,203.88246 363.25,203.106 L369.617,197.095 C370.420982,196.333192 370.465489,195.067396 369.717,194.251 L363.235,187.16 C362.861333,186.745752 362.333587,186.503634 361.775861,186.49058 C361.218135,186.477526 360.679639,186.694688 360.287,187.091 L360.295,187.093 Z" id="Path_76" fill="#464A5F" fill-rule="nonzero"></path>
            <path d="M372.211,199.021 L365.838,205.468 C365.0619,206.257158 365.0619,207.522842 365.838,208.312 L372.32,214.96 C372.69303,215.349251 373.205641,215.574035 373.744671,215.584729 C374.283701,215.595423 374.804824,215.391149 375.193,215.017 L381.56,209.017 C382.37705,208.249475 382.421707,206.966477 381.66,206.144 L375.16,199.076 C374.783959,198.664025 374.254901,198.425027 373.697197,198.415189 C373.139494,198.405352 372.602336,198.625543 372.212,199.024 L372.211,199.021 Z" id="Path_77" fill="#464A5F" fill-rule="nonzero"></path>
            <path d="M384.723,211.531 L378.35,217.984 C377.577105,218.774467 377.577105,220.037533 378.35,220.828 L384.826,227.465 C385.604115,228.272959 386.88945,228.29846 387.699,227.522 L394.066,221.511 C394.46139,221.143938 394.694224,220.634459 394.712991,220.095279 C394.731758,219.556099 394.534911,219.031665 394.166,218.638 L387.684,211.547 C387.302817,211.1339 386.76728,210.897534 386.205193,210.894278 C385.643107,210.891089 385.104894,211.121298 384.719,211.53 L384.723,211.531 Z" id="Path_78" fill="#464A5F" fill-rule="nonzero"></path>
            <path d="M397.379,224.19 L391.012,230.637 C390.223294,231.432278 390.223294,232.714722 391.012,233.51 L397.499,240.158 C398.277115,240.965959 399.56245,240.99146 400.372,240.215 L406.733,234.205 C407.542789,233.447157 407.591408,232.178601 406.842,231.361 L400.326,224.247 C399.950036,223.83554 399.421697,223.596385 398.864446,223.585421 C398.307195,223.574458 397.769858,223.792646 397.378,224.189 L397.379,224.19 Z" id="Path_79" fill="#464A5F" fill-rule="nonzero"></path>
            <path d="M410.038,236.848 L403.671,243.295 C402.879011,244.088923 402.879011,245.374077 403.671,246.168 L410.158,252.811 C410.934439,253.620665 412.219815,253.648851 413.031,252.874 L419.392,246.864 C419.78985,246.498876 420.025211,245.989845 420.045683,245.450233 C420.066156,244.91062 419.870041,244.38522 419.501,243.991 L413.019,236.9 C412.6414,236.478417 412.105222,236.233223 411.539346,236.223356 C410.973469,236.213488 410.429069,236.439838 410.037,236.848 L410.038,236.848 Z" id="Path_80" fill="#464A5F" fill-rule="nonzero"></path>
            <path d="M423.495,248.726 L415.583,256.713 C415.221807,257.081599 415.221807,257.671401 415.583,258.04 L423.553,266.211 C423.915712,266.581097 424.507535,266.593972 424.886,266.24 L432.799,258.77 C433.177176,258.413414 433.197695,257.818807 432.845,257.437 L424.875,248.726 C424.69502,248.537782 424.44592,248.431322 424.1855,248.431322 C423.92508,248.431322 423.67598,248.537782 423.496,248.726 L423.495,248.726 Z" id="Path_81" fill="#464A5F" fill-rule="nonzero"></path>
            <path d="M436.154,261.368 L428.241,269.384 C427.879807,269.752599 427.879807,270.342401 428.241,270.711 L436.211,278.882 C436.581637,279.243915 437.173363,279.243915 437.544,278.882 L445.457,271.412 C445.835176,271.055414 445.855695,270.460807 445.503,270.079 L437.533,261.368 C437.35302,261.179782 437.10392,261.073322 436.8435,261.073322 C436.58308,261.073322 436.33398,261.179782 436.154,261.368 L436.154,261.368 Z" id="Path_82" fill="#464A5F" fill-rule="nonzero"></path>
            <path d="M447.358,272.561 L439.445,280.577 C439.083807,280.945599 439.083807,281.535401 439.445,281.904 L447.409,290.098 C447.779637,290.459915 448.371363,290.459915 448.742,290.098 L456.654,282.628 C457.032176,282.271414 457.052695,281.676807 456.7,281.295 L448.736,272.584 C448.559179,272.392746 448.311848,272.282107 448.051416,272.27763 C447.790984,272.273419 447.5401,272.375749 447.357,272.561 L447.358,272.561 Z" id="Path_83" fill="#464A5F" fill-rule="nonzero"></path>
            <path d="M459.908,285.111 L451.995,293.121 C451.62987,293.490322 451.62987,294.084678 451.995,294.454 L459.965,302.619 C460.326326,302.992285 460.920782,303.005218 461.298,302.648 L469.211,295.178 C469.586002,294.819985 469.60643,294.228014 469.257,293.845 L461.293,285.128 C461.115186,284.935636 460.866094,284.824853 460.604156,284.821566 C460.342218,284.818423 460.090482,284.923058 459.908,285.111 L459.908,285.111 Z" id="Path_84" fill="#464A5F" fill-rule="nonzero"></path>
            <path d="M472.061,297.264 L464.148,305.274 C463.78287,305.643322 463.78287,306.237678 464.148,306.607 L472.112,314.807 C472.482637,315.168915 473.074363,315.168915 473.445,314.807 L481.357,307.337 C481.732002,306.978985 481.75243,306.387014 481.403,306.004 L473.416,297.293 C473.240721,297.108103 472.998767,297.000998 472.744051,296.99555 C472.489336,296.990103 472.243024,297.086766 472.06,297.264 L472.061,297.264 Z" id="Path_85" fill="#464A5F" fill-rule="nonzero"></path>
            <path d="M484.213,309.418 L476.301,317.463 C475.939807,317.831599 475.939807,318.421401 476.301,318.79 L484.271,326.961 C484.641637,327.322915 485.233363,327.322915 485.604,326.961 L493.516,319.491 C493.894176,319.134414 493.914695,318.539807 493.562,318.158 L485.598,309.447 C485.421854,309.253039 485.173689,309.14006 484.911738,309.134576 C484.649787,309.129091 484.397111,309.231582 484.213,309.418 L484.213,309.418 Z" id="Path_86" fill="#464A5F" fill-rule="nonzero"></path>
            <path d="M496.367,321.571 L488.454,329.616 C488.091554,329.986421 488.091554,330.578579 488.454,330.949 L496.401,339.086 C496.771637,339.447915 497.363363,339.447915 497.734,339.086 L505.647,331.616 C506.025176,331.259414 506.045695,330.664807 505.693,330.283 L497.729,321.572 C497.549594,321.38913 497.304179,321.286098 497.048,321.286098 C496.791821,321.286098 496.546406,321.38913 496.367,321.572 L496.367,321.571 Z" id="Path_87" fill="#464A5F" fill-rule="nonzero"></path>
            <path d="M348.728,198.67 L342.361,205.117 C341.5849,205.906158 341.5849,207.171842 342.361,207.961 L348.849,214.609 C349.221894,214.998495 349.734551,215.22345 350.273663,215.234146 C350.812775,215.244841 351.33395,215.040398 351.722,214.666 L358.083,208.666 C358.905903,207.902488 358.954686,206.616668 358.192,205.793 L351.672,198.733 C351.296888,198.322772 350.770226,198.083939 350.214479,198.072038 C349.658733,198.060138 349.122329,198.276206 348.73,198.67 L348.728,198.67 Z" id="Path_88" fill="#464A5F" fill-rule="nonzero"></path>
            <path d="M323.445,223.948 L317.072,230.395 C316.280011,231.188923 316.280011,232.474077 317.072,233.268 L323.56,239.911 C324.33185,240.704846 325.597754,240.732888 326.404,239.974 L332.771,233.963 C333.591291,233.196947 333.636043,231.911233 332.871,231.09 L326.384,224.016 C326.011401,223.602082 325.484646,223.360076 324.927881,223.347018 C324.371116,223.33396 323.833594,223.551005 323.442,223.947 L323.445,223.948 Z" id="Path_89" fill="#464A5F" fill-rule="nonzero"></path>
            <path d="M360.645,210.589 L354.272,217.036 C353.496437,217.825377 353.496437,219.090623 354.272,219.88 L360.753,226.529 C361.125895,226.918387 361.638432,227.143353 362.177463,227.154235 C362.716494,227.165117 363.237693,226.96102 363.626,226.587 L369.987,220.571 C370.80405,219.803475 370.848707,218.520477 370.087,217.698 L363.605,210.613 C363.225428,210.197755 362.690084,209.959325 362.127515,209.9549 C361.564946,209.950597 361.025968,210.180693 360.64,210.59 L360.645,210.589 Z" id="Path_90" fill="#464A5F" fill-rule="nonzero"></path>
            <path d="M373.154,223.098 L366.788,229.551 C366.0119,230.340158 366.0119,231.605842 366.788,232.395 L373.276,239.043 C373.648894,239.432495 374.161551,239.65745 374.700663,239.668146 C375.239775,239.678841 375.76095,239.474398 376.149,239.1 L382.51,233.1 C383.332903,232.336488 383.381686,231.050668 382.619,230.227 L376.103,223.159 C375.725997,222.749238 375.197884,222.511386 374.641179,222.500622 C374.084474,222.489858 373.547561,222.707118 373.155,223.102 L373.154,223.098 Z" id="Path_91" fill="#464A5F" fill-rule="nonzero"></path>
            <path d="M385.816,235.757 L379.449,242.21 C378.6729,242.999158 378.6729,244.264842 379.449,245.054 L385.936,251.702 C386.709739,252.493601 387.975164,252.518963 388.78,251.759 L395.147,245.759 C395.969903,244.995488 396.018686,243.709668 395.256,242.886 L388.771,235.787 C388.391555,235.375086 387.859057,235.137851 387.29905,235.131085 C386.739042,235.124603 386.201082,235.349176 385.812,235.752 L385.816,235.757 Z" id="Path_92" fill="#464A5F" fill-rule="nonzero"></path>
            <path d="M335.769,235.464 L329.397,241.911 C328.6209,242.700158 328.6209,243.965842 329.397,244.755 L335.879,251.403 C336.25203,251.792251 336.764641,252.017035 337.303671,252.027729 C337.842701,252.038423 338.363824,251.834149 338.752,251.46 L345.119,245.46 C345.93605,244.692475 345.980707,243.409477 345.219,242.587 L338.709,235.513 C338.333188,235.102152 337.804654,234.864364 337.247918,234.855659 C336.691182,234.846954 336.155473,235.068102 335.767,235.467 L335.769,235.464 Z" id="Path_93" fill="#464A5F" fill-rule="nonzero"></path>
            <path d="M348.279,247.973 L341.912,254.426 C341.1359,255.215158 341.1359,256.480842 341.912,257.27 L348.399,263.918 C349.177115,264.725959 350.46245,264.75146 351.272,263.975 L357.633,257.975 C358.455903,257.211488 358.504686,255.925668 357.742,255.102 L351.26,248.011 C350.879868,247.591788 350.342277,247.349891 349.776418,247.343306 C349.210558,247.336987 348.667591,247.566565 348.278,247.977 L348.279,247.973 Z" id="Path_94" fill="#464A5F" fill-rule="nonzero"></path>
            <path d="M360.938,260.632 L354.571,267.114 C353.7949,267.903158 353.7949,269.168842 354.571,269.958 L361.059,276.606 C361.837115,277.413959 363.12245,277.43946 363.932,276.663 L370.293,270.652 C371.102789,269.894157 371.151408,268.625601 370.402,267.808 L363.92,260.717 C363.547218,260.290884 363.0137,260.039424 362.447772,260.023103 C361.881843,260.006782 361.33472,260.227076 360.938,260.631 L360.938,260.632 Z" id="Path_95" fill="#464A5F" fill-rule="nonzero"></path>
            <path d="M398.471,248.416 L392.104,254.869 C391.3279,255.658158 391.3279,256.923842 392.104,257.713 L398.591,264.362 C398.96403,264.751251 399.476641,264.976035 400.015671,264.986729 C400.554701,264.997423 401.075824,264.793149 401.464,264.419 L407.831,258.408 C408.227605,258.041642 408.461305,257.531945 408.480086,256.992352 C408.498868,256.452759 408.301172,255.928047 407.931,255.535 L401.449,248.444 C401.068955,248.024071 400.530692,247.782102 399.96435,247.776498 C399.398007,247.771086 398.85514,248.002542 398.467,248.415 L398.471,248.416 Z" id="Path_96" fill="#464A5F" fill-rule="nonzero"></path>
            <path d="M411.129,261.074 L404.756,267.527 C403.9799,268.316158 403.9799,269.581842 404.756,270.371 L411.244,277.02 C411.616894,277.409495 412.129551,277.63445 412.668663,277.645146 C413.207775,277.655841 413.72895,277.451398 414.117,277.077 L420.484,271.067 C421.291706,270.306875 421.336322,269.037978 420.584,268.223 L414.102,261.132 C413.726005,260.710017 413.19104,260.463988 412.625952,260.453168 C412.060864,260.442348 411.516872,260.66772 411.125,261.075 L411.129,261.074 Z" id="Path_97" fill="#464A5F" fill-rule="nonzero"></path>
            <path d="M424.575,272.923 L416.663,280.939 C416.29787,281.308322 416.29787,281.902678 416.663,282.272 L424.635,290.434 C425.004322,290.79913 425.598678,290.79913 425.968,290.434 L433.88,282.964 C434.255002,282.605985 434.27543,282.014014 433.926,281.631 L425.962,272.92 C425.781841,272.729866 425.531431,272.622171 425.2695,272.622171 C425.007569,272.622171 424.757159,272.729866 424.577,272.92 L424.575,272.923 Z" id="Path_98" fill="#464A5F" fill-rule="nonzero"></path>
            <path d="M435.792,284.128 L427.88,292.144 C427.51487,292.513322 427.51487,293.107678 427.88,293.477 L435.85,301.643 C436.219544,302.007589 436.813456,302.007589 437.183,301.643 L445.095,294.173 C445.470002,293.814985 445.49043,293.223014 445.141,292.84 L437.177,284.129 C436.996841,283.938866 436.746431,283.831171 436.4845,283.831171 C436.222569,283.831171 435.972159,283.938866 435.792,284.129 L435.792,284.128 Z" id="Path_99" fill="#464A5F" fill-rule="nonzero"></path>
            <path d="M448.343,296.678 L440.425,304.694 C440.063807,305.062599 440.063807,305.652401 440.425,306.021 L448.389,314.192 C448.759637,314.553915 449.351363,314.553915 449.722,314.192 L457.635,306.722 C458.014921,306.367097 458.03812,305.77242 457.687,305.389 L449.723,296.706 C449.54701,296.513943 449.300138,296.402205 449.039699,296.396728 C448.77926,296.391251 448.527909,296.492511 448.344,296.677 L448.343,296.678 Z" id="Path_100" fill="#464A5F" fill-rule="nonzero"></path>
            <path d="M460.494,308.831 L452.581,316.847 C452.21587,317.216322 452.21587,317.810678 452.581,318.18 L460.545,326.345 C460.917673,326.707642 461.511327,326.707642 461.884,326.345 L469.791,318.875 C470.170921,318.520097 470.19412,317.92542 469.843,317.542 L461.879,308.831 C461.698841,308.640866 461.448431,308.533171 461.1865,308.533171 C460.924569,308.533171 460.674159,308.640866 460.494,308.831 Z" id="Path_101" fill="#464A5F" fill-rule="nonzero"></path>
            <path d="M361.128,235.13 L354.755,241.577 C353.979437,242.366377 353.979437,243.631623 354.755,244.421 L361.242,251.069 C361.61421,251.459719 362.127097,251.685535 362.666621,251.696239 C363.206146,251.706943 363.727585,251.501648 364.115,251.126 L370.482,245.126 C371.302291,244.359947 371.347043,243.074233 370.582,242.253 L364.066,235.191 C363.691722,234.778688 363.16404,234.538885 362.607291,234.528099 C362.050543,234.517312 361.513967,234.736495 361.124,235.134 L361.128,235.13 Z" id="Path_102" fill="#464A5F" fill-rule="nonzero"></path>
            <path d="M373.786,247.79 L367.413,254.237 C367.031398,254.617655 366.816937,255.134503 366.816937,255.6735 C366.816937,256.212497 367.031398,256.729345 367.413,257.11 L373.901,263.758 C374.27321,264.148719 374.786097,264.374535 375.325621,264.385239 C375.865146,264.395943 376.386585,264.190648 376.774,263.815 L383.141,257.815 C383.95805,257.047475 384.002707,255.764477 383.241,254.942 L376.759,247.857 C376.384824,247.432579 375.850007,247.184254 375.284324,247.172283 C374.718641,247.160312 374.173796,247.385789 373.782,247.794 L373.786,247.79 Z" id="Path_103" fill="#464A5F" fill-rule="nonzero"></path>
            <path d="M386.445,260.448 L380.072,266.895 C379.295781,267.684498 379.295781,268.950502 380.072,269.74 L386.554,276.388 C386.92703,276.777251 387.439641,277.002035 387.978671,277.012729 C388.517701,277.023423 389.038824,276.819149 389.427,276.445 L395.794,270.445 C396.61105,269.677475 396.655707,268.394477 395.894,267.572 L389.412,260.481 C389.032352,260.064384 388.496443,259.824563 387.93282,259.818964 C387.369196,259.813559 386.828708,260.042874 386.441,260.452 L386.445,260.448 Z" id="Path_104" fill="#464A5F" fill-rule="nonzero"></path>
            <path d="M399.103,273.102 L392.731,279.555 C392.349152,279.935524 392.134521,280.452421 392.134521,280.9915 C392.134521,281.530579 392.349152,282.047476 392.731,282.428 L399.213,289.076 C399.58603,289.465251 400.098641,289.690035 400.637671,289.700729 C401.176701,289.711423 401.697824,289.507149 402.086,289.133 L408.453,283.133 C409.27005,282.365475 409.314707,281.082477 408.553,280.26 L402.071,273.169 C401.695184,272.749514 401.162257,272.504633 400.599173,272.492693 C400.036089,272.480752 399.49326,272.702822 399.1,273.106 L399.103,273.102 Z" id="Path_105" fill="#464A5F" fill-rule="nonzero"></path>
            <path d="M412.56,284.956 L404.642,292.972 C404.280085,293.342637 404.280085,293.934363 404.642,294.305 L412.606,302.47 C412.967326,302.843285 413.561782,302.856218 413.939,302.499 L421.851,295.029 C422.231641,294.672013 422.254809,294.075432 421.903,293.69 L413.939,284.979 C413.763083,284.786169 413.515443,284.674403 413.254461,284.669918 C412.993479,284.665697 412.74225,284.769143 412.56,284.956 L412.56,284.956 Z" id="Path_106" fill="#464A5F" fill-rule="nonzero"></path>
            <path d="M423.765,296.161 L415.847,304.171 C415.485085,304.541637 415.485085,305.133363 415.847,305.504 L423.811,313.658 C424.172326,314.031285 424.766782,314.044218 425.144,313.687 L433.056,306.217 C433.436641,305.860013 433.459809,305.263432 433.108,304.878 L425.149,296.184 C424.972941,295.989241 424.723998,295.876215 424.461493,295.871725 C424.198987,295.867496 423.946429,295.972194 423.764,296.161 L423.765,296.161 Z" id="Path_107" fill="#464A5F" fill-rule="nonzero"></path>
            <path d="M436.308,308.705 L428.395,316.75 C428.033085,317.120637 428.033085,317.712363 428.395,318.083 L436.359,326.249 C436.728322,326.61413 437.322678,326.61413 437.692,326.249 L445.605,318.779 C445.984921,318.424097 446.00812,317.82942 445.657,317.446 L437.687,308.735 C437.51101,308.542943 437.264138,308.431205 437.003699,308.425728 C436.74326,308.420251 436.491909,308.521511 436.308,308.706 L436.308,308.705 Z" id="Path_108" fill="#464A5F" fill-rule="nonzero"></path>
            <path d="M448.467,320.864 L440.549,328.874 C440.187085,329.244637 440.187085,329.836363 440.549,330.207 L448.513,338.367 C448.882322,338.73213 449.476678,338.73213 449.846,338.367 L457.759,330.897 C458.138921,330.542097 458.16212,329.94742 457.811,329.564 L449.858,320.887 C449.682782,320.688641 449.432201,320.573143 449.167572,320.568639 C448.902943,320.564392 448.64868,320.671542 448.467,320.864 L448.467,320.864 Z" id="Path_109" fill="#464A5F" fill-rule="nonzero"></path>
            <path d="M472.647,320.985 L464.734,329.03 C464.36887,329.399322 464.36887,329.993678 464.734,330.363 L472.704,338.528 C473.073322,338.89313 473.667678,338.89313 474.037,338.528 L481.95,331.058 C482.325002,330.699985 482.34543,330.108014 481.996,329.725 L474.026,321.014 C473.85001,320.821943 473.603138,320.710205 473.342699,320.704728 C473.08226,320.699251 472.830909,320.800511 472.647,320.985 L472.647,320.985 Z" id="Path_110" fill="#464A5F" fill-rule="nonzero"></path>
            <path d="M484.8,333.136 L476.887,341.181 C476.52187,341.550322 476.52187,342.144678 476.887,342.514 L484.857,350.679 C485.226322,351.04413 485.820678,351.04413 486.19,350.679 L494.103,343.209 C494.478002,342.850985 494.49843,342.259014 494.149,341.876 L486.179,333.193 C486.007068,332.996996 485.762406,332.879901 485.50191,332.868945 C485.241414,332.857989 484.987784,332.954126 484.8,333.135 L484.8,333.136 Z" id="Path_111" fill="#464A5F" fill-rule="nonzero"></path>
            <path d="M423.231,321.789 L415.761,329.334 C415.273734,329.830019 415.273734,330.624981 415.761,331.121 L423.283,338.832 C423.769924,339.328295 424.56455,339.343413 425.07,338.866 L432.54,331.838 C433.043255,331.359362 433.07385,330.567019 432.609,330.051 L425.087,321.822 C424.849735,321.563665 424.516983,321.413828 424.166284,321.407403 C423.815584,321.400979 423.477567,321.538528 423.231,321.788 L423.231,321.789 Z" id="Path_112" fill="#464A5F" fill-rule="nonzero"></path>
            <path d="M435.384,333.943 L427.914,341.488 C427.427269,341.984237 427.427269,342.778763 427.914,343.275 L435.453,351.009 C435.946328,351.480879 436.723672,351.480879 437.217,351.009 L444.687,343.981 C445.193919,343.504024 445.22463,342.708644 444.756,342.194 L437.217,333.977 C436.98056,333.725627 436.6527,333.580285 436.307662,333.573885 C435.962624,333.567485 435.629599,333.700569 435.384,333.943 L435.384,333.943 Z" id="Path_113" fill="#464A5F" fill-rule="nonzero"></path>
            <path d="M447.56,346.096 L440.09,353.641 C439.603269,354.137237 439.603269,354.931763 440.09,355.428 L447.612,363.14 C448.097537,363.639502 448.894814,363.654671 449.399,363.174 L456.869,356.146 C457.378577,355.670237 457.409374,354.87264 456.938,354.359 L449.416,346.13 C449.179645,345.870086 448.846585,345.719118 448.495333,345.712683 C448.144082,345.706248 447.805716,345.844917 447.56,346.096 L447.56,346.096 Z" id="Path_114" fill="#464A5F" fill-rule="nonzero"></path>
            <path d="M459.931,358.008 L452.018,366.053 C451.656085,366.423637 451.656085,367.015363 452.018,367.386 L459.988,375.552 C460.350712,375.922097 460.942535,375.934972 461.321,375.581 L469.234,368.111 C469.612176,367.754414 469.632695,367.159807 469.28,366.778 L461.316,358.067 C461.143952,357.868981 460.89789,357.750635 460.635791,357.739848 C460.373692,357.729061 460.118737,357.826788 459.931,358.01 L459.931,358.008 Z" id="Path_115" fill="#464A5F" fill-rule="nonzero"></path>
            <path d="M336.2,210.526 L329.408,217.462 C329.026152,217.842524 328.811521,218.359421 328.811521,218.8985 C328.811521,219.437579 329.026152,219.954476 329.408,220.335 L348.37,239.107 C349.148402,239.874588 350.394324,239.889605 351.191,239.141 L358.271,232.481 C358.672793,232.103205 358.903948,231.578446 358.911679,231.026985 C358.91903,230.475524 358.702312,229.94464 358.311,229.556 L339.061,210.513 C338.266254,209.729272 336.987591,209.735082 336.2,210.526 L336.2,210.526 Z" id="Path_116" fill="#464A5F" fill-rule="nonzero"></path>
            <path d="M460.321,333.116 L452.021,341.592 C451.657101,341.966492 451.657101,342.562508 452.021,342.937 L472.483,363.192 C472.850856,363.54929 473.436144,363.54929 473.804,363.192 L482.46,355.049 C482.646295,354.870225 482.75161,354.623198 482.75161,354.365 C482.75161,354.106802 482.646295,353.859775 482.46,353.681 L461.641,333.086 C461.266021,332.739907 460.684369,332.752725 460.325,333.115 L460.321,333.116 Z" id="Path_117" fill="#464A5F" fill-rule="nonzero"></path>
            <path d="M374.009,272.515 L366.082,280.365 C365.903497,280.542062 365.803092,280.783076 365.803092,281.0345 C365.803092,281.285924 365.903497,281.526938 366.082,281.704 L410.207,326.933 C410.577637,327.294915 411.169363,327.294915 411.54,326.933 L420.159,318.802 C420.3434,318.623422 420.447498,318.377697 420.447498,318.121 C420.447498,317.864303 420.3434,317.618578 420.159,317.44 L375.338,272.499 C374.963549,272.144101 374.374798,272.151189 374.009,272.515 L374.009,272.515 Z" id="Path_118" fill="#464A5F" fill-rule="nonzero"></path>
            <path d="M342.883,278.031 L308.044,312.641 C306.034402,314.640556 306.00898,317.885201 307.987,319.916 L372.425,386.09 C373.384831,387.07616 374.6981,387.639139 376.074165,387.654657 C377.450231,387.669543 378.775617,387.135715 379.757,386.171 L415.631,350.883 C416.612051,349.915982 417.166799,348.597551 417.172283,347.220034 C417.177687,345.842516 416.633377,344.519742 415.66,343.545 L350.187,278.032 C348.168669,276.018797 344.901882,276.01835 342.883,278.031 Z" id="Path_119" fill="#000000" fill-rule="nonzero" opacity="0.1"></path>
            <path d="M342.883,276.612 L308.044,311.25 C306.034402,313.249556 306.00898,316.494201 307.987,318.525 L372.425,384.699 C373.384831,385.68516 374.6981,386.248139 376.074165,386.263657 C377.450231,386.278543 378.775617,385.744715 379.757,384.78 L415.63,349.487 C416.611051,348.519982 417.165799,347.201551 417.171283,345.824034 C417.176687,344.446516 416.632377,343.123742 415.659,342.149 L350.186,276.647 C348.177167,274.625032 344.911121,274.609379 342.883,276.612 L342.883,276.612 Z" id="Path_120" fill="#939498" fill-rule="nonzero"></path>
            <path d="M376.344,94.994 L367.524,156.663 L530.958,319.571 L539.279,258.443 C539.733816,255.095854 538.596382,251.728694 536.205,249.343 L379.97,93.772 C379.396058,93.2003915 378.548366,93.002225 377.7805,93.2601566 C377.012635,93.5180883 376.456476,94.1878185 376.344,94.99 L376.344,94.994 Z" id="Path_121" fill="#584DFC" fill-rule="nonzero"></path>
            <ellipse id="Ellipse_3" fill="#584DFC" fill-rule="nonzero" opacity="0.1" cx="169.561" cy="392.095" rx="13.28" ry="1.822"></ellipse>
            <ellipse id="Ellipse_4" fill="#584DFC" fill-rule="nonzero" opacity="0.1" cx="118.685" cy="397.255" rx="13.28" ry="1.822"></ellipse>
            <ellipse id="Ellipse_5" fill="#584DFC" fill-rule="nonzero" opacity="0.1" cx="58.767" cy="390.273" rx="13.28" ry="1.822"></ellipse>
            <ellipse id="Ellipse_6" fill="#584DFC" fill-rule="nonzero" opacity="0.1" cx="139.049" cy="411.942" rx="9.441" ry="1.299"></ellipse>
            <ellipse id="Ellipse_7" fill="#584DFC" fill-rule="nonzero" opacity="0.1" cx="86.251" cy="410.644" rx="9.441" ry="1.299"></ellipse>
            <path d="M118.409,396.847 C118.409,396.847 137.033,335.787 115.49,311.36 C99.401,293.06 81.09,295.271 72.89,297.517 C68.6016404,298.658789 65.0303969,301.625015 63.121,305.631 C60.248,311.814 60.777,321.841 80.992,333.546 C114.849,353.146 116.952,380.033 116.952,380.033 L118.409,396.847 Z" id="Path_122" fill="#584DFC" fill-rule="nonzero"></path>
            <path d="M75.793,306.148 C75.793,306.148 130.704,323.312 118.393,396.848" id="Path_123" stroke="#2A2E71"></path>
            <path d="M107.874,312.302 C107.874,312.302 100.318,317.393 102.702,325.053" id="Path_124" stroke="#2A2E71"></path>
            <path d="M81.315,316.836 C81.315,316.836 85.915,312.136 91.561,314.727" id="Path_125" stroke="#2A2E71"></path>
            <path d="M103.019,340.482 C103.019,340.482 111.133,336.362 113.236,341.522" id="Path_126" stroke="#2A2E71"></path>
            <path d="M123.102,349.069 C123.102,349.069 117.002,348.586 116.896,351.5" id="Path_127" stroke="#2A2E71"></path>
            <path d="M119.16,397.335 C119.16,397.335 97.324,352.96 91.348,353.928 C88.504,354.388 87.193,357.186 86.602,360.002 C85.8682085,363.637723 86.2819385,367.411612 87.786,370.802 C90.883,377.907 99.198,391.394 119.16,397.335 L119.16,397.335 Z" id="Path_128" fill="#584DFC" fill-rule="nonzero"></path>
            <path d="M91.515,362.346 C91.515,362.346 114.408,395.553 118.833,397.007" id="Path_129" stroke="#2A2E71"></path>
            <path d="M89.406,367.529 L94.75,367.529" id="Line_1" stroke="#2A2E71"></path>
            <path d="M95.807,379.677 L104.185,380.033" id="Line_2" stroke="#2A2E71"></path>
            <path d="M100.904,369.96 L99.996,374.321" id="Line_3" stroke="#2A2E71"></path>
            <path d="M109.817,383.24 L109.65,387.205" id="Line_4" stroke="#2A2E71"></path>
            <path d="M118.506,397.335 C118.506,397.335 140.342,352.957 146.312,353.928 C149.185,354.388 150.472,357.186 151.064,360.002 C151.798655,363.638219 151.382733,367.412969 149.874,370.802 C146.783,377.907 138.466,391.394 118.506,397.335 L118.506,397.335 Z" id="Path_130" fill="#584DFC" fill-rule="nonzero"></path>
            <path d="M146.151,362.346 C146.151,362.346 123.251,395.553 118.828,397.007" id="Path_131" stroke="#2A2E71"></path>
            <path d="M148.254,367.529 L142.91,367.529" id="Line_5" stroke="#2A2E71"></path>
            <path d="M141.853,379.677 L133.475,380.033" id="Line_6" stroke="#2A2E71"></path>
            <path d="M136.756,369.96 L137.664,374.321" id="Line_7" stroke="#2A2E71"></path>
            <path d="M127.85,383.24 L128.011,387.205" id="Line_8" stroke="#2A2E71"></path>
            <path d="M81.051,407.696 C80.456295,407.21257 80.0233343,406.559116 79.81,405.823 C79.612848,405.061858 79.9746807,404.266493 80.678,403.915 C81.5323125,403.754592 82.4076373,404.059053 82.978,404.715 C83.5400603,405.370578 84.3500951,405.762004 85.213,405.795 C84.3272702,404.994764 83.9276899,403.787667 84.161,402.617 C84.1959465,402.377492 84.2974694,402.152617 84.454,401.968 C84.896,401.497 85.695,401.698 86.224,402.068 C87.913,403.251 88.379,405.516 88.39,407.601 C88.4845242,406.837753 88.4942501,406.066387 88.419,405.301 C88.3542564,404.528644 88.6745074,403.774034 89.275,403.284 C89.6750733,403.073194 90.1230077,402.969824 90.575,402.984 C91.3313066,402.865006 92.102468,403.074165 92.695,403.559 C93.2734367,404.340527 93.2378169,405.417405 92.609,406.159 C91.9862545,406.866935 91.2456525,407.461717 90.42,407.917 C89.792921,408.291226 89.2591344,408.803127 88.859,409.414 C88.8127753,409.498348 88.7742847,409.586709 88.744,409.678 L83.998,409.678 C82.9311808,409.152564 81.9399469,408.485911 81.051,407.696 L81.051,407.696 Z" id="Path_132" fill="#584DFC" fill-rule="nonzero"></path>
            <path d="M164.176,389.825 C163.580779,389.340872 163.146049,388.687906 162.929,387.952 C162.734256,387.191069 163.095422,386.39717 163.797,386.044 C164.651328,385.883382 165.526755,386.187878 166.097,386.844 C166.655992,387.49997 167.465618,387.889898 168.327,387.918 C167.442996,387.11664 167.043746,385.910539 167.275,384.74 C167.313893,384.503469 167.415019,384.281544 167.568,384.097 C168.01,383.62 168.809,383.827 169.344,384.197 C171.028,385.381 171.499,387.645 171.505,389.725 C171.601492,388.961959 171.612896,388.190559 171.539,387.425 C171.465174,386.651216 171.78717,385.892494 172.395,385.408 C172.793651,385.193394 173.242621,385.089786 173.695,385.108 C174.449587,384.99203 175.217999,385.200937 175.81,385.683 C176.384255,386.46499 176.351245,387.537794 175.73,388.283 C175.101044,388.979669 174.356842,389.562853 173.53,390.007 C172.905854,390.384498 172.372274,390.894522 171.967,391.501 C171.91845,391.586297 171.879863,391.676892 171.852,391.771 L167.1,391.771 C166.040184,391.253374 165.05443,390.596205 164.169,389.817 L164.176,389.825 Z" id="Path_133" fill="#584DFC" fill-rule="nonzero"></path>
            <path d="M136.469,407.696 C135.874295,407.21257 135.441334,406.559116 135.228,405.823 C135.030848,405.061858 135.392681,404.266493 136.096,403.915 C136.950313,403.754592 137.825637,404.059053 138.396,404.715 C138.95806,405.370578 139.768095,405.762004 140.631,405.795 C139.745635,404.994552 139.346445,403.787487 139.58,402.617 C139.614947,402.377492 139.716469,402.152617 139.873,401.968 C140.315,401.497 141.114,401.698 141.643,402.068 C143.327,403.251 143.798,405.516 143.809,407.601 C143.903524,406.837753 143.91325,406.066387 143.838,405.301 C143.774028,404.531776 144.091721,403.780152 144.688,403.29 C145.088105,403.07928 145.536017,402.975916 145.988,402.99 C146.744299,402.871136 147.515408,403.080281 148.108,403.565 C148.684214,404.347219 148.648644,405.422568 148.022,406.165 C147.399171,406.872848 146.658585,407.467617 145.833,407.923 C145.203319,408.295372 144.666744,408.806299 144.264,409.417 C144.21781,409.501365 144.17932,409.589722 144.149,409.681 L139.403,409.681 C138.340592,409.153587 137.353781,408.48596 136.469,407.696 L136.469,407.696 Z" id="Path_134" fill="#584DFC" fill-rule="nonzero"></path>
            <path d="M57.904,371.569 C57.904,371.569 56.123,373.896 58.726,377.407 C61.329,380.918 63.472,383.889 62.605,386.078 C62.605,386.078 58.68,379.55 55.485,379.464 C52.29,379.378 54.392,375.489 57.904,371.569 Z" id="Path_135" fill="#584DFC" fill-rule="nonzero"></path>
            <path d="M57.904,371.569 C57.7499219,371.794285 57.6280773,372.039994 57.542,372.299 C54.422,375.959 52.761,379.378 55.761,379.465 C58.548,379.54 61.898,384.533 62.697,385.786 C62.6723611,385.883495 62.6416342,385.97935 62.605,386.073 C62.605,386.073 58.68,379.545 55.485,379.459 C52.29,379.373 54.392,375.489 57.904,371.569 L57.904,371.569 Z" id="Path_136" fill="#000000" fill-rule="nonzero" opacity="0.1"></path>
            <path d="M54.595,374.534 C54.595,375.356 54.687,376.017 54.802,376.017 C54.917,376.017 55.009,375.356 55.009,374.534 C55.009,373.712 54.894,374.103 54.779,374.103 C54.664,374.103 54.595,373.713 54.595,374.534 Z" id="Path_137" fill="#FFD037" fill-rule="nonzero"></path>
            <path d="M53.463,375.511 C54.181,375.902 54.808,376.143 54.863,376.04 C54.918,375.937 54.38,375.546 53.663,375.149 C52.946,374.752 53.226,375.049 53.175,375.149 C53.124,375.249 52.746,375.143 53.463,375.511 L53.463,375.511 Z" id="Path_138" fill="#FFD037" fill-rule="nonzero"></path>
            <path d="M67.306,371.569 C67.306,371.569 69.082,373.896 66.484,377.407 C63.886,380.918 61.738,383.889 62.605,386.078 C62.605,386.078 66.53,379.55 69.725,379.464 C72.92,379.378 70.817,375.489 67.306,371.569 Z" id="Path_139" fill="#584DFC" fill-rule="nonzero"></path>
            <path d="M67.306,371.569 C67.4600894,371.794279 67.5819349,372.039989 67.668,372.299 C70.782,375.959 72.443,379.378 69.449,379.465 C66.656,379.54 63.312,384.533 62.508,385.786 C62.5352594,385.883676 62.5686592,385.979533 62.608,386.073 C62.608,386.073 66.533,379.545 69.728,379.459 C72.923,379.373 70.817,375.489 67.306,371.569 L67.306,371.569 Z" id="Path_140" fill="#000000" fill-rule="nonzero" opacity="0.1"></path>
            <path d="M70.623,374.534 C70.623,375.356 70.531,376.017 70.423,376.017 C70.315,376.017 70.216,375.356 70.216,374.534 C70.216,373.712 70.331,374.103 70.446,374.103 C70.561,374.103 70.623,373.713 70.623,374.534 Z" id="Path_141" fill="#FFD037" fill-rule="nonzero"></path>
            <path d="M71.771,375.511 C71.053,375.902 70.426,376.143 70.371,376.04 C70.316,375.937 70.859,375.546 71.578,375.149 C72.297,374.752 72.015,375.049 72.066,375.149 C72.117,375.249 72.466,375.143 71.771,375.511 Z" id="Path_142" fill="#FFD037" fill-rule="nonzero"></path>
            <path d="M70.047,385.774 C70.047,385.774 65.071,385.619 63.571,384.556 C62.071,383.493 55.917,382.211 55.526,383.924 C55.135,385.637 48.056,392.44 53.67,392.486 C59.284,392.532 66.72,391.613 68.219,390.699 C69.718,389.785 70.047,385.774 70.047,385.774 L70.047,385.774 Z" id="Path_143" fill="#A8A8A8" fill-rule="nonzero"></path>
            <path d="M53.584,391.888 C59.204,391.934 66.639,391.014 68.133,390.101 C69.282,389.401 69.725,386.918 69.857,385.768 L70.047,385.768 C70.047,385.768 69.731,389.79 68.237,390.693 C66.743,391.596 59.302,392.526 53.688,392.48 C52.068,392.48 51.504,391.905 51.533,391.038 C51.762,391.554 52.377,391.878 53.584,391.888 L53.584,391.888 Z" id="Path_144" fill="#000000" fill-rule="nonzero" opacity="0.2"></path>
            <path d="M99.096,191.965 C99.004,194.378 101.073,197.585 101.073,197.585 C101.705,199.108 109.457,206.164 109.457,206.164 L115.203,210.002 C114.0422,210.858448 112.825121,211.635869 111.56,212.329 C108.76,213.76 107.233,218.495 107.233,218.495 C107.233,218.495 102.992,228.683 111.56,230.114 L111.721,230.143 L112.491,230.976 C114.056416,232.756933 115.731686,234.438215 117.507,236.01 C118.949,236.993 123.368,244.41 123.368,244.41 C123.368,244.41 128.051,252.099 134.286,252.455 C140.521,252.811 140.503,245.663 140.032,245.215 C139.844713,244.915762 139.714198,244.58456 139.647,244.238 C141.135,246.638 143.164,249.783 143.819,250.22 C144.899,250.933 148.419,256.541 148.419,256.541 C148.419,256.541 152.838,266.641 153.556,267.712 C154.274,268.783 155.538,274.147 155.538,274.147 C155.538,274.147 158.066,281.56 159.238,282.547 C160.41,283.534 161.038,287.104 161.038,287.104 C161.038,287.104 164.733,292.465 165.365,293.356 C166.104227,294.656501 166.766045,295.999504 167.347,297.378 C167.347,297.378 169.33,300.596 169.33,301.849 C169.33,303.102 173.479,305.239 173.479,305.239 C173.479,305.239 176.456,308.727 178.168,309.353 C179.88,309.979 181.501,314.088 181.768,313.818 C181.927552,313.743256 182.103043,313.708913 182.279,313.718 L182.979,314.418 C185.714,317.142 191.179,322.572 192.579,323.83 C194.479,325.554 198.802,325.795 202.405,325.083 C204.255,324.715 206.505,322.963 208.26,321.342 C209.061081,320.592815 209.521448,319.548968 209.53476,318.452229 C209.547503,317.355489 209.112059,316.301001 208.329,315.533 C206.605,313.872 204.611,312.051 203.729,311.769 C202.108,311.229 197.512,308.017 195.351,305.333 C193.949278,303.843696 192.305768,302.602188 190.49,301.661 L190.283,301.54 C190.023903,300.556642 189.848939,299.553022 189.76,298.54 C189.76,298.54 192.737,291.84 191.11,291.484 C189.483,291.128 183.358,280.491 183.358,280.491 C183.272,272.446 175.888,265.654 175.888,265.654 C175.888,265.654 172.193,256.897 171.113,255.023 C170.455904,254.050965 170.455904,252.777035 171.113,251.805 C170.190543,251.122107 169.37173,250.309356 168.682,249.392 C168.326,248.592 166.608,242.492 166.608,242.492 C166.608,242.492 164.534,238.826 164.442,237.131 C164.35,235.436 160.31,230.707 160.31,230.707 C160.31,230.707 158.672,222.743 156.862,221.307 C156.512,221.031 156.562,219.98 156.862,218.468 L156.948,218.376 L157.224,218.106 L157.304,218.026 C158.132269,217.208924 158.911306,216.343401 159.637,215.434 L159.671,215.388 C159.786,215.244 159.895,215.106 159.999,214.963 C162.614,211.389 164.234,202.896 164.234,202.896 C164.234,202.896 164.751,202.655 165.424,202.287 C166.369685,201.815367 167.244815,201.213883 168.024,200.5 C168.061186,200.458696 168.092176,200.412211 168.116,200.362 C168.119018,200.346815 168.119018,200.331185 168.116,200.316 C168.133723,200.280722 168.14909,200.244309 168.162,200.207 C168.164211,200.186058 168.164211,200.164942 168.162,200.144 C168.165212,200.102061 168.165212,200.059939 168.162,200.018 L168.162,199.748 C168.166193,199.670215 168.156371,199.59231 168.133,199.518 C168.132382,199.508343 168.132382,199.498657 168.133,199.489 C168.125393,199.416549 168.10997,199.345133 168.087,199.276 L168.087,199.207 C168.07843,199.137792 168.059202,199.070328 168.03,199.007 C168.031844,198.982034 168.031844,198.956966 168.03,198.932 L167.961,198.719 C167.958846,198.701734 167.958846,198.684266 167.961,198.667 C167.843641,198.366437 167.713183,198.071154 167.57,197.782 L167.415,197.489 C167.148477,196.969186 166.853013,196.464727 166.53,195.978 L166.484,195.909 C167.116,194.128 168.34,190.99 169.478,189.864 C171.098,188.255 168.578,179.676 168.578,179.676 C168.578,179.676 168.038,173.602 167.314,171.815 C166.59,170.028 167.314,169.769 166.739,168.241 C166.039,166.517 165.539,166.632 166.439,162.702 C166.778,161.219 167.301,159.588 167.772,158.065 L168.347,158.594 C171.68,161.737 176.915,165.828 176.915,165.828 C176.915,165.828 187.189,175.12 188.091,175.39 C188.993,175.66 191.7,184.774 191.7,184.774 C191.7,184.774 191.068,199.874 199.36,200.501 C202.882,200.765 204.376,198.042 204.917,194.829 C205.725961,189.781159 204.23564,184.63601 200.854,180.802 L195.889,175.159 L191.47,167.298 C188.656902,162.860118 186.287478,158.156104 184.396,153.254 C182.388537,148.450708 179.442675,144.09634 175.731,140.446 L175.375,140.096 L175.835,139.671 C175.835,139.671 175.111,133.771 174.571,133.063 C174.031,132.355 172.048,128.236 172.048,127.317 C172.048,126.398 170.784,126.248 170.066,125.174 C170.066,125.174 168.802,122.674 167.63,122.301 C167.415732,122.217863 167.220237,122.092747 167.055,121.933 C164.999491,120.115906 162.419638,118.999149 159.688,118.744 L158.97,118.675 C157.372715,118.602735 155.772542,118.625776 154.178,118.744 L154.138,118.744 C152.958099,118.255713 151.899836,117.514247 151.038,116.572 C149.511187,115.206047 147.818154,114.03816 145.999,113.096 C144.177055,111.996884 142.048311,111.516969 139.931,111.728 C138.299,111.992 136.84,112.877 135.248,113.343 C132.984,113.981 130.203,113.849 128.778,115.705 C128.094,116.59 127.899,117.768 127.261,118.682 C126.353,119.982 124.687,120.582 123.75,121.865 C123.123118,122.79766 122.837037,123.917967 122.94,125.037 C122.908817,125.942567 123.017426,126.847528 123.262,127.72 C123.500818,128.470563 123.675774,129.239968 123.785,130.02 C123.772495,130.147599 123.751448,130.274217 123.722,130.399 C123.596,130.974 123.303,131.456 123.188,132.014 C123.129727,132.316865 123.119938,132.627064 123.159,132.933 C122.987,134.306 123.872,135.611 124.469,136.886 C124.930677,137.882572 125.234316,138.944972 125.369,140.035 C123.873775,140.477223 122.415619,141.036278 121.008,141.707 C119.107844,142.521831 117.440884,143.797657 116.158,145.419 C114.399421,147.891746 112.197938,150.017282 109.665,151.688 C108.885617,153.607323 108.223727,155.572287 107.683,157.572 C107.143,159.872 106.603,163.646 104.983,165.617 C103.363,167.588 102.616,173.438 102.616,173.438 C102.616,173.438 100.45,176.92 100.45,177.638 C100.314733,179.301922 100.314733,180.974078 100.45,182.638 C100.608852,182.944826 100.820792,183.221093 101.076,183.454 L100.915,184.029 C100.100079,186.622156 99.4918439,189.275788 99.096,191.965 L99.096,191.965 Z M149.916,151.713 C149.872573,151.907387 149.818831,152.099326 149.755,152.288 C149.755,152.104 149.784,151.926 149.795,151.742 L149.916,151.713 Z M129.378,228.091 L129.091,227.827 L128.953,227.701 C128.963419,227.626856 128.98083,227.553864 129.005,227.483 L129.378,228.091 Z M114.438,191.516 L114.553,191.303 L114.978,190.533 L118.426,187.717 L118.868,188.117 C118.868,188.117 118.506,191.869 117.61,191.691 C117.403,191.651 117.31,192.513 117.288,193.863 C115.662,192.472 114.421,191.513 114.421,191.513 L114.438,191.516 Z" id="Path_145" fill="url(#linearGradient-1)" fill-rule="nonzero"></path>
            <path d="M145.553,121.912 C145.553,121.912 156.281,120.947 158.833,121.212 L159.533,121.275 C162.195089,121.546067 164.70127,122.65938 166.687,124.453 C166.852755,124.610616 167.048217,124.733672 167.262,124.815 C168.411,125.165 169.635,127.631 169.635,127.631 C169.635,127.631 166.911,149.174 166.911,149.438 C166.911,149.702 161.28,159.459 161.28,159.459 L155.827,161.574 L146.42,162.901 L146.156,158.844 C146.156,158.844 150.684,156.362 150.178,151.23 C149.672,146.098 145.553,121.912 145.553,121.912 L145.553,121.912 Z" id="Path_146" fill="#464353" fill-rule="nonzero"></path>
            <path d="M150.829,147.5 C150.829,147.5 148.529,157.878 150.829,161.216 C153.129,164.554 128.143,155.769 128.143,155.769 L123.543,147.5 C123.543,147.5 125.267,146.276 127.209,144.7 C129.944,142.5 133.22,139.615 133.22,138.379 C133.251,136.243 150.829,147.5 150.829,147.5 L150.829,147.5 Z" id="Path_147" fill="#ECB4B6" fill-rule="nonzero"></path>
            <path d="M150.829,147.5 C150.829,147.5 148.529,157.878 150.829,161.216 C153.129,164.554 128.143,155.769 128.143,155.769 L123.543,147.5 C123.543,147.5 125.267,146.276 127.209,144.7 C129.944,142.5 133.22,139.615 133.22,138.379 C133.251,136.243 150.829,147.5 150.829,147.5 L150.829,147.5 Z" id="Path_148" fill="#000000" fill-rule="nonzero" opacity="0.1"></path>
            <circle id="Ellipse_8" fill="#000000" fill-rule="nonzero" opacity="0.1" cx="145.553" cy="139.076" r="15.302"></circle>
            <circle id="Ellipse_9" fill="#ECB4B6" fill-rule="nonzero" cx="145.553" cy="138.369" r="15.302"></circle>
            <path d="M165.336,157.361 C165.393,157.936 166.485,159.125 167.968,160.533 C171.22,163.625 176.329,167.653 176.329,167.653 C176.329,167.653 186.356,176.795 187.247,177.06 C188.138,177.325 190.764,186.294 190.764,186.294 C190.764,186.294 190.149,201.154 198.234,201.769 C201.682,202.028 203.134,199.356 203.658,196.189 C204.44571,191.232549 202.995814,186.181901 199.699,182.398 L194.899,176.807 L190.589,169.067 C187.826408,164.709094 185.499521,160.08982 183.642,155.276 C181.697399,150.542402 178.827693,146.244473 175.201,142.634 C174.301,141.734 173.719,141.261 173.719,141.261 L169.697,142.491 C169.697,142.491 165.164,155.591 165.336,157.361 L165.336,157.361 Z" id="Path_149" fill="#ECB4B6" fill-rule="nonzero"></path>
            <path d="M180.724,312.297 L182.264,313.842 C184.93,316.526 190.264,321.887 191.63,323.105 C193.475,324.777 197.698,325.041 201.215,324.335 C203.015,323.979 205.237,322.249 206.927,320.657 C207.716443,319.919755 208.169812,318.891573 208.181953,317.811477 C208.193613,316.731381 207.763007,315.69346 206.99,314.939 C205.324,313.307 203.37,311.491 202.531,311.233 C200.951,310.704 196.463,307.544 194.354,304.912 C192.994259,303.445082 191.392636,302.22264 189.619,301.298 C188.102,300.442 186.878,299.898 186.878,299.898 L180.724,312.297 Z" id="Path_150" fill="#C17174" fill-rule="nonzero"></path>
            <path d="M182.896,312.296 C182.896,312.296 183.407,312.819 184.196,313.612 C186.466,315.912 190.996,320.439 192.166,321.49 C193.735,322.909 197.338,323.133 200.314,322.536 C201.932423,322.010785 203.405165,321.11344 204.614,319.916 C205.447678,319.186672 205.937689,318.141443 205.965055,317.034109 C205.99242,315.926774 205.554635,314.858618 204.758,314.089 C203.782225,313.036235 202.662071,312.127183 201.431,311.389 C198.778858,310.073767 196.415217,308.243501 194.478,306.005 C193.324349,304.756376 191.963677,303.716419 190.456,302.931 C189.169,302.201 188.129,301.742 188.129,301.742 L182.896,312.296 Z" id="Path_151" fill="#000000" fill-rule="nonzero" opacity="0.1"></path>
            <path d="M110.841,228.754 C110.841,228.754 112.048,230.116 113.513,231.713 C115.035931,233.466385 116.669253,235.12075 118.403,236.666 C119.811,237.637 124.12,244.935 124.12,244.935 C124.12,244.935 128.72,252.497 134.762,252.848 C140.804,253.199 140.83,246.165 140.388,245.728 C139.946,245.291 139.336,241.328 138.457,238.428 C137.79,236.228 132.337,231.015 129.728,228.608 C128.889,227.832 128.343,227.35 128.343,227.35 L110.841,228.754 Z" id="Path_152" fill="#C17174" fill-rule="nonzero"></path>
            <path d="M112.134,229.763 C112.134,229.763 113.226,231.004 114.565,232.463 C115.956108,234.059786 117.445325,235.568373 119.024,236.98 C120.311,237.865 124.236,244.519 124.236,244.519 C124.236,244.519 128.408,251.419 133.941,251.73 C139.474,252.041 139.469,245.639 139.072,245.237 C138.675,244.835 138.107,241.215 137.308,238.583 C136.699,236.583 131.728,231.825 129.349,229.63 C128.585,228.923 128.085,228.481 128.085,228.481 L112.134,229.763 Z" id="Path_153" fill="#000000" fill-rule="nonzero" opacity="0.1"></path>
            <path d="M110.841,228.754 C110.841,228.754 112.048,230.116 113.513,231.713 C121.236,232.862 124.827,231.569 124.827,231.569 C126.255739,230.91656 127.725528,230.35804 129.227,229.897 C129.427,229.897 129.572,229.374 129.733,228.604 C128.894,227.828 128.348,227.346 128.348,227.346 L110.841,228.754 Z" id="Path_154" fill="#000000" fill-rule="nonzero" opacity="0.1"></path>
            <path d="M120.144,208.002 C117.752928,209.972933 115.219721,211.764795 112.565,213.363 C109.824,214.777 108.359,219.42 108.359,219.42 C108.359,219.42 104.227,229.447 112.577,230.849 C120.927,232.251 124.805,230.849 124.805,230.849 C126.234015,230.198906 127.703781,229.642399 129.205,229.183 C129.998,229.097 129.992,221.529 132.894,219.242 C135.796,216.955 142.479,211.772 142.479,211.772 L120.144,208.002 Z" id="Path_155" fill="#5E5A6B" fill-rule="nonzero"></path>
            <path d="M120.144,208.002 C117.752928,209.972933 115.219721,211.764795 112.565,213.363 C109.824,214.777 108.359,219.42 108.359,219.42 C108.359,219.42 104.227,229.447 112.577,230.849 C120.927,232.251 124.805,230.849 124.805,230.849 C126.234015,230.198906 127.703781,229.642399 129.205,229.183 C129.998,229.097 129.992,221.529 132.894,219.242 C135.796,216.955 142.479,211.772 142.479,211.772 L120.144,208.002 Z" id="Path_156" fill="#000000" fill-rule="nonzero" opacity="0.1"></path>
            <path d="M165.328,195.952 C165.328,195.952 168.776,200.647 167.707,201.773 C166.590904,202.723397 165.349657,203.516126 164.018,204.129 C164.018,204.129 162.432,212.484 159.881,216.001 C157.651853,218.743929 155.116763,221.223325 152.325,223.391 L155.836,203.779 L165.328,195.952 Z" id="Path_157" fill="#5E5A6B" fill-rule="nonzero"></path>
            <path d="M152.333,223.392 C153.897745,222.156099 155.397736,220.840353 156.827,219.45 C157.938477,218.386104 158.960899,217.232911 159.884,216.002 C162.435,212.485 164.021,204.13 164.021,204.13 C165.354912,203.521263 166.596709,202.728182 167.71,201.774 C168.354,201.09 167.336,199.096 166.44,197.631 C165.865,196.677 165.34,195.953 165.34,195.953 L160.358,200.053 L155.841,203.776 L154.514,211.376 L152.333,223.392 Z" id="Path_158" fill="#000000" fill-rule="nonzero" opacity="0.1"></path>
            <path d="M180.725,312.296 L182.265,313.842 C183.236,313.842 184.684,313.963 184.684,313.963 C184.684,313.963 191.804,305.43 190.66,303.936 C190.142488,303.129992 189.789073,302.229805 189.62,301.287 C188.103,300.431 186.879,299.887 186.879,299.887 L180.725,312.296 Z" id="Path_159" fill="#000000" fill-rule="nonzero" opacity="0.1"></path>
            <path d="M126.384,222.247 C126.384,223.741 138.342,242.031 138.342,242.031 C138.342,242.031 143.002,249.944 144.06,250.65 C145.118,251.356 148.542,256.89 148.542,256.89 C148.542,256.89 152.852,266.825 153.559,267.883 C154.266,268.941 155.49,274.204 155.49,274.204 C155.49,274.204 157.955,281.504 159.099,282.467 C160.243,283.43 160.857,286.955 160.857,286.955 C160.857,286.955 164.457,292.23 165.075,293.109 C165.79653,294.387963 166.442958,295.707865 167.011,297.062 C167.011,297.062 168.948,300.228 168.948,301.462 C168.948,302.696 172.97,304.801 172.97,304.801 C172.97,304.801 175.843,308.249 177.538,308.823 C179.233,309.397 180.796,313.483 181.055,313.223 C181.314,312.963 184.313,313.223 184.313,313.223 C184.313,313.223 191.433,304.696 190.289,303.202 C189.145,301.708 188.881,298.186 188.881,298.186 C188.881,298.186 191.754,291.595 190.203,291.245 C188.652,290.895 182.67,280.459 182.67,280.459 C182.584,272.546 175.37,265.859 175.37,265.859 C175.37,265.859 171.761,257.24 170.71,255.395 C170.066933,254.43763 170.066933,253.18637 170.71,252.229 C169.807919,251.55725 169.007649,250.758664 168.334,249.858 C167.984,249.065 166.311,243.089 166.311,243.089 C166.311,243.089 164.288,239.48 164.196,237.808 C164.104,236.136 160.174,231.487 160.174,231.487 C160.174,231.487 158.574,223.655 156.818,222.247 C156.473,221.971 156.531,220.947 156.818,219.447 C157.628,215.511 160.208,208.397 161.99,203.737 C163.007,201.071 163.76,199.203 163.76,199.203 L160.36,200.053 L131.399,207.293 C131.399,207.293 129.83,211.505 128.451,215.476 C127.59177,217.677483 126.900787,219.940978 126.384,222.247 L126.384,222.247 Z" id="Path_160" fill="#5E5A6B" fill-rule="nonzero"></path>
            <path d="M182.575,294.265 C182.575,294.265 191.631,290.748 187.175,295.231 C182.719,299.714 174.165,299.454 174.165,299.454 L182.575,294.265 Z" id="Path_161" fill="#000000" fill-rule="nonzero" opacity="0.1"></path>
            <path d="M167.095,276.308 C167.095,276.308 161.995,279.124 162.963,281.847 C163.931,284.57 167.095,276.308 167.095,276.308 Z" id="Path_162" fill="#000000" fill-rule="nonzero" opacity="0.1"></path>
            <path d="M161.982,254.518 C160.976264,256.318458 159.022583,257.377659 156.965,257.238 C153.293,257.155 161.982,254.518 161.982,254.518 Z" id="Path_163" fill="#000000" fill-rule="nonzero" opacity="0.1"></path>
            <path d="M114.166,215.398 C114.166,215.398 116.102,221.38 114.166,221.817 C112.23,222.254 114.166,215.398 114.166,215.398 Z" id="Path_164" fill="#000000" fill-rule="nonzero" opacity="0.1"></path>
            <path d="M165.336,157.36 C165.394,157.935 166.485,159.124 167.968,160.532 C168.807,157.832 169.589,155.36 169.117,154.544 C168.417,153.314 171.163,150.677 170.669,148.918 C170.29,147.573 173.6,144.166 175.174,142.643 C174.274,141.743 173.692,141.27 173.692,141.27 L169.67,142.5 C169.67,142.5 165.164,155.591 165.336,157.36 L165.336,157.36 Z" id="Path_165" fill="#000000" fill-rule="nonzero" opacity="0.1"></path>
            <path d="M128.447,215.478 C131.786,215.294 139.572,212.878 139.572,212.878 C144.579924,212.709078 149.571003,212.206295 154.512,211.373 C157.385,210.798 159.477,209.973 159.477,208.891 C159.477,207.437 160.666,205.491 162.017,203.719 C162.940336,202.549714 163.926453,201.431403 164.971,200.369 C165.519939,199.8065 165.93789,199.129721 166.195,198.387 C166.275,198.151 166.373,197.887 166.471,197.611 C165.896,196.657 165.371,195.933 165.371,195.933 L160.389,200.033 L131.428,207.273 C131.428,207.273 129.807,211.505 128.447,215.478 L128.447,215.478 Z" id="Path_166" fill="#000000" fill-rule="nonzero" opacity="0.1"></path>
            <path d="M118.818,209.761 C118.818,209.761 125.318,213.628 127.259,214.329 C129.2,215.03 139.568,211.824 139.568,211.824 C139.568,211.824 159.444,211.169 159.444,207.802 C159.444,205.222 163.213,201.073 164.937,199.315 C165.487267,198.751216 165.905347,198.072176 166.161,197.327 C166.761,195.603 167.983,192.403 169.115,191.27 C170.701,189.69 168.236,181.249 168.236,181.249 C168.236,181.249 167.707,175.267 167.006,173.509 C166.305,171.751 167.006,171.492 166.431,169.992 C165.753,168.308 165.282,168.406 166.138,164.539 C166.994,160.672 169.126,155.747 168.438,154.512 C167.75,153.277 170.484,150.645 169.989,148.887 C169.494,147.129 175.289,141.854 175.289,141.854 C175.289,141.854 174.565,136.102 174.042,135.366 C173.519,134.63 171.583,130.62 171.583,129.74 C171.583,128.86 170.348,128.683 169.646,127.631 C168.944,126.579 160.826,154.891 160.826,154.891 L148.994,157.557 L148.339,157.701 C148.339,157.701 141.61,158.017 137.239,155.592 C137.239,155.592 129.694,154.362 127.229,141.876 C125.343849,142.349462 123.511246,143.011813 121.759,143.853 C119.903798,144.657235 118.27843,145.911405 117.03,147.502 C115.324078,149.933326 113.180587,152.025951 110.709,153.673 C109.949265,155.561482 109.302785,157.493576 108.773,159.459 C108.25,161.759 107.721,165.441 106.135,167.377 C104.549,169.313 103.835,175.111 103.835,175.111 L119.689,189.54 C119.689,189.54 119.338,193.235 118.459,193.057 C117.58,192.879 118.818,209.761 118.818,209.761 L118.818,209.761 Z" id="Path_167" fill="#464353" fill-rule="nonzero"></path>
            <path d="M121.793,144.552 L130.251,162.187 C130.251,162.187 133.768,164.487 135.003,163.239 C136.238,161.991 140.893,162.009 140.893,162.009 L141.508,163.239 L150.42,161.139 L149.02,158.266 L148.365,158.415 C148.365,158.415 141.636,158.731 137.265,156.306 C137.265,156.306 129.72,155.071 127.255,142.584 C125.372914,143.055074 123.543023,143.714397 121.793,144.552 L121.793,144.552 Z" id="Path_168" fill="#000000" fill-rule="nonzero" opacity="0.1"></path>
            <path d="M121.793,143.852 L130.251,161.481 C130.251,161.481 133.768,163.781 135.003,162.538 C136.238,161.295 140.893,161.308 140.893,161.308 L141.508,162.538 L150.42,160.429 L149.02,157.556 L148.365,157.7 C148.365,157.7 141.636,158.016 137.265,155.591 C137.265,155.591 129.72,154.361 127.255,141.875 C125.372581,142.348968 123.542681,143.01131 121.793,143.852 L121.793,143.852 Z" id="Path_169" fill="#464353" fill-rule="nonzero"></path>
            <path d="M125.505,195.16 C125.505,195.16 144.169,201.033 145.554,201.774 C146.939,202.515 125.591,197.18 125.505,195.16 Z" id="Path_170" fill="#000000" fill-rule="nonzero" opacity="0.1"></path>
            <path d="M137.273,204.13 C137.273,204.13 132.366,206.859 130.607,205.888 C128.848,204.917 137.273,204.13 137.273,204.13 Z" id="Path_171" fill="#000000" fill-rule="nonzero" opacity="0.1"></path>
            <path d="M152.678,171.514 C152.678,171.514 157.401,196.746 150.42,204.13 L152.678,171.514 Z" id="Path_172" fill="#000000" fill-rule="nonzero" opacity="0.1"></path>
            <path d="M160.442,133.525 C162.248952,131.577639 162.330275,128.59183 160.632,126.549 C159.94697,125.935198 159.309164,125.27065 158.724,124.561 C158.467962,124.020507 158.155921,123.50837 157.793,123.033 C156.885,122.102 155.357,122.349 154.11,121.97 C152.956572,121.495675 151.925225,120.766861 151.093,119.838 C149.608037,118.485149 147.957141,117.326531 146.18,116.39 C144.400276,115.31895 142.323741,114.847488 140.256,115.045 C138.664,115.309 137.245,116.194 135.688,116.637 C133.481,117.263 130.763,117.137 129.367,118.964 C128.706,119.832 128.517,120.987 127.89,121.889 C127.005,123.165 125.379,123.762 124.442,125.021 C123.413,126.44 123.523,128.388 123.965,130.083 C124.383397,131.138876 124.537199,132.28106 124.413,133.41 C124.287,133.95 124.005,134.45 123.896,134.996 C123.609,136.421 124.528,137.771 125.143,139.096 C125.804798,140.526122 126.1311,142.088544 126.097,143.664 C126.054,144.017288 126.103624,144.375687 126.241,144.704 C126.416292,144.96841 126.657583,145.18247 126.941,145.325 L129.584,146.991 C129.708434,147.079178 129.849164,147.141725 129.998,147.175 C130.515,147.255 130.831,146.664 131.147,146.267 C132.032,145.21 133.716,145.29 134.962,145.888 C136.208,146.486 137.232,147.468 138.484,148.037 C141.42,149.376 144.805,148.186 147.984,147.572 C149.071994,147.415261 150.145973,147.173181 151.196,146.848 C152.185978,146.446437 153.130041,145.939874 154.012,145.337 C154.906623,144.833482 155.718731,144.195735 156.42,143.446 C157.191603,142.60762 157.491961,141.438476 157.22,140.332 C156.961,139.407 156.134,138.574 156.301,137.545 C156.626,135.76 159.287,134.697 160.442,133.525 L160.442,133.525 Z" id="Path_173" fill="#000000" fill-rule="nonzero" opacity="0.1"></path>
            <path d="M160.442,132.825 C162.250261,130.875842 162.331579,127.887616 160.632,125.843 C159.947049,125.231269 159.309238,124.568722 158.724,123.861 C158.466747,123.31928 158.154792,122.805275 157.793,122.327 C156.885,121.402 155.357,121.649 154.11,121.27 C152.956224,120.793511 151.924917,120.062674 151.093,119.132 C149.609715,117.777055 147.958539,116.618241 146.18,115.684 C144.400276,114.61295 142.323741,114.141488 140.256,114.339 C138.664,114.603 137.245,115.488 135.688,115.931 C133.481,116.557 130.763,116.425 129.367,118.231 C128.706,119.104 128.517,120.259 127.89,121.162 C127.005,122.438 125.379,123.035 124.442,124.294 C123.413,125.713 123.523,127.661 123.965,129.356 C124.383753,130.411783 124.537567,131.554056 124.413,132.683 C124.287,133.223 124.005,133.723 123.896,134.269 C123.609,135.694 124.528,137.044 125.143,138.36 C125.825203,139.808732 126.161705,141.396079 126.126,142.997 C126.083049,143.35225 126.132653,143.712571 126.27,144.043 C126.448579,144.304535 126.689046,144.517864 126.97,144.664 L129.613,146.325 C129.736951,146.415304 129.877712,146.479905 130.027,146.515 C130.544,146.59 130.86,146.004 131.176,145.601 C132.061,144.544 133.745,144.63 134.992,145.222 C136.239,145.814 137.262,146.802 138.514,147.371 C141.45,148.71 144.835,147.52 148.014,146.911 C149.101637,146.749509 150.175404,146.505471 151.226,146.181 C152.215746,145.781394 153.159806,145.276845 154.042,144.676 C154.937068,144.169477 155.749172,143.528697 156.45,142.776 C157.22238,141.940061 157.522962,140.771924 157.25,139.667 C156.991,138.736 156.164,137.903 156.331,136.88 C156.626,135.054 159.287,133.991 160.442,132.825 L160.442,132.825 Z" id="Path_174" fill="#464353" fill-rule="nonzero"></path>
            <path d="M100.447,193.315 C100.355,195.688 102.378,198.854 102.378,198.854 C102.993,200.348 110.555,207.295 110.555,207.295 L116.539,211.318 C116.539,211.318 124.539,216.242 126.439,217.118 C127.387,217.561 128.404,219.418 129.191,221.232 C129.978,223.046 130.524,224.68 130.524,224.68 C134.089027,224.156569 136.84257,221.277772 137.207,217.693 C137.431,215.429 137.58,213.393 137.385,213.355 C136.943,213.269 132.018,209.574 132.018,209.574 C132.018,209.574 126.306,205.879 124.456,202.19 C122.606,198.501 115.4,192.87 115.4,192.87 L115.515,192.657 L115.929,191.898 L116.808,188.998 L103.017,182.844 C103.017,182.844 102.678,183.964 102.241,185.499 C101.431175,188.051138 100.83118,190.665164 100.447,193.315 L100.447,193.315 Z" id="Path_175" fill="#ECB4B6" fill-rule="nonzero"></path>
            <path d="M102.226,185.518 C104.831872,188.083576 107.61835,190.459 110.564,192.626 C111.42,193.126 114.42,192.816 115.517,192.678 L115.931,191.92 L116.81,189.02 L103.019,182.866 C103.019,182.866 102.657,183.972 102.226,185.518 L102.226,185.518 Z" id="Path_176" fill="#000000" fill-rule="nonzero" opacity="0.1"></path>
            <path d="M115.925,174.846 C115.925,174.846 122.958,179.069 122.608,180.914 C122.258,182.759 119.275,189.137 119.275,189.137 L115.925,191.907 C115.925,191.907 111.615,192.522 110.558,191.907 C109.501,191.292 102.031,185.138 101.766,184.173 C101.633583,182.534004 101.633583,180.886996 101.766,179.248 C101.766,178.548 103.875,175.111 103.875,175.111 L106.955,169.664 L115.925,174.846 Z" id="Path_177" fill="#464353" fill-rule="nonzero"></path>
            <polygon id="Path_178" fill="#000000" fill-rule="nonzero" opacity="0.1" points="139.572 212.864 141.641 218.421 138.153 221.721 137.992 222.715 130.252 227.168 127.793 220.956"></polygon>
            <polygon id="Path_179" fill="#5E5A6B" fill-rule="nonzero" points="139.572 212.513 141.641 218.064 138.153 221.364 137.992 222.358 130.252 226.811 127.793 220.599"></polygon>
            <g id="Group_302" opacity="0.1" transform="translate(122.682000, 126.423000)" fill="#000000" fill-rule="nonzero">
                <path d="M33.772,10.022 C33.6500614,9.70576339 33.6104896,9.36372518 33.657,9.028 C33.944,7.228 36.605,6.155 37.757,5.006 C38.5104762,4.22132553 38.9884903,3.21300354 39.119,2.133 C39.3426311,3.69888253 38.8413717,5.28141976 37.757,6.433 C36.697,7.476 34.364,8.462 33.772,10.022 Z" id="Path_180"></path>
                <path d="M1.277,7.769 C1.58223881,8.74204976 1.98845023,9.68049198 2.489,10.569 C3.15289716,11.9986231 3.48125825,13.5610746 3.449,15.137 C3.4035573,15.4917342 3.45111251,15.8521889 3.587,16.183 C3.76520043,16.4448679 4.00576061,16.6582791 4.287,16.804 L6.93,18.465 C7.05408921,18.5582163 7.19711793,18.6230742 7.349,18.655 C7.86,18.73 8.176,18.144 8.498,17.747 C9.383,16.69 11.072,16.77 12.313,17.362 C13.554,17.954 14.583,18.942 15.836,19.517 C18.778,20.85 22.157,19.666 25.336,19.051 C26.4241504,18.8922578 27.4981291,18.6481717 28.548,18.321 C29.5384262,17.9224408 30.4826304,17.4174793 31.364,16.815 C32.2608826,16.3089679 33.0747072,15.6681612 33.777,14.915 C34.170953,14.4562521 34.4505925,13.9106808 34.593,13.323 C34.8185305,14.3960152 34.5149673,15.5120562 33.777,16.323 C33.07311,17.0744228 32.2595674,17.7150075 31.364,18.223 C30.4826099,18.8251728 29.5384028,19.3298005 28.548,19.728 C27.4973984,20.0524487 26.4236323,20.2964865 25.336,20.458 C22.164,21.067 18.78,22.258 15.836,20.918 C14.583,20.343 13.536,19.367 12.313,18.769 C11.09,18.171 9.382,18.091 8.498,19.148 C8.165,19.548 7.849,20.136 7.349,20.062 C7.19795242,20.0275619 7.05542921,19.9629333 6.93,19.872 L4.287,18.211 C4.00823324,18.0617054 3.76845397,17.8489869 3.587,17.59 C3.45160127,17.2590588 3.40406307,16.8987331 3.449,16.544 C3.48122287,14.9680779 3.15286345,13.4056343 2.489,11.976 C1.874,10.66 0.955,9.31 1.242,7.885 C1.25124296,7.84564309 1.26293233,7.80690118 1.277,7.769 L1.277,7.769 Z" id="Path_181"></path>
                <path d="M1.317,1.569 C1.71702663,2.60564646 1.87438075,3.72012414 1.777,4.827 C1.677,4.206 1.477,3.586 1.317,2.977 C1.0418601,2.01023141 0.944615001,1.00152527 1.03,-5.68434189e-14 C1.08122231,0.530161422 1.17723174,1.05503532 1.317,1.569 L1.317,1.569 Z" id="Path_182"></path>
            </g>
           
        </g>
    </g>
</svg>
