<?xml version="1.0" standalone="no"?>
<!DOCTYPE svg PUBLIC "-//W3C//DTD SVG 20010904//EN"
 "http://www.w3.org/TR/2001/REC-SVG-20010904/DTD/svg10.dtd">
<svg version="1.0" xmlns="http://www.w3.org/2000/svg"
 width="400.000000pt" height="400.000000pt" viewBox="0 0 400.000000 400.000000"
 preserveAspectRatio="xMidYMid meet">
<metadata>
Created by potrace 1.11, written by Peter Selinger 2001-2013
</metadata>
<g transform="translate(0.000000,400.000000) scale(0.100000,-0.100000)"
fill="#000000" stroke="none">
<path d="M0 2000 l0 -2000 2000 0 2000 0 0 2000 0 2000 -2000 0 -2000 0 0
-2000z m2500 1100 c0 -214 4 -390 8 -390 4 0 12 4 18 8 13 12 87 38 160 56 89
23 261 22 354 -2 196 -50 374 -184 476 -358 74 -127 104 -238 104 -385 -1
-542 -530 -907 -1039 -718 -184 68 -357 235 -430 414 -63 155 -61 125 -61 983
l0 782 205 0 205 0 0 -390z m-670 -755 c4 -392 9 -590 17 -610 6 -16 21 -61
33 -100 75 -231 260 -437 492 -548 38 -18 68 -35 68 -38 0 -10 -180 -322 -193
-336 -27 -28 -272 126 -409 258 l-69 65 -33 -40 c-143 -173 -307 -266 -526
-297 -145 -20 -331 21 -474 105 -279 164 -431 513 -356 823 65 271 253 480
511 567 124 42 326 45 449 7 36 -12 67 -21 70 -21 3 0 4 163 2 362 -1 199 0
368 3 375 3 11 48 13 207 11 l203 -3 5 -580z"/>
<path d="M2713 2355 c-236 -109 -286 -419 -96 -597 15 -15 53 -39 83 -55 49
-25 65 -28 155 -28 90 0 105 3 157 29 69 35 128 94 165 166 25 49 28 65 28
155 0 89 -3 106 -27 156 -38 76 -96 134 -171 169 -54 26 -73 30 -152 30 -74 0
-99 -4 -142 -25z"/>
<path d="M1029 1807 c-186 -53 -294 -244 -245 -434 36 -141 136 -232 292 -264
152 -31 326 72 387 229 11 28 17 72 17 128 0 75 -4 94 -30 148 -59 124 -164
195 -298 202 -45 2 -96 -1 -123 -9z"/>
</g>
</svg>
