<svg xmlns="http://www.w3.org/2000/svg" xmlns:xlink="http://www.w3.org/1999/xlink" width="639.023" height="604.797" viewBox="0 0 639.023 604.797">
    <defs>
        <style>
            .cls-1,.cls-4{fill:#f5f5f5}.cls-2,.cls-20,.cls-21,.cls-22,.cls-5{fill:#6c63ff}.cls-3{fill:none;stroke:#535461;stroke-miterlimit:10;stroke-width:2px}.cls-4{opacity:.2}.cls-5{opacity:.128}.cls-20,.cls-6{opacity:.5}.cls-7{fill:url(#linear-gradient)}.cls-8{fill:#5a5773}.cls-9{fill:#605d82}.cls-10,.cls-11{opacity:.1}.cls-12{fill:#a1616a}.cls-13{fill:#e1e7ef}.cls-14{fill:#67647e}.cls-15{fill:#4a4347}.cls-16{fill:url(#linear-gradient-2)}.cls-17{fill:#fff}.cls-18{fill:#e0e0e0}.cls-19{opacity:.05}.cls-21{opacity:.4}.cls-22{opacity:.3}
        </style>
        <linearGradient id="linear-gradient" x2=".999" y1=".5" y2=".5" gradientUnits="objectBoundingBox">
            <stop offset="0" stop-color="gray" stop-opacity=".251"/>
            <stop offset=".54" stop-color="gray" stop-opacity=".122"/>
            <stop offset="1" stop-color="gray" stop-opacity=".102"/>
        </linearGradient>
        <linearGradient id="linear-gradient-2" x1=".5" x2=".5" y1="1" xlink:href="#linear-gradient"/>
    </defs>
    <g id="Group_625" data-name="Group 625" transform="translate(5.219 18.059)">
        <ellipse id="Ellipse_258" cx="238.466" cy="68.133" class="cls-1" data-name="Ellipse 258" rx="238.466" ry="68.133" transform="translate(129.346 414.476)"/>
        <path id="Path_1626" d="M941.856 324.92s-42.242 42.242-18.4 104.925-40.88 166.926-40.88 166.926.681-.1 1.982-.327c86.761-15.316 129.868-114.545 81.624-188.259-17.908-27.403-32.659-59.555-24.326-83.265z" class="cls-2" data-name="Path 1626" transform="translate(-383.499 -107.355)"/>
        <path id="Path_1627" d="M941.856 324.92s-23.847 51.781 0 94.024 4.088 160.794-59.276 177.827" class="cls-3" data-name="Path 1627" transform="translate(-383.499 -107.355)"/>
        <path id="Path_1628" d="M1012.06 575.443s-48.2-7.678-52.6 35.525-92.66 49.185-92.66 49.185.573.395 1.656 1.1c72.9 47.857 142.6 30.483 132.1-33.065-3.935-23.618-3.622-47.349 11.504-52.745z" class="cls-2" data-name="Path 1628" transform="translate(-378.47 -187.021)"/>
        <path id="Path_1629" d="M1012.06 575.443s-48.2-7.678-52.6 35.525-92.66 49.185-92.66 49.185.573.395 1.656 1.1c72.9 47.857 142.6 30.483 132.1-33.065-3.935-23.618-3.622-47.349 11.504-52.745z" class="cls-4" data-name="Path 1629" transform="translate(-378.47 -187.021)"/>
        <path id="Path_1630" d="M1012.047 575.69s-37.419 8.217-34.346 42.243-55.59 74.8-110.941 42.454" class="cls-3" data-name="Path 1630" transform="translate(-378.457 -187.268)"/>
        <path id="Path_1631" d="M260.833 86.151c-7.5-.251-15.181 0-22.213 2.532-19.134 6.885-28.2 29.409-25.255 48.917s15.079 36.447 27.664 51.969 26.223 30.846 33.125 49.375c3.442 9.255 5.051 19.624 1.553 28.862-5.4 14.247-21.665 22.21-37.283 23.861s-31.3-1.571-46.975-2.693c-6.577-.449-13.339-.5-19.534 1.58-6.8 2.271-12.465 6.9-17.674 11.733-20.325 18.942-36.594 44.8-33.962 71.943 2.977 30.774 29.525 55.1 58.6 68.146 9.628 4.327 19.813 7.828 28.288 14 22.325 16.285 27.339 46.8 25.116 73.739s-9.8 53.908-5.581 80.615c4.958 31.061 26.9 59.115 56.5 72.222 26.371 11.67 59.375 10.943 82.788-5.566 11.414-8.079 20.046-19.22 27.553-30.774a261.618 261.618 0 0 0 27.395-55.551c3.265-9.255 6.335-19.211 13.953-25.648 4.651-3.959 10.679-6.176 16.641-7.9 17.972-5.189 36.9-6.616 55.04-11.23s36.39-13.215 46.25-28.592c13.953-21.824 7.442-49.734 7.507-75.409.112-58.5 36.38-110.868 49.766-167.874 4.372-18.637 6-39.257-3.767-55.874-6.641-11.338-17.832-19.418-29.6-25.7-25.859-13.861-55.254-20.028-84.174-26.034-40.194-8.331-89-9.408-120.155-36.358-29.893-25.852-70.799-44.291-111.566-44.291z" class="cls-5" data-name="Path 1631" transform="translate(-125.218 -104.134)"/>
        <g id="Group_622" class="cls-6" data-name="Group 622" transform="translate(87.299 75.851)">
            <path id="Path_1632" d="M363.363 267.8a102.556 102.556 0 0 0-4.962-31.5l-8.181-25.367v-1.254c.252-16.25-12.414-24.358-17.292-23.479-4.994.9-18.852-6.05-18.852-6.05v.191a25.954 25.954 0 0 1-2.562-3.5 22.225 22.225 0 0 0 4.572-31.464 9.764 9.764 0 0 0 3.291-4.415c1.131-3.182.266-6.813-1.574-9.648a18.7 18.7 0 0 0-2.725-3.25 34.508 34.508 0 0 0-5.083-4.156c-4.544-3.148-9.539-5.853-14.989-6.813a6.241 6.241 0 0 0-2.868 0 11.89 11.89 0 0 0-2.323 1.254c-3.734 2.126-8.38 1.206-12.686.981s-9.539.981-10.9 5.021a36.88 36.88 0 0 0-.681 3.877c-.681 3.134-3.1 5.566-4.967 8.176s-3.264 6.132-1.71 8.966c.531.954 1.363 1.833 1.363 2.923a8.368 8.368 0 0 1-.681 2.235 4.727 4.727 0 0 0 1.778 4.64 7.557 7.557 0 0 0 2.044 1.56c2.16 1.1 4.647 1.444 6.847 2.466a11.249 11.249 0 0 1 2.984 2.044 11.732 11.732 0 0 1 3.243 8.469l.456.048v.4c.477.054.981.1 1.478.123a22.478 22.478 0 0 0 2.446 3.25q-.232.872-.525 1.772c-1.6 1.111-14.7 9.832-29.59 7.733-15.9-2.242-24.984 67.254-24.984 67.254a79.482 79.482 0 0 0-.858 12.005c-.068 10.22 2.078 23.594 14.035 21.625l6.357-2.092V316.2s.906 9.416-2.269 15.671 10 4.033 10 4.033.5.525 1.431 1.417l-.293.825.388.4a90.141 90.141 0 0 1-6.97 17.095l.375.191c-.238.457-.375.681-.375.681s4.892 2.5 11.623 5.723c5.41 18.287 17.251 60.638 13.354 68.705l.109.232c.729 1.513 4.8 10.431 3.979 18.6-.743 7.3 9.368 40.491 13.143 52.544l-1.785.361 6.357 22.866-1.363 14.8s-7.719 20.624 10.445 16.59 13.17-20.624 13.17-20.624l.456-33.63s-1.751-.974-3.911-1.908c-1.485-4.013-4.721-13.5-4.721-20.058 0-8.517-5.907-45.288-5.907-45.288v-.259l-.034-.491v-.082c0-.457-.075-1.083-.129-1.846v-.048c-.681-9.941-2.725-43.714-1.233-61.32a39.345 39.345 0 0 1 4.088-2.439c4.422 11.174 15.821 41.364 15.091 54.03-.906 15.671-.225 3.366 0 1.363.068-.62.116.13.136 1.812v6.629c0 1.363 0 2.875-.048 4.449v.954c0 .961 0 1.942-.048 2.937 0 1.363-.054 2.684-.082 4.054a599.518 599.518 0 0 1-.266 9.069q0 .484-.034.961-.034.954-.075 1.867t-.082 1.785q-.041.865-.089 1.683c-.034.64-.075 1.254-.109 1.84l-2.466-.354-.525 5.669A61.635 61.635 0 0 0 320 494.256c.845 2.33 1.5 4.258 1.642 4.946.457 2.242 0 18.4 0 18.4s2.725 21.073 15.446 17.033c5.723-1.819 8.5-7.352 9.831-12.9a31.982 31.982 0 0 0-1.574-19.261c-1.806-4.538-3.652-10.9-2.351-15.82 2.269-8.517 2.269-20.624 2.269-20.624l-1.4-.2a22.374 22.374 0 0 0 .947-2.044s-.456-30.939 3.631-34.973c2.248-2.221 2.044-7.556 1.363-11.917a81.532 81.532 0 0 1-.681-19.077 30.318 30.318 0 0 1 1.152-7.147c1.2-2.371 2.4-26.272-2.909-37.773l1.09-.341-.17-.845.17-.054a66.752 66.752 0 0 0 2.725 6.275 2.494 2.494 0 0 0 .906.45c14.71-2.582 15.3-16.311 14.485-23.806.62.3.961.491.961.491l1.363-19.759a28.563 28.563 0 0 0 1.881-11.535c.054-15.56-7.414-35.975-7.414-35.975zm-16.216 56.162c-1.008-8.605-2.405-16.706-2.405-16.706l-6.813-24.214v-8.816l10.806 40.335z" class="cls-7" data-name="Path 1632" transform="translate(-224.868 -116.925)"/>
        </g>
        <path id="Path_1633" d="M359.028 614.93l-.5 5.539a60.957 60.957 0 0 0 3.3 25.993c.811 2.283 1.444 4.163 1.581 4.837.436 2.194 0 17.967 0 17.967s2.63 20.6 14.9 16.652c5.519-1.771 8.176-7.188 9.484-12.6a31.64 31.64 0 0 0-1.526-18.818c-1.744-4.436-3.529-10.669-2.269-15.46 2.194-8.326 2.194-20.154 2.194-20.154z" class="cls-8" data-name="Path 1633" transform="translate(-180.082 -199.773)"/>
        <path id="Path_1634" d="M340.09 468.187s17.088 41.629 16.209 56.959-.218 3.284 0 1.315c.388-3.509 0 38.154-1.315 42.924 0 0 17.967 13.143 24.977-4.381 0 0-.436-30.231 3.5-34.175 2.167-2.167 1.956-7.386 1.315-11.644a80.7 80.7 0 0 1-.681-18.621c.266-3.2.634-6.023 1.111-6.984 1.315-2.63 2.63-32.424-5.26-40.75z" class="cls-9" data-name="Path 1634" transform="translate(-174.286 -148.116)"/>
        <path id="Path_1635" d="M357.181 569.424c1.315-4.817 1.7-46.453 1.315-42.924-.218 1.969-.879 14.022 0-1.315s-16.209-56.959-16.209-56.959l38.229-14.7a10.173 10.173 0 0 0-.545-.634L340.1 468.227s17.088 41.629 16.209 56.959-.218 3.284 0 1.315c.388-3.509 0 38.154-1.315 42.924 0 0 7.174 5.247 14.226 4.688-6.275-.471-12.039-4.689-12.039-4.689z" class="cls-10" data-name="Path 1635" transform="translate(-174.289 -148.135)"/>
        <path id="Path_1636" d="M318.22 671.8l6.132 22.347-1.315 14.453s-7.447 20.154 10.077 16.209 12.707-20.153 12.707-20.153l.436-32.861s-7.011-3.945-10.077-3.5-17.96 3.505-17.96 3.505z" class="cls-8" data-name="Path 1636" transform="translate(-167.317 -216.767)"/>
        <path id="Path_1637" d="M273.85 459.94s20.15 65.285 15.337 75.36c0 0 4.817 9.641 3.945 18.4s14.022 55.644 14.022 55.644l21.912-3.945s-5.26-13.143-5.26-21.469-5.7-44.287-5.7-44.287-4.817-65.728.879-72.739z" class="cls-9" data-name="Path 1637" transform="translate(-153.177 -150.382)"/>
        <g id="Group_623" class="cls-11" data-name="Group 623" transform="translate(120.673 309.558)">
            <path id="Path_1638" d="M336.889 478c-3.631 14.88.382 69.639.382 69.639s5.7 35.927 5.7 44.287c0 6.357 3.059 15.514 4.51 19.493l1.185-.211s-5.26-13.143-5.26-21.469-5.7-44.287-5.7-44.287-3.665-50.044-.817-67.452z" data-name="Path 1638" transform="translate(-293.454 -465.695)"/>
            <path id="Path_1639" d="M296.36 570.336l.109.225c.034-.225.068-.463.089-.681a4.847 4.847 0 0 1-.198.456z" data-name="Path 1639" transform="translate(-281.023 -494.974)"/>
            <path id="Path_1640" d="M317.993 469.056a6.455 6.455 0 0 1 .988-2.105l-45.131-7.011s.266.852.722 2.371z" data-name="Path 1640" transform="translate(-273.85 -459.94)"/>
        </g>
        <path id="Path_1641" d="M418.852 423.572s6.575 24.528-13.143 28.044a2.4 2.4 0 0 1-.879-.436s-11.392-22.348-2.63-31.11z" class="cls-12" data-name="Path 1641" transform="translate(-193.023 -137.677)"/>
        <path id="Path_1642" d="M302.377 186s1.315 18.4-13.143 27.165 30.66 32.861 30.66 32.861l23.663-37.684s-10.07 1.3-16.2-16.209z" class="cls-12" data-name="Path 1642" transform="translate(-157.169 -63.086)"/>
        <path id="Path_1643" d="M284.649 227.78s22.348 46.446 42.5 2.63l31.11 154.226s-48.2 14.9-48.633 21.912S261 388.588 261 388.588s10.513-19.282 7.89-31.11 15.759-129.698 15.759-129.698z" class="cls-10" data-name="Path 1643" transform="translate(-149.083 -76.4)"/>
        <path id="Path_1644" d="M284.649 226.49s22.348 46.446 42.5 2.63l31.11 154.233s-48.2 14.9-48.633 21.912S261 387.3 261 387.3s10.513-19.282 7.89-31.11 15.759-129.7 15.759-129.7z" class="cls-13" data-name="Path 1644" transform="translate(-149.083 -75.989)"/>
        <path id="Path_1645" d="M327.3 685.517s-5.7-12.707 7.447-12.707S345.7 684.2 345.7 684.2z" class="cls-8" data-name="Path 1645" transform="translate(-169.818 -218.217)"/>
        <path id="Path_1646" d="M371.114 636.657s-5.26-13.585 7.89-14.022 6.575 12.264 6.575 12.264z" class="cls-8" data-name="Path 1646" transform="translate(-183.841 -202.225)"/>
        <path id="Path_1647" d="M355.2 212s13.361 6.813 18.185 5.914 17.524 7.447 16.652 24.1l7.917 24.841a101.449 101.449 0 0 1 4.769 30.8s11.392 31.546 5.26 45.567l-1.315 19.282s-10.077-5.7-20.6-3.945l2.65-15.746-11.855-44.7-19.718-47.761z" class="cls-10" data-name="Path 1647" transform="translate(-179.101 -71.371)"/>
        <path id="Path_1648" d="M355.2 210.73s13.361 6.813 18.185 5.914 17.524 7.447 16.652 24.1l7.917 24.841a101.448 101.448 0 0 1 4.769 30.8s11.392 31.546 5.26 45.567l-1.315 19.282s-10.077-5.7-20.6-3.945l2.63-15.773-11.832-44.686-19.7-47.761z" class="cls-14" data-name="Path 1648" transform="translate(-179.101 -70.966)"/>
        <path id="Path_1649" d="M377.33 271.346v49.512l6.575 23.663s4.381 25.85 3.066 33.739-22.348 9.641-28.044 3.066-2.63-62.682-2.63-62.682l-1.1-82.134.879-2.63z" class="cls-10" data-name="Path 1649" transform="translate(-179.101 -78.344)"/>
        <path id="Path_1650" d="M378.65 269.357v49.512l6.575 23.663s4.381 25.85 3.066 33.739-22.348 9.641-28.043 3.066-2.63-62.683-2.63-62.683l-1.1-82.155z" class="cls-14" data-name="Path 1650" transform="translate(-179.522 -78.541)"/>
        <path id="Path_1651" d="M259.38 305.738l14.02 43.605-6.575 18.621s31.109 32.861 50.827 17.088c0 0 2.194-67.043-2.194-82.816s-25.414-68.814-25.414-68.814l-4.354-14-23.22 13.143z" class="cls-10" data-name="Path 1651" transform="translate(-148.566 -73.736)"/>
        <path id="Path_1652" d="M256.52 302.5v42.924s.879 9.2-2.194 15.337 9.641 3.945 9.641 3.945 31.109 32.86 50.827 17.088c0 0 2.194-67.043-2.194-82.816s-25.414-68.814-25.414-68.814l-4.381-14.022-23.22 13.143z" class="cls-14" data-name="Path 1652" transform="translate(-146.803 -72.69)"/>
        <path id="Path_1653" d="M282.527 204.95s-13.361 9.859-28.7 7.665-24.1 65.728-24.1 65.728-5.7 35.055 12.707 31.988l40.75-13.586s-8.762-9.2-7.447-21.033l-19.721 7.888.886-37.678z" class="cls-10" data-name="Path 1653" transform="translate(-138.853 -69.125)"/>
        <path id="Path_1654" d="M231.011 310.15s-5.7 35.054 12.707 31.988l40.75-13.586s-8.762-9.2-7.447-21.033l-19.711 7.89z" class="cls-10" data-name="Path 1654" transform="translate(-139.261 -101.81)"/>
        <path id="Path_1655" d="M297.51 308.831s13.674-17.98 23.744-9.348-20.133 24.453-20.133 24.453z" class="cls-12" data-name="Path 1655" transform="translate(-160.717 -98.502)"/>
        <path id="Path_1656" d="M282.527 203.66s-13.361 9.859-28.7 7.665-24.1 65.728-24.1 65.728-5.7 35.055 12.707 31.989l40.75-13.586s-8.762-9.2-7.447-21.033l-19.725 7.89.886-37.684 22.348-18.4z" class="cls-14" data-name="Path 1656" transform="translate(-138.853 -68.713)"/>
        <path id="Path_1657" d="M335.376 193.392L310.4 187.26s1.3 1.472-.218 7.229c4.02 4.613 8.96 10.738 15.555 10.738a21.8 21.8 0 0 0 13.1-4.34 39.4 39.4 0 0 1-3.461-7.495z" class="cls-10" data-name="Path 1657" transform="translate(-164.755 -63.487)"/>
        <circle id="Ellipse_259" cx="21.912" cy="21.912" r="21.912" class="cls-12" data-name="Ellipse 259" transform="translate(138.632 97.044)"/>
        <path id="Path_1658" d="M322.935 151.712c5.083-.865 10.67-3.121 12.373-7.985a11.077 11.077 0 0 0-1.519-9.43 25.8 25.8 0 0 0-7.093-6.813c-4.381-3.08-9.212-5.723-14.485-6.65a5.947 5.947 0 0 0-2.766 0 11.416 11.416 0 0 0-2.242 1.226c-3.6 2.078-8.087 1.179-12.264.961s-9.185.961-10.5 4.906c-.409 1.22-.381 2.535-.681 3.788-.681 3.066-2.991 5.451-4.769 8.006s-3.148 6.009-1.649 8.762c.511.933 1.363 1.792 1.363 2.855a8.856 8.856 0 0 1-.681 2.187c-.62 2.262 1.185 4.544 3.27 5.621s4.483 1.41 6.609 2.412a11.583 11.583 0 0 1 6.452 10.724c1.935.225 4.19.341 5.5-1.1.586-.647.872-1.513 1.4-2.2a14.878 14.878 0 0 1 2.616-2.153c4.585-3.768 1.329-8.973 3.924-13.034 1.363-2.092 3.529-1.451 5.723-1.417a50.569 50.569 0 0 0 9.419-.666z" class="cls-10" data-name="Path 1658" transform="translate(-154.085 -42.267)"/>
        <path id="Path_1659" d="M322.295 151.072c5.083-.865 10.67-3.12 12.373-7.985a11.077 11.077 0 0 0-1.519-9.43 25.8 25.8 0 0 0-7.093-6.813c-4.381-3.08-9.212-5.723-14.485-6.65a5.948 5.948 0 0 0-2.766 0 11.418 11.418 0 0 0-2.242 1.226c-3.6 2.078-8.087 1.179-12.264.961s-9.184.961-10.5 4.906c-.409 1.22-.382 2.535-.681 3.788-.681 3.066-2.991 5.451-4.769 8.006s-3.148 6.009-1.649 8.762c.511.933 1.363 1.792 1.363 2.855a8.863 8.863 0 0 1-.681 2.187c-.62 2.262 1.185 4.544 3.27 5.621s4.483 1.41 6.609 2.412a11.583 11.583 0 0 1 6.473 10.751c1.935.225 4.19.341 5.5-1.1.586-.647.872-1.513 1.4-2.2a14.879 14.879 0 0 1 2.616-2.153c4.585-3.768 1.329-8.973 3.924-13.034 1.363-2.092 3.529-1.451 5.723-1.417a50.565 50.565 0 0 0 9.398-.693z" class="cls-15" data-name="Path 1659" transform="translate(-153.882 -42.063)"/>
        <path id="Path_1660" d="M382.85 273.76s4.817 24.978 2.63 34.618a32.125 32.125 0 0 0 .572 16.979" class="cls-10" data-name="Path 1660" transform="translate(-187.912 -91.052)"/>
        <path id="Path_1661" d="M268.268 289.19s-2.1 16.652 1.4 20.154" class="cls-10" data-name="Path 1661" transform="translate(-151.2 -95.969)"/>
        <path id="Path_1662" d="M447.652 589.424a1.022 1.022 0 1 0-1.022-1.022 1.022 1.022 0 0 0 1.022 1.022z" data-name="Path 1662" transform="translate(-208.237 -190.993)"/>
        <g id="Group_624" class="cls-6" data-name="Group 624" transform="translate(181.495 135.726)">
            <path id="Path_1663" d="M735.726 348.446v-.565L549.832 204.937a.682.682 0 0 0-.811 0L363.12 347.881v221.568h.354v.354h372.613V348.235z" class="cls-16" data-name="Path 1663" transform="translate(-363.12 -204.804)"/>
        </g>
        <path id="Path_1664" d="M612.323 480.1H252.58V266.16l179.871-138.31 179.872 138.31z" class="cls-17" data-name="Path 1664" transform="translate(-64.64 14.094)"/>
        <path id="Path_1665" d="M605.432 473.345H271.58V274.806L438.506 146.45l166.926 128.356z" class="cls-18" data-name="Path 1665" transform="translate(-70.695 8.167)"/>
        <path id="Rectangle_746" d="M0 0h210.531v267.763H0z" class="cls-2" data-name="Rectangle 746" transform="rotate(-14.69 905.725 -753.92)"/>
        <path id="Rectangle_747" d="M0 0h210.531v267.763H0z" class="cls-1" data-name="Rectangle 747" transform="translate(263.568 191)"/>
        <path id="Path_1666" d="M255.08 331.35l179.871 106.969L255.08 545.288z" class="cls-19" data-name="Path 1666" transform="translate(-65.436 -50.755)"/>
        <path id="Path_1667" d="M253.08 331.35l179.871 106.969L253.08 545.288z" class="cls-17" data-name="Path 1667" transform="translate(-64.799 -50.755)"/>
        <path id="Path_1668" d="M694.951 331.35L515.08 438.319l179.871 106.969z" class="cls-19" data-name="Path 1668" transform="translate(-148.291 -50.755)"/>
        <path id="Path_1669" d="M696.951 331.35L517.08 438.319l179.871 106.969z" class="cls-17" data-name="Path 1669" transform="translate(-148.928 -50.755)"/>
        <path id="Path_1670" d="M253.08 574.7l179.871-140.35L612.823 574.7z" class="cls-19" data-name="Path 1670" transform="translate(-64.799 -83.578)"/>
        <path id="Path_1671" d="M253.08 579.7l179.871-140.35L612.823 579.7z" class="cls-17" data-name="Path 1671" transform="translate(-64.799 -85.172)"/>
        <path id="Path_1672" d="M425.067 709.5s-9.034-30.66 1.7-53.239a48.436 48.436 0 0 0 3.918-30.387 81.463 81.463 0 0 0-4.3-14.26" class="cls-3" data-name="Path 1672" transform="translate(-200.232 -198.715)"/>
        <path id="Path_1673" d="M432.077 587.483c0 3.761-6.813 14.656-6.813 14.656s-6.813-10.9-6.813-14.656a6.813 6.813 0 1 1 13.627 0z" class="cls-2" data-name="Path 1673" transform="translate(-199.257 -188.855)"/>
        <path id="Path_1674" d="M448.6 616.434c-2.044 3.155-13.681 8.605-13.681 8.605s.211-12.85 2.255-16a6.813 6.813 0 0 1 11.426 7.4z" class="cls-2" data-name="Path 1674" transform="translate(-204.506 -196.985)"/>
        <path id="Path_1675" d="M446.684 667.352c-3.359 1.69-16.154.525-16.154.525s6.67-10.983 10.022-12.673a6.813 6.813 0 1 1 6.132 12.155z" class="cls-2" data-name="Path 1675" transform="translate(-203.107 -212.331)"/>
        <path id="Path_1676" d="M437.394 707.176c-3.025 2.235-15.834 3.243-15.834 3.243s4.715-11.951 7.74-14.186a6.813 6.813 0 0 1 8.094 10.942z" class="cls-2" data-name="Path 1676" transform="translate(-200.248 -225.317)"/>
        <path id="Path_1677" d="M413.049 629.557c2.725 2.616 15.255 5.335 15.255 5.335s-3.073-12.475-5.771-15.091a6.813 6.813 0 0 0-9.484 9.764z" class="cls-2" data-name="Path 1677" transform="translate(-196.949 -200.78)"/>
        <path id="Path_1678" d="M401.819 675.165c3.359 1.69 16.154.525 16.154.525s-6.67-10.983-10.022-12.673a6.813 6.813 0 0 0-6.132 12.155z" class="cls-2" data-name="Path 1678" transform="translate(-192.846 -214.904)"/>
        <path id="Path_1679" d="M398.032 721.593c3.025 2.235 15.834 3.243 15.834 3.243s-4.715-11.95-7.74-14.185a6.813 6.813 0 1 0-8.094 10.943z" class="cls-2" data-name="Path 1679" transform="translate(-191.784 -229.785)"/>
        <path id="Rectangle_748" d="M0 0h84.485v6.813H0z" class="cls-20" data-name="Rectangle 748" transform="translate(275.832 203.264)"/>
        <path id="Rectangle_749" d="M0 0h182.597v6.813H0z" class="cls-20" data-name="Rectangle 749" transform="translate(275.832 230.517)"/>
        <path id="Rectangle_750" d="M0 0h182.597v6.813H0z" class="cls-20" data-name="Rectangle 750" transform="translate(275.832 248.231)"/>
        <path id="Rectangle_751" d="M0 0h182.597v6.813H0z" class="cls-21" data-name="Rectangle 751" transform="translate(275.832 265.946)"/>
        <path id="Rectangle_752" d="M0 0h182.597v6.813H0z" class="cls-21" data-name="Rectangle 752" transform="translate(275.832 283.661)"/>
        <path id="Rectangle_753" d="M0 0h104.244v6.813H0z" class="cls-22" data-name="Rectangle 753" transform="translate(275.832 301.375)"/>
        <path id="Rectangle_754" d="M0 0h142.398v6.813H0z" class="cls-22" data-name="Rectangle 754" transform="translate(275.832 319.09)"/>
    </g>
</svg>
